<?xml version="1.0" encoding="UTF-8"?>
<svg width="375px" height="20px" viewBox="0 0 375 20" version="1.1" xmlns="http://www.w3.org/2000/svg" xmlns:xlink="http://www.w3.org/1999/xlink">
    <!-- Generator: Sketch 43 (38999) - http://www.bohemiancoding.com/sketch -->
    <title>UI Bars / Status Bars / Black / Base</title>
    <desc>Created with Sketch.</desc>
    <defs></defs>
    <g id="Symbols" stroke="none" stroke-width="1" fill="none" fill-rule="evenodd">
        <g id="UI-Bars-/-Status-Bars-/-Black-/-Base" fill="#000000">
            <g id="Status-Bar-/-Black">
                <rect id="Background" fill-opacity="0" x="0" y="0" width="375" height="20"></rect>
                <g id="Charge" transform="translate(314.000000, 3.000000)">
                    <path d="M31.9958288,3 C31.7216063,3 31.5,3.2219902 31.5,3.49871095 L31.5,11.001289 C31.5,11.2755207 31.7243901,11.5 31.9958288,11.5 L52.5041712,11.5 C52.7783937,11.5 53,11.2780098 53,11.001289 L53,3.49871095 C53,3.22447929 52.7756099,3 52.5041712,3 L31.9958288,3 Z M31.9958288,2.5 L52.5041712,2.5 C53.050554,2.5 53.5,2.94713812 53.5,3.49871095 L53.5,11.001289 C53.5,11.5545373 53.0541523,12 52.5041712,12 L31.9958288,12 C31.449446,12 31,11.5528619 31,11.001289 L31,3.49871095 C31,2.9454627 31.4458477,2.5 31.9958288,2.5 Z M54,5.5 L54.75,5.5 C55.1671014,5.5 55.5,5.83232111 55.5,6.24225998 L55.5,8.25774002 C55.5,8.66440529 55.1642136,9 54.75,9 L54,9 L54,5.5 Z M32.5062585,3.5 C32.2266596,3.5 32,3.71637201 32,3.99209595 L32,10.5079041 C32,10.7796811 32.2273545,11 32.5062585,11 L40.5,11 L40.5,3.5 L32.5062585,3.5 Z" id="Battery-Icon" fill-rule="nonzero"></path>
                    <text id="58-%" font-family=".AppleSystemUIFont" font-size="12" font-weight="normal">
                        <tspan x="0" y="12">58 %</tspan>
                    </text>
                </g>
                <path d="M304.689552,14.8516256 L304.689552,11.2990817 L306.502772,13.1605569 L304.689552,14.8516256 L304.689552,14.8516256 L304.689552,14.8516256 L304.689552,14.8516256 Z M306.586007,7.84040584 L304.689552,9.638821 L304.689552,6.23165223 L306.586007,7.84040584 L306.586007,7.84040584 L306.586007,7.84040584 L306.586007,7.84040584 Z M305.1451,10.5004814 L307.95913,7.84040584 L303.760513,4 L303.66133,4 L303.66133,9.34133156 L300.811414,6.5248093 L300,7.32389099 L303.42907,10.5004814 L300,13.6765904 L300.811414,14.4756721 L303.66133,11.6591498 L303.66133,17 L303.842751,17 L308,13.1499667 L305.1451,10.5004814 L305.1451,10.5004814 Z" id="Bluetooth-Icon" opacity="0.4"></path>
                <text id="9:41" font-family=".AppleSystemUIFont" font-size="12" font-weight="normal">
                    <tspan x="164" y="15.5">8:31 PM</tspan>
                </text>
                <path d="M106.495752,7.52087671 C108.435524,7.52087671 110.203361,8.23545205 111.558853,9.40717808 L112.5,8.36810959 C110.894602,6.97446575 108.797888,6 106.495752,6 C104.197114,6 102.103399,6.97150685 100.5,8.36071233 L101.439148,9.40126027 C102.79364,8.2329863 104.558478,7.52087671 106.495752,7.52087671 L106.495752,7.52087671 Z M106.495752,10.5202192 C107.658316,10.5202192 108.720417,10.9423562 109.53961,11.6376986 L110.535237,10.5379726 C109.451643,9.60789041 108.042172,9.00032877 106.495752,9.00032877 C104.95233,9.00032877 103.543859,9.60641096 102.461265,10.5335342 L103.455392,11.6347397 C104.274085,10.9408767 105.334687,10.5202192 106.495752,10.5202192 L106.495752,10.5202192 Z M108.543484,12.7374247 C107.989192,12.2773151 107.275459,11.9587397 106.495252,11.9587397 C105.716544,11.9587397 105.003811,12.2768219 104.449519,12.7349589 L106.495252,15 L108.543484,12.7374247 L108.543484,12.7374247 Z" id="Wifi"></path>
                <text id="Priceless" font-family=".AppleSystemUIFont" font-size="12" font-weight="normal">
                    <tspan x="44" y="15">Priceless</tspan>
                </text>
                <path d="M37.25,12.5 L37.25,12.5 C38.4926408,12.5 39.5,11.4926408 39.5,10.25 C39.5,9.00735924 38.4926408,8 37.25,8 C36.0073592,8 35,9.00735924 35,10.25 C35,11.4926408 36.0073592,12.5 37.25,12.5 L37.25,12.5 Z M37.25,13 C35.7312169,13 34.5,11.7687831 34.5,10.25 C34.5,8.73121686 35.7312169,7.5 37.25,7.5 C38.7687831,7.5 40,8.73121686 40,10.25 C40,11.7687831 38.7687831,13 37.25,13 Z M30.25,13 C28.7312169,13 27.5,11.7687831 27.5,10.25 C27.5,8.73121686 28.7312169,7.5 30.25,7.5 C31.7687831,7.5 33,8.73121686 33,10.25 C33,11.7687831 31.7687831,13 30.25,13 Z M30.25,12.5 C31.4926408,12.5 32.5,11.4926408 32.5,10.25 C32.5,9.00735924 31.4926408,8 30.25,8 C29.0073592,8 28,9.00735924 28,10.25 C28,11.4926408 29.0073592,12.5 30.25,12.5 Z M23.25,13 C21.7312169,13 20.5,11.7687831 20.5,10.25 C20.5,8.73121686 21.7312169,7.5 23.25,7.5 C24.7687831,7.5 26,8.73121686 26,10.25 C26,11.7687831 24.7687831,13 23.25,13 Z M16.25,13 C14.7312169,13 13.5,11.7687831 13.5,10.25 C13.5,8.73121686 14.7312169,7.5 16.25,7.5 C17.7687831,7.5 19,8.73121686 19,10.25 C19,11.7687831 17.7687831,13 16.25,13 Z M9.25,13 C7.73121686,13 6.5,11.7687831 6.5,10.25 C6.5,8.73121686 7.73121686,7.5 9.25,7.5 C10.7687831,7.5 12,8.73121686 12,10.25 C12,11.7687831 10.7687831,13 9.25,13 Z" id="Signal-Shape" fill-rule="nonzero"></path>
            </g>
        </g>
    </g>
</svg>