<?xml version="1.0" encoding="UTF-8"?>
<svg width="45px" height="49px" viewBox="0 0 45 49" version="1.1" xmlns="http://www.w3.org/2000/svg" xmlns:xlink="http://www.w3.org/1999/xlink">
    <!-- Generator: Sketch 43 (38999) - http://www.bohemiancoding.com/sketch -->
    <title>Artboard 5</title>
    <desc>Created with Sketch.</desc>
    <defs>
        <path d="M0,9.99728157 C0,4.47539622 4.47493584,-0.000976303123 10.0069082,-0.000976303123 L42.0009319,-0.000976303123 L42.0009319,44 L10.0069082,44 C4.48024543,44 0,39.518375 0,34.0017421 L0,9.99728157 Z" id="path-1"></path>
        <filter x="-33.3%" y="-22.7%" width="166.7%" height="163.6%" filterUnits="objectBoundingBox" id="filter-2">
            <feOffset dx="0" dy="4" in="SourceAlpha" result="shadowOffsetOuter1"></feOffset>
            <feGaussianBlur stdDeviation="4" in="shadowOffsetOuter1" result="shadowBlurOuter1"></feGaussianBlur>
            <feColorMatrix values="0 0 0 0 0   0 0 0 0 0   0 0 0 0 0  0 0 0 0.12 0" type="matrix" in="shadowBlurOuter1"></feColorMatrix>
        </filter>
    </defs>
    <g id="Page-1" stroke="none" stroke-width="1" fill="none" fill-rule="evenodd">
        <g id="Artboard-5">
            <g id="icon/quiz2/floating" transform="translate(3.000000, 0.000000)">
                <g id="Rectangle-12">
                    <use fill="black" fill-opacity="1" filter="url(#filter-2)" xlink:href="#path-1"></use>
                    <use fill="#FFD600" fill-rule="evenodd" xlink:href="#path-1"></use>
                </g>
                <g id="Group-5" stroke-width="1" fill-rule="evenodd" transform="translate(7.636364, 7.000000)">
                    <g id="Group-4">
                        <g id="Group-2">
                            <polygon id="Rectangle" fill="#7F4B1B" points="0 7.34525983 27.698486 7.34525983 24.4629511 16.4011739 3.43458704 16.4011739"></polygon>
                            <path d="M0.000628943527,7.34525983 L27.699115,7.34525983 C27.7759651,5.83922582 26.8296981,3.98236806 24.860314,1.77468657 C23.8076046,0.594598326 22.5960445,0.00303613422 21.2256339,0 L6.60411405,0 C4.87986213,1.12055144e-14 3.51391911,0.591562191 2.50628501,1.77468657 C0.808959809,3.76761916 -0.0262588805,5.62447691 0.000628943527,7.34525983 Z" id="Rectangle" fill="#FFF3D1"></path>
                            <path d="M3.61331079,0 L8.23175874,0 L9.2431278,0 L24.0824406,0 C24.0824406,0 24.1676288,1.71960069 21.984572,4.24034763 C20.8176465,5.58778106 19.2985501,5.59124774 19.2985501,5.59124774 L12.5488954,5.59124774 L8.49327405,5.59124774 C8.49327405,5.59124774 6.58194558,5.59124774 5.46498598,4.24034763 C3.58350572,1.96480257 3.61331079,0 3.61331079,0 Z" id="Rectangle" fill="#FC6101" transform="translate(13.849243, 2.795624) scale(1, -1) translate(-13.849243, -2.795624) "></path>
                            <path d="M3.61331079,-2.66453526e-15 L8.23175874,-2.66453526e-15 L12.5488954,5.59124774 L8.49327405,5.59124774 C8.49327405,5.59124774 6.58194558,5.59124774 5.46498598,4.24034763 C3.58350572,1.96480257 3.61331079,-2.66453526e-15 3.61331079,-2.66453526e-15 Z" id="Rectangle" fill="#FF731D" transform="translate(8.080871, 2.795624) scale(1, -1) translate(-8.080871, -2.795624) "></path>
                            <path d="M10.838538,6.18206945 L18.06423,6.18206945 L18.06423,4.8645252 C18.06423,4.16774688 17.5250546,3.60289644 16.859948,3.60289644 L12.04282,3.60289644 C11.3777134,3.60289644 10.838538,4.16774688 10.838538,4.8645252 L10.838538,6.18206945 Z" id="Rectangle-3" fill="#FFF3D1"></path>
                        </g>
                        <g id="Group-3" transform="translate(4.817128, 7.569773)" fill-rule="nonzero">
                            <g id="coin" transform="translate(0.000000, 3.784886)">
                                <path d="M3.17456539,6.00777966 C1.7889188,6.00777966 0.665634678,4.66289527 0.665634678,3.00388983 C0.665634678,1.34488439 1.7889188,0 3.17456539,0 C4.56021197,0 5.68349609,1.34488439 5.68349609,3.00388983 C5.68349609,4.66289527 4.56021197,6.00777966 3.17456539,6.00777966" id="XMLID_91_" fill="#FCC62D"></path>
                                <path d="M0.665634678,3.00388983 C0.665634678,1.46954582 1.62670875,0.204693635 2.86734938,0.0232801462 C2.76658253,0.00847526059 2.6641772,0 2.56013338,0 C1.17448679,0 0.0512026675,1.34488439 0.0512026675,3.00388983 C0.0512026675,4.66289527 1.17448679,6.00777966 2.56013338,6.00777966 C2.6641772,6.00777966 2.76658253,5.9993044 2.86734938,5.98460679 C1.62670875,5.80308602 0.665634678,4.53823384 0.665634678,3.00388983" id="XMLID_136_" fill="#E4AF18"></path>
                                <path d="M0.665532272,3.11127889 L0.0513050729,3.11127889 C0.0533531796,3.21199772 0.0572445823,3.31181862 0.0634913077,3.41059192 L0.678230534,3.41059192 C0.671881403,3.31196828 0.667580379,3.21214738 0.665532272,3.11127889" id="XMLID_135_" fill="#CE9912"></path>
                                <path d="M0.688880689,2.57486999 L0.0748582999,2.57486999 C0.0663586571,2.67349364 0.0603167423,2.77346419 0.0559133129,2.87418302 L0.670242918,2.87418302 C0.674646347,2.77361385 0.680585857,2.67364329 0.688880689,2.57486999" id="XMLID_134_" fill="#CE9912"></path>
                                <path d="M0.721855207,3.64768779 L0.107320791,3.64768779 C0.120633485,3.74885559 0.135994285,3.84867649 0.153505597,3.94700082 L0.767835202,3.94700082 C0.75032389,3.84882615 0.735065495,3.74900525 0.721855207,3.64768779" id="XMLID_133_" fill="#CE9912"></path>
                                <path d="M0.86512027,4.18409668 L0.250278639,4.18409668 C0.276391999,4.28616243 0.305167898,4.38568401 0.335991904,4.48340972 L0.950628725,4.48340972 C0.919804719,4.38598333 0.891233631,4.28616243 0.86512027,4.18409668" id="XMLID_132_" fill="#CE9912"></path>
                                <path d="M0.795996669,2.03846109 L0.182076686,2.03846109 C0.162210051,2.13678542 0.14357228,2.23630701 0.128006669,2.33777413 L0.743155516,2.33777413 C0.758618722,2.23675598 0.776027629,2.13663577 0.795996669,2.03846109" id="XMLID_131_" fill="#CE9912"></path>
                                <path d="M0.999885691,1.50215948 L0.385351276,1.50215948 C0.351659921,1.59958587 0.319811861,1.69925711 0.290728746,1.80147251 L0.905570378,1.80147251 C0.934653493,1.69925711 0.966091931,1.59943621 0.999885691,1.50215948" id="XMLID_130_" fill="#CE9912"></path>
                                <path d="M1.41780186,0.8584688 L0.802653016,0.8584688 C0.74438438,0.953650344 0.688983094,1.05347124 0.636551563,1.15778183 L1.2514956,1.15778183 C1.30392713,1.05347124 1.35943082,0.953650344 1.41780186,0.8584688" id="XMLID_129_" fill="#CE9912"></path>
                                <path d="M2.04390808,0.32195262 L1.4280424,0.32195262 C1.32348655,0.410249965 1.22302692,0.510220518 1.12738033,0.621265653 L1.74273399,0.621265653 C1.83848298,0.510370174 1.93904502,0.410399622 2.04390808,0.32195262" id="XMLID_128_" fill="#CE9912"></path>
                                <path d="M1.17960705,4.82778736 L0.564970233,4.82778736 C0.612486309,4.93149933 0.662664923,5.03132022 0.715813292,5.12710039 L1.33096214,5.12710039 C1.27771137,5.03132022 1.22732794,4.93149933 1.17960705,4.82778736" id="XMLID_127_" fill="#CE9912"></path>
                                <path d="M1.00705406,5.36419626 C1.08928555,5.47239792 1.17551084,5.5729671 1.26552513,5.66350929 L1.88149322,5.66350929 C1.7908645,5.57266779 1.70392237,5.47284689 1.62117886,5.36419626 L1.00705406,5.36419626 Z" id="XMLID_126_" fill="#CE9912"></path>
                                <path d="M3.18326984,5.42030463 L3.17456539,5.42030463 C3.10288165,5.42030463 3.03068589,5.4157988 2.96002621,5.40700169 C2.90390809,5.39992109 2.86366279,5.34660205 2.87052395,5.28770435 C2.87707789,5.22891394 2.92653966,5.1879323 2.98429627,5.19394008 C3.04676353,5.20177165 3.11086927,5.20574107 3.17446298,5.20574107 C3.23109313,5.20574107 3.28116934,5.25380331 3.28116934,5.31302285 C3.28127175,5.37224239 3.23989999,5.42030463 3.18326984,5.42030463 M3.77885927,5.30476215 C3.73748751,5.30476215 3.69847108,5.27826355 3.68290547,5.23524356 C3.66293643,5.17988616 3.68976663,5.11798458 3.74260778,5.09706463 C3.80179806,5.0736772 3.86068113,5.04632035 3.91731128,5.01585232 C3.96779711,4.98860275 4.02934272,5.0095227 4.05535367,5.06219805 C4.08115982,5.1148734 4.06139559,5.17956432 4.01090976,5.20659933 C3.94731604,5.2409295 3.88136701,5.2715048 3.81480354,5.29778884 C3.80302693,5.30250924 3.79084069,5.30476215 3.77885927,5.30476215 M2.39280306,5.22279887 C2.37713504,5.22279887 2.36126222,5.21904401 2.34651585,5.21110516 C2.28322935,5.17752596 2.2208645,5.1396555 2.1612646,5.09867386 C2.11385093,5.06627476 2.10064064,4.99976006 2.13166945,4.95019587 C2.16280068,4.90073897 2.22608717,4.88679234 2.27350084,4.91929872 C2.32685402,4.95588181 2.38256253,4.98978285 2.43919268,5.01982175 C2.48967851,5.04664219 2.50964755,5.11122582 2.48404621,5.16400846 C2.46612528,5.20134252 2.43018101,5.22279887 2.39280306,5.22279887 M4.45227675,4.8410903 C4.42616339,4.8410903 4.40015244,4.83079125 4.3802858,4.81019315 C4.3400405,4.76846054 4.33963088,4.70055117 4.37936415,4.65838943 C4.42411528,4.61118545 4.46722793,4.56044117 4.50829247,4.5078731 C4.54392953,4.46195649 4.60834248,4.45498318 4.65217197,4.49231724 C4.69620626,4.52975858 4.7026578,4.5973461 4.66712314,4.6432627 C4.6220648,4.70119486 4.57424151,4.75708867 4.52508694,4.80922761 C4.5050155,4.83046941 4.47859492,4.8410903 4.45227675,4.8410903 M1.76720887,4.69014484 C1.73751132,4.69014484 1.70822339,4.67673462 1.68804954,4.65087971 C1.64381044,4.59455677 1.60120982,4.53447898 1.56127174,4.47236283 C1.52952608,4.42333505 1.54181472,4.35660579 1.58861396,4.32334843 C1.63561801,4.29030565 1.69910932,4.30317946 1.73095738,4.35231452 C1.76741368,4.40885201 1.8063277,4.463673 1.846573,4.51495369 C1.88231246,4.56076301 1.87606574,4.62835053 1.83213385,4.66589916 C1.81308646,4.68220599 1.79004526,4.69014484 1.76720887,4.69014484 M4.90214339,4.13882377 C4.88852348,4.13882377 4.87469876,4.13592717 4.86128366,4.12991939 C4.80946656,4.10621011 4.78581093,4.04302114 4.8083401,3.98862928 C4.83404384,3.92683498 4.85739226,3.86289504 4.87818054,3.79884781 C4.89630628,3.74273944 4.95437011,3.71259326 5.0080305,3.73136758 C5.06148609,3.75035645 5.09036439,3.81118522 5.07234106,3.86729359 C5.04970948,3.93724131 5.02410814,4.00686719 4.99625389,4.07434742 C4.97925461,4.11468537 4.94167185,4.13882377 4.90214339,4.13882377 M1.37683973,3.94936415 C1.33423911,3.94936415 1.29430103,3.92125633 1.27986188,3.8766271 C1.2572303,3.80710851 1.23705645,3.73544428 1.21995476,3.66399462 C1.20643725,3.60649158 1.23982139,3.54834486 1.29460825,3.53407638 C1.3493951,3.51948606 1.4050012,3.55467448 1.41882592,3.61217752 C1.43428912,3.67772669 1.45282449,3.74349042 1.47361277,3.80743036 C1.49204573,3.86332416 1.46326983,3.92447478 1.40981425,3.94357094 C1.39895928,3.94743308 1.3877971,3.94936415 1.37683973,3.94936415 M5.09579188,3.31661622 C5.09333415,3.31661622 5.0904668,3.31650893 5.08780426,3.31629437 C5.03137892,3.31178854 4.98918792,3.260186 4.99359135,3.20107374 C4.99850681,3.13638283 5.00075973,3.07008269 5.00075973,3.00388983 C5.00075973,2.94467029 5.04663732,2.89306775 5.10316506,2.89306775 C5.15979521,2.89306775 5.2055704,2.93758969 5.2055704,2.99691651 L5.2055704,3.00388983 C5.2055704,3.07566134 5.20301026,3.14754013 5.19778759,3.21759513 C5.19358897,3.27391807 5.14883784,3.31661622 5.09579188,3.31661622 M1.24586331,3.11235171 C1.18933556,3.11235171 1.14345797,3.06557685 1.14345797,3.00635731 L1.14345797,3.00388983 C1.14345797,2.93147463 1.14632532,2.85798661 1.1517528,2.78546412 C1.15605383,2.72635186 1.20643725,2.68301003 1.26183854,2.68697945 C1.31816147,2.69159257 1.36035247,2.7431951 1.35594904,2.80230736 C1.35093118,2.86925119 1.34826864,2.93705328 1.34826864,3.00388983 C1.34826864,3.06310937 1.30249346,3.11235171 1.24586331,3.11235171 M5.02851157,2.47252317 C4.98273639,2.47252317 4.94085261,2.44012408 4.9291784,2.39141815 C4.91361279,2.32586898 4.89487261,2.26021253 4.87387952,2.19627259 C4.85554896,2.14016422 4.88422245,2.07912089 4.93747323,2.05991745 C4.99164565,2.04049945 5.04929985,2.07053835 5.06773282,2.12653943 C5.0904668,2.19616531 5.11074306,2.26772226 5.12784475,2.33906464 C5.14156706,2.39656767 5.10828533,2.45482168 5.05329366,2.46919744 C5.04499883,2.47155764 5.036704,2.47252317 5.02851157,2.47252317 M1.37540605,2.27769946 C1.36455109,2.27769946 1.35338891,2.27576839 1.34263635,2.27190625 C1.28897595,2.25291737 1.26030246,2.19198132 1.27853061,2.13587295 C1.30116219,2.06571067 1.32696833,1.99608479 1.3551298,1.9289264 C1.37796619,1.87464182 1.43787331,1.84975244 1.48989522,1.87378356 C1.54171232,1.89760012 1.56536795,1.96089637 1.54273637,2.01507367 C1.51693023,2.07665341 1.4932746,2.14048607 1.47238391,2.20474785 C1.45794476,2.24948435 1.41810908,2.27769946 1.37540605,2.27769946 M4.70071209,1.69902154 C4.66783998,1.69902154 4.6354799,1.68250015 4.61581807,1.65192484 C4.57966899,1.59613832 4.54075496,1.54153189 4.49999764,1.48960751 C4.46395096,1.44390547 4.4704025,1.37621067 4.51402717,1.33855476 C4.55775425,1.30100614 4.6221672,1.30755033 4.65821388,1.35325237 C4.70296501,1.41032627 4.74566804,1.47040407 4.78540131,1.53155469 C4.81704456,1.58068974 4.80465351,1.64731173 4.75785427,1.68056908 C4.74034296,1.69301376 4.72047632,1.69902154 4.70071209,1.69902154 M1.76434152,1.53595324 C1.74150513,1.53595324 1.71866874,1.52812167 1.69951894,1.51181484 C1.65568946,1.47426621 1.64934033,1.40678598 1.68507979,1.36086937 C1.73003573,1.30315178 1.77796143,1.24736525 1.8273208,1.19522631 C1.86736128,1.15306457 1.93208146,1.15295729 1.97212194,1.19458262 C2.01246964,1.23631523 2.01267445,1.30422459 1.97273637,1.34627905 C1.92798524,1.39359032 1.88466779,1.44422732 1.84360325,1.49658082 C1.8234294,1.52254302 1.79393666,1.53595324 1.76434152,1.53595324 M4.12806146,1.10360767 C4.10880926,1.10360767 4.08945465,1.09792173 4.07214815,1.08622802 C4.01859016,1.04953765 3.96277925,1.01585117 3.90625151,0.986134118 C3.85586808,0.959528236 3.83559182,0.894837323 3.86109075,0.841947406 C3.88648728,0.789057489 3.94782807,0.767708415 3.99851871,0.794528859 C4.0617028,0.827786211 4.12417006,0.865549398 4.18417958,0.906531037 C4.23159325,0.938822853 4.24500835,1.00533756 4.21408194,1.05500902 C4.19421531,1.08644258 4.1614456,1.10360767 4.12806146,1.10360767 M2.38891166,1.00179726 C2.35153371,1.00179726 2.31569184,0.980448183 2.29746369,0.943328688 C2.27186236,0.89043877 2.29172899,0.825855139 2.34211242,0.798927412 C2.40611575,0.764811807 2.47216719,0.734129218 2.53842345,0.708274309 C2.59187903,0.687354362 2.65045488,0.715676752 2.67032152,0.771141432 C2.69008575,0.826606112 2.66315314,0.888400417 2.61031199,0.909213082 C2.55122411,0.932385946 2.49223864,0.959528236 2.43540368,0.989996262 C2.4204525,0.997935114 2.40457967,1.00179726 2.38891166,1.00179726 M3.3726173,0.814054143 C3.36882831,0.814054143 3.3648345,0.81383958 3.36084069,0.813303171 C3.29909027,0.805793446 3.23652061,0.802038584 3.17456539,0.802038584 C3.11803764,0.802038584 3.07000954,0.753976347 3.07000954,0.694756804 C3.07000954,0.635537262 3.11363421,0.587475025 3.17016196,0.587475025 L3.17456539,0.587475025 C3.24430342,0.587475025 3.3149631,0.591766296 3.38429151,0.600241557 C3.44051204,0.607000309 3.48075734,0.660319353 3.4742034,0.719109768 C3.46826389,0.773823476 3.42402478,0.814054143 3.3726173,0.814054143" id="XMLID_109_" fill="#FFD949"></path>
                                <path d="M3.93789475,2.79833794 C4.0981591,2.67968429 4.17936653,2.50578053 4.17936653,2.28005966 C4.17936653,2.08856168 4.1172065,1.92624435 3.99462731,1.79793534 C3.87204812,1.66962634 3.71147656,1.6045063 3.51752085,1.6045063 L2.48281735,1.6045063 C2.42086212,1.6045063 2.38082163,1.64656075 2.38082163,1.71146623 C2.38082163,1.77658627 2.42086212,1.81853345 2.48281735,1.81853345 L2.7198857,1.8182116 L2.72019291,3.37476294 L2.41185045,3.37476294 C2.35552752,3.37476294 2.30944512,3.42303974 2.30944512,3.48204472 C2.30944512,3.5410497 2.35552752,3.5893265 2.41185045,3.5893265 L2.72029532,3.5893265 L2.72029532,3.98562539 L2.48281735,3.98562539 C2.42086212,3.98562539 2.38082163,4.02757257 2.38082163,4.09258533 C2.38082163,4.15738352 2.42086212,4.19954526 2.48281735,4.19954526 L3.65320792,4.19954526 C3.87245774,4.19954526 4.04511314,4.13313784 4.16666827,4.00203951 C4.28771138,3.8713703 4.34894977,3.70218693 4.34894977,3.49910252 C4.34894977,3.13402263 4.21080497,2.89896825 3.93789475,2.79833794 M2.92397953,1.81853345 L3.51762326,1.81853345 C3.66068351,1.81853345 3.77046203,1.86037334 3.85279592,1.94662789 C3.93512981,2.03298972 3.9751703,2.13973509 3.9751703,2.27297906 C3.9751703,2.40665216 3.93431057,2.51597229 3.85033819,2.60716181 C3.76698025,2.69781491 3.66365327,2.74180044 3.53441773,2.74180044 L2.92408194,2.74212229 L2.92387713,1.81906985 C2.92397953,1.81906985 2.91967851,1.81853345 2.92397953,1.81853345 M4.0156204,3.85034307 C3.92867827,3.9414253 3.8101953,3.98562539 3.65320792,3.98562539 L2.92418434,3.98605452 L2.92408194,3.5893265 L3.33360087,3.5893265 C3.39002621,3.5893265 3.43600621,3.5410497 3.43600621,3.48204472 C3.43600621,3.42303974 3.39002621,3.37476294 3.33360087,3.37476294 L2.92408194,3.37476294 L2.92397953,2.95647128 C2.92397953,2.95647128 2.9195761,2.95582759 2.92387713,2.95582759 L3.65320792,2.95582759 C3.8101953,2.95582759 3.92867827,3.00002768 4.0156204,3.09110991 C4.10266494,3.18219215 4.14485594,3.30642445 4.14485594,3.47078013 C4.14485594,3.63502854 4.10266494,3.75926084 4.0156204,3.85034307" id="XMLID_105_" fill="#CE9912"></path>
                            </g>
                            <g id="coin" transform="translate(12.042820, 3.784886)">
                                <path d="M3.17456539,6.00777966 C1.7889188,6.00777966 0.665634678,4.66289527 0.665634678,3.00388983 C0.665634678,1.34488439 1.7889188,0 3.17456539,0 C4.56021197,0 5.68349609,1.34488439 5.68349609,3.00388983 C5.68349609,4.66289527 4.56021197,6.00777966 3.17456539,6.00777966" id="XMLID_91_" fill="#FCC62D"></path>
                                <path d="M0.665634678,3.00388983 C0.665634678,1.46954582 1.62670875,0.204693635 2.86734938,0.0232801462 C2.76658253,0.00847526059 2.6641772,0 2.56013338,0 C1.17448679,0 0.0512026675,1.34488439 0.0512026675,3.00388983 C0.0512026675,4.66289527 1.17448679,6.00777966 2.56013338,6.00777966 C2.6641772,6.00777966 2.76658253,5.9993044 2.86734938,5.98460679 C1.62670875,5.80308602 0.665634678,4.53823384 0.665634678,3.00388983" id="XMLID_136_" fill="#E4AF18"></path>
                                <path d="M0.665532272,3.11127889 L0.0513050729,3.11127889 C0.0533531796,3.21199772 0.0572445823,3.31181862 0.0634913077,3.41059192 L0.678230534,3.41059192 C0.671881403,3.31196828 0.667580379,3.21214738 0.665532272,3.11127889" id="XMLID_135_" fill="#CE9912"></path>
                                <path d="M0.688880689,2.57486999 L0.0748582999,2.57486999 C0.0663586571,2.67349364 0.0603167423,2.77346419 0.0559133129,2.87418302 L0.670242918,2.87418302 C0.674646347,2.77361385 0.680585857,2.67364329 0.688880689,2.57486999" id="XMLID_134_" fill="#CE9912"></path>
                                <path d="M0.721855207,3.64768779 L0.107320791,3.64768779 C0.120633485,3.74885559 0.135994285,3.84867649 0.153505597,3.94700082 L0.767835202,3.94700082 C0.75032389,3.84882615 0.735065495,3.74900525 0.721855207,3.64768779" id="XMLID_133_" fill="#CE9912"></path>
                                <path d="M0.86512027,4.18409668 L0.250278639,4.18409668 C0.276391999,4.28616243 0.305167898,4.38568401 0.335991904,4.48340972 L0.950628725,4.48340972 C0.919804719,4.38598333 0.891233631,4.28616243 0.86512027,4.18409668" id="XMLID_132_" fill="#CE9912"></path>
                                <path d="M0.795996669,2.03846109 L0.182076686,2.03846109 C0.162210051,2.13678542 0.14357228,2.23630701 0.128006669,2.33777413 L0.743155516,2.33777413 C0.758618722,2.23675598 0.776027629,2.13663577 0.795996669,2.03846109" id="XMLID_131_" fill="#CE9912"></path>
                                <path d="M0.999885691,1.50215948 L0.385351276,1.50215948 C0.351659921,1.59958587 0.319811861,1.69925711 0.290728746,1.80147251 L0.905570378,1.80147251 C0.934653493,1.69925711 0.966091931,1.59943621 0.999885691,1.50215948" id="XMLID_130_" fill="#CE9912"></path>
                                <path d="M1.41780186,0.8584688 L0.802653016,0.8584688 C0.74438438,0.953650344 0.688983094,1.05347124 0.636551563,1.15778183 L1.2514956,1.15778183 C1.30392713,1.05347124 1.35943082,0.953650344 1.41780186,0.8584688" id="XMLID_129_" fill="#CE9912"></path>
                                <path d="M2.04390808,0.32195262 L1.4280424,0.32195262 C1.32348655,0.410249965 1.22302692,0.510220518 1.12738033,0.621265653 L1.74273399,0.621265653 C1.83848298,0.510370174 1.93904502,0.410399622 2.04390808,0.32195262" id="XMLID_128_" fill="#CE9912"></path>
                                <path d="M1.17960705,4.82778736 L0.564970233,4.82778736 C0.612486309,4.93149933 0.662664923,5.03132022 0.715813292,5.12710039 L1.33096214,5.12710039 C1.27771137,5.03132022 1.22732794,4.93149933 1.17960705,4.82778736" id="XMLID_127_" fill="#CE9912"></path>
                                <path d="M1.00705406,5.36419626 C1.08928555,5.47239792 1.17551084,5.5729671 1.26552513,5.66350929 L1.88149322,5.66350929 C1.7908645,5.57266779 1.70392237,5.47284689 1.62117886,5.36419626 L1.00705406,5.36419626 Z" id="XMLID_126_" fill="#CE9912"></path>
                                <path d="M3.18326984,5.42030463 L3.17456539,5.42030463 C3.10288165,5.42030463 3.03068589,5.4157988 2.96002621,5.40700169 C2.90390809,5.39992109 2.86366279,5.34660205 2.87052395,5.28770435 C2.87707789,5.22891394 2.92653966,5.1879323 2.98429627,5.19394008 C3.04676353,5.20177165 3.11086927,5.20574107 3.17446298,5.20574107 C3.23109313,5.20574107 3.28116934,5.25380331 3.28116934,5.31302285 C3.28127175,5.37224239 3.23989999,5.42030463 3.18326984,5.42030463 M3.77885927,5.30476215 C3.73748751,5.30476215 3.69847108,5.27826355 3.68290547,5.23524356 C3.66293643,5.17988616 3.68976663,5.11798458 3.74260778,5.09706463 C3.80179806,5.0736772 3.86068113,5.04632035 3.91731128,5.01585232 C3.96779711,4.98860275 4.02934272,5.0095227 4.05535367,5.06219805 C4.08115982,5.1148734 4.06139559,5.17956432 4.01090976,5.20659933 C3.94731604,5.2409295 3.88136701,5.2715048 3.81480354,5.29778884 C3.80302693,5.30250924 3.79084069,5.30476215 3.77885927,5.30476215 M2.39280306,5.22279887 C2.37713504,5.22279887 2.36126222,5.21904401 2.34651585,5.21110516 C2.28322935,5.17752596 2.2208645,5.1396555 2.1612646,5.09867386 C2.11385093,5.06627476 2.10064064,4.99976006 2.13166945,4.95019587 C2.16280068,4.90073897 2.22608717,4.88679234 2.27350084,4.91929872 C2.32685402,4.95588181 2.38256253,4.98978285 2.43919268,5.01982175 C2.48967851,5.04664219 2.50964755,5.11122582 2.48404621,5.16400846 C2.46612528,5.20134252 2.43018101,5.22279887 2.39280306,5.22279887 M4.45227675,4.8410903 C4.42616339,4.8410903 4.40015244,4.83079125 4.3802858,4.81019315 C4.3400405,4.76846054 4.33963088,4.70055117 4.37936415,4.65838943 C4.42411528,4.61118545 4.46722793,4.56044117 4.50829247,4.5078731 C4.54392953,4.46195649 4.60834248,4.45498318 4.65217197,4.49231724 C4.69620626,4.52975858 4.7026578,4.5973461 4.66712314,4.6432627 C4.6220648,4.70119486 4.57424151,4.75708867 4.52508694,4.80922761 C4.5050155,4.83046941 4.47859492,4.8410903 4.45227675,4.8410903 M1.76720887,4.69014484 C1.73751132,4.69014484 1.70822339,4.67673462 1.68804954,4.65087971 C1.64381044,4.59455677 1.60120982,4.53447898 1.56127174,4.47236283 C1.52952608,4.42333505 1.54181472,4.35660579 1.58861396,4.32334843 C1.63561801,4.29030565 1.69910932,4.30317946 1.73095738,4.35231452 C1.76741368,4.40885201 1.8063277,4.463673 1.846573,4.51495369 C1.88231246,4.56076301 1.87606574,4.62835053 1.83213385,4.66589916 C1.81308646,4.68220599 1.79004526,4.69014484 1.76720887,4.69014484 M4.90214339,4.13882377 C4.88852348,4.13882377 4.87469876,4.13592717 4.86128366,4.12991939 C4.80946656,4.10621011 4.78581093,4.04302114 4.8083401,3.98862928 C4.83404384,3.92683498 4.85739226,3.86289504 4.87818054,3.79884781 C4.89630628,3.74273944 4.95437011,3.71259326 5.0080305,3.73136758 C5.06148609,3.75035645 5.09036439,3.81118522 5.07234106,3.86729359 C5.04970948,3.93724131 5.02410814,4.00686719 4.99625389,4.07434742 C4.97925461,4.11468537 4.94167185,4.13882377 4.90214339,4.13882377 M1.37683973,3.94936415 C1.33423911,3.94936415 1.29430103,3.92125633 1.27986188,3.8766271 C1.2572303,3.80710851 1.23705645,3.73544428 1.21995476,3.66399462 C1.20643725,3.60649158 1.23982139,3.54834486 1.29460825,3.53407638 C1.3493951,3.51948606 1.4050012,3.55467448 1.41882592,3.61217752 C1.43428912,3.67772669 1.45282449,3.74349042 1.47361277,3.80743036 C1.49204573,3.86332416 1.46326983,3.92447478 1.40981425,3.94357094 C1.39895928,3.94743308 1.3877971,3.94936415 1.37683973,3.94936415 M5.09579188,3.31661622 C5.09333415,3.31661622 5.0904668,3.31650893 5.08780426,3.31629437 C5.03137892,3.31178854 4.98918792,3.260186 4.99359135,3.20107374 C4.99850681,3.13638283 5.00075973,3.07008269 5.00075973,3.00388983 C5.00075973,2.94467029 5.04663732,2.89306775 5.10316506,2.89306775 C5.15979521,2.89306775 5.2055704,2.93758969 5.2055704,2.99691651 L5.2055704,3.00388983 C5.2055704,3.07566134 5.20301026,3.14754013 5.19778759,3.21759513 C5.19358897,3.27391807 5.14883784,3.31661622 5.09579188,3.31661622 M1.24586331,3.11235171 C1.18933556,3.11235171 1.14345797,3.06557685 1.14345797,3.00635731 L1.14345797,3.00388983 C1.14345797,2.93147463 1.14632532,2.85798661 1.1517528,2.78546412 C1.15605383,2.72635186 1.20643725,2.68301003 1.26183854,2.68697945 C1.31816147,2.69159257 1.36035247,2.7431951 1.35594904,2.80230736 C1.35093118,2.86925119 1.34826864,2.93705328 1.34826864,3.00388983 C1.34826864,3.06310937 1.30249346,3.11235171 1.24586331,3.11235171 M5.02851157,2.47252317 C4.98273639,2.47252317 4.94085261,2.44012408 4.9291784,2.39141815 C4.91361279,2.32586898 4.89487261,2.26021253 4.87387952,2.19627259 C4.85554896,2.14016422 4.88422245,2.07912089 4.93747323,2.05991745 C4.99164565,2.04049945 5.04929985,2.07053835 5.06773282,2.12653943 C5.0904668,2.19616531 5.11074306,2.26772226 5.12784475,2.33906464 C5.14156706,2.39656767 5.10828533,2.45482168 5.05329366,2.46919744 C5.04499883,2.47155764 5.036704,2.47252317 5.02851157,2.47252317 M1.37540605,2.27769946 C1.36455109,2.27769946 1.35338891,2.27576839 1.34263635,2.27190625 C1.28897595,2.25291737 1.26030246,2.19198132 1.27853061,2.13587295 C1.30116219,2.06571067 1.32696833,1.99608479 1.3551298,1.9289264 C1.37796619,1.87464182 1.43787331,1.84975244 1.48989522,1.87378356 C1.54171232,1.89760012 1.56536795,1.96089637 1.54273637,2.01507367 C1.51693023,2.07665341 1.4932746,2.14048607 1.47238391,2.20474785 C1.45794476,2.24948435 1.41810908,2.27769946 1.37540605,2.27769946 M4.70071209,1.69902154 C4.66783998,1.69902154 4.6354799,1.68250015 4.61581807,1.65192484 C4.57966899,1.59613832 4.54075496,1.54153189 4.49999764,1.48960751 C4.46395096,1.44390547 4.4704025,1.37621067 4.51402717,1.33855476 C4.55775425,1.30100614 4.6221672,1.30755033 4.65821388,1.35325237 C4.70296501,1.41032627 4.74566804,1.47040407 4.78540131,1.53155469 C4.81704456,1.58068974 4.80465351,1.64731173 4.75785427,1.68056908 C4.74034296,1.69301376 4.72047632,1.69902154 4.70071209,1.69902154 M1.76434152,1.53595324 C1.74150513,1.53595324 1.71866874,1.52812167 1.69951894,1.51181484 C1.65568946,1.47426621 1.64934033,1.40678598 1.68507979,1.36086937 C1.73003573,1.30315178 1.77796143,1.24736525 1.8273208,1.19522631 C1.86736128,1.15306457 1.93208146,1.15295729 1.97212194,1.19458262 C2.01246964,1.23631523 2.01267445,1.30422459 1.97273637,1.34627905 C1.92798524,1.39359032 1.88466779,1.44422732 1.84360325,1.49658082 C1.8234294,1.52254302 1.79393666,1.53595324 1.76434152,1.53595324 M4.12806146,1.10360767 C4.10880926,1.10360767 4.08945465,1.09792173 4.07214815,1.08622802 C4.01859016,1.04953765 3.96277925,1.01585117 3.90625151,0.986134118 C3.85586808,0.959528236 3.83559182,0.894837323 3.86109075,0.841947406 C3.88648728,0.789057489 3.94782807,0.767708415 3.99851871,0.794528859 C4.0617028,0.827786211 4.12417006,0.865549398 4.18417958,0.906531037 C4.23159325,0.938822853 4.24500835,1.00533756 4.21408194,1.05500902 C4.19421531,1.08644258 4.1614456,1.10360767 4.12806146,1.10360767 M2.38891166,1.00179726 C2.35153371,1.00179726 2.31569184,0.980448183 2.29746369,0.943328688 C2.27186236,0.89043877 2.29172899,0.825855139 2.34211242,0.798927412 C2.40611575,0.764811807 2.47216719,0.734129218 2.53842345,0.708274309 C2.59187903,0.687354362 2.65045488,0.715676752 2.67032152,0.771141432 C2.69008575,0.826606112 2.66315314,0.888400417 2.61031199,0.909213082 C2.55122411,0.932385946 2.49223864,0.959528236 2.43540368,0.989996262 C2.4204525,0.997935114 2.40457967,1.00179726 2.38891166,1.00179726 M3.3726173,0.814054143 C3.36882831,0.814054143 3.3648345,0.81383958 3.36084069,0.813303171 C3.29909027,0.805793446 3.23652061,0.802038584 3.17456539,0.802038584 C3.11803764,0.802038584 3.07000954,0.753976347 3.07000954,0.694756804 C3.07000954,0.635537262 3.11363421,0.587475025 3.17016196,0.587475025 L3.17456539,0.587475025 C3.24430342,0.587475025 3.3149631,0.591766296 3.38429151,0.600241557 C3.44051204,0.607000309 3.48075734,0.660319353 3.4742034,0.719109768 C3.46826389,0.773823476 3.42402478,0.814054143 3.3726173,0.814054143" id="XMLID_109_" fill="#FFD949"></path>
                                <path d="M3.93789475,2.79833794 C4.0981591,2.67968429 4.17936653,2.50578053 4.17936653,2.28005966 C4.17936653,2.08856168 4.1172065,1.92624435 3.99462731,1.79793534 C3.87204812,1.66962634 3.71147656,1.6045063 3.51752085,1.6045063 L2.48281735,1.6045063 C2.42086212,1.6045063 2.38082163,1.64656075 2.38082163,1.71146623 C2.38082163,1.77658627 2.42086212,1.81853345 2.48281735,1.81853345 L2.7198857,1.8182116 L2.72019291,3.37476294 L2.41185045,3.37476294 C2.35552752,3.37476294 2.30944512,3.42303974 2.30944512,3.48204472 C2.30944512,3.5410497 2.35552752,3.5893265 2.41185045,3.5893265 L2.72029532,3.5893265 L2.72029532,3.98562539 L2.48281735,3.98562539 C2.42086212,3.98562539 2.38082163,4.02757257 2.38082163,4.09258533 C2.38082163,4.15738352 2.42086212,4.19954526 2.48281735,4.19954526 L3.65320792,4.19954526 C3.87245774,4.19954526 4.04511314,4.13313784 4.16666827,4.00203951 C4.28771138,3.8713703 4.34894977,3.70218693 4.34894977,3.49910252 C4.34894977,3.13402263 4.21080497,2.89896825 3.93789475,2.79833794 M2.92397953,1.81853345 L3.51762326,1.81853345 C3.66068351,1.81853345 3.77046203,1.86037334 3.85279592,1.94662789 C3.93512981,2.03298972 3.9751703,2.13973509 3.9751703,2.27297906 C3.9751703,2.40665216 3.93431057,2.51597229 3.85033819,2.60716181 C3.76698025,2.69781491 3.66365327,2.74180044 3.53441773,2.74180044 L2.92408194,2.74212229 L2.92387713,1.81906985 C2.92397953,1.81906985 2.91967851,1.81853345 2.92397953,1.81853345 M4.0156204,3.85034307 C3.92867827,3.9414253 3.8101953,3.98562539 3.65320792,3.98562539 L2.92418434,3.98605452 L2.92408194,3.5893265 L3.33360087,3.5893265 C3.39002621,3.5893265 3.43600621,3.5410497 3.43600621,3.48204472 C3.43600621,3.42303974 3.39002621,3.37476294 3.33360087,3.37476294 L2.92408194,3.37476294 L2.92397953,2.95647128 C2.92397953,2.95647128 2.9195761,2.95582759 2.92387713,2.95582759 L3.65320792,2.95582759 C3.8101953,2.95582759 3.92867827,3.00002768 4.0156204,3.09110991 C4.10266494,3.18219215 4.14485594,3.30642445 4.14485594,3.47078013 C4.14485594,3.63502854 4.10266494,3.75926084 4.0156204,3.85034307" id="XMLID_105_" fill="#CE9912"></path>
                            </g>
                            <g id="coin" transform="translate(9.634256, 0.000000)">
                                <path d="M3.17456539,6.00777966 C1.7889188,6.00777966 0.665634678,4.66289527 0.665634678,3.00388983 C0.665634678,1.34488439 1.7889188,0 3.17456539,0 C4.56021197,0 5.68349609,1.34488439 5.68349609,3.00388983 C5.68349609,4.66289527 4.56021197,6.00777966 3.17456539,6.00777966" id="XMLID_91_" fill="#FCC62D"></path>
                                <path d="M0.665634678,3.00388983 C0.665634678,1.46954582 1.62670875,0.204693635 2.86734938,0.0232801462 C2.76658253,0.00847526059 2.6641772,0 2.56013338,0 C1.17448679,0 0.0512026675,1.34488439 0.0512026675,3.00388983 C0.0512026675,4.66289527 1.17448679,6.00777966 2.56013338,6.00777966 C2.6641772,6.00777966 2.76658253,5.9993044 2.86734938,5.98460679 C1.62670875,5.80308602 0.665634678,4.53823384 0.665634678,3.00388983" id="XMLID_136_" fill="#E4AF18"></path>
                                <path d="M0.665532272,3.11127889 L0.0513050729,3.11127889 C0.0533531796,3.21199772 0.0572445823,3.31181862 0.0634913077,3.41059192 L0.678230534,3.41059192 C0.671881403,3.31196828 0.667580379,3.21214738 0.665532272,3.11127889" id="XMLID_135_" fill="#CE9912"></path>
                                <path d="M0.688880689,2.57486999 L0.0748582999,2.57486999 C0.0663586571,2.67349364 0.0603167423,2.77346419 0.0559133129,2.87418302 L0.670242918,2.87418302 C0.674646347,2.77361385 0.680585857,2.67364329 0.688880689,2.57486999" id="XMLID_134_" fill="#CE9912"></path>
                                <path d="M0.721855207,3.64768779 L0.107320791,3.64768779 C0.120633485,3.74885559 0.135994285,3.84867649 0.153505597,3.94700082 L0.767835202,3.94700082 C0.75032389,3.84882615 0.735065495,3.74900525 0.721855207,3.64768779" id="XMLID_133_" fill="#CE9912"></path>
                                <path d="M0.86512027,4.18409668 L0.250278639,4.18409668 C0.276391999,4.28616243 0.305167898,4.38568401 0.335991904,4.48340972 L0.950628725,4.48340972 C0.919804719,4.38598333 0.891233631,4.28616243 0.86512027,4.18409668" id="XMLID_132_" fill="#CE9912"></path>
                                <path d="M0.795996669,2.03846109 L0.182076686,2.03846109 C0.162210051,2.13678542 0.14357228,2.23630701 0.128006669,2.33777413 L0.743155516,2.33777413 C0.758618722,2.23675598 0.776027629,2.13663577 0.795996669,2.03846109" id="XMLID_131_" fill="#CE9912"></path>
                                <path d="M0.999885691,1.50215948 L0.385351276,1.50215948 C0.351659921,1.59958587 0.319811861,1.69925711 0.290728746,1.80147251 L0.905570378,1.80147251 C0.934653493,1.69925711 0.966091931,1.59943621 0.999885691,1.50215948" id="XMLID_130_" fill="#CE9912"></path>
                                <path d="M1.41780186,0.8584688 L0.802653016,0.8584688 C0.74438438,0.953650344 0.688983094,1.05347124 0.636551563,1.15778183 L1.2514956,1.15778183 C1.30392713,1.05347124 1.35943082,0.953650344 1.41780186,0.8584688" id="XMLID_129_" fill="#CE9912"></path>
                                <path d="M2.04390808,0.32195262 L1.4280424,0.32195262 C1.32348655,0.410249965 1.22302692,0.510220518 1.12738033,0.621265653 L1.74273399,0.621265653 C1.83848298,0.510370174 1.93904502,0.410399622 2.04390808,0.32195262" id="XMLID_128_" fill="#CE9912"></path>
                                <path d="M1.17960705,4.82778736 L0.564970233,4.82778736 C0.612486309,4.93149933 0.662664923,5.03132022 0.715813292,5.12710039 L1.33096214,5.12710039 C1.27771137,5.03132022 1.22732794,4.93149933 1.17960705,4.82778736" id="XMLID_127_" fill="#CE9912"></path>
                                <path d="M1.00705406,5.36419626 C1.08928555,5.47239792 1.17551084,5.5729671 1.26552513,5.66350929 L1.88149322,5.66350929 C1.7908645,5.57266779 1.70392237,5.47284689 1.62117886,5.36419626 L1.00705406,5.36419626 Z" id="XMLID_126_" fill="#CE9912"></path>
                                <path d="M3.18326984,5.42030463 L3.17456539,5.42030463 C3.10288165,5.42030463 3.03068589,5.4157988 2.96002621,5.40700169 C2.90390809,5.39992109 2.86366279,5.34660205 2.87052395,5.28770435 C2.87707789,5.22891394 2.92653966,5.1879323 2.98429627,5.19394008 C3.04676353,5.20177165 3.11086927,5.20574107 3.17446298,5.20574107 C3.23109313,5.20574107 3.28116934,5.25380331 3.28116934,5.31302285 C3.28127175,5.37224239 3.23989999,5.42030463 3.18326984,5.42030463 M3.77885927,5.30476215 C3.73748751,5.30476215 3.69847108,5.27826355 3.68290547,5.23524356 C3.66293643,5.17988616 3.68976663,5.11798458 3.74260778,5.09706463 C3.80179806,5.0736772 3.86068113,5.04632035 3.91731128,5.01585232 C3.96779711,4.98860275 4.02934272,5.0095227 4.05535367,5.06219805 C4.08115982,5.1148734 4.06139559,5.17956432 4.01090976,5.20659933 C3.94731604,5.2409295 3.88136701,5.2715048 3.81480354,5.29778884 C3.80302693,5.30250924 3.79084069,5.30476215 3.77885927,5.30476215 M2.39280306,5.22279887 C2.37713504,5.22279887 2.36126222,5.21904401 2.34651585,5.21110516 C2.28322935,5.17752596 2.2208645,5.1396555 2.1612646,5.09867386 C2.11385093,5.06627476 2.10064064,4.99976006 2.13166945,4.95019587 C2.16280068,4.90073897 2.22608717,4.88679234 2.27350084,4.91929872 C2.32685402,4.95588181 2.38256253,4.98978285 2.43919268,5.01982175 C2.48967851,5.04664219 2.50964755,5.11122582 2.48404621,5.16400846 C2.46612528,5.20134252 2.43018101,5.22279887 2.39280306,5.22279887 M4.45227675,4.8410903 C4.42616339,4.8410903 4.40015244,4.83079125 4.3802858,4.81019315 C4.3400405,4.76846054 4.33963088,4.70055117 4.37936415,4.65838943 C4.42411528,4.61118545 4.46722793,4.56044117 4.50829247,4.5078731 C4.54392953,4.46195649 4.60834248,4.45498318 4.65217197,4.49231724 C4.69620626,4.52975858 4.7026578,4.5973461 4.66712314,4.6432627 C4.6220648,4.70119486 4.57424151,4.75708867 4.52508694,4.80922761 C4.5050155,4.83046941 4.47859492,4.8410903 4.45227675,4.8410903 M1.76720887,4.69014484 C1.73751132,4.69014484 1.70822339,4.67673462 1.68804954,4.65087971 C1.64381044,4.59455677 1.60120982,4.53447898 1.56127174,4.47236283 C1.52952608,4.42333505 1.54181472,4.35660579 1.58861396,4.32334843 C1.63561801,4.29030565 1.69910932,4.30317946 1.73095738,4.35231452 C1.76741368,4.40885201 1.8063277,4.463673 1.846573,4.51495369 C1.88231246,4.56076301 1.87606574,4.62835053 1.83213385,4.66589916 C1.81308646,4.68220599 1.79004526,4.69014484 1.76720887,4.69014484 M4.90214339,4.13882377 C4.88852348,4.13882377 4.87469876,4.13592717 4.86128366,4.12991939 C4.80946656,4.10621011 4.78581093,4.04302114 4.8083401,3.98862928 C4.83404384,3.92683498 4.85739226,3.86289504 4.87818054,3.79884781 C4.89630628,3.74273944 4.95437011,3.71259326 5.0080305,3.73136758 C5.06148609,3.75035645 5.09036439,3.81118522 5.07234106,3.86729359 C5.04970948,3.93724131 5.02410814,4.00686719 4.99625389,4.07434742 C4.97925461,4.11468537 4.94167185,4.13882377 4.90214339,4.13882377 M1.37683973,3.94936415 C1.33423911,3.94936415 1.29430103,3.92125633 1.27986188,3.8766271 C1.2572303,3.80710851 1.23705645,3.73544428 1.21995476,3.66399462 C1.20643725,3.60649158 1.23982139,3.54834486 1.29460825,3.53407638 C1.3493951,3.51948606 1.4050012,3.55467448 1.41882592,3.61217752 C1.43428912,3.67772669 1.45282449,3.74349042 1.47361277,3.80743036 C1.49204573,3.86332416 1.46326983,3.92447478 1.40981425,3.94357094 C1.39895928,3.94743308 1.3877971,3.94936415 1.37683973,3.94936415 M5.09579188,3.31661622 C5.09333415,3.31661622 5.0904668,3.31650893 5.08780426,3.31629437 C5.03137892,3.31178854 4.98918792,3.260186 4.99359135,3.20107374 C4.99850681,3.13638283 5.00075973,3.07008269 5.00075973,3.00388983 C5.00075973,2.94467029 5.04663732,2.89306775 5.10316506,2.89306775 C5.15979521,2.89306775 5.2055704,2.93758969 5.2055704,2.99691651 L5.2055704,3.00388983 C5.2055704,3.07566134 5.20301026,3.14754013 5.19778759,3.21759513 C5.19358897,3.27391807 5.14883784,3.31661622 5.09579188,3.31661622 M1.24586331,3.11235171 C1.18933556,3.11235171 1.14345797,3.06557685 1.14345797,3.00635731 L1.14345797,3.00388983 C1.14345797,2.93147463 1.14632532,2.85798661 1.1517528,2.78546412 C1.15605383,2.72635186 1.20643725,2.68301003 1.26183854,2.68697945 C1.31816147,2.69159257 1.36035247,2.7431951 1.35594904,2.80230736 C1.35093118,2.86925119 1.34826864,2.93705328 1.34826864,3.00388983 C1.34826864,3.06310937 1.30249346,3.11235171 1.24586331,3.11235171 M5.02851157,2.47252317 C4.98273639,2.47252317 4.94085261,2.44012408 4.9291784,2.39141815 C4.91361279,2.32586898 4.89487261,2.26021253 4.87387952,2.19627259 C4.85554896,2.14016422 4.88422245,2.07912089 4.93747323,2.05991745 C4.99164565,2.04049945 5.04929985,2.07053835 5.06773282,2.12653943 C5.0904668,2.19616531 5.11074306,2.26772226 5.12784475,2.33906464 C5.14156706,2.39656767 5.10828533,2.45482168 5.05329366,2.46919744 C5.04499883,2.47155764 5.036704,2.47252317 5.02851157,2.47252317 M1.37540605,2.27769946 C1.36455109,2.27769946 1.35338891,2.27576839 1.34263635,2.27190625 C1.28897595,2.25291737 1.26030246,2.19198132 1.27853061,2.13587295 C1.30116219,2.06571067 1.32696833,1.99608479 1.3551298,1.9289264 C1.37796619,1.87464182 1.43787331,1.84975244 1.48989522,1.87378356 C1.54171232,1.89760012 1.56536795,1.96089637 1.54273637,2.01507367 C1.51693023,2.07665341 1.4932746,2.14048607 1.47238391,2.20474785 C1.45794476,2.24948435 1.41810908,2.27769946 1.37540605,2.27769946 M4.70071209,1.69902154 C4.66783998,1.69902154 4.6354799,1.68250015 4.61581807,1.65192484 C4.57966899,1.59613832 4.54075496,1.54153189 4.49999764,1.48960751 C4.46395096,1.44390547 4.4704025,1.37621067 4.51402717,1.33855476 C4.55775425,1.30100614 4.6221672,1.30755033 4.65821388,1.35325237 C4.70296501,1.41032627 4.74566804,1.47040407 4.78540131,1.53155469 C4.81704456,1.58068974 4.80465351,1.64731173 4.75785427,1.68056908 C4.74034296,1.69301376 4.72047632,1.69902154 4.70071209,1.69902154 M1.76434152,1.53595324 C1.74150513,1.53595324 1.71866874,1.52812167 1.69951894,1.51181484 C1.65568946,1.47426621 1.64934033,1.40678598 1.68507979,1.36086937 C1.73003573,1.30315178 1.77796143,1.24736525 1.8273208,1.19522631 C1.86736128,1.15306457 1.93208146,1.15295729 1.97212194,1.19458262 C2.01246964,1.23631523 2.01267445,1.30422459 1.97273637,1.34627905 C1.92798524,1.39359032 1.88466779,1.44422732 1.84360325,1.49658082 C1.8234294,1.52254302 1.79393666,1.53595324 1.76434152,1.53595324 M4.12806146,1.10360767 C4.10880926,1.10360767 4.08945465,1.09792173 4.07214815,1.08622802 C4.01859016,1.04953765 3.96277925,1.01585117 3.90625151,0.986134118 C3.85586808,0.959528236 3.83559182,0.894837323 3.86109075,0.841947406 C3.88648728,0.789057489 3.94782807,0.767708415 3.99851871,0.794528859 C4.0617028,0.827786211 4.12417006,0.865549398 4.18417958,0.906531037 C4.23159325,0.938822853 4.24500835,1.00533756 4.21408194,1.05500902 C4.19421531,1.08644258 4.1614456,1.10360767 4.12806146,1.10360767 M2.38891166,1.00179726 C2.35153371,1.00179726 2.31569184,0.980448183 2.29746369,0.943328688 C2.27186236,0.89043877 2.29172899,0.825855139 2.34211242,0.798927412 C2.40611575,0.764811807 2.47216719,0.734129218 2.53842345,0.708274309 C2.59187903,0.687354362 2.65045488,0.715676752 2.67032152,0.771141432 C2.69008575,0.826606112 2.66315314,0.888400417 2.61031199,0.909213082 C2.55122411,0.932385946 2.49223864,0.959528236 2.43540368,0.989996262 C2.4204525,0.997935114 2.40457967,1.00179726 2.38891166,1.00179726 M3.3726173,0.814054143 C3.36882831,0.814054143 3.3648345,0.81383958 3.36084069,0.813303171 C3.29909027,0.805793446 3.23652061,0.802038584 3.17456539,0.802038584 C3.11803764,0.802038584 3.07000954,0.753976347 3.07000954,0.694756804 C3.07000954,0.635537262 3.11363421,0.587475025 3.17016196,0.587475025 L3.17456539,0.587475025 C3.24430342,0.587475025 3.3149631,0.591766296 3.38429151,0.600241557 C3.44051204,0.607000309 3.48075734,0.660319353 3.4742034,0.719109768 C3.46826389,0.773823476 3.42402478,0.814054143 3.3726173,0.814054143" id="XMLID_109_" fill="#FFD949"></path>
                                <path d="M3.93789475,2.79833794 C4.0981591,2.67968429 4.17936653,2.50578053 4.17936653,2.28005966 C4.17936653,2.08856168 4.1172065,1.92624435 3.99462731,1.79793534 C3.87204812,1.66962634 3.71147656,1.6045063 3.51752085,1.6045063 L2.48281735,1.6045063 C2.42086212,1.6045063 2.38082163,1.64656075 2.38082163,1.71146623 C2.38082163,1.77658627 2.42086212,1.81853345 2.48281735,1.81853345 L2.7198857,1.8182116 L2.72019291,3.37476294 L2.41185045,3.37476294 C2.35552752,3.37476294 2.30944512,3.42303974 2.30944512,3.48204472 C2.30944512,3.5410497 2.35552752,3.5893265 2.41185045,3.5893265 L2.72029532,3.5893265 L2.72029532,3.98562539 L2.48281735,3.98562539 C2.42086212,3.98562539 2.38082163,4.02757257 2.38082163,4.09258533 C2.38082163,4.15738352 2.42086212,4.19954526 2.48281735,4.19954526 L3.65320792,4.19954526 C3.87245774,4.19954526 4.04511314,4.13313784 4.16666827,4.00203951 C4.28771138,3.8713703 4.34894977,3.70218693 4.34894977,3.49910252 C4.34894977,3.13402263 4.21080497,2.89896825 3.93789475,2.79833794 M2.92397953,1.81853345 L3.51762326,1.81853345 C3.66068351,1.81853345 3.77046203,1.86037334 3.85279592,1.94662789 C3.93512981,2.03298972 3.9751703,2.13973509 3.9751703,2.27297906 C3.9751703,2.40665216 3.93431057,2.51597229 3.85033819,2.60716181 C3.76698025,2.69781491 3.66365327,2.74180044 3.53441773,2.74180044 L2.92408194,2.74212229 L2.92387713,1.81906985 C2.92397953,1.81906985 2.91967851,1.81853345 2.92397953,1.81853345 M4.0156204,3.85034307 C3.92867827,3.9414253 3.8101953,3.98562539 3.65320792,3.98562539 L2.92418434,3.98605452 L2.92408194,3.5893265 L3.33360087,3.5893265 C3.39002621,3.5893265 3.43600621,3.5410497 3.43600621,3.48204472 C3.43600621,3.42303974 3.39002621,3.37476294 3.33360087,3.37476294 L2.92408194,3.37476294 L2.92397953,2.95647128 C2.92397953,2.95647128 2.9195761,2.95582759 2.92387713,2.95582759 L3.65320792,2.95582759 C3.8101953,2.95582759 3.92867827,3.00002768 4.0156204,3.09110991 C4.10266494,3.18219215 4.14485594,3.30642445 4.14485594,3.47078013 C4.14485594,3.63502854 4.10266494,3.75926084 4.0156204,3.85034307" id="XMLID_105_" fill="#CE9912"></path>
                            </g>
                            <g id="coin" transform="translate(6.021410, 3.784886)">
                                <path d="M3.17456539,6.00777966 C1.7889188,6.00777966 0.665634678,4.66289527 0.665634678,3.00388983 C0.665634678,1.34488439 1.7889188,0 3.17456539,0 C4.56021197,0 5.68349609,1.34488439 5.68349609,3.00388983 C5.68349609,4.66289527 4.56021197,6.00777966 3.17456539,6.00777966" id="XMLID_91_" fill="#FCC62D"></path>
                                <path d="M0.665634678,3.00388983 C0.665634678,1.46954582 1.62670875,0.204693635 2.86734938,0.0232801462 C2.76658253,0.00847526059 2.6641772,0 2.56013338,0 C1.17448679,0 0.0512026675,1.34488439 0.0512026675,3.00388983 C0.0512026675,4.66289527 1.17448679,6.00777966 2.56013338,6.00777966 C2.6641772,6.00777966 2.76658253,5.9993044 2.86734938,5.98460679 C1.62670875,5.80308602 0.665634678,4.53823384 0.665634678,3.00388983" id="XMLID_136_" fill="#E4AF18"></path>
                                <path d="M0.665532272,3.11127889 L0.0513050729,3.11127889 C0.0533531796,3.21199772 0.0572445823,3.31181862 0.0634913077,3.41059192 L0.678230534,3.41059192 C0.671881403,3.31196828 0.667580379,3.21214738 0.665532272,3.11127889" id="XMLID_135_" fill="#CE9912"></path>
                                <path d="M0.688880689,2.57486999 L0.0748582999,2.57486999 C0.0663586571,2.67349364 0.0603167423,2.77346419 0.0559133129,2.87418302 L0.670242918,2.87418302 C0.674646347,2.77361385 0.680585857,2.67364329 0.688880689,2.57486999" id="XMLID_134_" fill="#CE9912"></path>
                                <path d="M0.721855207,3.64768779 L0.107320791,3.64768779 C0.120633485,3.74885559 0.135994285,3.84867649 0.153505597,3.94700082 L0.767835202,3.94700082 C0.75032389,3.84882615 0.735065495,3.74900525 0.721855207,3.64768779" id="XMLID_133_" fill="#CE9912"></path>
                                <path d="M0.86512027,4.18409668 L0.250278639,4.18409668 C0.276391999,4.28616243 0.305167898,4.38568401 0.335991904,4.48340972 L0.950628725,4.48340972 C0.919804719,4.38598333 0.891233631,4.28616243 0.86512027,4.18409668" id="XMLID_132_" fill="#CE9912"></path>
                                <path d="M0.795996669,2.03846109 L0.182076686,2.03846109 C0.162210051,2.13678542 0.14357228,2.23630701 0.128006669,2.33777413 L0.743155516,2.33777413 C0.758618722,2.23675598 0.776027629,2.13663577 0.795996669,2.03846109" id="XMLID_131_" fill="#CE9912"></path>
                                <path d="M0.999885691,1.50215948 L0.385351276,1.50215948 C0.351659921,1.59958587 0.319811861,1.69925711 0.290728746,1.80147251 L0.905570378,1.80147251 C0.934653493,1.69925711 0.966091931,1.59943621 0.999885691,1.50215948" id="XMLID_130_" fill="#CE9912"></path>
                                <path d="M1.41780186,0.8584688 L0.802653016,0.8584688 C0.74438438,0.953650344 0.688983094,1.05347124 0.636551563,1.15778183 L1.2514956,1.15778183 C1.30392713,1.05347124 1.35943082,0.953650344 1.41780186,0.8584688" id="XMLID_129_" fill="#CE9912"></path>
                                <path d="M2.04390808,0.32195262 L1.4280424,0.32195262 C1.32348655,0.410249965 1.22302692,0.510220518 1.12738033,0.621265653 L1.74273399,0.621265653 C1.83848298,0.510370174 1.93904502,0.410399622 2.04390808,0.32195262" id="XMLID_128_" fill="#CE9912"></path>
                                <path d="M1.17960705,4.82778736 L0.564970233,4.82778736 C0.612486309,4.93149933 0.662664923,5.03132022 0.715813292,5.12710039 L1.33096214,5.12710039 C1.27771137,5.03132022 1.22732794,4.93149933 1.17960705,4.82778736" id="XMLID_127_" fill="#CE9912"></path>
                                <path d="M1.00705406,5.36419626 C1.08928555,5.47239792 1.17551084,5.5729671 1.26552513,5.66350929 L1.88149322,5.66350929 C1.7908645,5.57266779 1.70392237,5.47284689 1.62117886,5.36419626 L1.00705406,5.36419626 Z" id="XMLID_126_" fill="#CE9912"></path>
                                <path d="M3.18326984,5.42030463 L3.17456539,5.42030463 C3.10288165,5.42030463 3.03068589,5.4157988 2.96002621,5.40700169 C2.90390809,5.39992109 2.86366279,5.34660205 2.87052395,5.28770435 C2.87707789,5.22891394 2.92653966,5.1879323 2.98429627,5.19394008 C3.04676353,5.20177165 3.11086927,5.20574107 3.17446298,5.20574107 C3.23109313,5.20574107 3.28116934,5.25380331 3.28116934,5.31302285 C3.28127175,5.37224239 3.23989999,5.42030463 3.18326984,5.42030463 M3.77885927,5.30476215 C3.73748751,5.30476215 3.69847108,5.27826355 3.68290547,5.23524356 C3.66293643,5.17988616 3.68976663,5.11798458 3.74260778,5.09706463 C3.80179806,5.0736772 3.86068113,5.04632035 3.91731128,5.01585232 C3.96779711,4.98860275 4.02934272,5.0095227 4.05535367,5.06219805 C4.08115982,5.1148734 4.06139559,5.17956432 4.01090976,5.20659933 C3.94731604,5.2409295 3.88136701,5.2715048 3.81480354,5.29778884 C3.80302693,5.30250924 3.79084069,5.30476215 3.77885927,5.30476215 M2.39280306,5.22279887 C2.37713504,5.22279887 2.36126222,5.21904401 2.34651585,5.21110516 C2.28322935,5.17752596 2.2208645,5.1396555 2.1612646,5.09867386 C2.11385093,5.06627476 2.10064064,4.99976006 2.13166945,4.95019587 C2.16280068,4.90073897 2.22608717,4.88679234 2.27350084,4.91929872 C2.32685402,4.95588181 2.38256253,4.98978285 2.43919268,5.01982175 C2.48967851,5.04664219 2.50964755,5.11122582 2.48404621,5.16400846 C2.46612528,5.20134252 2.43018101,5.22279887 2.39280306,5.22279887 M4.45227675,4.8410903 C4.42616339,4.8410903 4.40015244,4.83079125 4.3802858,4.81019315 C4.3400405,4.76846054 4.33963088,4.70055117 4.37936415,4.65838943 C4.42411528,4.61118545 4.46722793,4.56044117 4.50829247,4.5078731 C4.54392953,4.46195649 4.60834248,4.45498318 4.65217197,4.49231724 C4.69620626,4.52975858 4.7026578,4.5973461 4.66712314,4.6432627 C4.6220648,4.70119486 4.57424151,4.75708867 4.52508694,4.80922761 C4.5050155,4.83046941 4.47859492,4.8410903 4.45227675,4.8410903 M1.76720887,4.69014484 C1.73751132,4.69014484 1.70822339,4.67673462 1.68804954,4.65087971 C1.64381044,4.59455677 1.60120982,4.53447898 1.56127174,4.47236283 C1.52952608,4.42333505 1.54181472,4.35660579 1.58861396,4.32334843 C1.63561801,4.29030565 1.69910932,4.30317946 1.73095738,4.35231452 C1.76741368,4.40885201 1.8063277,4.463673 1.846573,4.51495369 C1.88231246,4.56076301 1.87606574,4.62835053 1.83213385,4.66589916 C1.81308646,4.68220599 1.79004526,4.69014484 1.76720887,4.69014484 M4.90214339,4.13882377 C4.88852348,4.13882377 4.87469876,4.13592717 4.86128366,4.12991939 C4.80946656,4.10621011 4.78581093,4.04302114 4.8083401,3.98862928 C4.83404384,3.92683498 4.85739226,3.86289504 4.87818054,3.79884781 C4.89630628,3.74273944 4.95437011,3.71259326 5.0080305,3.73136758 C5.06148609,3.75035645 5.09036439,3.81118522 5.07234106,3.86729359 C5.04970948,3.93724131 5.02410814,4.00686719 4.99625389,4.07434742 C4.97925461,4.11468537 4.94167185,4.13882377 4.90214339,4.13882377 M1.37683973,3.94936415 C1.33423911,3.94936415 1.29430103,3.92125633 1.27986188,3.8766271 C1.2572303,3.80710851 1.23705645,3.73544428 1.21995476,3.66399462 C1.20643725,3.60649158 1.23982139,3.54834486 1.29460825,3.53407638 C1.3493951,3.51948606 1.4050012,3.55467448 1.41882592,3.61217752 C1.43428912,3.67772669 1.45282449,3.74349042 1.47361277,3.80743036 C1.49204573,3.86332416 1.46326983,3.92447478 1.40981425,3.94357094 C1.39895928,3.94743308 1.3877971,3.94936415 1.37683973,3.94936415 M5.09579188,3.31661622 C5.09333415,3.31661622 5.0904668,3.31650893 5.08780426,3.31629437 C5.03137892,3.31178854 4.98918792,3.260186 4.99359135,3.20107374 C4.99850681,3.13638283 5.00075973,3.07008269 5.00075973,3.00388983 C5.00075973,2.94467029 5.04663732,2.89306775 5.10316506,2.89306775 C5.15979521,2.89306775 5.2055704,2.93758969 5.2055704,2.99691651 L5.2055704,3.00388983 C5.2055704,3.07566134 5.20301026,3.14754013 5.19778759,3.21759513 C5.19358897,3.27391807 5.14883784,3.31661622 5.09579188,3.31661622 M1.24586331,3.11235171 C1.18933556,3.11235171 1.14345797,3.06557685 1.14345797,3.00635731 L1.14345797,3.00388983 C1.14345797,2.93147463 1.14632532,2.85798661 1.1517528,2.78546412 C1.15605383,2.72635186 1.20643725,2.68301003 1.26183854,2.68697945 C1.31816147,2.69159257 1.36035247,2.7431951 1.35594904,2.80230736 C1.35093118,2.86925119 1.34826864,2.93705328 1.34826864,3.00388983 C1.34826864,3.06310937 1.30249346,3.11235171 1.24586331,3.11235171 M5.02851157,2.47252317 C4.98273639,2.47252317 4.94085261,2.44012408 4.9291784,2.39141815 C4.91361279,2.32586898 4.89487261,2.26021253 4.87387952,2.19627259 C4.85554896,2.14016422 4.88422245,2.07912089 4.93747323,2.05991745 C4.99164565,2.04049945 5.04929985,2.07053835 5.06773282,2.12653943 C5.0904668,2.19616531 5.11074306,2.26772226 5.12784475,2.33906464 C5.14156706,2.39656767 5.10828533,2.45482168 5.05329366,2.46919744 C5.04499883,2.47155764 5.036704,2.47252317 5.02851157,2.47252317 M1.37540605,2.27769946 C1.36455109,2.27769946 1.35338891,2.27576839 1.34263635,2.27190625 C1.28897595,2.25291737 1.26030246,2.19198132 1.27853061,2.13587295 C1.30116219,2.06571067 1.32696833,1.99608479 1.3551298,1.9289264 C1.37796619,1.87464182 1.43787331,1.84975244 1.48989522,1.87378356 C1.54171232,1.89760012 1.56536795,1.96089637 1.54273637,2.01507367 C1.51693023,2.07665341 1.4932746,2.14048607 1.47238391,2.20474785 C1.45794476,2.24948435 1.41810908,2.27769946 1.37540605,2.27769946 M4.70071209,1.69902154 C4.66783998,1.69902154 4.6354799,1.68250015 4.61581807,1.65192484 C4.57966899,1.59613832 4.54075496,1.54153189 4.49999764,1.48960751 C4.46395096,1.44390547 4.4704025,1.37621067 4.51402717,1.33855476 C4.55775425,1.30100614 4.6221672,1.30755033 4.65821388,1.35325237 C4.70296501,1.41032627 4.74566804,1.47040407 4.78540131,1.53155469 C4.81704456,1.58068974 4.80465351,1.64731173 4.75785427,1.68056908 C4.74034296,1.69301376 4.72047632,1.69902154 4.70071209,1.69902154 M1.76434152,1.53595324 C1.74150513,1.53595324 1.71866874,1.52812167 1.69951894,1.51181484 C1.65568946,1.47426621 1.64934033,1.40678598 1.68507979,1.36086937 C1.73003573,1.30315178 1.77796143,1.24736525 1.8273208,1.19522631 C1.86736128,1.15306457 1.93208146,1.15295729 1.97212194,1.19458262 C2.01246964,1.23631523 2.01267445,1.30422459 1.97273637,1.34627905 C1.92798524,1.39359032 1.88466779,1.44422732 1.84360325,1.49658082 C1.8234294,1.52254302 1.79393666,1.53595324 1.76434152,1.53595324 M4.12806146,1.10360767 C4.10880926,1.10360767 4.08945465,1.09792173 4.07214815,1.08622802 C4.01859016,1.04953765 3.96277925,1.01585117 3.90625151,0.986134118 C3.85586808,0.959528236 3.83559182,0.894837323 3.86109075,0.841947406 C3.88648728,0.789057489 3.94782807,0.767708415 3.99851871,0.794528859 C4.0617028,0.827786211 4.12417006,0.865549398 4.18417958,0.906531037 C4.23159325,0.938822853 4.24500835,1.00533756 4.21408194,1.05500902 C4.19421531,1.08644258 4.1614456,1.10360767 4.12806146,1.10360767 M2.38891166,1.00179726 C2.35153371,1.00179726 2.31569184,0.980448183 2.29746369,0.943328688 C2.27186236,0.89043877 2.29172899,0.825855139 2.34211242,0.798927412 C2.40611575,0.764811807 2.47216719,0.734129218 2.53842345,0.708274309 C2.59187903,0.687354362 2.65045488,0.715676752 2.67032152,0.771141432 C2.69008575,0.826606112 2.66315314,0.888400417 2.61031199,0.909213082 C2.55122411,0.932385946 2.49223864,0.959528236 2.43540368,0.989996262 C2.4204525,0.997935114 2.40457967,1.00179726 2.38891166,1.00179726 M3.3726173,0.814054143 C3.36882831,0.814054143 3.3648345,0.81383958 3.36084069,0.813303171 C3.29909027,0.805793446 3.23652061,0.802038584 3.17456539,0.802038584 C3.11803764,0.802038584 3.07000954,0.753976347 3.07000954,0.694756804 C3.07000954,0.635537262 3.11363421,0.587475025 3.17016196,0.587475025 L3.17456539,0.587475025 C3.24430342,0.587475025 3.3149631,0.591766296 3.38429151,0.600241557 C3.44051204,0.607000309 3.48075734,0.660319353 3.4742034,0.719109768 C3.46826389,0.773823476 3.42402478,0.814054143 3.3726173,0.814054143" id="XMLID_109_" fill="#FFD949"></path>
                                <path d="M3.93789475,2.79833794 C4.0981591,2.67968429 4.17936653,2.50578053 4.17936653,2.28005966 C4.17936653,2.08856168 4.1172065,1.92624435 3.99462731,1.79793534 C3.87204812,1.66962634 3.71147656,1.6045063 3.51752085,1.6045063 L2.48281735,1.6045063 C2.42086212,1.6045063 2.38082163,1.64656075 2.38082163,1.71146623 C2.38082163,1.77658627 2.42086212,1.81853345 2.48281735,1.81853345 L2.7198857,1.8182116 L2.72019291,3.37476294 L2.41185045,3.37476294 C2.35552752,3.37476294 2.30944512,3.42303974 2.30944512,3.48204472 C2.30944512,3.5410497 2.35552752,3.5893265 2.41185045,3.5893265 L2.72029532,3.5893265 L2.72029532,3.98562539 L2.48281735,3.98562539 C2.42086212,3.98562539 2.38082163,4.02757257 2.38082163,4.09258533 C2.38082163,4.15738352 2.42086212,4.19954526 2.48281735,4.19954526 L3.65320792,4.19954526 C3.87245774,4.19954526 4.04511314,4.13313784 4.16666827,4.00203951 C4.28771138,3.8713703 4.34894977,3.70218693 4.34894977,3.49910252 C4.34894977,3.13402263 4.21080497,2.89896825 3.93789475,2.79833794 M2.92397953,1.81853345 L3.51762326,1.81853345 C3.66068351,1.81853345 3.77046203,1.86037334 3.85279592,1.94662789 C3.93512981,2.03298972 3.9751703,2.13973509 3.9751703,2.27297906 C3.9751703,2.40665216 3.93431057,2.51597229 3.85033819,2.60716181 C3.76698025,2.69781491 3.66365327,2.74180044 3.53441773,2.74180044 L2.92408194,2.74212229 L2.92387713,1.81906985 C2.92397953,1.81906985 2.91967851,1.81853345 2.92397953,1.81853345 M4.0156204,3.85034307 C3.92867827,3.9414253 3.8101953,3.98562539 3.65320792,3.98562539 L2.92418434,3.98605452 L2.92408194,3.5893265 L3.33360087,3.5893265 C3.39002621,3.5893265 3.43600621,3.5410497 3.43600621,3.48204472 C3.43600621,3.42303974 3.39002621,3.37476294 3.33360087,3.37476294 L2.92408194,3.37476294 L2.92397953,2.95647128 C2.92397953,2.95647128 2.9195761,2.95582759 2.92387713,2.95582759 L3.65320792,2.95582759 C3.8101953,2.95582759 3.92867827,3.00002768 4.0156204,3.09110991 C4.10266494,3.18219215 4.14485594,3.30642445 4.14485594,3.47078013 C4.14485594,3.63502854 4.10266494,3.75926084 4.0156204,3.85034307" id="XMLID_105_" fill="#CE9912"></path>
                            </g>
                            <g id="coin" transform="translate(3.612846, 0.000000)">
                                <path d="M3.17456539,6.00777966 C1.7889188,6.00777966 0.665634678,4.66289527 0.665634678,3.00388983 C0.665634678,1.34488439 1.7889188,0 3.17456539,0 C4.56021197,0 5.68349609,1.34488439 5.68349609,3.00388983 C5.68349609,4.66289527 4.56021197,6.00777966 3.17456539,6.00777966" id="XMLID_91_" fill="#FCC62D"></path>
                                <path d="M0.665634678,3.00388983 C0.665634678,1.46954582 1.62670875,0.204693635 2.86734938,0.0232801462 C2.76658253,0.00847526059 2.6641772,0 2.56013338,0 C1.17448679,0 0.0512026675,1.34488439 0.0512026675,3.00388983 C0.0512026675,4.66289527 1.17448679,6.00777966 2.56013338,6.00777966 C2.6641772,6.00777966 2.76658253,5.9993044 2.86734938,5.98460679 C1.62670875,5.80308602 0.665634678,4.53823384 0.665634678,3.00388983" id="XMLID_136_" fill="#E4AF18"></path>
                                <path d="M0.665532272,3.11127889 L0.0513050729,3.11127889 C0.0533531796,3.21199772 0.0572445823,3.31181862 0.0634913077,3.41059192 L0.678230534,3.41059192 C0.671881403,3.31196828 0.667580379,3.21214738 0.665532272,3.11127889" id="XMLID_135_" fill="#CE9912"></path>
                                <path d="M0.688880689,2.57486999 L0.0748582999,2.57486999 C0.0663586571,2.67349364 0.0603167423,2.77346419 0.0559133129,2.87418302 L0.670242918,2.87418302 C0.674646347,2.77361385 0.680585857,2.67364329 0.688880689,2.57486999" id="XMLID_134_" fill="#CE9912"></path>
                                <path d="M0.721855207,3.64768779 L0.107320791,3.64768779 C0.120633485,3.74885559 0.135994285,3.84867649 0.153505597,3.94700082 L0.767835202,3.94700082 C0.75032389,3.84882615 0.735065495,3.74900525 0.721855207,3.64768779" id="XMLID_133_" fill="#CE9912"></path>
                                <path d="M0.86512027,4.18409668 L0.250278639,4.18409668 C0.276391999,4.28616243 0.305167898,4.38568401 0.335991904,4.48340972 L0.950628725,4.48340972 C0.919804719,4.38598333 0.891233631,4.28616243 0.86512027,4.18409668" id="XMLID_132_" fill="#CE9912"></path>
                                <path d="M0.795996669,2.03846109 L0.182076686,2.03846109 C0.162210051,2.13678542 0.14357228,2.23630701 0.128006669,2.33777413 L0.743155516,2.33777413 C0.758618722,2.23675598 0.776027629,2.13663577 0.795996669,2.03846109" id="XMLID_131_" fill="#CE9912"></path>
                                <path d="M0.999885691,1.50215948 L0.385351276,1.50215948 C0.351659921,1.59958587 0.319811861,1.69925711 0.290728746,1.80147251 L0.905570378,1.80147251 C0.934653493,1.69925711 0.966091931,1.59943621 0.999885691,1.50215948" id="XMLID_130_" fill="#CE9912"></path>
                                <path d="M1.41780186,0.8584688 L0.802653016,0.8584688 C0.74438438,0.953650344 0.688983094,1.05347124 0.636551563,1.15778183 L1.2514956,1.15778183 C1.30392713,1.05347124 1.35943082,0.953650344 1.41780186,0.8584688" id="XMLID_129_" fill="#CE9912"></path>
                                <path d="M2.04390808,0.32195262 L1.4280424,0.32195262 C1.32348655,0.410249965 1.22302692,0.510220518 1.12738033,0.621265653 L1.74273399,0.621265653 C1.83848298,0.510370174 1.93904502,0.410399622 2.04390808,0.32195262" id="XMLID_128_" fill="#CE9912"></path>
                                <path d="M1.17960705,4.82778736 L0.564970233,4.82778736 C0.612486309,4.93149933 0.662664923,5.03132022 0.715813292,5.12710039 L1.33096214,5.12710039 C1.27771137,5.03132022 1.22732794,4.93149933 1.17960705,4.82778736" id="XMLID_127_" fill="#CE9912"></path>
                                <path d="M1.00705406,5.36419626 C1.08928555,5.47239792 1.17551084,5.5729671 1.26552513,5.66350929 L1.88149322,5.66350929 C1.7908645,5.57266779 1.70392237,5.47284689 1.62117886,5.36419626 L1.00705406,5.36419626 Z" id="XMLID_126_" fill="#CE9912"></path>
                                <path d="M3.18326984,5.42030463 L3.17456539,5.42030463 C3.10288165,5.42030463 3.03068589,5.4157988 2.96002621,5.40700169 C2.90390809,5.39992109 2.86366279,5.34660205 2.87052395,5.28770435 C2.87707789,5.22891394 2.92653966,5.1879323 2.98429627,5.19394008 C3.04676353,5.20177165 3.11086927,5.20574107 3.17446298,5.20574107 C3.23109313,5.20574107 3.28116934,5.25380331 3.28116934,5.31302285 C3.28127175,5.37224239 3.23989999,5.42030463 3.18326984,5.42030463 M3.77885927,5.30476215 C3.73748751,5.30476215 3.69847108,5.27826355 3.68290547,5.23524356 C3.66293643,5.17988616 3.68976663,5.11798458 3.74260778,5.09706463 C3.80179806,5.0736772 3.86068113,5.04632035 3.91731128,5.01585232 C3.96779711,4.98860275 4.02934272,5.0095227 4.05535367,5.06219805 C4.08115982,5.1148734 4.06139559,5.17956432 4.01090976,5.20659933 C3.94731604,5.2409295 3.88136701,5.2715048 3.81480354,5.29778884 C3.80302693,5.30250924 3.79084069,5.30476215 3.77885927,5.30476215 M2.39280306,5.22279887 C2.37713504,5.22279887 2.36126222,5.21904401 2.34651585,5.21110516 C2.28322935,5.17752596 2.2208645,5.1396555 2.1612646,5.09867386 C2.11385093,5.06627476 2.10064064,4.99976006 2.13166945,4.95019587 C2.16280068,4.90073897 2.22608717,4.88679234 2.27350084,4.91929872 C2.32685402,4.95588181 2.38256253,4.98978285 2.43919268,5.01982175 C2.48967851,5.04664219 2.50964755,5.11122582 2.48404621,5.16400846 C2.46612528,5.20134252 2.43018101,5.22279887 2.39280306,5.22279887 M4.45227675,4.8410903 C4.42616339,4.8410903 4.40015244,4.83079125 4.3802858,4.81019315 C4.3400405,4.76846054 4.33963088,4.70055117 4.37936415,4.65838943 C4.42411528,4.61118545 4.46722793,4.56044117 4.50829247,4.5078731 C4.54392953,4.46195649 4.60834248,4.45498318 4.65217197,4.49231724 C4.69620626,4.52975858 4.7026578,4.5973461 4.66712314,4.6432627 C4.6220648,4.70119486 4.57424151,4.75708867 4.52508694,4.80922761 C4.5050155,4.83046941 4.47859492,4.8410903 4.45227675,4.8410903 M1.76720887,4.69014484 C1.73751132,4.69014484 1.70822339,4.67673462 1.68804954,4.65087971 C1.64381044,4.59455677 1.60120982,4.53447898 1.56127174,4.47236283 C1.52952608,4.42333505 1.54181472,4.35660579 1.58861396,4.32334843 C1.63561801,4.29030565 1.69910932,4.30317946 1.73095738,4.35231452 C1.76741368,4.40885201 1.8063277,4.463673 1.846573,4.51495369 C1.88231246,4.56076301 1.87606574,4.62835053 1.83213385,4.66589916 C1.81308646,4.68220599 1.79004526,4.69014484 1.76720887,4.69014484 M4.90214339,4.13882377 C4.88852348,4.13882377 4.87469876,4.13592717 4.86128366,4.12991939 C4.80946656,4.10621011 4.78581093,4.04302114 4.8083401,3.98862928 C4.83404384,3.92683498 4.85739226,3.86289504 4.87818054,3.79884781 C4.89630628,3.74273944 4.95437011,3.71259326 5.0080305,3.73136758 C5.06148609,3.75035645 5.09036439,3.81118522 5.07234106,3.86729359 C5.04970948,3.93724131 5.02410814,4.00686719 4.99625389,4.07434742 C4.97925461,4.11468537 4.94167185,4.13882377 4.90214339,4.13882377 M1.37683973,3.94936415 C1.33423911,3.94936415 1.29430103,3.92125633 1.27986188,3.8766271 C1.2572303,3.80710851 1.23705645,3.73544428 1.21995476,3.66399462 C1.20643725,3.60649158 1.23982139,3.54834486 1.29460825,3.53407638 C1.3493951,3.51948606 1.4050012,3.55467448 1.41882592,3.61217752 C1.43428912,3.67772669 1.45282449,3.74349042 1.47361277,3.80743036 C1.49204573,3.86332416 1.46326983,3.92447478 1.40981425,3.94357094 C1.39895928,3.94743308 1.3877971,3.94936415 1.37683973,3.94936415 M5.09579188,3.31661622 C5.09333415,3.31661622 5.0904668,3.31650893 5.08780426,3.31629437 C5.03137892,3.31178854 4.98918792,3.260186 4.99359135,3.20107374 C4.99850681,3.13638283 5.00075973,3.07008269 5.00075973,3.00388983 C5.00075973,2.94467029 5.04663732,2.89306775 5.10316506,2.89306775 C5.15979521,2.89306775 5.2055704,2.93758969 5.2055704,2.99691651 L5.2055704,3.00388983 C5.2055704,3.07566134 5.20301026,3.14754013 5.19778759,3.21759513 C5.19358897,3.27391807 5.14883784,3.31661622 5.09579188,3.31661622 M1.24586331,3.11235171 C1.18933556,3.11235171 1.14345797,3.06557685 1.14345797,3.00635731 L1.14345797,3.00388983 C1.14345797,2.93147463 1.14632532,2.85798661 1.1517528,2.78546412 C1.15605383,2.72635186 1.20643725,2.68301003 1.26183854,2.68697945 C1.31816147,2.69159257 1.36035247,2.7431951 1.35594904,2.80230736 C1.35093118,2.86925119 1.34826864,2.93705328 1.34826864,3.00388983 C1.34826864,3.06310937 1.30249346,3.11235171 1.24586331,3.11235171 M5.02851157,2.47252317 C4.98273639,2.47252317 4.94085261,2.44012408 4.9291784,2.39141815 C4.91361279,2.32586898 4.89487261,2.26021253 4.87387952,2.19627259 C4.85554896,2.14016422 4.88422245,2.07912089 4.93747323,2.05991745 C4.99164565,2.04049945 5.04929985,2.07053835 5.06773282,2.12653943 C5.0904668,2.19616531 5.11074306,2.26772226 5.12784475,2.33906464 C5.14156706,2.39656767 5.10828533,2.45482168 5.05329366,2.46919744 C5.04499883,2.47155764 5.036704,2.47252317 5.02851157,2.47252317 M1.37540605,2.27769946 C1.36455109,2.27769946 1.35338891,2.27576839 1.34263635,2.27190625 C1.28897595,2.25291737 1.26030246,2.19198132 1.27853061,2.13587295 C1.30116219,2.06571067 1.32696833,1.99608479 1.3551298,1.9289264 C1.37796619,1.87464182 1.43787331,1.84975244 1.48989522,1.87378356 C1.54171232,1.89760012 1.56536795,1.96089637 1.54273637,2.01507367 C1.51693023,2.07665341 1.4932746,2.14048607 1.47238391,2.20474785 C1.45794476,2.24948435 1.41810908,2.27769946 1.37540605,2.27769946 M4.70071209,1.69902154 C4.66783998,1.69902154 4.6354799,1.68250015 4.61581807,1.65192484 C4.57966899,1.59613832 4.54075496,1.54153189 4.49999764,1.48960751 C4.46395096,1.44390547 4.4704025,1.37621067 4.51402717,1.33855476 C4.55775425,1.30100614 4.6221672,1.30755033 4.65821388,1.35325237 C4.70296501,1.41032627 4.74566804,1.47040407 4.78540131,1.53155469 C4.81704456,1.58068974 4.80465351,1.64731173 4.75785427,1.68056908 C4.74034296,1.69301376 4.72047632,1.69902154 4.70071209,1.69902154 M1.76434152,1.53595324 C1.74150513,1.53595324 1.71866874,1.52812167 1.69951894,1.51181484 C1.65568946,1.47426621 1.64934033,1.40678598 1.68507979,1.36086937 C1.73003573,1.30315178 1.77796143,1.24736525 1.8273208,1.19522631 C1.86736128,1.15306457 1.93208146,1.15295729 1.97212194,1.19458262 C2.01246964,1.23631523 2.01267445,1.30422459 1.97273637,1.34627905 C1.92798524,1.39359032 1.88466779,1.44422732 1.84360325,1.49658082 C1.8234294,1.52254302 1.79393666,1.53595324 1.76434152,1.53595324 M4.12806146,1.10360767 C4.10880926,1.10360767 4.08945465,1.09792173 4.07214815,1.08622802 C4.01859016,1.04953765 3.96277925,1.01585117 3.90625151,0.986134118 C3.85586808,0.959528236 3.83559182,0.894837323 3.86109075,0.841947406 C3.88648728,0.789057489 3.94782807,0.767708415 3.99851871,0.794528859 C4.0617028,0.827786211 4.12417006,0.865549398 4.18417958,0.906531037 C4.23159325,0.938822853 4.24500835,1.00533756 4.21408194,1.05500902 C4.19421531,1.08644258 4.1614456,1.10360767 4.12806146,1.10360767 M2.38891166,1.00179726 C2.35153371,1.00179726 2.31569184,0.980448183 2.29746369,0.943328688 C2.27186236,0.89043877 2.29172899,0.825855139 2.34211242,0.798927412 C2.40611575,0.764811807 2.47216719,0.734129218 2.53842345,0.708274309 C2.59187903,0.687354362 2.65045488,0.715676752 2.67032152,0.771141432 C2.69008575,0.826606112 2.66315314,0.888400417 2.61031199,0.909213082 C2.55122411,0.932385946 2.49223864,0.959528236 2.43540368,0.989996262 C2.4204525,0.997935114 2.40457967,1.00179726 2.38891166,1.00179726 M3.3726173,0.814054143 C3.36882831,0.814054143 3.3648345,0.81383958 3.36084069,0.813303171 C3.29909027,0.805793446 3.23652061,0.802038584 3.17456539,0.802038584 C3.11803764,0.802038584 3.07000954,0.753976347 3.07000954,0.694756804 C3.07000954,0.635537262 3.11363421,0.587475025 3.17016196,0.587475025 L3.17456539,0.587475025 C3.24430342,0.587475025 3.3149631,0.591766296 3.38429151,0.600241557 C3.44051204,0.607000309 3.48075734,0.660319353 3.4742034,0.719109768 C3.46826389,0.773823476 3.42402478,0.814054143 3.3726173,0.814054143" id="XMLID_109_" fill="#FFD949"></path>
                                <path d="M3.93789475,2.79833794 C4.0981591,2.67968429 4.17936653,2.50578053 4.17936653,2.28005966 C4.17936653,2.08856168 4.1172065,1.92624435 3.99462731,1.79793534 C3.87204812,1.66962634 3.71147656,1.6045063 3.51752085,1.6045063 L2.48281735,1.6045063 C2.42086212,1.6045063 2.38082163,1.64656075 2.38082163,1.71146623 C2.38082163,1.77658627 2.42086212,1.81853345 2.48281735,1.81853345 L2.7198857,1.8182116 L2.72019291,3.37476294 L2.41185045,3.37476294 C2.35552752,3.37476294 2.30944512,3.42303974 2.30944512,3.48204472 C2.30944512,3.5410497 2.35552752,3.5893265 2.41185045,3.5893265 L2.72029532,3.5893265 L2.72029532,3.98562539 L2.48281735,3.98562539 C2.42086212,3.98562539 2.38082163,4.02757257 2.38082163,4.09258533 C2.38082163,4.15738352 2.42086212,4.19954526 2.48281735,4.19954526 L3.65320792,4.19954526 C3.87245774,4.19954526 4.04511314,4.13313784 4.16666827,4.00203951 C4.28771138,3.8713703 4.34894977,3.70218693 4.34894977,3.49910252 C4.34894977,3.13402263 4.21080497,2.89896825 3.93789475,2.79833794 M2.92397953,1.81853345 L3.51762326,1.81853345 C3.66068351,1.81853345 3.77046203,1.86037334 3.85279592,1.94662789 C3.93512981,2.03298972 3.9751703,2.13973509 3.9751703,2.27297906 C3.9751703,2.40665216 3.93431057,2.51597229 3.85033819,2.60716181 C3.76698025,2.69781491 3.66365327,2.74180044 3.53441773,2.74180044 L2.92408194,2.74212229 L2.92387713,1.81906985 C2.92397953,1.81906985 2.91967851,1.81853345 2.92397953,1.81853345 M4.0156204,3.85034307 C3.92867827,3.9414253 3.8101953,3.98562539 3.65320792,3.98562539 L2.92418434,3.98605452 L2.92408194,3.5893265 L3.33360087,3.5893265 C3.39002621,3.5893265 3.43600621,3.5410497 3.43600621,3.48204472 C3.43600621,3.42303974 3.39002621,3.37476294 3.33360087,3.37476294 L2.92408194,3.37476294 L2.92397953,2.95647128 C2.92397953,2.95647128 2.9195761,2.95582759 2.92387713,2.95582759 L3.65320792,2.95582759 C3.8101953,2.95582759 3.92867827,3.00002768 4.0156204,3.09110991 C4.10266494,3.18219215 4.14485594,3.30642445 4.14485594,3.47078013 C4.14485594,3.63502854 4.10266494,3.75926084 4.0156204,3.85034307" id="XMLID_105_" fill="#CE9912"></path>
                            </g>
                        </g>
                        <g id="Group" transform="translate(0.000000, 16.401174)">
                            <rect id="Rectangle-2" fill="#FFEBB8" x="0" y="0" width="27.698486" height="12.6162876" rx="2"></rect>
                            <rect id="Rectangle-2" fill="#FC6101" x="2.408564" y="1.85922898" width="22.881358" height="9.0559141"></rect>
                            <path d="M10.838538,0 L18.06423,0 L18.06423,7.70671529 C18.06423,8.2582333 17.6122306,8.70532698 17.0595285,8.70532698 L11.8432395,8.70532698 C11.2883582,8.70532698 10.838538,8.26166041 10.838538,7.70671529 L10.838538,0 Z" id="Rectangle-3" fill="#FFEBB8"></path>
                            <path d="M14.9330674,4.94154997 L14.9330674,7.16371767 L13.9696418,7.16371767 L13.9696418,4.94152306 C13.5443281,4.74683242 13.247102,4.30222267 13.247102,3.78488629 C13.247102,3.08810797 13.7862774,2.52325753 14.451384,2.52325753 C15.1164906,2.52325753 15.655666,3.08810797 15.655666,3.78488629 C15.655666,4.3022465 15.3584126,4.74687339 14.9330674,4.94154997 Z" id="Combined-Shape" fill="#804B1B"></path>
                        </g>
                    </g>
                    <path d="M4.21498721,8.83140182 C4.21529143,8.83210846 4.55728925,9.62638478 4.91311675,9.97681497 C5.26910261,10.3274011 6.02141001,10.7238445 6.02141001,10.7238445 L4.21498701,10.7238445 L4.21498701,8.83140135 C4.21498701,8.83140135 4.21498707,8.8314015 4.21498721,8.83140182 C4.21498696,8.83140146 4.21498701,8.83140135 4.21498701,8.83140135 L4.21498701,10.7238445 L2.408564,10.7238445 C2.408564,10.7238445 3.1608714,10.3274011 3.51685727,9.97681497 C3.87271184,9.62635811 4.21473464,8.83198754 4.21498687,8.83140167 Z M3.51685727,11.470874 C3.1608714,11.1202879 2.408564,10.7238445 2.408564,10.7238445 L4.21498701,10.7238445 L4.21498701,12.6162876 C4.21498701,12.6162876 3.87284313,11.8214602 3.51685727,11.470874 Z M4.91311675,11.470874 C4.55713088,11.8214602 4.21498701,12.6162876 4.21498701,12.6162876 L4.21498701,10.7238445 L6.02141001,10.7238445 C6.02141001,10.7238445 5.26910261,11.1202879 4.91311675,11.470874 Z" id="Combined-Shape" fill="#FFFFFF"></path>
                    <path d="M23.4834979,14.508728 C23.4834986,14.5087299 23.483499,14.5087308 23.483499,14.5087308 L23.483499,12.6162876 L21.677076,12.6162876 C21.677076,12.6162876 22.4293834,13.012731 22.7853693,13.3633172 C23.1409731,13.7135271 23.4827647,14.5070254 23.4834979,14.508728 C23.4843942,14.5066521 23.8261086,13.7134447 24.1816288,13.3633172 C24.5376146,13.012731 25.289922,12.6162876 25.289922,12.6162876 L23.483499,12.6162876 L23.483499,14.5087308 C23.483499,14.5087308 23.4834996,14.5087294 23.4835008,14.5087267 Z M23.4834971,10.723849 C23.4825572,10.7260315 23.1408652,11.5191545 22.7853693,11.8692581 C22.4293834,12.2198443 21.677076,12.6162876 21.677076,12.6162876 L23.483499,12.6162876 L23.483499,10.7238445 C23.483499,10.7238445 23.4834984,10.723846 23.4834971,10.723849 C23.4834995,10.7238455 23.483499,10.7238445 23.483499,10.7238445 L23.483499,12.6162876 L25.289922,12.6162876 C25.289922,12.6162876 24.5376146,12.2198443 24.1816288,11.8692581 C23.826045,11.519068 23.484272,10.7256396 23.4835003,10.7238475 Z" id="Combined-Shape" fill="#FFFFFF"></path>
                </g>
            </g>
        </g>
    </g>
</svg>