<?xml version="1.0" encoding="UTF-8"?>
<svg width="375px" height="1089px" viewBox="0 0 375 1089" version="1.1" xmlns="http://www.w3.org/2000/svg" xmlns:xlink="http://www.w3.org/1999/xlink" style="background: #FFFFFF;">
    <!-- Generator: Sketch 45.1 (43504) - http://www.bohemiancoding.com/sketch -->
    <title>payment10-c copy</title>
    <desc>Created with Sketch.</desc>
    <defs>
        <linearGradient x1="100%" y1="100%" x2="1.84749681%" y2="1.84749681%" id="linearGradient-1">
            <stop stop-color="#FC9000" stop-opacity="0.868404665" offset="0%"></stop>
            <stop stop-color="#FFC13A" offset="100%"></stop>
        </linearGradient>
        <circle id="path-2" cx="23.75" cy="2.75" r="2.75"></circle>
        <circle id="path-3" cx="30.75" cy="2.75" r="2.75"></circle>
    </defs>
    <g id="Make-Payment" stroke="none" stroke-width="1" fill="none" fill-rule="evenodd">
        <g id="payment10-c-copy">
            <text id="JUNE-STATEMENT" font-family="OpenSans-Light, Open Sans" font-size="20" font-weight="300" fill="#8D99B1">
                <tspan x="108.966797" y="164">JUNE STATEMENT</tspan>
            </text>
            <g id="Group-4" transform="translate(87.000000, 988.000000)" font-size="17" font-family="OpenSans, Open Sans" fill="#FFFFFF" font-weight="normal">
                <g id="Group-15">
                    <text id="Continue">
                        <tspan x="64.4331055" y="18">Continue</tspan>
                    </text>
                </g>
            </g>
            <g id="Group-6">
                <rect id="Rectangle-8" fill="url(#linearGradient-1)" x="0" y="0" width="375" height="57"></rect>
                <text id="Make-Payment" font-family="OpenSans-Bold, Open Sans" font-size="17" font-weight="bold" fill="#FFFFFF">
                    <tspan x="123.399414" y="43">Make Payment</tspan>
                </text>
                <path d="M20.190097,35.1548856 L19.1430249,36.2012106 C18.9564522,36.3882417 18.9518681,36.6866664 19.1324815,36.8672798 L27.9073589,45.7943491 C28.0879723,45.975421 28.3859385,45.9703784 28.5725113,45.7838057 L29.8569751,44.4993419 C30.0435478,44.3127692 30.0481319,44.0148029 29.8675185,43.8337311 L22.6814959,36.5226918 L29.8503275,29.0716693 C30.0295657,28.8928896 30.0249816,28.5981322 29.8402425,28.4129347 L28.5686142,27.1417647 C28.3838751,26.9570257 28.0891177,26.9519832 27.9098795,27.1316797 L20.190097,35.1548856 Z" id="Arrow" fill="#FFFFFF"></path>
                <g id="Group-2">
                    <rect id="Background" fill-opacity="0" fill="#000000" x="0" y="0" width="375" height="20"></rect>
                    <g id="Charge" transform="translate(315.000000, 3.000000)" fill="#FFFFFF">
                        <g id="Battery-Icon" transform="translate(30.000000, 2.000000)">
                            <path d="M1.50245835,1.02631579 L1.50245835,1.02631579 C0.947213227,1.02631579 0.5,1.49554092 0.5,2.07901162 L0.5,8.92098838 C0.5,9.50189311 0.949063705,9.97368421 1.50245835,9.97368421 L20.9975417,9.97368421 C21.5527868,9.97368421 22,9.50445908 22,8.92098838 L22,2.07901162 C22,1.49810689 21.5509363,1.02631579 20.9975417,1.02631579 L1.50245835,1.02631579 Z M1.50245835,0.5 L1.50245835,0.5 L20.9975417,0.5 C21.8266197,0.5 22.5,1.20694758 22.5,2.07901162 L22.5,8.92098838 C22.5,9.79681942 21.8273265,10.5 20.9975417,10.5 L1.50245835,10.5 C0.673380308,10.5 0,9.79305242 0,8.92098838 L0,2.07901162 C0,1.20318058 0.672673516,0.5 1.50245835,0.5 L1.50245835,0.5 Z" id="Shape" fill-rule="nonzero"></path>
                            <path d="M1.50966585,1.5 C1.22818517,1.5 1,1.73079681 1,2.00043583 L1,8.99956417 C1,9.27594725 1.22247314,9.5 1.50966585,9.5 L10,9.5 L10,1.5 L1.50966585,1.5 Z" id="Charge"></path>
                            <path d="M24.5,5.73227779 C24.5,6.61389637 23.8480727,7.34324909 23,7.46455558 L23,4 C23.8480727,4.12130649 24.5,4.85065921 24.5,5.73227779 Z" id="+"></path>
                        </g>
                        <text id="42%" font-family=".SFNSText, .SF NS Text" font-size="12" font-weight="normal">
                            <tspan x="0" y="12">42%</tspan>
                        </text>
                    </g>
                    <path d="M306.427765,14.8689464 L306.427765,11.3107321 L308.139765,13.1751786 L306.427765,14.8689464 L306.427765,14.8689464 L306.427765,14.8689464 L306.427765,14.8689464 Z M308.218353,7.84653571 L306.427765,9.64782143 L306.427765,6.23521429 L308.218353,7.84653571 L308.218353,7.84653571 L308.218353,7.84653571 L308.218353,7.84653571 Z M306.857882,10.5108571 L309.514824,7.84653571 L305.550588,4 L305.456941,4 L305.456941,9.34985714 L302.766118,6.52883929 L302,7.32919643 L305.237647,10.5108571 L302,13.6920357 L302.766118,14.4923929 L305.456941,11.671375 L305.456941,17.02075 L305.628235,17.02075 L309.553412,13.1645714 L306.857882,10.5108571 L306.857882,10.5108571 Z" id="Bluetooth-Icon" fill="#FFFFFF"></path>
                    <path d="M90.9957516,7.52087671 C92.9355242,7.52087671 94.7033612,8.23545205 96.0588529,9.40717808 L97,8.36810959 C95.394602,6.97446575 93.2978883,6 90.9957516,6 C88.6971136,6 86.6033987,6.97150685 85,8.36071233 L85.9391478,9.40126027 C87.2936399,8.2329863 89.0584781,7.52087671 90.9957516,7.52087671 L90.9957516,7.52087671 Z M90.9957516,10.5202192 C92.1583156,10.5202192 93.2204173,10.9423562 94.0396101,11.6376986 L95.0352368,10.5379726 C93.9516431,9.60789041 92.5421717,9.00032877 90.9957516,9.00032877 C89.4523304,9.00032877 88.0438586,9.60641096 86.9612645,10.5335342 L87.9553917,11.6347397 C88.7740847,10.9408767 89.834687,10.5202192 90.9957516,10.5202192 L90.9957516,10.5202192 Z M93.0434837,12.7374247 C92.4891916,12.2773151 91.7754592,11.9587397 90.9952518,11.9587397 C90.2165438,11.9587397 89.5038111,12.2768219 88.9495189,12.7349589 L90.9952518,15 L93.0434837,12.7374247 L93.0434837,12.7374247 Z" id="Wifi" fill="#FFFFFF"></path>
                    <g id="Signal" transform="translate(7.000000, 8.000000)">
                        <circle id="Oval-1" fill="#FFFFFF" cx="2.75" cy="2.75" r="2.75"></circle>
                        <circle id="Oval-1-copy" fill="#FFFFFF" cx="9.75" cy="2.75" r="2.75"></circle>
                        <circle id="Oval-1-copy-2" fill="#FFFFFF" cx="16.75" cy="2.75" r="2.75"></circle>
                        <g id="Oval-1-copy-3">
                            <use fill="#FFFFFF" fill-rule="evenodd" xlink:href="#path-2"></use>
                            <circle stroke="#FFFFFF" stroke-width="0.5" cx="23.75" cy="2.75" r="2.5"></circle>
                        </g>
                        <g id="Oval-1-copy-4">
                            <use fill="#FFFFFF" fill-rule="evenodd" xlink:href="#path-3"></use>
                            <circle stroke="#FFFFFF" stroke-width="0.5" cx="30.75" cy="2.75" r="2.5"></circle>
                        </g>
                    </g>
                    <text id="AT&amp;T" font-family=".SFNSText, .SF NS Text" font-size="12" font-weight="normal" fill="#FFFFFF">
                        <tspan x="44" y="15">AT&amp;T</tspan>
                    </text>
                    <text id="9:11-PM" font-family=".SFNSText, .SF NS Text" font-size="12" font-weight="normal" fill="#FFFFFF">
                        <tspan x="166.550781" y="15">9:11 PM</tspan>
                    </text>
                </g>
            </g>
            <g id="Group-20" transform="translate(27.000000, 80.000000)">
                <circle id="Oval-6-Copy-2" fill="#D8D8D8" cx="274" cy="29" r="5"></circle>
                <path d="M49.5,29 L157.5,29" id="Path-2" stroke="#D8D8D8"></path>
                <path d="M163.5,29 L271.5,29" id="Path-2-Copy" stroke="#D8D8D8"></path>
                <circle id="Oval-6" fill="#FFC049" cx="46" cy="29" r="5"></circle>
                <circle id="Oval-6-Copy" fill="#D8D8D8" cx="161" cy="29" r="5"></circle>
                <text id="Check-statement" font-family="Lato-Regular, Lato" font-size="12" font-weight="normal" fill="#FFC049">
                    <tspan x="0" y="12">Check statement</tspan>
                </text>
                <text id="Choose-amount" font-family="Lato-Regular, Lato" font-size="12" font-weight="normal" fill="#9B9B9B">
                    <tspan x="123" y="13">Choose amount</tspan>
                </text>
                <text id="Submit" font-family="Lato-Regular, Lato" font-size="12" font-weight="normal" fill="#9B9B9B">
                    <tspan x="258" y="13">Submit</tspan>
                </text>
            </g>
            <rect id="Rectangle-10" fill="#F2F7F7" x="0" y="186.877773" width="375" height="563.599834" rx="5"></rect>
            <g id="Group-3-Copy" transform="translate(55.000000, 275.000000)" fill="#FFFFFF">
                <path d="M3.74286604,0.0476190476 C2.83771167,0.0476190476 2.12826635,0.304487179 1.60229827,0.818223443 C1.06409838,1.33195971 0.807230246,2.04140502 0.807230246,2.94655939 L2.20165725,2.94655939 C2.20165725,2.43282313 2.29951177,2.02917321 2.50745264,1.74784144 C2.73985714,1.4053506 3.11904343,1.246337 3.65724333,1.246337 C4.07312507,1.246337 4.40338409,1.35642334 4.63578859,1.58882784 C4.85596128,1.82123234 4.97827943,2.13925955 4.97827943,2.54290947 C4.97827943,2.84870487 4.86819309,3.14226845 4.64802041,3.41136839 L4.50123862,3.58261381 C3.70617059,4.29205913 3.22912977,4.8057954 3.07011617,5.13605442 C2.89887075,5.46631345 2.82547985,5.86996337 2.82547985,6.33477237 L2.82547985,6.50601779 L4.23213867,6.50601779 L4.23213867,6.33477237 C4.23213867,6.04120879 4.29329775,5.78434066 4.41561591,5.53970434 C4.52570225,5.31953166 4.68471586,5.11159079 4.90488854,4.92811355 C5.4920157,4.41437729 5.84673836,4.08411826 5.9568247,3.9618001 C6.25038828,3.570382 6.40940188,3.06887755 6.40940188,2.45728676 C6.40940188,1.711146 6.16476557,1.12401884 5.67549294,0.695905285 C5.1862203,0.255559916 4.53793407,0.0476190476 3.74286604,0.0476190476 Z M3.52269335,7.10537677 C3.25359341,7.10537677 3.03342072,7.19099948 2.84994349,7.3622449 C2.66646625,7.53349032 2.58084354,7.753663 2.58084354,8.02276295 C2.58084354,8.2918629 2.66646625,8.51203558 2.84994349,8.683281 C3.03342072,8.85452643 3.25359341,8.95238095 3.52269335,8.95238095 C3.7917933,8.95238095 4.01196599,8.86675824 4.19544322,8.69551282 C4.37892046,8.5242674 4.47677499,8.2918629 4.47677499,8.02276295 C4.47677499,7.753663 4.37892046,7.53349032 4.20767504,7.3622449 C4.0241978,7.19099948 3.7917933,7.10537677 3.52269335,7.10537677 Z" id="？"></path>
            </g>
            <g id="Group-18" transform="translate(36.000000, 240.000000)" font-size="16" fill="#4A4A4A">
                <text id="June-Balance" font-family="Lato-Regular, Lato" font-weight="normal">
                    <tspan x="0" y="18">June Balance</tspan>
                </text>
                <text id="$-44.78" font-family="OpenSans-Bold, Open Sans" font-weight="bold">
                    <tspan x="114" y="17">$ 44.78</tspan>
                </text>
            </g>
            <g id="button/active" transform="translate(44.000000, 1019.000000)">
                <rect id="Rectangle-6" fill="#80BCEA" fill-rule="evenodd" x="0.520171079" y="0" width="287.422044" height="36" rx="5"></rect>
                <text id="Start-Payment" font-family="OpenSans, Open Sans" font-size="17" font-weight="normal" fill="#FFFFFF">
                    <tspan x="108.475306" y="24">Continue</tspan>
                </text>
            </g>
            <g id="Group-15" transform="translate(38.000000, 872.000000)">
                <g id="Group-14">
                    <text id="budget" font-family="Lato-Regular, Lato" font-size="12" font-weight="normal" fill="#9B9B9B">
                        <tspan x="0" y="12">budget</tspan>
                    </text>
                    <text id="$50" font-family="OpenSans, Open Sans" font-size="12" font-weight="normal" fill="#4A4A4A">
                        <tspan x="0.208007812" y="27">$50</tspan>
                    </text>
                    <g id="Group-4" transform="translate(44.267919, 4.304394)" stroke-linecap="square">
                        <path d="M0.433647925,19.5 L254.557252,19.5" id="Line" stroke="#E6E6E6"></path>
                        <path d="M0.433647925,19.5 L254.557252,19.5" id="Line" stroke="#4A4A4A" stroke-dasharray="5,5"></path>
                        <path d="M0.433647925,0.5 L254.557252,0.5" id="Line" stroke="#E6E6E6"></path>
                        <path d="M0.433647925,38.5 L254.557252,38.5" id="Line" stroke="#E6E6E6"></path>
                        <path d="M0.433647925,56.5 L254.557252,56.5" id="Line" stroke="#E6E6E6"></path>
                        <path d="M0.433647925,75.5 L254.557252,75.5" id="Line" stroke="#E6E6E6"></path>
                    </g>
                    <text id="Feb" font-family="Lato-Regular, Lato" font-size="12" font-weight="normal" fill="#4A4A4A">
                        <tspan x="53" y="97">Feb</tspan>
                    </text>
                    <rect id="Rectangle-9" fill="#F6511D" x="55" y="13" width="15" height="67"></rect>
                    <text id="Mar" font-family="Lato-Regular, Lato" font-size="12" font-weight="normal" fill="#4A4A4A">
                        <tspan x="103" y="97">Mar</tspan>
                    </text>
                    <rect id="Rectangle-9" fill="#80BCEA" x="106.234375" y="27" width="15" height="53"></rect>
                    <text id="Apr" font-family="Lato-Regular, Lato" font-size="12" font-weight="normal" fill="#4A4A4A">
                        <tspan x="155" y="97">Apr</tspan>
                    </text>
                    <rect id="Rectangle-9" fill="#80BCEA" x="157.46875" y="34" width="15" height="46"></rect>
                    <text id="Jun" font-family="Lato-Regular, Lato" font-size="12" font-weight="normal" fill="#4A4A4A">
                        <tspan x="257" y="97">Jun</tspan>
                    </text>
                    <text id="May" font-family="Lato-Regular, Lato" font-size="12" font-weight="normal" fill="#4A4A4A">
                        <tspan x="204" y="97">May</tspan>
                    </text>
                    <g id="Group-13" transform="translate(208.000000, 20.000000)">
                        <rect id="Rectangle-9" fill="#80BCEA" x="51.3125" y="7.00433681" width="14.375" height="53"></rect>
                        <rect id="Rectangle-9" fill="#F6511D" x="0.703125" y="0" width="14.375" height="60"></rect>
                    </g>
                    <polyline id="Line-3" stroke="#FFC049" stroke-width="2" stroke-linecap="square" points="62.3043607 13.1201161 113.455301 26.7175927 165.393932 34.4732753 215.434335 20.1715538 266.584439 26.7175927"></polyline>
                </g>
            </g>
            <text id="HISTORY-TREND" font-family="Lato-Light, Lato" font-size="16" font-weight="300" fill="#4A4A4A">
                <tspan x="36" y="791">HISTORY TREND</tspan>
            </text>
            <g id="Group-12" transform="translate(36.000000, 807.000000)">
                <text id="You-are-back-on-trac" font-family="Lato-Bold, Lato" font-size="16" font-weight="bold" fill="#4A4A4A">
                    <tspan x="11" y="33">You are back on track! Good job!</tspan>
                </text>
                <text id="OHANA-SUGGESTIONS" font-family="Lato-Regular, Lato" font-size="12" font-weight="normal" fill="#9B9B9B">
                    <tspan x="11" y="12">OHANA SUGGESTIONS</tspan>
                </text>
                <rect id="Rectangle" fill="#FA8F01" x="0" y="0" width="3.80494159" height="36"></rect>
            </g>
            <text id="ACCOUNT-SUMMARY" font-family="Lato-Light, Lato" font-size="16" font-weight="300" fill="#4A4A4A">
                <tspan x="36" y="220">ACCOUNT SUMMARY</tspan>
            </text>
            <g id="Group-34" transform="translate(37.000000, 279.000000)">
                <rect id="Rectangle-11" fill="#E6E6E6" x="18.789317" y="0" width="281.727024" height="10"></rect>
                <rect id="Rectangle-11" fill="#304D6D" transform="translate(9.394659, 5.000000) scale(-1, 1) translate(-9.394659, -5.000000) " x="0" y="0" width="18.789317" height="10"></rect>
                <rect id="Rectangle-11" fill="#4FCAFF" x="18.789317" y="0" width="144.677741" height="10"></rect>
                <rect id="Rectangle-11" fill="#F9DC5C" transform="translate(202.467058, 5.000000) scale(-1, 1) translate(-202.467058, -5.000000) " x="163.467058" y="0" width="78" height="10"></rect>
                <rect id="Rectangle-11-Copy" fill="#6C5A49" transform="translate(202.467058, 5.000000) scale(-1, 1) translate(-202.467058, -5.000000) " x="163.467058" y="0" width="78" height="10"></rect>
                <rect id="Rectangle-11" fill="#837FE5" x="241" y="0" width="10" height="10"></rect>
            </g>
            <g id="icon/alarm" transform="translate(118.000000, 276.000000)">
                <g id="Group-6">
                    <path d="M9.32160156,0.0238966814 L17.347703,14.5092269 L17.347703,14.5092269 C17.5404254,14.8570482 17.414693,15.2952454 17.0668718,15.4879679 C16.9600832,15.5471378 16.8400025,15.5781818 16.7179169,15.5781818 L0.665714089,15.5781818 L0.665714089,15.5781818 C0.268069069,15.5781818 -0.0542859106,15.2558268 -0.0542859106,14.8581818 C-0.0542859106,14.7360962 -0.0232419213,14.6160155 0.035928026,14.5092269 L8.06202943,0.0238966814 L8.06202943,0.0238966814 C8.25475189,-0.323924557 8.69294914,-0.449656957 9.04077038,-0.256934493 C9.15885805,-0.191503913 9.25617098,-0.0941909828 9.32160156,0.0238966814 Z" id="Rectangle-10" fill="#F84600"></path>
                    <path d="M9.31314268,10.3359902 L7.98743245,10.3359902 L7.71033728,5.02771601 L9.59023785,5.02771601 L9.31314268,10.3359902 Z M7.68860433,12.1941578 C7.68860433,11.8898949 7.77010209,11.6598901 7.93310006,11.5041365 C8.09609804,11.3483828 8.33334709,11.2705072 8.64485433,11.2705072 C8.94549503,11.2705072 9.17821643,11.3501939 9.34302549,11.5095697 C9.50783455,11.6689455 9.59023785,11.8971392 9.59023785,12.1941578 C9.59023785,12.4803098 9.50692902,12.7057869 9.34030887,12.870596 C9.17368872,13.035405 8.94187286,13.1178083 8.64485433,13.1178083 C8.34059144,13.1178083 8.10515345,13.0372161 7.9385333,12.8760292 C7.77191315,12.7148423 7.68860433,12.4875541 7.68860433,12.1941578 Z" id="!" fill="#FFFFFF"></path>
                </g>
            </g>
        </g>
    </g>
</svg>