<?xml version="1.0" encoding="UTF-8"?>
<svg width="375px" height="56px" viewBox="0 0 375 56" version="1.1" xmlns="http://www.w3.org/2000/svg" xmlns:xlink="http://www.w3.org/1999/xlink">
    <!-- Generator: Sketch 43 (38999) - http://www.bohemiancoding.com/sketch -->
    <title>Artboard</title>
    <desc>Created with Sketch.</desc>
    <defs>
        <rect id="path-1" x="0" y="0" width="375" height="56"></rect>
        <filter x="-2.4%" y="-19.6%" width="104.8%" height="132.1%" filterUnits="objectBoundingBox" id="filter-2">
            <feOffset dx="0" dy="-2" in="SourceAlpha" result="shadowOffsetOuter1"></feOffset>
            <feGaussianBlur stdDeviation="2" in="shadowOffsetOuter1" result="shadowBlurOuter1"></feGaussianBlur>
            <feColorMatrix values="0 0 0 0 0   0 0 0 0 0   0 0 0 0 0  0 0 0 0.12 0" type="matrix" in="shadowBlurOuter1" result="shadowMatrixOuter1"></feColorMatrix>
            <feOffset dx="0" dy="0" in="SourceAlpha" result="shadowOffsetOuter2"></feOffset>
            <feGaussianBlur stdDeviation="1" in="shadowOffsetOuter2" result="shadowBlurOuter2"></feGaussianBlur>
            <feColorMatrix values="0 0 0 0 0   0 0 0 0 0   0 0 0 0 0  0 0 0 0.24 0" type="matrix" in="shadowBlurOuter2" result="shadowMatrixOuter2"></feColorMatrix>
            <feMerge>
                <feMergeNode in="shadowMatrixOuter1"></feMergeNode>
                <feMergeNode in="shadowMatrixOuter2"></feMergeNode>
            </feMerge>
        </filter>
        <polygon id="path-3" points="5.62325851e-06 0.0183643127 27.5914176 0.0183643127 27.5914176 26.9966228 5.62325851e-06 26.9966228"></polygon>
        <rect id="path-5" x="0" y="0" width="17.6970806" height="11.9294276" rx="2"></rect>
    </defs>
    <g id="Page-1" stroke="none" stroke-width="1" fill="none" fill-rule="evenodd">
        <g id="Artboard">
            <g id="navigation/new">
                <g id="Rectangle-4">
                    <use fill="black" fill-opacity="1" filter="url(#filter-2)" xlink:href="#path-1"></use>
                    <use fill="#FFFFFF" fill-rule="evenodd" xlink:href="#path-1"></use>
                </g>
                <g id="text/navigation" transform="translate(289.000000, 36.000000)" font-size="10" font-family="Lato-Regular, Lato" fill="#4A4A4A" font-weight="normal">
                    <text id="navigation">
                        <tspan x="22.16" y="11">Profile</tspan>
                    </text>
                </g>
                <g id="icon/profile" transform="translate(311.000000, 5.000000)" stroke-width="1" fill-rule="evenodd" fill="#777777">
                    <g id="Group" transform="translate(0.632198, 4.448298)">
                        <g id="user-(1)" fill-rule="nonzero">
                            <path d="M20.8717247,21.1135464 L20.8717247,19.9065275 C20.8717247,18.6762967 20.3171728,17.4924897 19.3914288,16.7450664 C17.2358318,15.0088161 15.0399851,13.7971548 14.2707679,13.3932677 L14.2707679,12.0144807 C14.4272946,11.652375 14.5569882,11.2577727 14.6553765,10.8306737 C15.2278172,10.6171242 15.5408707,9.74435663 15.7510637,8.97372147 C16.0328119,7.94775538 16.0015066,7.22818641 15.6705643,6.82894169 C16.0193953,4.85592998 15.8628686,3.40286489 15.2099284,2.50688546 C14.8655695,2.03800503 14.4630722,1.83838267 14.1947406,1.75017744 C14.0024363,1.47163461 13.6133555,1.00275418 12.9559431,0.626721365 C12.2761698,0.208907122 11.5114248,0 10.6706525,0 C10.5185979,0 10.3665434,0.00928476096 10.2323776,0.0185695219 C9.85671337,0.0371390439 9.48552135,0.111417132 9.11880153,0.236761405 C8.70288758,0.38531758 8.30933459,0.594224702 7.92919819,0.86348277 C7.49539547,1.15131036 7.09737029,1.49484652 6.75301143,1.87552171 C6.07771029,2.59509069 5.63049099,3.40750727 5.43818669,4.27563242 C5.25482678,4.9952014 5.2414102,5.71941275 5.39346476,6.42969697 C5.31296528,6.49004791 5.2414102,6.55968362 5.17879949,6.64324647 C4.87021818,7.06570309 4.8568016,7.7295635 5.12960537,8.73696007 C5.31743748,9.43331714 5.56788029,10.1436014 5.99273862,10.4639256 C6.11796002,11.1324284 6.3281531,11.7405802 6.60990125,12.2790964 L6.60990125,13.3979101 C5.84068406,13.8017972 3.6448373,15.0088161 1.48924027,16.7497088 C0.563496318,17.497132 0.008944386,18.6762967 0.008944386,19.9111699 L0.008944386,21.1181888 C0.008944386,21.9909563 0.693189915,22.6965982 1.52949001,22.6965982 C1.52949001,22.6965982 7.61813621,23.6092902 10.4403346,23.6092902 C13.5586992,23.6092902 19.3511791,22.6965982 19.3511791,22.6965982 C20.1874792,22.6965982 20.8717247,21.986314 20.8717247,21.1135464 Z M1.10015948,21.1135464 L1.10015948,19.9065275 C1.10015948,19.0244752 1.49371246,18.179562 2.15559703,17.6456882 C4.48113739,15.7748089 6.84692748,14.5399357 7.29861898,14.312459 C7.54906178,14.1871148 7.70558854,13.9271414 7.70558854,13.6346715 L7.70558854,12.1258978 C7.70558854,12.0237654 7.67875538,11.9262755 7.62956126,11.8380702 C7.33439652,11.3181236 7.12867564,10.6960446 7.0258152,9.98576042 C6.99003766,9.75828377 6.82903871,9.57723093 6.61884564,9.52152237 C6.56070713,9.45188666 6.39523599,9.20119811 6.18504292,8.42592057 C6.01062739,7.78527207 6.02404397,7.48815972 6.04193274,7.38138497 C6.21634827,7.39066973 6.3907638,7.30710688 6.50256862,7.16319308 C6.61884564,7.00999453 6.65015099,6.80572979 6.58754029,6.62467695 C6.35498625,5.95153178 6.3281531,5.25981709 6.50704082,4.55417525 C6.65909538,3.8763877 7.00792643,3.24502396 7.54906178,2.66936878 C7.83975433,2.34440214 8.1751688,2.06121693 8.53294424,1.82445553 C8.85046995,1.59233651 9.16352346,1.42985319 9.47210477,1.31843606 C9.74490855,1.22094607 10.0177123,1.16987988 10.3039327,1.15595274 C11.0865664,1.08631703 11.7887007,1.23951559 12.4103356,1.61554841 C13.0901089,2.00550837 13.3673849,2.51617022 13.3673849,2.51617022 C13.4523565,2.69722306 13.6044111,2.80399781 13.8011876,2.81792495 C13.8146042,2.81792495 14.1052967,2.86434876 14.3557395,3.23109682 C14.6195989,3.62105678 14.9952631,4.62381096 14.5256829,6.96357072 C14.4720165,7.22354403 14.6017101,7.48351734 14.829792,7.59493447 C14.852153,7.67849732 14.8879305,7.96168253 14.6956262,8.66732436 C14.5256829,9.28940334 14.3870449,9.57258855 14.3065454,9.69793283 C14.203685,9.6793633 14.0963523,9.68864806 13.9979641,9.73507187 C13.8280208,9.80934996 13.7027994,9.97183327 13.671494,10.1575285 C13.5775779,10.7146142 13.4255234,11.2159912 13.2287469,11.6430902 C13.1929694,11.7220107 13.1750806,11.8055736 13.1750806,11.8891364 L13.1750806,13.6346715 C13.1750806,13.9271414 13.3316073,14.1824724 13.5820501,14.312459 C14.0337416,14.5399357 16.3995317,15.7794513 18.7205999,17.6456882 C19.3824845,18.179562 19.7760374,19.0244752 19.7760374,19.9065275 L19.7760374,21.1135464 C19.7760374,21.3549502 19.5837331,21.5545726 19.3511791,21.5545726 C19.3511791,21.5545726 13.4523437,22.7012406 10.4380985,22.7012406 C7.5117807,22.7012406 1.52949001,21.5545726 1.52949001,21.5545726 C1.29246378,21.559215 1.10015948,21.3595926 1.10015948,21.1135464 Z" id="Shape"></path>
                        </g>
                        <rect id="Rectangle" x="18.1609924" y="7.26439698" width="12.7126947" height="1" rx="0.5"></rect>
                        <rect id="Rectangle-Copy" x="19.9770917" y="10.8965955" width="10.8965955" height="1" rx="0.5"></rect>
                        <rect id="Rectangle-Copy-2" x="21.7931909" y="14.528794" width="9.08049622" height="1" rx="0.5"></rect>
                    </g>
                </g>
                <g id="text/navigation" transform="translate(200.000000, 36.000000)" font-size="10" font-family="Lato-Regular, Lato" fill="#4A4A4A" font-weight="normal">
                    <text id="navigation">
                        <tspan x="17.53" y="11">Rewards</tspan>
                    </text>
                </g>
                <g id="icon/reward" transform="translate(219.238282, 5.000000)" fill-rule="evenodd" fill="#777777">
                    <path d="M22.9079755,27.5644172 L9.90265849,27.5644172 C8.55214724,27.5644172 7.45685072,26.6711656 7.43558282,25.5705521 L8.8605317,9.49734151 L11.2638037,9.49734151 L11.2638037,11.6773006 C11.2638037,12.0760736 11.5828221,12.395092 11.9815951,12.395092 C12.3803681,12.395092 12.6993865,12.0760736 12.6993865,11.6773006 L12.6993865,9.49734151 L20.1059305,9.49734151 L20.1059305,11.6773006 C20.1059305,12.0760736 20.4249489,12.395092 20.8237219,12.395092 C21.2224949,12.395092 21.5415133,12.0760736 21.5415133,11.6773006 L21.5415133,9.49734151 L23.9447853,9.49734151 L25.3750511,25.5705521 C25.3537832,26.6711656 24.2531697,27.5644172 22.9079755,27.5644172 M16.405317,4.43558282 C18.4205031,4.43558282 20.0633947,6.05194274 20.1059305,8.05644172 L12.7047035,8.05644172 C12.7472393,6.05194274 14.390184,4.43558282 16.405317,4.43558282 M26.805317,25.4748466 L25.3165644,8.71042945 C25.2846626,8.33824131 24.9709611,8.05644172 24.60409,8.05644172 L21.5415133,8.05644172 C21.4989775,5.2597137 19.2126789,3 16.405317,3 C13.597955,3 11.3116564,5.2597137 11.2691207,8.05644172 L8.20654397,8.05644172 C7.83435583,8.05644172 7.52597137,8.33824131 7.49406953,8.71042945 L6.00531697,25.4748466 C6.00531697,25.4961145 6,25.5173824 6,25.5386503 C6,27.4474438 7.74928425,29 9.90265849,29 L22.9079755,29 C25.0613497,29 26.8106339,27.4474438 26.8106339,25.5386503 C26.8106339,25.5173824 26.8106339,25.4961145 26.805317,25.4748466" id="Fill-1"></path>
                </g>
                <g id="text/navigation" transform="translate(107.000000, 36.000000)" font-size="10" font-family="Lato-Regular, Lato" fill="#4A4A4A" font-weight="normal">
                    <text id="navigation">
                        <tspan x="5.3775" y="11">Achievements</tspan>
                    </text>
                </g>
                <g id="icon/ahcievement" transform="translate(127.000000, 5.000000)" stroke-width="1" fill-rule="evenodd">
                    <g id="Page-1" transform="translate(2.000000, 2.000000)">
                        <path d="M12.9415921,5.96790678 C12.6129126,6.00425052 12.3753862,6.29280116 12.411375,6.61538626 C12.4485448,6.93676173 12.7364556,7.16785516 13.0735699,7.1338207 C15.0745503,6.92032182 17.0407226,7.59243367 18.4622823,8.98124856 C19.8826612,10.3712181 20.5712292,12.2913884 20.3505163,14.2502118 C20.3133466,14.5727969 20.5520539,14.8625022 20.8807334,14.8976913 C20.9023267,14.9000555 20.9251009,14.9012102 20.9466942,14.9012102 C21.2490006,14.9012102 21.5081203,14.6795188 21.5416912,14.3780472 C21.8019918,12.0637589 20.9886437,9.79406184 19.3092013,8.15194039 C17.6297589,6.50981895 15.3120767,5.71575487 12.9415921,5.96790678" id="Fill-1" fill="#777777"></path>
                        <path d="M13.9708846,19.9860959 C12.1282552,20.0435531 10.4187846,19.3667677 9.13038363,18.1058432 C7.84198264,16.8449187 7.1581944,15.1640343 7.20739791,13.372909 C7.21577657,13.0491693 6.95429505,12.7793678 6.62319759,12.7711753 C6.33286875,12.7876153 6.01616683,13.0186537 6.00778818,13.3423934 C5.95138689,15.4596228 6.75753723,17.4454428 8.28228378,18.9350964 C9.75540881,20.3754853 11.703643,21.1614119 13.7873976,21.1614119 C13.8581945,21.1614119 13.9301159,21.1614119 14.0021499,21.1590477 C14.3331911,21.1508552 14.5947851,20.8810538 14.586294,20.557314 C14.5779153,20.2323647 14.2875865,19.9919241 13.9708846,19.9860959" id="Fill-3" fill="#777777"></path>
                        <g id="Group-7" transform="translate(0.000000, 0.036619)">
                            <mask id="mask-4" fill="white">
                                <use xlink:href="#path-3"></use>
                            </mask>
                            <g id="Clip-6"></g>
                            <path d="M24.8826996,15.4440956 C24.2144878,16.0165233 23.5223209,16.6077002 23.2188336,17.3243483 C22.9009508,18.0738761 22.958533,18.9958856 23.0148781,19.8873245 C23.0736411,20.8244543 23.1336413,21.7934192 22.701775,22.2168431 C22.2699088,22.640212 21.2766164,22.5816001 20.3193129,22.5229333 C19.407614,22.46905 18.464706,22.4115378 17.6981434,22.7223565 C16.9651516,23.0191546 16.3605389,23.6947854 15.7751577,24.3492477 C15.1273583,25.0741432 14.4555476,25.8236711 13.7957707,25.8236711 C13.1359937,25.8236711 12.464183,25.0741432 11.8163837,24.3492477 C11.2309462,23.695885 10.6263335,23.0191546 9.89339795,22.7223565 C9.42554284,22.5323354 8.8929078,22.4795517 8.34109744,22.4795517 C7.98840667,22.4795517 7.62733724,22.5007202 7.27104758,22.5218336 C6.31374405,22.5792908 5.32163255,22.6390573 4.88858541,22.2156335 C4.45553827,21.7922096 4.51671933,20.8232997 4.57548238,19.8861149 C4.63188366,18.994676 4.68946583,18.0727765 4.37152679,17.3232486 C4.06803953,16.6065456 3.37705352,16.0153686 2.70766083,15.4429409 C1.96629043,14.8095371 1.19972783,14.1527105 1.19972783,13.5075403 C1.19972783,12.8624251 1.96629043,12.2055435 2.70884171,11.57104 C3.37705352,10.9985573 4.06922041,10.4074354 4.37270767,9.69073234 C4.69059048,8.94120446 4.63300831,8.01924999 4.57666326,7.12786604 C4.51790021,6.1906263 4.45790004,5.22177135 4.88976629,4.7982925 C5.32281343,4.37486863 6.31734293,4.43589973 7.27222846,4.49220229 C8.18634536,4.54844987 9.12807247,4.60359779 9.89339795,4.29277905 C10.6263897,3.99603595 11.2310025,3.32035021 11.8163837,2.66583291 C12.464183,1.9409374 13.1359937,1.19140953 13.7957707,1.19140953 C14.4555476,1.19140953 15.1273583,1.9409374 15.7763385,2.66698755 C16.361776,3.32035021 16.9663887,3.99719059 17.6993243,4.2939337 C18.4658869,4.60469745 19.407614,4.54960452 20.3204937,4.49330195 C21.2777973,4.43589973 22.2710897,4.37717792 22.7029559,4.79944714 C23.136003,5.22292599 23.074822,6.19178094 23.0160589,7.12902069 C22.9596577,8.02040463 22.9020755,8.94235911 23.2200145,9.69188698 C23.5235018,10.40859 24.2144878,10.9997669 24.8838805,11.5721397 C25.6252509,12.2055435 26.3918135,12.8624251 26.3918135,13.5075403 C26.3918135,14.1527105 25.6252509,14.8094821 24.8826996,15.4440956 M25.6744544,10.6900479 C25.1094294,10.2068025 24.5252291,9.70711727 24.3284712,9.24377576 C24.116137,8.74414549 24.1653405,7.95937353 24.2133069,7.20165319 C24.2877026,6.00412406 24.365641,4.76772197 23.551112,3.97013897 C22.736583,3.17371062 21.4709562,3.25112665 20.2461543,3.32265949 C19.468795,3.36846031 18.6674244,3.41536078 18.1576198,3.21005437 C17.6837478,3.01766895 17.1727061,2.44645085 16.6784779,1.89398195 C15.8926838,1.01535405 15.0001602,0.0183478178 13.7957144,0.0183478178 C12.5912687,0.0183478178 11.6987451,1.01535405 10.9141881,1.89277232 C10.4199599,2.44524122 9.90891814,3.01645932 9.43504615,3.20884474 C8.92400442,3.41651543 8.12145296,3.36840533 7.34651171,3.32150485 C6.12170977,3.24991702 4.85608298,3.17134635 4.04155398,3.96892935 C3.22702499,4.76656732 3.30378246,6.00285945 3.37935906,7.20044357 C3.42614457,7.95937353 3.47534808,8.74288088 3.26419472,9.24256613 C3.06743691,9.70590764 2.48323658,10.2055929 1.91821157,10.6888382 C1.01967109,11.4571703 5.62325851e-06,12.32986 5.62325851e-06,13.5074853 C5.62325851e-06,14.6851106 1.01967109,15.5578553 1.91703068,16.3249778 C2.4820557,16.8082781 3.06625602,17.3079083 3.26301384,17.7712499 C3.47534808,18.2709351 3.42614457,19.0557071 3.37817817,19.8134274 C3.30378246,21.0109565 3.2258441,22.2473036 4.0403731,23.0448866 C4.85613921,23.8425246 6.12170977,23.7651086 7.34533082,23.6924211 C8.12027208,23.6454656 8.92282353,23.5973555 9.43386527,23.8049712 C9.90773726,23.9973567 10.418779,24.5685748 10.9130072,25.1210437 C11.6987451,25.9996716 12.5912687,26.9966228 13.7957144,26.9966228 C15.0001602,26.9966228 15.8926838,25.9996716 16.6772408,25.1222533 C17.171469,24.5697844 17.6825107,23.9985113 18.1563827,23.8061259 C18.6674244,23.5996648 19.468795,23.6466753 20.2449172,23.6935208 C21.4685382,23.7650536 22.7352896,23.8424696 23.5498749,23.0460963 C24.3644039,22.2484033 24.2876464,21.0121662 24.2120698,19.8145271 C24.1652843,19.0556521 24.1160808,18.2721447 24.3272341,17.7724595 C24.5239919,17.309063 25.1081923,16.8093777 25.6732173,16.3261324 C26.5717578,15.5578553 27.5914232,14.6851656 27.5914232,13.5074853 C27.5914232,12.329805 26.5717578,11.4571703 25.6744544,10.6900479" id="Fill-5" fill="#777777" mask="url(#mask-4)"></path>
                        </g>
                    </g>
                </g>
                <g id="text/navigation/selected" transform="translate(13.000000, 36.000000)" font-size="10" font-family="OpenSans-Bold, Open Sans" fill="#FFC049" font-weight="bold">
                    <text id="navigation">
                        <tspan x="16.7636719" y="11">Balance</tspan>
                    </text>
                </g>
                <g id="icon/balance/selected" transform="translate(31.000000, 5.000000)" stroke-width="1" fill-rule="evenodd">
                    <g id="Group-9" transform="translate(0.000000, 3.000000)">
                        <rect id="Rectangle-7" fill="#FFC049" transform="translate(13.991056, 12.548183) rotate(-26.000000) translate(-13.991056, -12.548183) " x="2.50046156" y="4.19138739" width="22.9811879" height="16.7135912" rx="2"></rect>
                        <rect id="Rectangle-7" fill="#FFFFFF" x="8.47058824" y="8.47058824" width="23.5294118" height="17.8823529" rx="4"></rect>
                        <g id="Group-5" transform="translate(11.531827, 11.514373)">
                            <g id="Rectangle-7">
                                <use fill="#FFFFFF" fill-rule="evenodd" xlink:href="#path-5"></use>
                                <rect stroke="#FFC049" stroke-width="2" x="-1" y="-1" width="19.6970806" height="13.9294276" rx="2"></rect>
                            </g>
                            <rect id="Rectangle-6" fill="#FFC049" x="0" y="1.88235294" width="17.8823529" height="2.82352941"></rect>
                        </g>
                    </g>
                </g>
            </g>
        </g>
    </g>
</svg>