<?xml version="1.0" encoding="UTF-8"?>
<svg width="28px" height="35px" viewBox="0 0 28 35" version="1.1" xmlns="http://www.w3.org/2000/svg" xmlns:xlink="http://www.w3.org/1999/xlink">
    <!-- Generator: Sketch 43 (38999) - http://www.bohemiancoding.com/sketch -->
    <title>Artboard Copy</title>
    <desc>Created with Sketch.</desc>
    <defs></defs>
    <g id="Make-Payment" stroke="none" stroke-width="1" fill="none" fill-rule="evenodd">
        <g id="Artboard-Copy" fill-rule="nonzero" fill="#47CEB0">
            <g id="increasing-stocks-graphic" transform="translate(1.000000, 1.000000)">
                <path d="M16.7277196,5.60956972 L15.9553443,5.84951939 C14.9883829,6.15512693 13.8519049,5.72954455 13.4609421,4.91956518 C13.2735187,4.52740863 13.2645654,4.09406668 13.4364696,3.6977319 C13.6358308,3.23932058 14.0596225,2.88058985 14.5974201,2.71286384 L23.3066382,0 L24.3667144,7.76016343 C24.4264034,8.15530443 24.3153819,8.55880189 24.0533473,8.89306014 C23.7328175,9.30372028 23.2177017,9.5699331 22.6399124,9.62484695 C22.5706732,9.63200963 22.4930775,9.63559097 22.4184663,9.63559097 C21.4330014,9.63559097 20.596162,9.00766297 20.4720089,8.17679246 L20.3377087,7.00271035 C8.52813085,19.1333175 4.15124694,21.1603551 3.14548773,21.8038022 C2.80406681,22.0222638 2.39579423,22.1386573 1.96364606,22.1386573 C1.38108168,22.1386573 0.833136907,21.923777 0.461274603,21.5471396 C0.119256785,21.2027342 -0.0407096632,20.7634234 0.00883218469,20.3121748 C0.0607615915,19.8436163 0.341896656,19.4126619 0.7812075,19.1333175 C1.01697894,18.9817075 5.37195079,17.0328742 16.7277196,5.60956972 Z M26.3299999,12.8747657 L26.3299999,32.643939 L20.7508716,32.643939 L20.7508716,12.8747657 L26.3299999,12.8747657 Z M16.2419665,19.531549 L16.2419665,32.6421483 L10.664032,32.6421483 L10.664032,19.531549 L16.2419665,19.531549 Z M5.57733767,24.3853726 L5.57733767,32.6427452 L0,32.6427452 L0,24.3853726 L5.57733767,24.3853726 Z" id="Shape"></path>
            </g>
        </g>
    </g>
</svg>