<?xml version="1.0" encoding="UTF-8"?>
<svg width="375px" height="435px" viewBox="0 0 375 435" version="1.1" xmlns="http://www.w3.org/2000/svg" xmlns:xlink="http://www.w3.org/1999/xlink">
    <!-- Generator: Sketch 45.1 (43504) - http://www.bohemiancoding.com/sketch -->
    <title>retail tab</title>
    <desc>Created with Sketch.</desc>
    <defs>
        <path d="M5,44 L320,44 C322.761424,44 325,46.2385763 325,49 L325,414.671195 C325,417.432619 322.761424,419.671195 320,419.671195 L5,419.671195 L5,419.671195 C2.23857625,419.671195 3.22224576e-14,417.432619 0,414.671195 L0,49 C-3.38176876e-16,46.2385763 2.23857625,44 5,44 L5,44 Z M171,0 L214,0 C216.761424,-5.07265313e-16 219,2.23857625 219,5 L219,44 L166,44 L166,5 L166,5 C166,2.23857625 168.238576,5.07265313e-16 171,0 Z" id="path-1"></path>
        <filter x="-2.2%" y="-1.2%" width="104.3%" height="103.3%" filterUnits="objectBoundingBox" id="filter-2">
            <feOffset dx="0" dy="2" in="SourceAlpha" result="shadowOffsetOuter1"></feOffset>
            <feGaussianBlur stdDeviation="2" in="shadowOffsetOuter1" result="shadowBlurOuter1"></feGaussianBlur>
            <feColorMatrix values="0 0 0 0 0   0 0 0 0 0   0 0 0 0 0  0 0 0 0.12 0" type="matrix" in="shadowBlurOuter1"></feColorMatrix>
        </filter>
    </defs>
    <g id="Make-Payment" stroke="none" stroke-width="1" fill="none" fill-rule="evenodd">
        <g id="retail-tab">
            <g id="Group-7" transform="translate(25.000000, 8.000000)">
                <g id="Combined-Shape">
                    <use fill="black" fill-opacity="1" filter="url(#filter-2)" xlink:href="#path-1"></use>
                    <use fill="#FFFFFF" fill-rule="evenodd" xlink:href="#path-1"></use>
                </g>
                <text id="Retail" font-family="OpenSans-Bold, Open Sans" font-size="17" font-weight="bold" fill="#4A4A4A">
                    <tspan x="138" y="84">Retail</tspan>
                </text>
                <g id="Group-12" transform="translate(24.000000, 243.000000)">
                    <text id="You-are-doing-great" font-family="Lato-Bold, Lato" font-size="16" font-weight="bold" fill="#4A4A4A">
                        <tspan x="11" y="33">You are doing great on retail!</tspan>
                    </text>
                    <g id="Group-39" transform="translate(0.000000, 45.000000)" fill="#4A4A4A">
                        <text id="You-have-kept-your-r" font-family="Lato-Regular, Lato" font-size="16" font-weight="normal">
                            <tspan x="16" y="16">You have kept your retail spending </tspan>
                            <tspan x="16" y="35">below your budget for 3 months.</tspan>
                        </text>
                        <circle id="Oval-2" cx="2" cy="10" r="2"></circle>
                        <text id="Keep-doing-what-you’" font-family="Lato-Regular, Lato" font-size="16" font-weight="normal">
                            <tspan x="16" y="59">Keep doing what you’re doing!</tspan>
                        </text>
                        <circle id="Oval-2" cx="2" cy="53" r="2"></circle>
                    </g>
                    <text id="OHANA-SUGGESTIONS" font-family="Lato-Regular, Lato" font-size="12" font-weight="normal" fill="#9B9B9B">
                        <tspan x="11" y="12">OHANA SUGGESTIONS</tspan>
                    </text>
                    <rect id="Rectangle" fill="#FA8F01" x="0" y="0" width="3.80494159" height="36"></rect>
                </g>
                <g id="Group-5" transform="translate(63.000000, 107.000000)">
                    <rect id="Rectangle-6" fill="#4A4A4A" x="102" y="38" width="2" height="21"></rect>
                    <g id="Group-17">
                        <path d="M65,-1.94923288e-15 L125.844001,-1.94923288e-15 L125.844001,-2.22044605e-15 C127.500856,-2.5248087e-15 128.844001,1.34314575 128.844001,3 L128.844001,24.1415577 L128.844001,24.1415577 C128.844001,25.7984119 127.500856,27.1415577 125.844001,27.1415577 L102.199621,27.1415577 L102.199621,27.1415577 C101.209786,27.1415577 100.283658,27.6298136 99.724384,28.4465062 L95.4220007,34.7291593 L91.2165579,28.4687077 L91.2165579,28.4687077 C90.6593146,27.6391649 89.7255926,27.1415577 88.7262621,27.1415577 L65,27.1415577 L65,27.1415577 C63.3431458,27.1415577 62,25.7984119 62,24.1415577 L62,3 L62,3 C62,1.34314575 63.3431458,-1.47199418e-15 65,-1.77635684e-15 Z" id="Rectangle-15" fill="#FFE149"></path>
                        <g id="Group-3" transform="translate(0.000000, 38.000000)">
                            <rect id="Rectangle-4" fill="#E6E6E6" x="0.392388905" y="0" width="101.680832" height="10"></rect>
                            <rect id="Rectangle-4" fill="#FFE149" x="0.392388905" y="0" width="95.0471132" height="10"></rect>
                        </g>
                        <text id="category-budget" font-family="Lato-Regular, Lato" font-size="12" font-weight="normal" fill="#9B9B9B">
                            <tspan x="121" y="75">category budget</tspan>
                        </text>
                        <text id="$15" font-family="OpenSans, Open Sans" font-size="16" font-weight="normal" fill="#4A4A4A">
                            <tspan x="88" y="75">$15</tspan>
                        </text>
                        <text id="$14.10" font-family="OpenSans-Bold, Open Sans" font-size="16" font-weight="bold" fill="#FFFFFF">
                            <tspan x="70" y="20">$14.10</tspan>
                        </text>
                    </g>
                </g>
                <text id="See-more-analysis-an" font-family="Lato-Regular, Lato" font-size="12" font-weight="normal" fill="#4A4A4A">
                    <tspan x="63" y="216">See more analysis and transactions</tspan>
                </text>
                <path d="M248.621593,212.259335 L248.074703,212.805835 C247.977255,212.903522 247.97486,213.059391 248.069196,213.153726 L252.652355,217.816376 C252.74669,217.910951 252.902319,217.908317 252.999767,217.810869 L253.670649,217.139988 C253.768096,217.04254 253.770491,216.886911 253.676155,216.792336 L249.922862,212.973746 L253.667176,209.082043 C253.760793,208.988665 253.758399,208.834712 253.661909,208.737982 L252.997732,208.074044 C252.901242,207.977554 252.747288,207.974921 252.653671,208.068777 L248.621593,212.259335 Z" id="Arrow" fill="#4A4A4A" transform="translate(250.872676, 212.942832) scale(-1, 1) translate(-250.872676, -212.942832) "></path>
                <g id="icon/transactions/entertainment" transform="translate(121.000000, 9.990158)" fill="#4A4A4A">
                    <g id="video-camera" transform="translate(0.675676, 1.351351)">
                        <path d="M14.2662062,9.73590442 L5.75821826,9.73590442 C5.55184806,9.73590442 5.38466325,9.90318165 5.38466325,10.1094594 C5.38466325,10.3157834 5.55189427,10.4830144 5.75821826,10.4830144 L14.2661599,10.4830144 C14.4725301,10.4830144 14.6397149,10.3157372 14.6397149,10.1094594 C14.6397612,9.90318165 14.4725301,9.73590442 14.2662062,9.73590442 Z" id="Shape" fill-rule="nonzero"></path>
                        <path d="M14.6397612,12.169326 C14.6397612,11.9629558 14.4725763,11.795771 14.2662062,11.795771 L5.75821826,11.795771 C5.55184806,11.795771 5.38466325,11.963002 5.38466325,12.169326 C5.38466325,12.37565 5.55189427,12.542881 5.75821826,12.542881 L14.2661599,12.542881 C14.4725301,12.542881 14.6397612,12.37565 14.6397612,12.169326 Z" id="Shape" fill-rule="nonzero"></path>
                        <path d="M5.75821826,13.855499 C5.55184806,13.855499 5.38466325,14.0226838 5.38466325,14.229054 C5.38466325,14.4354242 5.55189427,14.602609 5.75821826,14.602609 L10.0121891,14.602609 C10.2185593,14.602609 10.3857441,14.4354242 10.3857441,14.229054 C10.3857441,14.0226838 10.2185593,13.855499 10.0121891,13.855499 L5.75821826,13.855499 Z" id="Shape" fill-rule="nonzero"></path>
                        <path d="M12.3252358,3.70851769 C11.6624113,3.70851769 11.1231964,4.2477326 11.1231964,4.91051086 C11.1231964,5.57328912 11.6624113,6.11245783 12.3252358,6.11245783 C12.9880603,6.11245783 13.527229,5.57328912 13.527229,4.91051086 C13.527229,4.24768639 12.9880603,3.70851769 12.3252358,3.70851769 Z M12.3252358,5.3652554 C12.0744124,5.3652554 11.8703526,5.16124187 11.8703526,4.91046465 C11.8703526,4.65968744 12.0744124,4.4556277 12.3252358,4.4556277 C12.576013,4.4556277 12.7800727,4.65968744 12.7800727,4.91046465 C12.7801189,5.16124187 12.576013,5.3652554 12.3252358,5.3652554 Z" id="Shape" fill-rule="nonzero"></path>
                        <path d="M6.79690819,3.02439079 C6.13408372,3.02439079 5.59486881,3.5636057 5.59486881,4.22643017 C5.59486881,4.88916222 6.13408372,5.42842334 6.79690819,5.42842334 C7.45973266,5.42842334 7.99890136,4.88920843 7.99890136,4.22643017 C7.99885516,3.56365191 7.45968645,3.02439079 6.79690819,3.02439079 Z M6.79690819,4.68126712 C6.54608477,4.68126712 6.34202503,4.47720739 6.34202503,4.22643017 C6.34202503,3.97560675 6.54608477,3.77154701 6.79690819,3.77154701 C7.04768541,3.77154701 7.25174514,3.97560675 7.25174514,4.22643017 C7.25174514,4.47720739 7.04768541,4.68126712 6.79690819,4.68126712 Z" id="Shape" fill-rule="nonzero"></path>
                        <path d="M22.4494821,6.18717807 C21.7824988,6.18717807 21.2398645,6.72985867 21.2398645,7.39684197 L21.2398645,7.58089313 L17.8078625,8.7944386 L17.8078625,7.36675979 C17.8078625,6.71631938 17.278675,6.18713186 16.6282346,6.18713186 L15.102084,6.18713186 C15.2854882,5.79051847 15.381095,5.35860127 15.381095,4.91041844 C15.381095,3.22535451 14.0102073,1.85446679 12.3251896,1.85446679 C11.6745181,1.85446679 11.0585498,2.05580018 10.5431326,2.42829238 C9.8833117,1.01942071 8.45258309,0.040710287 6.79681577,0.040710287 C4.51671624,0.040710287 2.66169494,1.89568537 2.66169494,4.1757387 C2.66169494,4.88874634 2.84782551,5.58890782 3.19420952,6.20469135 C2.63974558,6.30076023 2.21656192,6.78507864 2.21656192,7.36662116 L2.21656192,8.13494119 L1.17962793,8.13494119 C0.529187522,8.13507982 0,8.66422113 0,9.31461533 L0,15.0239443 C0,15.6743847 0.529187522,16.2035722 1.17958172,16.2035722 L2.21660812,16.2035722 L2.21660812,16.9717998 C2.21660812,17.6222864 2.74579565,18.151474 3.39618985,18.151474 L6.9519862,18.151474 L6.9519862,21.6736762 C6.9519862,21.8800464 7.11917101,22.0472312 7.3255412,22.0472312 L12.699068,22.0472312 C12.9054382,22.0472312 13.072623,21.8800002 13.072623,21.6736762 L13.072623,18.151474 L14.6896671,18.151474 C14.8960373,18.151474 15.0632221,17.9842891 15.0632221,17.7779189 C15.0632221,17.5715488 14.8960373,17.4043639 14.6896671,17.4043639 L12.699068,17.4043639 L7.32544878,17.4043639 L3.39614364,17.4043639 C3.15770427,17.4043639 2.96371814,17.2103316 2.96371814,16.971846 L2.96371814,15.8300172 L2.96371814,8.50863482 L2.96371814,7.36675979 C2.96371814,7.12827422 3.15770427,6.93428808 3.39614364,6.93428808 L3.88817898,6.93428808 L9.70536015,6.93428808 L10.2123673,6.93428808 L14.4389823,6.93428808 L16.6282346,6.93428808 C16.8667201,6.93428808 17.0607063,7.12827422 17.0607063,7.36675979 L17.0607063,9.32274814 L17.0607063,15.0157652 L17.0607063,16.9717998 C17.0607063,17.2102854 16.8667201,17.4043177 16.6282346,17.4043177 L15.8015523,17.4043177 C15.5951821,17.4043177 15.4279973,17.5715488 15.4279973,17.7778727 C15.4279973,17.9841967 15.5952284,18.1514277 15.8015523,18.1514277 L16.6282346,18.1514277 C17.278675,18.1514277 17.8078625,17.6222402 17.8078625,16.9717536 L17.8078625,15.5440748 L21.2398645,16.7576203 L21.2398645,16.9417638 C21.2398645,17.6087933 21.7825451,18.1514277 22.4494821,18.1514277 C23.1164654,18.1514277 23.6590998,17.6087471 23.6590998,16.9417638 L23.6590998,7.39679576 C23.6590998,6.72981246 23.1164192,6.18717807 22.4494821,6.18717807 Z M2.21656192,15.4563698 L1.17958172,15.4563698 L1.17958172,15.456416 C0.941142356,15.456416 0.747156221,15.2624761 0.747156221,15.0239443 L0.747156221,9.31461533 C0.747156221,9.07612975 0.941142356,8.88214362 1.17958172,8.88214362 L2.21660812,8.88214362 L2.21660812,15.4563698 L2.21656192,15.4563698 Z M7.69900379,18.1514277 L12.3253744,18.1514277 L12.3253744,21.300075 L7.69900379,21.300075 L7.69900379,18.1514277 Z M10.1820078,4.30554029 C10.181592,4.31644565 10.1808064,4.32730481 10.1802519,4.33816397 C10.1786808,4.37115732 10.1768786,4.40410447 10.1742909,4.43695919 C10.1735053,4.4475873 10.1723963,4.45816921 10.1714721,4.46879732 C10.1685148,4.50266865 10.1652339,4.53649376 10.1612599,4.57022647 C10.1602433,4.57872895 10.1591343,4.58723144 10.1580715,4.59568772 C10.1534506,4.63242402 10.1483676,4.66916032 10.1425452,4.70571178 C10.1417134,4.71102584 10.1408355,4.7163861 10.1400037,4.72165395 C10.1332571,4.76278012 10.1259099,4.80376766 10.1176384,4.84457036 C10.1174998,4.84544834 10.1172688,4.84637252 10.1171301,4.8472505 C10.0727693,5.06628201 10.006875,5.28027672 9.92064872,5.48595377 C9.92014041,5.487109 9.91963211,5.48826423 9.91921623,5.48937325 C9.90373616,5.52620197 9.88747052,5.56266101 9.87069659,5.59888901 C9.86579842,5.60937849 9.86080783,5.61986797 9.85581724,5.63031125 C9.84347939,5.65632702 9.83077186,5.68211174 9.81783329,5.70780404 C9.80923838,5.72476281 9.80050485,5.74158295 9.79158648,5.75835689 C9.7821598,5.77623984 9.77250209,5.79398416 9.76275195,5.81168228 C9.75036789,5.83413994 9.73779899,5.85655139 9.72490663,5.8787318 C9.71903807,5.88889782 9.71293845,5.89892521 9.70693126,5.9089526 C9.69006491,5.93723262 9.67301372,5.96542022 9.65522319,5.99328435 C9.61335767,6.05917864 9.56959758,6.12396391 9.52306494,6.18703944 L4.07065903,6.18703944 L4.07065903,6.18708565 C3.64280824,5.60720666 3.40889737,4.89955929 3.40889737,4.17578491 C3.40889737,2.30773263 4.92876349,0.787912717 6.79686198,0.787912717 C8.37268742,0.787912717 9.70073923,1.86948477 10.0775751,3.32932516 C10.0777599,3.3300183 10.0779448,3.33071144 10.0781296,3.33145079 C10.0910682,3.38181879 10.1027591,3.4326951 10.1133872,3.48389487 C10.1145424,3.48948618 10.1157901,3.49503128 10.1169453,3.50062259 C10.1380167,3.60445462 10.1541899,3.7100888 10.1655112,3.81710926 C10.166805,3.82930848 10.1678216,3.84155392 10.1689306,3.85379935 C10.172766,3.89413996 10.1758158,3.9346192 10.1782187,3.9753757 C10.1790504,3.98983917 10.1800208,4.00430265 10.1806678,4.01876612 C10.1830706,4.07079766 10.1846418,4.12306024 10.1846418,4.17569249 C10.1846418,4.21912912 10.1836714,4.2623347 10.1820078,4.30554029 Z M14.2485542,6.18722428 L10.4091722,6.18722428 L10.4091722,6.18717807 C10.4327851,6.14489667 10.4553813,6.10219939 10.4774693,6.05917864 C10.4799646,6.05428047 10.4823675,6.04933609 10.4847704,6.04443791 C10.5084295,5.99785906 10.5310258,5.95086433 10.5528365,5.90349992 C10.5551007,5.89860174 10.5573188,5.89374978 10.559583,5.88885161 C10.7536616,5.46349611 10.8740365,5.0083819 10.9152551,4.54106847 C10.9160406,4.53219631 10.9166414,4.52332415 10.9173807,4.51445199 C10.9210774,4.46930562 10.9239886,4.42406683 10.9262529,4.37873563 C10.926946,4.36519634 10.9276392,4.35165705 10.9281937,4.33807155 C10.9302731,4.28409923 10.9317518,4.23003449 10.9317518,4.17583112 C10.9317518,4.1117852 10.929811,4.0478779 10.9268536,3.98410923 C10.9263453,3.97264936 10.9258832,3.96114327 10.9253287,3.9496834 C10.9220016,3.88813277 10.9172883,3.82672077 10.9112811,3.76549361 C10.9102645,3.75560484 10.9091555,3.74571608 10.9080927,3.73582731 C10.894461,3.60681129 10.8747759,3.47881186 10.8491298,3.35206008 C10.8481132,3.3471157 10.847189,3.34226373 10.8461724,3.33731935 C10.8346663,3.28140624 10.8224209,3.22563176 10.8085581,3.17027317 C11.2288306,2.80217085 11.7600051,2.60171543 12.3252358,2.60171543 C13.5983449,2.60171543 14.6340312,3.63744797 14.6340312,4.91055707 C14.6340312,5.37084671 14.5012722,5.80867868 14.2485542,6.18722428 Z M21.2398645,15.965179 L17.8078625,14.7516798 L17.8078625,9.58687981 L21.2398645,8.37333434 L21.2398645,15.965179 Z M22.9119898,16.9417638 C22.9119898,17.1967923 22.7045568,17.4042715 22.4495284,17.4042715 C22.1944999,17.4042715 21.9870669,17.1967923 21.9870669,16.9417638 L21.9870669,16.4934886 L21.9870669,7.84497859 L21.9870669,7.39679576 C21.9870669,7.14172109 22.1944999,6.93428808 22.4495284,6.93428808 C22.7045568,6.93428808 22.9119898,7.14172109 22.9119898,7.39679576 L22.9119898,16.9417638 Z" id="Shape" fill-rule="nonzero"></path>
                    </g>
                </g>
                <g id="icon/transactions/groceries" transform="translate(179.000000, 9.990158)" fill="#4A4A4A">
                    <g id="groceries-2" transform="translate(3.378378, 1.351351)">
                        <path d="M12.3531184,9.99720902 C12.3949907,10.0114298 12.4380481,10.0181452 12.4799204,10.0181452 C12.6446444,10.0181452 12.7983078,9.91464948 12.8540059,9.74992544 C12.9776477,9.38729552 13.3730644,9.19254983 13.7356943,9.31540157 C14.5107269,9.57769598 15.3564683,9.16173814 15.6191578,8.38631055 C15.6894716,8.18010923 15.5788655,7.95534188 15.3722692,7.88502802 C15.1648828,7.81510918 14.9413005,7.92571526 14.8709867,8.1323116 C14.7477399,8.49533654 14.3523232,8.69008223 13.9892983,8.56683547 C13.2154508,8.30572613 12.3689193,8.72089393 12.1058348,9.49592649 C12.035916,9.70212781 12.1465221,9.92689516 12.3531184,9.99720902 Z" id="Shape" fill-rule="nonzero"></path>
                        <path d="M13.2877397,7.24469786 C13.329612,7.25891864 13.3726694,7.26563401 13.4145417,7.26563401 C13.5792657,7.26563401 13.7329292,7.16213832 13.7886272,6.99741428 C13.8482755,6.82162962 13.9727073,6.67942181 14.1394065,6.5972573 C14.3061056,6.51509279 14.494531,6.50324214 14.6703157,6.56289041 C15.4453482,6.82518482 16.2906946,6.40922698 16.5537791,5.63340437 C16.6240929,5.42720305 16.5130919,5.2024357 16.3068905,5.13212184 C16.1002942,5.06101794 15.8759219,5.17280908 15.806003,5.37940542 C15.6827563,5.74282538 15.2881296,5.93757107 14.9243146,5.81432431 C14.5482539,5.6867323 14.1457268,5.71280373 13.7902073,5.88858838 C13.4346878,6.06397802 13.1684432,6.3677497 13.0408512,6.74341533 C12.9701423,6.95001167 13.0811434,7.174384 13.2877397,7.24469786 Z" id="Shape" fill-rule="nonzero"></path>
                        <path d="M14.221571,4.4921867 C14.2638383,4.50640748 14.3065007,4.51312285 14.348768,4.51312285 C14.513492,4.51312285 14.6671555,4.40962716 14.7228535,4.24490312 C14.8137085,3.97707841 15.1064196,3.83289549 15.3738493,3.92375048 C15.7036924,4.03554162 16.0572368,4.01263036 16.369699,3.85896692 C16.6817661,3.70490846 16.9152239,3.43866384 17.0274101,3.10882073 C17.097724,2.9026194 16.9871179,2.67785206 16.7805215,2.6075382 C16.5731351,2.53682932 16.3495529,2.64822543 16.279239,2.85482178 C16.2349966,2.98478392 16.1429565,3.08985969 16.0201048,3.15029801 C15.897253,3.21073632 15.7582054,3.21982182 15.6278482,3.17518437 C14.9476209,2.94567677 14.2053751,3.31067681 13.9746824,3.99050915 C13.9047636,4.19750051 14.0149747,4.42187284 14.221571,4.4921867 Z" id="Shape" fill-rule="nonzero"></path>
                        <path d="M17.0831082,9.96797741 C17.0143744,9.92096983 16.9369501,9.89410836 16.8579458,9.88383779 C17.6428539,7.33318272 18.0734275,4.83427548 18.1350509,2.45426978 C18.154407,1.70570367 17.7886169,0.706298788 17.0511114,0.243728385 C16.697172,0.0213311714 16.1172801,-0.161958894 15.3643688,0.225557387 C14.184439,0.834285817 13.3406726,2.62491915 12.6628154,4.0643782 C12.6237083,4.14733276 12.5853912,4.22831221 12.5474691,4.30850161 C12.3977558,3.6199788 11.9426909,3.03100145 11.2956453,2.72367458 C11.143167,1.99051431 10.561695,1.41615277 9.83090488,1.26722959 C9.82300445,1.22614734 9.81312891,1.18585512 9.80088324,1.14516789 C9.65037997,0.630849644 9.19650005,0.243728385 8.67151621,0.181314957 C8.37564497,0.146158027 8.08253887,0.207386389 7.83209512,0.353939437 C7.6187834,0.235037908 7.37940026,0.171834437 7.13369676,0.171834437 C6.44675404,0.171834437 5.86962734,0.650995751 5.71912408,1.29211596 C4.96818784,1.4967372 4.4175276,2.18605005 4.41160227,2.98715405 C3.55480022,3.20836619 2.93066594,3.98260871 2.93066594,4.90340428 C2.93066594,5.14752769 2.97648846,5.38928096 3.0645783,5.61720848 C2.84218108,5.89174856 2.71893432,6.23541743 2.71893432,6.59607224 C2.71893432,6.81254413 2.76357177,7.02111558 2.84771139,7.21388617 C2.45308472,6.78331252 1.89768422,6.43134819 1.27394496,6.45425945 C1.05589299,6.46136984 0.884453572,6.64347484 0.89116894,6.86152682 C0.897884309,7.07523355 1.07327394,7.24430284 1.28579561,7.24430284 C1.29922635,7.24469786 1.31147202,7.24351279 1.32411272,7.24351279 C1.69424804,7.24351279 2.03831194,7.48842624 2.28875569,7.77284186 C1.66225129,7.95336678 0.906969808,8.24726292 0.554610458,8.9116894 C0.342483808,9.31263642 0.317597442,9.80443843 0.459015208,10.3677394 C0.390676455,10.4819006 0.353149394,10.6146279 0.360259784,10.7560457 L1.03258671,20.3104354 C1.09381507,21.5085362 2.0813693,22.4467127 3.28065516,22.4467127 L14.3693091,22.4467127 C15.568595,22.4467127 16.5561492,21.5085362 16.6169826,20.3175458 L17.3062954,10.4309428 C17.3062954,10.4285727 17.3066904,10.4262026 17.3066904,10.4238324 C17.317751,10.2417274 17.2336114,10.0714731 17.0831082,9.96797741 Z M12.8698068,5.43826365 C13.0262354,5.14634262 13.1968847,4.78450275 13.3774096,4.40093669 C13.9711273,3.14002744 14.7848719,1.41338762 15.7262086,0.927510936 C16.0698775,0.750541218 16.3657488,0.746986022 16.6312033,0.912500112 C17.0890335,1.2000759 17.3584383,1.92573076 17.3454026,2.43372865 C17.2849642,4.7690969 16.8583408,7.22692188 16.0769879,9.73925985 C16.0513115,9.82181939 15.9944284,9.98851854 15.9134489,10.2172361 L15.240332,10.5162675 C15.2257162,10.5229829 15.2114954,10.5300933 15.1976696,10.5387838 C15.0033189,10.6553152 14.785267,10.7129883 14.567215,10.7153585 C14.349163,10.7129883 14.1315061,10.6553152 13.9371554,10.5387838 L13.6555049,10.3697145 C13.3315871,10.1753638 12.9685622,10.0781885 12.6055373,10.0781885 C12.601192,10.0781885 12.5968468,10.0789785 12.5921065,10.0789785 C12.2247363,10.0766084 11.8565761,10.1725986 11.5287081,10.3697145 L11.2474527,10.5387838 C11.0906291,10.6327989 10.9172145,10.6786214 10.7418249,10.6983725 C10.7517005,10.6640056 10.7631561,10.6304288 10.7734266,10.5964569 C10.8816626,10.2286917 10.997799,9.86606182 11.1194656,9.50619705 C11.1656832,9.36951955 11.2138758,9.23363208 11.2620685,9.09813964 C11.3635891,8.81253896 11.4698499,8.53049347 11.5796659,8.25042309 C11.6286486,8.12520121 11.6764462,7.99879427 11.727009,7.87475746 C12.0714679,7.03454632 12.4514788,6.21961656 12.8698068,5.43826365 Z M7.83407022,6.37525511 C7.88028776,6.31600186 7.92532024,6.25832869 7.96798258,6.20223561 C7.96798258,6.20144557 7.9683776,6.20105054 7.96877262,6.20065552 C7.99997934,6.15917824 8.02723583,6.11612088 8.05014709,6.07306352 C8.14732243,5.89016847 8.17023369,5.68475719 8.12520121,5.48408617 L9.77402176,5.12343136 C9.78508237,5.17399414 9.79693302,5.2241619 9.81589406,5.27077446 C9.88976312,5.45169439 10.0217004,5.60219766 10.2053855,5.70727343 C10.2654287,5.74045525 10.3282372,5.77363707 10.3930208,5.80800396 C10.4463487,5.8360505 10.4996766,5.8652821 10.5533996,5.89451371 C10.579076,5.90833947 10.6051474,5.92216523 10.6308238,5.93638601 C10.6778314,5.96285246 10.7232589,5.99208407 10.7690814,6.02092065 C10.8081886,6.04501697 10.8469007,6.06990334 10.8848228,6.09636979 C10.9286702,6.12678647 10.9705425,6.16036331 11.0124148,6.19433517 C11.0491518,6.22435682 11.0843087,6.25714362 11.1190706,6.29072047 C11.1565977,6.32745749 11.1937297,6.36498455 11.2280966,6.4060668 C11.28893,6.47875079 11.3473932,6.55419994 11.3951908,6.64465991 C11.2277016,7.01440021 11.0700879,7.39164593 10.9176096,7.77205182 C10.8939083,7.83091005 10.8686269,7.8881882 10.8453206,7.94704643 C10.4123768,8.05686246 9.99404884,8.26227374 9.47736047,8.63003894 C8.82636472,9.09260934 8.3416731,9.21546109 7.54293924,9.09971973 L7.30316107,8.00195444 C7.14041213,7.25970868 7.4931665,6.81017399 7.83407022,6.37525511 Z M9.7929828,3.97628837 C9.80325337,3.97431326 9.81352393,3.97312819 9.82379449,3.97312819 C9.89845359,3.97312819 9.96837243,4.02645612 9.98456832,4.10151024 C9.99720902,4.15839337 9.97587785,4.20303082 9.96165707,4.22475701 C9.94783131,4.24608818 9.91662459,4.28361524 9.86013649,4.29586092 L7.67803666,4.77344214 C7.59113188,4.79240318 7.50264702,4.73473002 7.48368598,4.64861529 C7.46472494,4.56210554 7.52200309,4.47322566 7.60851284,4.45426462 L8.76790151,4.20066069 L9.7929828,3.97628837 Z M8.51627269,10.0860889 C8.48625104,10.088064 8.45583437,10.0888541 8.42581272,10.0920142 C8.2105259,10.1137404 7.99800423,10.1682534 7.79614814,10.2591084 L7.720699,9.91346442 C7.83446525,9.92294494 7.94783647,9.93242546 8.05409731,9.93242546 C8.74301514,9.93242546 9.2976256,9.7274092 9.93519061,9.2739243 C10.1358616,9.13092644 10.3136214,9.0226905 10.4826907,8.93302058 C10.4463487,9.03612124 10.4104017,9.13882688 10.3752448,9.24232256 C10.3499634,9.31658664 10.3227069,9.38966565 10.2982155,9.46432475 C10.1820792,9.81589406 10.0714731,10.1702285 9.96837243,10.5277232 L9.70568301,10.3705045 C9.38176522,10.1761538 9.01874028,10.0789785 8.65571535,10.0789785 C8.65097509,10.0789785 8.6458398,10.0797686 8.64109954,10.0797686 C8.59922724,10.0789785 8.55774997,10.0837188 8.51627269,10.0860889 Z M3.79141821,6.00116957 L4.05015742,5.78785785 L3.8822732,5.49830695 C3.77719743,5.31659697 3.72149937,5.11118569 3.72149937,4.90340428 C3.72149937,4.26346914 4.2227819,3.74164548 4.86271705,3.71478401 L5.34227338,3.6946379 L5.23048224,3.22772226 C5.2115212,3.14950796 5.20204068,3.07247873 5.20204068,2.99939972 C5.20204068,2.49061178 5.5994325,2.06201324 6.10664036,2.02330111 L6.4716404,1.9956496 L6.4716404,1.60260301 C6.48309603,1.24747851 6.77580711,0.961877824 7.13409178,0.961877824 C7.34029311,0.961877824 7.48803122,1.05589299 7.57533102,1.13489733 L7.85224122,1.38494606 L8.1176958,1.12265165 C8.23936248,1.00256506 8.40645666,0.946471977 8.57868612,0.966223062 C8.79041774,0.991109429 8.98160824,1.1562285 9.04323163,1.36835515 C9.06416778,1.43945905 9.0700931,1.50819283 9.06179765,1.57811167 L9.01558011,2.0193509 L9.46037454,2.0193509 C10.0280207,2.0193509 10.5028368,2.46296026 10.5419439,3.02942137 L10.5597199,3.28895062 L10.8050284,3.37506535 C11.4224473,3.59193226 11.8285296,4.17616934 11.8147038,4.82993025 C11.8087785,5.10921058 11.7187136,5.37822036 11.5555696,5.61404831 C11.2913001,5.38967599 11.0064894,5.23838268 10.7671063,5.11237076 C10.7050879,5.07958396 10.6450446,5.04798222 10.5846063,5.01440538 C10.5676203,5.00492486 10.5470792,4.98833394 10.5399688,4.94685667 C10.5304883,4.88997354 10.5518195,4.82163479 10.5948768,4.77146704 C10.7671063,4.57158606 10.8362351,4.29902109 10.780537,4.04186197 L10.7327394,3.82420501 C10.6849418,3.60457295 10.5537946,3.41693765 10.3641842,3.29527097 C10.1749688,3.17399931 9.94980641,3.13331207 9.73056937,3.18150472 L9.62470356,3.204811 C9.6235185,3.20520602 9.62233343,3.204811 9.62114837,3.20520602 L8.4617597,3.45880995 L7.33041757,3.70569851 C7.11118053,3.75349613 6.92354522,3.88424831 6.80187854,4.07425375 C6.68021186,4.26346914 6.63991965,4.48902652 6.68771727,4.70826356 L6.71141857,4.81570946 C6.71141857,4.81610449 6.71141857,4.81649951 6.71141857,4.81689453 C6.71141857,4.81728955 6.71181359,4.81768457 6.71181359,4.81847462 L6.73511987,4.9255255 C6.79239802,5.18860994 6.97529306,5.41021711 7.22376171,5.51687297 C7.28538509,5.54333942 7.33673791,5.59350718 7.35451389,5.64446498 C7.36478445,5.67369658 7.35885913,5.68870741 7.33594787,5.72662949 C7.33594787,5.72662949 7.33594787,5.72662949 7.33594787,5.72702451 C7.29684072,5.7795624 7.2545734,5.83289033 7.21151604,5.88779834 C7.16806365,5.94310138 7.12303118,6.00116957 7.07720866,6.06121286 C7.06180281,6.08135897 7.04718701,6.10229512 7.03178116,6.12283625 C6.99899436,6.1674737 6.96620756,6.21290119 6.93381579,6.2603038 C6.91603981,6.28598021 6.89905388,6.31244666 6.88167292,6.33930814 C6.85165127,6.38552567 6.82281469,6.4333233 6.79437313,6.48230599 C6.77778222,6.51074755 6.76158633,6.53879409 6.74578546,6.56842072 C6.71615883,6.62372376 6.68929736,6.68179194 6.6628309,6.7410452 C6.65137527,6.76632659 6.6391296,6.79042291 6.62885904,6.81688936 C6.59409713,6.90300409 6.56328544,6.99306904 6.53879409,7.08787425 C6.53484387,7.10288507 6.53326379,7.11908096 6.52970859,7.13448681 C6.51074755,7.21507123 6.49534171,7.29842081 6.48546616,7.38532558 C6.48151595,7.42008749 6.4807259,7.45642949 6.47835577,7.49237646 C6.4751956,7.53898902 6.46927027,7.58323145 6.46927027,7.63181912 C6.46769019,7.62984401 6.4661101,7.6278689 6.46453001,7.62589379 C6.45899971,7.6187834 6.45346941,7.61246305 6.44833412,7.60535266 C6.37960035,7.5148927 6.31086657,7.43154312 6.24173778,7.35253878 C6.22001158,7.32765241 6.19789037,7.30355609 6.17576916,7.27985479 C6.11770097,7.21704634 6.05963278,7.15818811 6.00116957,7.10288507 C5.98220853,7.08510909 5.96324748,7.06575303 5.94389142,7.04837208 C5.87002236,6.98240345 5.79575829,6.92196513 5.72109919,6.86824218 C5.70016304,6.85323136 5.67883186,6.84059067 5.65789572,6.82636988 C5.60180263,6.78884282 5.54570955,6.75408091 5.48882643,6.72326922 C5.46117491,6.7082584 5.43391842,6.6936426 5.40587187,6.68021186 C5.34701364,6.65137527 5.28776039,6.62688393 5.22811211,6.60555276 C5.20836103,6.59844237 5.18860994,6.58896185 5.16885886,6.5826415 C5.1040753,6.56210037 5.03889672,6.54550946 4.97332312,6.53326379 C4.96581771,6.5316837 4.9583123,6.53247374 4.95080688,6.53128868 C4.93737615,6.52891855 4.92434043,6.52378327 4.91090969,6.52180816 C4.86508718,6.51509279 4.82163479,6.51785794 4.77660232,6.51469777 C4.74500058,6.51272266 4.71379387,6.50600729 4.68219213,6.50600729 C4.67271161,6.50600729 4.66283607,6.50837742 4.65296053,6.50837742 C4.59173216,6.50916746 4.53247891,6.51627786 4.47283063,6.52378327 C4.44320401,6.52773348 4.41357738,6.53010361 4.38395075,6.53563392 C4.30613148,6.5498547 4.23068234,6.56960578 4.15602324,6.59330709 C4.14456761,6.59686228 4.133507,6.59962743 4.12205137,6.60357765 C3.92533057,6.67033632 3.73888033,6.7647465 3.56428074,6.87890777 C3.52833377,6.79002789 3.50937272,6.69443264 3.50937272,6.59607224 C3.50976775,6.36498455 3.61247339,6.14811764 3.79141821,6.00116957 Z M1.25340383,9.28103469 C1.42049801,8.9662024 1.82618529,8.72602921 2.53050897,8.52456814 C2.85995706,8.43055298 3.16570385,8.25476833 3.41377747,8.01775531 C3.52635866,7.90991439 3.63182945,7.81866438 3.73374505,7.73570982 C4.05213253,7.47697061 4.32667261,7.33634289 4.57514125,7.30434613 C4.58067156,7.30355609 4.58620186,7.30276605 4.59173216,7.30237103 C4.67034148,7.29368055 4.74658067,7.29605068 4.82044973,7.30908639 C4.83980579,7.31264159 4.85955687,7.31935696 4.87930796,7.32449224 C4.91604497,7.33357774 4.95238697,7.34266324 4.98912399,7.35727904 C5.01282529,7.36636454 5.03652659,7.3801903 5.06062291,7.39125091 C5.0949898,7.40784182 5.12896167,7.42285264 5.16332856,7.44378879 C5.19019003,7.45998468 5.21705151,7.48092083 5.24391298,7.49948685 C5.27590974,7.52200309 5.30790649,7.54254421 5.34029827,7.56861565 C5.37031992,7.59271197 5.40034157,7.62194357 5.43036322,7.64920007 C5.46038487,7.67645657 5.49040652,7.70134294 5.52042817,7.73175961 C5.55360999,7.76533645 5.58718683,7.8044436 5.62076368,7.84197066 C5.64802017,7.87238733 5.67527667,7.90043387 5.70292819,7.93322067 C5.74045525,7.97825314 5.77837733,8.02960596 5.81629941,8.0793787 C5.84039574,8.11098043 5.86409704,8.13942199 5.88819336,8.17299884 C5.93125073,8.23304213 5.97470311,8.2998008 6.0181555,8.36616445 C6.03711654,8.39539605 6.0564726,8.42146748 6.07543365,8.45148913 C6.13824209,8.55063958 6.20144557,8.65611037 6.26504406,8.76829653 C6.55578002,9.28142971 6.65216532,10.0394763 6.52575838,10.6995576 C6.50482223,10.6975825 6.4842811,10.6944223 6.46334495,10.6912621 C6.31284168,10.6655857 6.16786872,10.6173931 6.03593148,10.5383887 L5.75428101,10.3693195 C5.43036322,10.1749688 5.06733828,10.0777934 4.70431335,10.0777934 C4.32351243,10.0762134 3.95535222,10.1722036 3.62748421,10.3693195 L3.49041168,10.451484 C3.25142356,10.5948768 2.98359885,10.6671658 2.71577414,10.6695359 C2.44755441,10.6671658 2.18012473,10.5952719 1.9411366,10.451484 L1.40983242,10.1323064 C1.33951856,10.0904341 1.26406942,10.0619926 1.18664517,10.0477718 C1.12462676,9.73530963 1.14674798,9.48249575 1.25340383,9.28103469 Z M15.8300993,20.2697482 C15.7902022,21.0471508 15.1490819,21.6562743 14.3708892,21.6562743 L3.28184023,21.6562743 C2.50325247,21.6562743 1.86252728,21.0471508 1.82223507,20.2622427 L1.16491897,10.9231399 L1.50858785,11.1293412 C1.8810933,11.3529235 2.29942128,11.4627395 2.71656419,11.4603694 C3.13410212,11.4627395 3.55203507,11.3529235 3.92454052,11.1293412 L4.06161305,11.0471767 C4.25596373,10.9302503 4.47362068,10.8725771 4.69167265,10.870207 C4.90972463,10.8725771 5.12738158,10.9302503 5.32212728,11.0471767 L5.60377774,11.216246 C5.96008731,11.4299527 6.36379948,11.5215977 6.76277139,11.4998715 C6.79832334,11.4982915 6.8338753,11.4982915 6.86982227,11.4951313 C6.87416751,11.4947363 6.87811773,11.4923661 6.88285799,11.4919711 C7.1526578,11.4615544 7.41732234,11.3766248 7.66144574,11.2375771 C7.684357,11.2292817 7.70884835,11.2288867 7.73017952,11.216246 L8.01182999,11.0471767 C8.20618066,10.9302503 8.42383761,10.8725771 8.64188959,10.870207 C8.85994156,10.8725771 9.07759852,10.9302503 9.27234421,11.0471767 L9.55399468,11.216246 C9.8530261,11.3951908 10.1856344,11.4880209 10.5202177,11.5018466 C10.5269331,11.5022417 10.5340435,11.5030317 10.5407589,11.5030317 C10.6561052,11.5065869 10.7714515,11.5030317 10.8860078,11.4868358 C10.9515814,11.4785404 11.0151799,11.4619495 11.0795685,11.4473337 C11.1107752,11.4398282 11.1419819,11.4331129 11.1727936,11.4240274 C11.3481832,11.3754397 11.5200176,11.3118412 11.6800014,11.2158509 L11.6800014,11.2158509 L11.9616519,11.0467817 C12.1560026,10.9298552 12.3736595,10.8721821 12.5917115,10.8698119 C12.8097635,10.8721821 13.0274204,10.9298552 13.2221661,11.0467817 L13.5038166,11.2158509 C13.8301045,11.4113867 14.1962896,11.507377 14.5620797,11.5057969 C14.568005,11.5057969 14.5743254,11.5069819 14.5802507,11.5069819 C14.9349802,11.5069819 15.2901047,11.4145469 15.6084922,11.2288867 L16.3835247,10.8844277 C16.4001156,10.8769223 16.4119663,10.8627015 16.4273721,10.853221 L16.4878105,10.8263596 L15.8300993,20.2697482 Z" id="Shape" fill-rule="nonzero"></path>
                        <path d="M2.72999492,16.9875129 L5.49514678,16.9875129 C5.71319875,16.9875129 5.89016847,16.8109382 5.89016847,16.5924912 C5.89016847,16.3740442 5.71319875,16.1974695 5.49514678,16.1974695 L2.72999492,16.1974695 C2.51194295,16.1974695 2.33497323,16.3740442 2.33497323,16.5924912 C2.33497323,16.8109382 2.51194295,16.9875129 2.72999492,16.9875129 Z" id="Shape" fill-rule="nonzero"></path>
                        <path d="M2.72999492,18.5675997 L6.28519016,18.5675997 C6.50324214,18.5675997 6.68021186,18.391025 6.68021186,18.172578 C6.68021186,17.954131 6.50324214,17.7775563 6.28519016,17.7775563 L2.72999492,17.7775563 C2.51194295,17.7775563 2.33497323,17.954131 2.33497323,18.172578 C2.33497323,18.391025 2.51194295,18.5675997 2.72999492,18.5675997 Z" id="Shape" fill-rule="nonzero"></path>
                        <path d="M7.07523355,19.3576431 L2.72999492,19.3576431 C2.51194295,19.3576431 2.33497323,19.5342178 2.33497323,19.7526648 C2.33497323,19.9711118 2.51194295,20.1476865 2.72999492,20.1476865 L7.07523355,20.1476865 C7.29328553,20.1476865 7.47025524,19.9711118 7.47025524,19.7526648 C7.47025524,19.5342178 7.29328553,19.3576431 7.07523355,19.3576431 Z" id="Shape" fill-rule="nonzero"></path>
                        <path d="M9.44536371,19.3576431 L8.65532033,19.3576431 C8.43726835,19.3576431 8.26029863,19.5342178 8.26029863,19.7526648 C8.26029863,19.9711118 8.43726835,20.1476865 8.65532033,20.1476865 L9.44536371,20.1476865 C9.66341569,20.1476865 9.84038541,19.9711118 9.84038541,19.7526648 C9.84038541,19.5342178 9.66341569,19.3576431 9.44536371,19.3576431 Z" id="Shape" fill-rule="nonzero"></path>
                    </g>
                </g>
                <g id="icon/transactions/previous" transform="translate(63.000000, 10.990158)" fill="#4A4A4A">
                    <g id="transfer-money" transform="translate(0.675676, 0.594595)">
                        <path d="M18.2816498,5.81905302 C17.4235792,5.81905302 16.7257647,5.20497629 16.7257647,4.44987414 C16.7257647,4.26058516 16.5518945,4.10757942 16.3367934,4.10757942 L3.88971272,4.10757942 C3.67461161,4.10757942 3.50074145,4.26058516 3.50074145,4.44987414 C3.50074145,5.20497629 2.80292699,5.81905302 1.94485636,5.81905302 C1.72975525,5.81905302 1.55588509,5.97205876 1.55588509,6.16134773 L1.55588509,8.89970549 C1.55588509,9.08899447 1.72975525,9.24200021 1.94485636,9.24200021 C2.80292699,9.24200021 3.50074145,9.85607694 3.50074145,10.6111791 C3.50074145,10.8004681 3.67461161,10.9534738 3.88971272,10.9534738 L16.3367934,10.9534738 C16.5518945,10.9534738 16.7257647,10.8004681 16.7257647,10.6111791 C16.7257647,9.85607694 17.4235792,9.24200021 18.2816498,9.24200021 C18.4967509,9.24200021 18.6706211,9.08899447 18.6706211,8.89970549 L18.6706211,6.16134773 C18.6706211,5.97205876 18.4967509,5.81905302 18.2816498,5.81905302 Z M17.8926785,8.58582123 C16.9167496,8.7306119 16.1446416,9.41006692 15.9801068,10.2688844 L4.24639938,10.2688844 C4.08186453,9.41006692 3.30975655,8.7306119 2.33382763,8.58582123 L2.33382763,6.47523199 C3.30975655,6.33044133 4.08186453,5.65098631 4.24639938,4.79216886 L15.9801068,4.79216886 C16.1446416,5.65098631 16.9167496,6.33044133 17.8926785,6.47523199 L17.8926785,8.58582123 Z" id="Shape" fill-rule="nonzero"></path>
                        <path d="M10.1132531,5.81905302 C9.04085927,5.81905302 8.16839671,6.58682007 8.16839671,7.53052661 C8.16839671,8.47423315 9.04085927,9.24200021 10.1132531,9.24200021 C11.1856469,9.24200021 12.0581094,8.47423315 12.0581094,7.53052661 C12.0581094,6.58682007 11.1856469,5.81905302 10.1132531,5.81905302 Z M10.1132531,8.55741077 C9.46989459,8.55741077 8.94633926,8.09668208 8.94633926,7.53052661 C8.94633926,6.96437115 9.46989459,6.50364245 10.1132531,6.50364245 C10.7566116,6.50364245 11.2801669,6.96437115 11.2801669,7.53052661 C11.2801669,8.09668208 10.7566116,8.55741077 10.1132531,8.55741077 Z" id="Shape" fill-rule="nonzero"></path>
                        <path d="M22.949305,4.27868399e-05 L3.50074145,4.27868399e-05 C3.28564033,4.27868399e-05 3.11177018,0.153048526 3.11177018,0.342337506 L3.11177018,1.36922166 L1.94485636,1.36922166 C1.72975525,1.36922166 1.55588509,1.5222274 1.55588509,1.71151638 L1.55588509,2.73840054 L0.388971272,2.73840054 C0.173870159,2.73840054 0,2.89140628 0,3.08069526 L0,11.980358 C0,12.1696469 0.173870159,12.3226527 0.388971272,12.3226527 L19.8375349,12.3226527 C20.052636,12.3226527 20.2265061,12.1696469 20.2265061,11.980358 L20.2265061,10.9534738 L21.39342,10.9534738 C21.6085211,10.9534738 21.7823912,10.8004681 21.7823912,10.6111791 L21.7823912,9.58429493 L22.949305,9.58429493 C23.1644062,9.58429493 23.3382763,9.43128919 23.3382763,9.24200021 L23.3382763,0.342337506 C23.3382763,0.153048526 23.1644062,4.27868399e-05 22.949305,4.27868399e-05 Z M19.4485636,10.6111791 L19.4485636,11.6380632 L0.777942544,11.6380632 L0.777942544,3.42298998 L1.94485636,3.42298998 L19.4485636,3.42298998 L19.4485636,10.6111791 Z M21.0044487,10.2688844 L20.2265061,10.2688844 L20.2265061,3.08069526 C20.2265061,2.89140628 20.052636,2.73840054 19.8375349,2.73840054 L2.33382763,2.73840054 L2.33382763,2.0538111 L21.0044487,2.0538111 L21.0044487,10.2688844 Z M22.5603338,8.89970549 L21.7823912,8.89970549 L21.7823912,1.71151638 C21.7823912,1.5222274 21.6085211,1.36922166 21.39342,1.36922166 L3.88971272,1.36922166 L3.88971272,0.684632226 L22.5603338,0.684632226 L22.5603338,8.89970549 Z" id="Shape" fill-rule="nonzero"></path>
                        <path d="M23.1826878,16.4989906 L18.5150325,13.4179958 C18.3975632,13.3396103 18.2392519,13.32763 18.1077796,13.3854778 C17.9759184,13.4436679 17.8926785,13.5621019 17.8926785,13.6918316 L17.8926785,15.0610104 L11.6691382,15.0610104 C11.454037,15.0610104 11.2801669,15.2140162 11.2801669,15.4033052 L11.2801669,18.1416629 C11.2801669,18.3309519 11.454037,18.4839576 11.6691382,18.4839576 L17.8926785,18.4839576 L17.8926785,20.1954312 C17.8926785,20.3282416 17.980197,20.4490716 18.116726,20.5052079 C18.1692371,20.5271148 18.2252489,20.5377259 18.2816498,20.5377259 C18.3707242,20.5377259 18.4594097,20.5106847 18.5309804,20.4586559 L23.1986356,17.0357087 C23.2896549,16.9686189 23.3413881,16.8686689 23.3382763,16.7639267 C23.3351645,16.6591845 23.2779858,16.5616305 23.1826878,16.4989906 Z M18.6706211,19.464632 L18.6706211,18.1416629 C18.6706211,17.9523739 18.4967509,17.7993682 18.2816498,17.7993682 L12.0581094,17.7993682 L12.0581094,15.7455999 L18.2816498,15.7455999 C18.4967509,15.7455999 18.6706211,15.5925941 18.6706211,15.4033052 L18.6706211,14.376421 L22.3226723,16.7865181 L18.6706211,19.464632 Z" id="Shape" fill-rule="nonzero"></path>
                        <path d="M10.1132531,15.0610104 L8.55736798,15.0610104 C8.34226687,15.0610104 8.16839671,15.2140162 8.16839671,15.4033052 L8.16839671,18.1416629 C8.16839671,18.3309519 8.34226687,18.4839576 8.55736798,18.4839576 L10.1132531,18.4839576 C10.3283542,18.4839576 10.5022243,18.3309519 10.5022243,18.1416629 L10.5022243,15.4033052 C10.5022243,15.2140162 10.3283542,15.0610104 10.1132531,15.0610104 Z M9.7242818,17.7993682 L8.94633926,17.7993682 L8.94633926,15.7455999 L9.7242818,15.7455999 L9.7242818,17.7993682 Z" id="Shape" fill-rule="nonzero"></path>
                        <path d="M6.22354035,15.0610104 L4.66765526,15.0610104 C4.45255415,15.0610104 4.27868399,15.2140162 4.27868399,15.4033052 L4.27868399,18.1416629 C4.27868399,18.3309519 4.45255415,18.4839576 4.66765526,18.4839576 L6.22354035,18.4839576 C6.43864146,18.4839576 6.61251162,18.3309519 6.61251162,18.1416629 L6.61251162,15.4033052 C6.61251162,15.2140162 6.43864146,15.0610104 6.22354035,15.0610104 Z M5.83456908,17.7993682 L5.05662654,17.7993682 L5.05662654,15.7455999 L5.83456908,15.7455999 L5.83456908,17.7993682 Z" id="Shape" fill-rule="nonzero"></path>
                        <path d="M1.94485636,15.0610104 L0.388971272,15.0610104 C0.173870159,15.0610104 0,15.2140162 0,15.4033052 L0,18.1416629 C0,18.3309519 0.173870159,18.4839576 0.388971272,18.4839576 L1.94485636,18.4839576 C2.15995747,18.4839576 2.33382763,18.3309519 2.33382763,18.1416629 L2.33382763,15.4033052 C2.33382763,15.2140162 2.15995747,15.0610104 1.94485636,15.0610104 Z M1.55588509,17.7993682 L0.777942544,17.7993682 L0.777942544,15.7455999 L1.55588509,15.7455999 L1.55588509,17.7993682 Z" id="Shape" fill-rule="nonzero"></path>
                    </g>
                </g>
                <g id="icon/transactions/transportation" transform="translate(238.000000, 10.990158)" fill="#4A4A4A">
                    <g id="bus" transform="translate(1.351351, 4.162162)">
                        <path d="M4.05076981,10.0789259 C3.46694557,10.0789259 2.99199258,10.4969237 2.99199258,11.0106499 C2.99199258,11.524376 3.46699012,11.942413 4.05076981,11.942413 C4.6345495,11.942413 5.10959159,11.5244152 5.10959159,11.0106499 C5.10959159,10.4968845 4.63459404,10.0789259 4.05076981,10.0789259 Z M4.05076981,11.3462477 C3.84046657,11.3462477 3.6694532,11.1956775 3.6694532,11.0106499 C3.6694532,10.825583 3.84055567,10.6750913 4.05076981,10.6750913 C4.26098395,10.6750913 4.43213096,10.8256614 4.43213096,11.0106499 C4.43213096,11.1956383 4.2610285,11.3462477 4.05076981,11.3462477 Z" id="Shape" fill-rule="nonzero"></path>
                        <path d="M17.4921357,10.0789259 C16.9083114,10.0789259 16.4333584,10.4969237 16.4333584,11.0106499 C16.4333584,11.524376 16.908356,11.942413 17.4921357,11.942413 C18.0760044,11.942413 18.5509574,11.5244152 18.5509574,11.0106499 C18.5509574,10.4968845 18.0759599,10.0789259 17.4921357,10.0789259 Z M17.4921357,11.3462477 C17.2819215,11.3462477 17.110819,11.1956775 17.110819,11.0106499 C17.110819,10.825583 17.2819215,10.6750913 17.4921357,10.6750913 C17.7024389,10.6750913 17.8734968,10.8256614 17.8734968,11.0106499 C17.8734968,11.1956383 17.7024389,11.3462477 17.4921357,11.3462477 Z" id="Shape" fill-rule="nonzero"></path>
                        <path d="M12.1128987,2.89738356 L12.1128987,6.45061999 L16.1506674,6.45061999 L16.1506674,2.89738356 L12.1128987,2.89738356 Z M15.4732068,5.85449384 L12.7903593,5.85449384 L12.7903593,3.49358811 L15.4732068,3.49358811 L15.4732068,5.85449384 Z" id="Shape" fill-rule="nonzero"></path>
                        <path d="M10.8701451,2.89738356 L6.83237645,2.89738356 L6.83237645,6.45061999 L10.8701897,6.45061999 L10.8701451,2.89738356 L10.8701451,2.89738356 Z M10.1927291,5.85449384 L10.1926845,5.85449384 L7.50983708,5.85449384 L7.50983708,3.49358811 L10.1927291,3.49358811 L10.1927291,5.85449384 Z" id="Shape" fill-rule="nonzero"></path>
                        <path d="M1.55180965,6.45061999 L5.58957832,6.45061999 L5.58957832,2.89738356 L1.55180965,2.89738356 L1.55180965,6.45061999 Z M2.22927027,3.49354891 L4.9121177,3.49354891 L4.9121177,5.85445464 L2.22927027,5.85445464 L2.22927027,3.49354891 Z" id="Shape" fill-rule="nonzero"></path>
                        <path d="M21.1145543,3.49354891 L21.8084971,3.49354891 L22.2113296,4.55706587 L22.8539995,4.36854935 L22.2967249,2.89738356 L20.8438017,2.89738356 L20.7645983,2.72290092 C20.5294382,2.06867922 19.8497503,1.63006178 19.0687195,1.63006178 L17.11073,1.63006178 L17.11073,0.95890535 L18.2121826,0.95890535 L18.2121826,0.362739999 L1.89053996,0.362739999 L1.89053996,0.95890535 L2.99194803,0.95890535 L2.99194803,1.63006178 L1.84251901,1.63006178 C0.861653315,1.63006178 0.0636503134,2.33230442 0.0636503134,3.19546623 L0.0636503134,11.5199463 L1.62018827,11.5199463 C1.88203161,12.4876566 2.87207385,13.2097348 4.05072526,13.2097348 C5.22942122,13.2097348 6.21946346,12.4876566 6.48130681,11.5199463 L15.0615541,11.5199463 C15.3233974,12.4876566 16.3134397,13.2097348 17.4920911,13.2097348 C18.6707871,13.2097348 19.6608293,12.4876566 19.9226726,11.5199463 L22.8713726,11.5199463 L22.8713726,10.2526245 L22.8713726,8.3891766 L22.8713726,7.36250837 L21.1145543,3.49354891 Z M20.1323522,3.49354891 L20.3849745,3.49354891 L22.0325206,7.12181562 L19.2852146,7.12181562 L17.5908058,6.00353518 L17.5908058,3.49358811 L20.1323968,3.49358811 L20.1323968,3.49354891 L20.1323522,3.49354891 Z M3.66940866,0.958866149 L16.4333139,0.958866149 L16.4333139,1.63002258 L3.66940866,1.63002258 L3.66940866,0.958866149 Z M0.741110939,3.19542703 C0.741110939,2.6610421 1.23521886,2.22622713 1.84251901,2.22622713 L19.068764,2.22622713 C19.5500426,2.22622713 19.9687336,2.49545804 20.116271,2.89738356 L16.9133897,2.89738356 L16.9133897,6.30157865 L18.1560987,7.12177642 L0.741110939,7.12177642 L0.741110939,3.19542703 Z M5.86077639,11.1884646 C5.7599235,11.9889052 4.9868219,12.6136087 4.05072526,12.6136087 C3.11462863,12.6136087 2.34152703,11.9889052 2.24067413,11.1884646 C2.23310126,11.1277818 2.22918118,11.0679222 2.22918118,11.0106891 C2.22918118,10.1268685 3.04629456,9.40776948 4.05068072,9.40776948 C5.05506688,9.40776948 5.87218026,10.1268293 5.87218026,11.0106891 C5.87226935,11.0679222 5.86839382,11.1277426 5.86077639,11.1884646 Z M19.3022313,11.188151 C19.2015121,11.9887483 18.4283214,12.6136087 17.4921357,12.6136087 C16.5559499,12.6136087 15.7828038,11.9887876 15.6820845,11.1881902 C15.6745562,11.1277426 15.6706807,11.0680398 15.6706807,11.0106891 C15.6706807,10.1268685 16.487794,9.40776948 17.4921357,9.40776948 C18.4964773,9.40776948 19.3136352,10.1268293 19.3136352,11.0106891 C19.3136352,11.0680006 19.3097597,11.1277426 19.3022313,11.188151 Z M22.193912,9.65649838 L20.9511584,9.65649838 L20.9511584,8.98534195 L22.193912,8.98534195 L22.193912,9.65649838 Z M22.193912,8.389255 L20.2736977,8.389255 L20.2736977,10.2526637 L22.193912,10.2526637 L22.193912,10.9238202 L19.9891358,10.9238202 C19.9889576,10.9194689 19.988423,10.9152352 19.9882003,10.9108839 C19.9872648,10.8927731 19.9857057,10.87478 19.9842802,10.8567868 C19.9828102,10.8379705 19.9814293,10.8191933 19.9794247,10.8004945 C19.9774646,10.782619 19.97497,10.764861 19.97252,10.7470639 C19.9699809,10.7285611 19.9675308,10.7099799 19.9645017,10.6915948 C19.9615616,10.6739936 19.9581315,10.6565493 19.9547015,10.6390657 C19.9511823,10.6208374 19.9476631,10.6025698 19.9436094,10.5844591 C19.9397339,10.5670931 19.9353238,10.5499232 19.9310028,10.5327141 C19.9265036,10.5147993 19.9219154,10.4968061 19.9169262,10.4790482 C19.9121152,10.4620351 19.9068587,10.4451787 19.9015577,10.4283224 C19.8960339,10.410682 19.8905102,10.3931201 19.884541,10.3756758 C19.8787945,10.3589762 19.8726471,10.3424335 19.8664552,10.32593 C19.859996,10.3086816 19.8535367,10.2914725 19.8466321,10.2744202 C19.8399947,10.2580342 19.8330009,10.2418051 19.8259626,10.225576 C19.818657,10.2087197 19.8111732,10.1919417 19.8033776,10.1752814 C19.7958938,10.1592483 19.7880536,10.1434504 19.7801689,10.1276133 C19.7719279,10.1111489 19.7635977,10.0948022 19.7549112,10.0785339 C19.7465364,10.062932 19.7379836,10.0474869 19.7292079,10.032081 C19.7201205,10.0160087 19.7108548,10.0000932 19.7013219,9.98425604 C19.6921899,9.96908534 19.6827906,9.95403225 19.6732577,9.93909675 C19.6633239,9.92349484 19.6532119,9.90797134 19.6428326,9.89256543 C19.6329433,9.87786514 19.6228313,9.86328246 19.6125411,9.84881737 C19.6017609,9.83364667 19.5908025,9.81859358 19.5796213,9.80369728 C19.5689748,9.7894674 19.5581055,9.77535512 19.5471471,9.76136045 C19.535565,9.74669936 19.5238493,9.73215587 19.5118664,9.71776919 C19.5004625,9.70400972 19.488925,9.69032865 19.4771202,9.67680438 C19.4648254,9.6626921 19.4523079,9.64869743 19.4396568,9.63485955 C19.4274956,9.62157049 19.4153345,9.60839903 19.4028615,9.59538438 C19.3898094,9.58174251 19.3765346,9.56837504 19.3630816,9.55500758 C19.3502968,9.54230653 19.3374675,9.52968388 19.3243709,9.51725724 C19.3105615,9.50412498 19.2964849,9.49130632 19.2823637,9.47848767 C19.2689552,9.46637463 19.2555022,9.4543008 19.241782,9.44238376 C19.2273044,9.42987871 19.2125596,9.41760887 19.1977702,9.40545663 C19.1836935,9.3938532 19.1696169,9.38232818 19.155273,9.37103835 C19.1401272,9.35912132 19.1247142,9.34751789 19.1092566,9.33595366 C19.0946454,9.32497745 19.0799897,9.31404043 19.0650221,9.30337782 C19.0492082,9.292088 19.0330824,9.28107258 19.0169566,9.27013557 C19.0017218,9.25978656 18.9866206,9.24943756 18.9711184,9.23940216 C18.9546808,9.22873955 18.9379314,9.21842975 18.921182,9.20811994 C18.9054571,9.19847655 18.8898214,9.18871556 18.8738292,9.17938578 C18.8567235,9.16935038 18.8392613,9.15970699 18.8218882,9.1500636 C18.8057179,9.14108662 18.7896367,9.13207044 18.7732882,9.12340707 C18.7555142,9.11403809 18.7373838,9.10510031 18.719298,9.09604493 C18.7027713,9.08781277 18.6863337,9.07946301 18.6695843,9.07154445 C18.6511421,9.06284188 18.6324327,9.05464892 18.6137678,9.04633835 C18.5968402,9.03881181 18.5800016,9.03116766 18.5627622,9.02395471 C18.5437409,9.01599696 18.5244524,9.00858801 18.5051638,9.00102226 C18.4878798,8.99424053 18.4706404,8.98726279 18.4531337,8.98083386 C18.4334887,8.97358172 18.413532,8.96695679 18.3936643,8.96017506 C18.3761131,8.95417734 18.3586064,8.94798362 18.3408769,8.9422995 C18.3206083,8.93583138 18.2999834,8.92999046 18.2794921,8.92399274 C18.2617181,8.91877904 18.2439887,8.91329093 18.2260365,8.90846924 C18.2050997,8.90278512 18.183762,8.89776743 18.1626025,8.89255372 C18.1447394,8.88812404 18.1269209,8.88349834 18.1088796,8.87942146 C18.0870965,8.87452137 18.0650906,8.87040529 18.0430847,8.8660148 C18.0252216,8.86244753 18.0074031,8.85852745 17.9894064,8.85535219 C17.9666432,8.85131451 17.9436127,8.84802165 17.9206268,8.84449358 C17.9030756,8.84178872 17.8855689,8.83873106 17.867884,8.83637902 C17.8436062,8.83312535 17.8189721,8.8307341 17.7944271,8.82814685 C17.7777222,8.82634362 17.7611955,8.82418758 17.7444015,8.82265875 C17.7168719,8.8202283 17.6890304,8.81873867 17.6612335,8.81705304 C17.6472014,8.81622982 17.6332584,8.81489699 17.6191818,8.81430898 C17.5771301,8.81242734 17.534811,8.81148653 17.4922693,8.81148653 C17.4497275,8.81148653 17.4074085,8.81242734 17.3653568,8.81430898 C17.3513247,8.81493619 17.3374262,8.81622982 17.3234387,8.81705304 C17.2955972,8.81869947 17.2677112,8.8201891 17.2400925,8.82265875 C17.2233876,8.82410917 17.20695,8.82630442 17.1903788,8.82810765 C17.1657001,8.8307341 17.1410215,8.83312535 17.1165655,8.83637902 C17.0990143,8.83873106 17.0817303,8.84174952 17.0643127,8.84441517 C17.0411931,8.84794324 17.0179845,8.85123611 16.9950431,8.85535219 C16.97718,8.85852745 16.9595842,8.86236913 16.9418994,8.8659364 C16.9197153,8.87032689 16.8974867,8.87452137 16.8755699,8.87946067 C16.8577513,8.88345914 16.8401555,8.88808484 16.8224706,8.89243612 C16.8009993,8.89768902 16.779528,8.90278512 16.7583239,8.90850844 C16.7405945,8.91333013 16.7231323,8.91870064 16.7055811,8.92383594 C16.6848225,8.92991206 16.6639748,8.93583138 16.6434389,8.94237791 C16.6259322,8.94798362 16.6086928,8.95409894 16.5913643,8.96001825 C16.5712293,8.96687839 16.5510053,8.97366012 16.5310931,8.98095147 C16.5138536,8.98730199 16.496926,8.99416213 16.4798648,9.00082626 C16.4603089,9.00850961 16.4407531,9.01599696 16.4214645,9.02411152 C16.4045815,9.03116766 16.3880548,9.0387334 16.3713945,9.04614235 C16.3523732,9.05457052 16.3333519,9.06292028 16.314687,9.07174046 C16.2982494,9.07954141 16.2820791,9.08773437 16.2658197,9.09577053 C16.247422,9.10490431 16.2290244,9.11403809 16.210894,9.12360308 C16.1948128,9.13210964 16.1789989,9.14096902 16.1631849,9.14974999 C16.1454555,9.15958939 16.127726,9.16942878 16.1103084,9.17962098 C16.0946727,9.18879396 16.0793487,9.19831975 16.0639357,9.20780634 C16.0468744,9.21831214 16.0298132,9.22877875 16.0130192,9.23967657 C15.9978289,9.24951596 15.9829504,9.25966896 15.9680274,9.26986116 C15.9515898,9.28103338 15.9351968,9.2922056 15.9191156,9.30373063 C15.9045044,9.31419723 15.8901604,9.32489904 15.8758165,9.33567926 C15.8600471,9.34747869 15.8443223,9.35927812 15.8289092,9.37143036 C15.8148326,9.38252418 15.8009787,9.3938532 15.7872139,9.40522143 C15.7721127,9.41760887 15.7571451,9.43011392 15.7424003,9.44281497 C15.7289027,9.4544576 15.7156725,9.46633543 15.7024867,9.47825247 C15.6880983,9.49126712 15.6737989,9.50432098 15.6597668,9.51768844 C15.6468929,9.52987989 15.6342863,9.54230653 15.6217242,9.55477238 C15.6080931,9.56837504 15.594551,9.58197771 15.5812762,9.59585479 C15.5690259,9.60863424 15.557043,9.62160969 15.5451045,9.63466355 C15.5322307,9.64873663 15.519535,9.66288811 15.5070174,9.67727479 C15.4953908,9.69060305 15.4840761,9.70404892 15.4728058,9.71765159 C15.4606892,9.73223427 15.4487954,9.74693456 15.4370797,9.76179166 C15.4262104,9.77562953 15.4154747,9.789585 15.4049618,9.80361888 C15.3936916,9.81871118 15.382555,9.83392108 15.3716857,9.84924858 C15.3615291,9.86355686 15.3515507,9.87798275 15.3417505,9.89252623 C15.3312822,9.90801054 15.321081,9.92369085 15.3110581,9.93944956 C15.3016143,9.95426745 15.2923041,9.96916374 15.2832167,9.98425604 C15.2735946,10.0002108 15.2642845,10.0162831 15.2551079,10.032473 C15.2464659,10.0477221 15.2379576,10.0630496 15.229672,10.0784555 C15.2208963,10.0948806 15.2124771,10.1114233 15.2041469,10.1280053 C15.1963068,10.1436464 15.1885557,10.1593659 15.1811165,10.175203 C15.1732763,10.1919417 15.1657925,10.2088765 15.1583978,10.2258112 C15.1513595,10.2419619 15.1444103,10.2580734 15.1378174,10.274381 C15.1309127,10.2915117 15.1243644,10.30876 15.1179052,10.3260868 C15.1117578,10.3425511 15.105655,10.3590154 15.0999085,10.3756366 C15.0938947,10.3931201 15.0883265,10.4107996 15.0828473,10.42844 C15.0775908,10.4452571 15.0723343,10.4620743 15.0675233,10.4790482 C15.0624896,10.4968453 15.0579459,10.5147601 15.0534467,10.5327141 C15.0491257,10.5499232 15.0447156,10.5670931 15.0407955,10.5844591 C15.0367418,10.6024914 15.0332672,10.620759 15.029748,10.6389481 C15.0263625,10.6564709 15.0228879,10.6739544 15.0199478,10.691634 C15.0169187,10.7099799 15.0144241,10.7284827 15.0119295,10.7469855 C15.0094794,10.7647826 15.0069403,10.7825406 15.0050248,10.8004945 C15.0029757,10.8191933 15.0016393,10.8379705 15.0001693,10.8567868 C14.9987883,10.87478 14.9971847,10.8927731 14.9962492,10.9108839 C14.9960265,10.9152352 14.9955364,10.9194689 14.9953137,10.9238202 L6.54799267,10.9238202 C6.54781448,10.9193121 6.54727993,10.9149216 6.54701265,10.9104135 C6.54612172,10.8930084 6.5445626,10.8757208 6.54322621,10.8583941 C6.54171163,10.8389113 6.54028615,10.8193893 6.53814793,10.8000633 C6.53623243,10.782815 6.53382693,10.7657234 6.53151052,10.7485535 C6.52888229,10.7293451 6.52634315,10.7101759 6.52318036,10.6911244 C6.52032939,10.6741112 6.51698842,10.6572549 6.51373654,10.6403986 C6.51008374,10.6215038 6.50647548,10.6026874 6.50224358,10.5839495 C6.49850169,10.5671715 6.49426979,10.5505504 6.49003789,10.5339293 C6.48540507,10.5154265 6.48068316,10.4968845 6.47551578,10.4785778 C6.47088296,10.4621135 6.46576014,10.4458059 6.46063731,10.4294984 C6.45497992,10.4113485 6.44927799,10.3931593 6.44308605,10.3752053 C6.43751776,10.3590154 6.4315931,10.3429823 6.42562389,10.3269492 C6.41898649,10.3091912 6.41230454,10.2915117 6.40522167,10.2739498 C6.39876245,10.2580342 6.39199141,10.2423147 6.38513127,10.2265952 C6.37760294,10.2092685 6.36994098,10.1919809 6.36192264,10.1748894 C6.35466158,10.1593659 6.34704416,10.14396 6.33938219,10.1286325 C6.33091839,10.1116978 6.32236549,10.0948414 6.31341168,10.0781419 C6.30534879,10.0630104 6.29692954,10.0479573 6.28842119,10.0329826 C6.27906646,10.0165183 6.26957809,10.0000932 6.25982244,9.98390323 C6.25091317,9.96912454 6.24178118,9.95450265 6.23256009,9.93995917 C6.22240352,9.92392605 6.21202423,9.90808894 6.20137765,9.89233023 C6.1917111,9.87798275 6.18182181,9.86375287 6.17179889,9.84960139 C6.16079594,9.83407788 6.14957027,9.81871118 6.13816641,9.80346208 C6.12774256,9.7895458 6.11718508,9.77574713 6.10640487,9.76210526 C6.09455555,9.74709137 6.08257258,9.73227347 6.07036689,9.71749478 C6.05923031,9.70404892 6.04796008,9.69072066 6.03651168,9.67750999 C6.02390506,9.66304491 6.01112027,9.64873663 5.99815728,9.63458515 C5.98630796,9.62160969 5.97436954,9.60875184 5.96220839,9.59605079 C5.94888904,9.58213452 5.93530241,9.56841424 5.92162668,9.55481158 C5.90910916,9.54238493 5.8965471,9.52999749 5.88371776,9.51784525 C5.86964111,9.50447778 5.8552972,9.49134553 5.84086418,9.47829167 C5.82772302,9.46641383 5.81458185,9.4546144 5.80112885,9.44297177 C5.78633947,9.43023152 5.77132736,9.41772647 5.75622615,9.40529983 C5.74246133,9.39397081 5.72865197,9.38264178 5.71457533,9.37154796 C5.6991623,9.35943493 5.68343744,9.34759629 5.66771259,9.33579686 C5.65336867,9.32501665 5.6389802,9.31431484 5.62436901,9.30380903 C5.60828778,9.2923232 5.59193928,9.28115098 5.57554623,9.27001796 C5.56057866,9.25982576 5.54570018,9.24967276 5.53046534,9.23979417 C5.51376046,9.22897475 5.49674376,9.21850815 5.47972707,9.20804154 C5.46426949,9.19851575 5.448901,9.18895077 5.43317615,9.17973858 C5.41580308,9.16954638 5.39811818,9.15978539 5.38043329,9.149946 C5.36453025,9.14112582 5.3487163,9.13222725 5.33259053,9.12372068 C5.31450472,9.11419489 5.29619618,9.10513951 5.27784309,9.09596653 C5.26153913,9.08785197 5.24532426,9.07961981 5.22879757,9.07181886 C5.21013266,9.06303788 5.19120047,9.05472732 5.17231282,9.04629915 C5.1555634,9.03885101 5.13894762,9.03132446 5.12202001,9.02418992 C5.10282055,9.01615376 5.08330925,9.00866641 5.0638425,9.00102226 C5.04673671,8.99431893 5.02972001,8.98741959 5.01239149,8.98106907 C4.99256837,8.97377772 4.97243343,8.96703519 4.95238758,8.96021426 C4.93496996,8.95425574 4.91768599,8.94814042 4.90009019,8.94249551 C4.87964342,8.93598818 4.85888483,8.93010806 4.83821533,8.92403194 C4.82057498,8.91885744 4.80302373,8.91344774 4.78524974,8.90862604 C4.76409023,8.90290273 4.74270799,8.89784583 4.72132575,8.89259292 C4.70359631,8.88820244 4.68591142,8.88357675 4.66800379,8.87953907 C4.64613154,8.87463897 4.62394747,8.87048369 4.60189704,8.866054 C4.58412305,8.86252593 4.56643816,8.85864505 4.54848598,8.85543059 C4.52563371,8.85135371 4.50251417,8.84806085 4.47943917,8.84453278 C4.46193246,8.84186712 4.44455939,8.83880946 4.42696359,8.83645742 C4.40259674,8.83320375 4.37791808,8.83081251 4.3533285,8.82818605 C4.33666817,8.82638282 4.32018603,8.82422678 4.30348115,8.82273715 C4.27590697,8.8203067 4.24802097,8.81881707 4.22017951,8.81713144 C4.20619196,8.81630822 4.19229351,8.81501459 4.17821687,8.81438738 C4.13616513,8.81250575 4.09384611,8.81156493 4.05130437,8.81156493 C4.00876262,8.81156493 3.9664436,8.81250575 3.92439186,8.81438738 C3.91031522,8.81501459 3.89637222,8.81630822 3.88238467,8.81713144 C3.85454321,8.81877787 3.8267463,8.8202675 3.79917212,8.82273715 C3.7824227,8.82422678 3.76594056,8.82642202 3.74928023,8.82818605 C3.72469065,8.83081251 3.70001199,8.83320375 3.67564514,8.83645742 C3.65804934,8.83880946 3.64067627,8.84186712 3.62321411,8.84453278 C3.60013911,8.84806085 3.57697502,8.85131451 3.55412275,8.85543059 C3.53621512,8.85860585 3.51857477,8.86248673 3.50080079,8.866054 C3.47870581,8.87044449 3.45647719,8.87463897 3.43464948,8.87953907 C3.41669731,8.88353755 3.39910151,8.88820244 3.38132752,8.89259292 C3.35994528,8.89784583 3.33856304,8.90290273 3.31740354,8.90862604 C3.299585,8.91344774 3.28207829,8.91889664 3.26443795,8.92403194 C3.24376845,8.93006886 3.22296531,8.93598818 3.20256309,8.94249551 C3.18501184,8.94810122 3.16768331,8.95425574 3.15031024,8.96017506 C3.13021985,8.96703519 3.1100849,8.97377772 3.09026179,8.98106907 C3.07297781,8.98741959 3.05596111,8.99431893 3.03885532,9.00098306 C3.01938857,9.00862721 2.99983273,9.01611456 2.98063326,9.02418992 C2.96370566,9.03128526 2.94704533,9.03885101 2.93034045,9.04629915 C2.91140826,9.05468812 2.89247607,9.06299868 2.8738557,9.07181886 C2.85732901,9.07965901 2.8410696,9.08789117 2.82476564,9.09596653 C2.8064571,9.10506111 2.78814856,9.11411649 2.77010729,9.12368148 C2.75393698,9.13218805 2.73812303,9.14112582 2.72217544,9.149946 C2.70453509,9.15974619 2.68680565,9.16954638 2.66943258,9.17969938 C2.65375227,9.18887236 2.63838379,9.19843735 2.62297076,9.20792394 C2.60590951,9.21842975 2.58889281,9.22889635 2.57209885,9.23979417 C2.55690855,9.24963356 2.54207462,9.25978656 2.5271516,9.26990036 C2.510714,9.28107258 2.49432095,9.2922448 2.47819518,9.30376983 C2.46358398,9.31423643 2.44924006,9.32493825 2.43489614,9.33571846 C2.41912674,9.34751789 2.40340188,9.35935652 2.38798885,9.37146956 C2.37391221,9.38252418 2.36010285,9.3938532 2.34633803,9.40522143 C2.33119228,9.41764807 2.31618017,9.43015312 2.30143533,9.44289337 C2.28802688,9.4544968 2.27484117,9.46633543 2.2617,9.47821327 C2.24726699,9.49130632 2.23292307,9.50439938 2.21884643,9.51776685 C2.20601709,9.52991909 2.19345502,9.54230653 2.18098205,9.55469397 C2.16726178,9.56833584 2.15367514,9.58205611 2.14035579,9.59597239 C2.12819464,9.60867344 2.11630077,9.62153129 2.1044069,9.63446755 C2.09144392,9.64865823 2.07861457,9.66292731 2.06605251,9.67739239 C2.05455955,9.69064225 2.04328933,9.70393132 2.03215275,9.71741638 C2.01990251,9.73215587 2.007875,9.74701296 1.99607022,9.76206606 C1.98533455,9.77570793 1.97482162,9.7894674 1.96439778,9.80330527 C1.95290482,9.81859358 1.94167915,9.83403868 1.93063166,9.84960139 C1.92065328,9.86371367 1.91080854,9.87786514 1.90114199,9.89217343 C1.89049541,9.90793214 1.88011612,9.92388685 1.86987046,9.93995917 C1.86060482,9.95450265 1.85147282,9.96908534 1.84265265,9.98382483 C1.83285246,10.0000932 1.82336409,10.0164399 1.81400936,10.0329434 C1.80550101,10.0479181 1.79717085,10.0629712 1.78901887,10.0781027 C1.78006505,10.0948022 1.77151216,10.1116586 1.76304835,10.1285933 C1.75538639,10.1439208 1.74776896,10.1593267 1.74050791,10.1748502 C1.73248957,10.1919809 1.7248276,10.2092293 1.71729927,10.226556 C1.71043914,10.2422755 1.70366809,10.2580342 1.69720887,10.2739498 C1.69008146,10.2915117 1.68339951,10.3091912 1.67680665,10.3269492 C1.67083745,10.3429823 1.66486824,10.3590154 1.65934449,10.3752053 C1.65315255,10.3931593 1.64745062,10.4113485 1.64179324,10.4294984 C1.63667041,10.4458451 1.63159213,10.4621135 1.62691476,10.4785778 C1.62170284,10.4969237 1.61702548,10.5154265 1.61239266,10.5339293 C1.6082053,10.5505896 1.60392885,10.5672107 1.60018696,10.5839495 C1.59599961,10.6025698 1.59239135,10.6214254 1.58869401,10.640281 C1.58539758,10.6572157 1.58205661,10.6741112 1.57920564,10.6911636 C1.57604285,10.7101759 1.57350371,10.7293059 1.57087548,10.7484751 C1.56851452,10.765645 1.56610902,10.7827758 1.56423807,10.8000241 C1.56209985,10.8193893 1.56071891,10.8389113 1.55915979,10.8583549 C1.5578234,10.8756816 1.55626428,10.89293 1.55537335,10.9103743 C1.55515062,10.9148824 1.55461606,10.9192729 1.55439333,10.923781 L0.741110939,10.923781 L0.741110939,8.98530275 L1.89053996,8.98530275 L1.89053996,8.3891374 L0.741110939,8.3891374 L0.741110939,7.71805937 L19.0594093,7.71805937 L19.1723342,7.71805937 L22.193912,7.71805937 L22.193912,8.389255 Z" id="Shape" fill-rule="nonzero"></path>
                    </g>
                </g>
                <g id="icon/info" transform="translate(198.000000, 69.000000)">
                    <g id="Group-3-Copy" stroke-width="1" fill="#FA8F01">
                        <circle id="Oval-3" cx="8.5" cy="8.5" r="8.5"></circle>
                    </g>
                    <path d="M7.2487811,4.93526147 C7.2487811,4.28458118 7.61123515,3.78668278 8.33615413,3.78668278 C9.06107311,3.78668278 9.42352716,4.28458118 9.42352716,4.93526147 C9.42352716,5.24531718 9.32930188,5.54520647 9.14807213,5.71770225 C8.96684239,5.89019803 8.69861362,6.04363558 8.33615413,6.04363558 C7.61123515,6.04363558 7.2487811,5.59030874 7.2487811,4.93526147 Z M8.33287891,13.0337887 L8.33287891,13.0337887 L8.33287891,13.0337887 C7.78117843,13.0337887 7.33393682,12.5865471 7.33393682,12.0348466 L7.33393682,7.73394752 L7.33393682,7.73394752 C7.33393682,7.18224703 7.78117843,6.73500542 8.33287891,6.73500542 L8.33287891,6.73500542 L8.33287891,6.73500542 C8.88457939,6.73500542 9.331821,7.18224703 9.331821,7.73394752 L9.331821,12.0348466 L9.331821,12.0348466 C9.331821,12.5865471 8.88457939,13.0337887 8.33287891,13.0337887 Z" id="i" fill="#FFFFFF"></path>
                </g>
            </g>
            <path d="M196,8 L239,8 L239,8 C241.761424,8 244,10.2385763 244,13 L244,13.9803154 L191,13.9803154 L191,13 L191,13 C191,10.2385763 193.238576,8 196,8 Z" id="Rectangle-17" fill="#FFE149"></path>
        </g>
    </g>
</svg>