<?xml version="1.0" encoding="UTF-8"?>
<svg width="28px" height="35px" viewBox="0 0 28 35" version="1.1" xmlns="http://www.w3.org/2000/svg" xmlns:xlink="http://www.w3.org/1999/xlink">
    <!-- Generator: Sketch 43 (38999) - http://www.bohemiancoding.com/sketch -->
    <title>Artboard</title>
    <desc>Created with Sketch.</desc>
    <defs></defs>
    <g id="Make-Payment" stroke="none" stroke-width="1" fill="none" fill-rule="evenodd">
        <g id="Artboard" fill-rule="nonzero" fill="#F6511D">
            <g id="increasing-stocks-graphic" transform="translate(14.000000, 16.500000) scale(-1, 1) translate(-14.000000, -16.500000) ">
                <path d="M8.43222658,14.2773489 L9.20460189,14.0373981 C10.1715633,13.7317892 11.3080413,14.1573735 11.6990041,14.9673566 C11.8864275,15.359515 11.8953808,15.7928589 11.7234766,16.1891956 C11.5241154,16.647609 11.1003237,17.0063414 10.562526,17.1740682 L1.85330794,19.8869445 L0.79323177,12.1267453 C0.733542796,11.7316025 0.844564287,11.3281032 1.10659888,10.9938434 C1.42712867,10.5831813 1.94224451,10.3169673 2.52003377,10.2620532 C2.58927298,10.2548905 2.66686864,10.2513091 2.74147986,10.2513091 C3.72694481,10.2513091 4.56378422,10.87924 4.68793728,11.7101143 L4.82223747,12.8842019 C7.61360106,9.82003919 8.81043263,9.18515816 12.3667665,6.3673586 C15.9231004,3.54955904 21.0213113,0.945701082 21.7768698,0.462320784 C22.1182907,0.243858134 22.5265633,0.1274641 22.9587115,0.1274641 C23.5412758,0.1274641 24.0892206,0.342345394 24.4610829,0.718984553 C24.8031007,1.06339152 24.9630672,1.50270439 24.9135253,1.9539551 C24.8615959,2.42251571 24.5804609,2.85347208 24.14115,3.13281776 C23.9538137,3.25328267 22.009356,3.88100485 14.4197837,9.00400875 C12.0148138,10.6273769 11.6990041,10.9938434 8.43222658,14.2773489 Z M27.1074721,13.1332795 L27.1074721,32.9025439 L21.5283438,32.9025439 L21.5283438,13.1332795 L27.1074721,13.1332795 Z M17.0194387,19.7900935 L17.0194387,32.9007533 L11.4415042,32.9007533 L11.4415042,19.7900935 L17.0194387,19.7900935 Z M6.35480986,24.6439395 L6.35480986,32.9013501 L0.777472192,32.9013501 L0.777472192,24.6439395 L6.35480986,24.6439395 Z" id="Shape"></path>
            </g>
        </g>
    </g>
</svg>