<?xml version="1.0" encoding="UTF-8"?>
<svg width="375px" height="667px" viewBox="0 0 375 667" version="1.1" xmlns="http://www.w3.org/2000/svg" xmlns:xlink="http://www.w3.org/1999/xlink" style="background: #FFFFFF;">
    <!-- Generator: Sketch 45.1 (43504) - http://www.bohemiancoding.com/sketch -->
    <title>payment-11cb</title>
    <desc>Created with Sketch.</desc>
    <defs>
        <linearGradient x1="100%" y1="100%" x2="1.84749681%" y2="1.84749681%" id="linearGradient-1">
            <stop stop-color="#FC9000" stop-opacity="0.868404665" offset="0%"></stop>
            <stop stop-color="#FFC13A" offset="100%"></stop>
        </linearGradient>
        <circle id="path-2" cx="23.75" cy="2.75" r="2.75"></circle>
        <circle id="path-3" cx="30.75" cy="2.75" r="2.75"></circle>
    </defs>
    <g id="Make-Payment" stroke="none" stroke-width="1" fill="none" fill-rule="evenodd">
        <g id="payment-11cb">
            <g id="Group-6">
                <rect id="Rectangle-8" fill="url(#linearGradient-1)" x="0" y="0" width="375" height="57"></rect>
                <text id="Make-Payment" font-family="OpenSans-Bold, Open Sans" font-size="17" font-weight="bold" fill="#FFFFFF">
                    <tspan x="123.399414" y="43">Make Payment</tspan>
                </text>
                <path d="M20.190097,35.1548856 L19.1430249,36.2012106 C18.9564522,36.3882417 18.9518681,36.6866664 19.1324815,36.8672798 L27.9073589,45.7943491 C28.0879723,45.975421 28.3859385,45.9703784 28.5725113,45.7838057 L29.8569751,44.4993419 C30.0435478,44.3127692 30.0481319,44.0148029 29.8675185,43.8337311 L22.6814959,36.5226918 L29.8503275,29.0716693 C30.0295657,28.8928896 30.0249816,28.5981322 29.8402425,28.4129347 L28.5686142,27.1417647 C28.3838751,26.9570257 28.0891177,26.9519832 27.9098795,27.1316797 L20.190097,35.1548856 Z" id="Arrow" fill="#FFFFFF"></path>
                <g id="Group-2">
                    <rect id="Background" fill-opacity="0" fill="#000000" x="0" y="0" width="375" height="20"></rect>
                    <g id="Charge" transform="translate(315.000000, 3.000000)" fill="#FFFFFF">
                        <g id="Battery-Icon" transform="translate(30.000000, 2.000000)">
                            <path d="M1.50245835,1.02631579 L1.50245835,1.02631579 C0.947213227,1.02631579 0.5,1.49554092 0.5,2.07901162 L0.5,8.92098838 C0.5,9.50189311 0.949063705,9.97368421 1.50245835,9.97368421 L20.9975417,9.97368421 C21.5527868,9.97368421 22,9.50445908 22,8.92098838 L22,2.07901162 C22,1.49810689 21.5509363,1.02631579 20.9975417,1.02631579 L1.50245835,1.02631579 Z M1.50245835,0.5 L1.50245835,0.5 L20.9975417,0.5 C21.8266197,0.5 22.5,1.20694758 22.5,2.07901162 L22.5,8.92098838 C22.5,9.79681942 21.8273265,10.5 20.9975417,10.5 L1.50245835,10.5 C0.673380308,10.5 0,9.79305242 0,8.92098838 L0,2.07901162 C0,1.20318058 0.672673516,0.5 1.50245835,0.5 L1.50245835,0.5 Z" id="Shape" fill-rule="nonzero"></path>
                            <path d="M1.50966585,1.5 C1.22818517,1.5 1,1.73079681 1,2.00043583 L1,8.99956417 C1,9.27594725 1.22247314,9.5 1.50966585,9.5 L10,9.5 L10,1.5 L1.50966585,1.5 Z" id="Charge"></path>
                            <path d="M24.5,5.73227779 C24.5,6.61389637 23.8480727,7.34324909 23,7.46455558 L23,4 C23.8480727,4.12130649 24.5,4.85065921 24.5,5.73227779 Z" id="+"></path>
                        </g>
                        <text id="42%" font-family=".SFNSText, .SF NS Text" font-size="12" font-weight="normal">
                            <tspan x="0" y="12">42%</tspan>
                        </text>
                    </g>
                    <path d="M306.427765,14.8689464 L306.427765,11.3107321 L308.139765,13.1751786 L306.427765,14.8689464 L306.427765,14.8689464 L306.427765,14.8689464 L306.427765,14.8689464 Z M308.218353,7.84653571 L306.427765,9.64782143 L306.427765,6.23521429 L308.218353,7.84653571 L308.218353,7.84653571 L308.218353,7.84653571 L308.218353,7.84653571 Z M306.857882,10.5108571 L309.514824,7.84653571 L305.550588,4 L305.456941,4 L305.456941,9.34985714 L302.766118,6.52883929 L302,7.32919643 L305.237647,10.5108571 L302,13.6920357 L302.766118,14.4923929 L305.456941,11.671375 L305.456941,17.02075 L305.628235,17.02075 L309.553412,13.1645714 L306.857882,10.5108571 L306.857882,10.5108571 Z" id="Bluetooth-Icon" fill="#FFFFFF"></path>
                    <path d="M90.9957516,7.52087671 C92.9355242,7.52087671 94.7033612,8.23545205 96.0588529,9.40717808 L97,8.36810959 C95.394602,6.97446575 93.2978883,6 90.9957516,6 C88.6971136,6 86.6033987,6.97150685 85,8.36071233 L85.9391478,9.40126027 C87.2936399,8.2329863 89.0584781,7.52087671 90.9957516,7.52087671 L90.9957516,7.52087671 Z M90.9957516,10.5202192 C92.1583156,10.5202192 93.2204173,10.9423562 94.0396101,11.6376986 L95.0352368,10.5379726 C93.9516431,9.60789041 92.5421717,9.00032877 90.9957516,9.00032877 C89.4523304,9.00032877 88.0438586,9.60641096 86.9612645,10.5335342 L87.9553917,11.6347397 C88.7740847,10.9408767 89.834687,10.5202192 90.9957516,10.5202192 L90.9957516,10.5202192 Z M93.0434837,12.7374247 C92.4891916,12.2773151 91.7754592,11.9587397 90.9952518,11.9587397 C90.2165438,11.9587397 89.5038111,12.2768219 88.9495189,12.7349589 L90.9952518,15 L93.0434837,12.7374247 L93.0434837,12.7374247 Z" id="Wifi" fill="#FFFFFF"></path>
                    <g id="Signal" transform="translate(7.000000, 8.000000)">
                        <circle id="Oval-1" fill="#FFFFFF" cx="2.75" cy="2.75" r="2.75"></circle>
                        <circle id="Oval-1-copy" fill="#FFFFFF" cx="9.75" cy="2.75" r="2.75"></circle>
                        <circle id="Oval-1-copy-2" fill="#FFFFFF" cx="16.75" cy="2.75" r="2.75"></circle>
                        <g id="Oval-1-copy-3">
                            <use fill="#FFFFFF" fill-rule="evenodd" xlink:href="#path-2"></use>
                            <circle stroke="#FFFFFF" stroke-width="0.5" cx="23.75" cy="2.75" r="2.5"></circle>
                        </g>
                        <g id="Oval-1-copy-4">
                            <use fill="#FFFFFF" fill-rule="evenodd" xlink:href="#path-3"></use>
                            <circle stroke="#FFFFFF" stroke-width="0.5" cx="30.75" cy="2.75" r="2.5"></circle>
                        </g>
                    </g>
                    <text id="AT&amp;T" font-family=".SFNSText, .SF NS Text" font-size="12" font-weight="normal" fill="#FFFFFF">
                        <tspan x="44" y="15">AT&amp;T</tspan>
                    </text>
                    <text id="9:32-PM" font-family=".SFNSText, .SF NS Text" font-size="12" font-weight="normal" fill="#FFFFFF">
                        <tspan x="164.760742" y="15">9:32 PM</tspan>
                    </text>
                </g>
            </g>
            <rect id="Rectangle-20" fill="#F2F7F7" x="13" y="416" width="349" height="126" rx="5"></rect>
            <g id="Group-8" transform="translate(72.000000, 568.000000)">
                <g id="Group-3" transform="translate(0.000000, 6.000000)" font-size="11" font-family="Lato-Regular, Lato" fill="#4A4A4A" font-weight="normal">
                    <text id="Pay-full-balance-to">
                        <tspan x="0" y="11">Pay </tspan>
                        <tspan x="20.053" y="11" font-family="Lato-Bold, Lato" font-weight="bold">full balance</tspan>
                        <tspan x="76.395" y="11"> to earn:</tspan>
                    </text>
                </g>
                <g id="Group-4" transform="translate(131.000000, 0.000000)">
                    <g id="Group-3" transform="translate(26.010000, 3.468000)">
                        <g id="Group-14" transform="translate(0.000000, 1.734000)" font-family="Raleway-Bold, Raleway" fill="#4A4A4A" font-weight="bold">
                            <g id="Group-11" transform="translate(56.202000, 0.000000)" font-size="12.138">
                                <text id="10">
                                    <tspan x="1.231548" y="11">10</tspan>
                                </text>
                            </g>
                            <g id="Group-10" font-size="12">
                                <text id="10">
                                    <tspan x="0.7215" y="11">10</tspan>
                                </text>
                            </g>
                        </g>
                        <g id="icon/achievement/coconut" transform="translate(31.212000, 0.000000)">
                            <path d="M10.8788119,17.3954491 C6.88431266,17.3954491 3.64614385,13.6946847 3.64614385,9.12954272 C3.64614385,4.56440073 6.88431266,0.863636364 10.8788119,0.863636364 C14.8733112,0.863636364 18.11148,4.56440073 18.11148,9.12954272 C18.11148,13.6946847 14.8733112,17.3954491 10.8788119,17.3954491" id="XMLID_91_" fill="#FCC62D" fill-rule="nonzero"></path>
                            <path d="M3.64614385,9.12954272 C3.64614385,4.90743584 6.41669853,1.42689884 9.99317909,0.927697138 C9.70269152,0.886958028 9.40748058,0.863636364 9.10754626,0.863636364 C5.11304701,0.863636364 1.8748782,4.56440073 1.8748782,9.12954272 C1.8748782,13.6946847 5.11304701,17.3954491 9.10754626,17.3954491 C9.40748058,17.3954491 9.70269152,17.3721274 9.99317909,17.3316835 C6.41669853,16.8321866 3.64614385,13.3516496 3.64614385,9.12954272" id="XMLID_136_" fill="#E4AF18" fill-rule="nonzero"></path>
                            <path d="M3.64584864,9.42504888 L1.87517341,9.42504888 C1.88107763,9.70220034 1.89229564,9.97688091 1.91030351,10.2486788 L3.68245479,10.2486788 C3.66415171,9.97729273 3.65175285,9.70261216 3.64584864,9.42504888" id="XMLID_135_" fill="#CE9912" fill-rule="nonzero"></path>
                            <path d="M3.71315673,7.94899417 L1.94307193,7.94899417 C1.91856942,8.22038022 1.90115197,8.49547261 1.8884579,8.77262408 L3.65942834,8.77262408 C3.67212241,8.49588443 3.68924464,8.22079204 3.71315673,7.94899417" id="XMLID_134_" fill="#CE9912" fill-rule="nonzero"></path>
                            <path d="M3.80821465,10.9011036 L2.03665379,10.9011036 C2.07503122,11.1794905 2.11931286,11.4541711 2.16979393,11.7247335 L3.94076437,11.7247335 C3.8902833,11.4545829 3.84629686,11.1799023 3.80821465,10.9011036" id="XMLID_133_" fill="#CE9912" fill-rule="nonzero"></path>
                            <path d="M4.22121476,12.3771583 L2.44876827,12.3771583 C2.52404706,12.6580161 2.60700133,12.931873 2.69585983,13.2007882 L4.4677159,13.2007882 C4.3788574,12.9326967 4.29649355,12.6580161 4.22121476,12.3771583" id="XMLID_132_" fill="#CE9912" fill-rule="nonzero"></path>
                            <path d="M4.02194738,6.47293946 L2.25215778,6.47293946 C2.19488686,6.74350189 2.14115847,7.01735883 2.0962864,7.29656937 L3.86961853,7.29656937 C3.91419538,7.01859428 3.96438124,6.74309007 4.02194738,6.47293946" id="XMLID_131_" fill="#CE9912" fill-rule="nonzero"></path>
                            <path d="M4.60971236,4.99717997 L2.8381515,4.99717997 C2.7410271,5.2652715 2.6492165,5.53954026 2.56537659,5.82080987 L4.33782308,5.82080987 C4.42166299,5.53954026 4.51229275,5.26485969 4.60971236,4.99717997" id="XMLID_130_" fill="#CE9912" fill-rule="nonzero"></path>
                            <path d="M5.81446821,3.22591432 L4.04113609,3.22591432 C3.87316106,3.48782863 3.71345194,3.7625092 3.56230394,4.04954422 L5.33504564,4.04954422 C5.48619364,3.7625092 5.64619797,3.48782863 5.81446821,3.22591432" id="XMLID_129_" fill="#CE9912" fill-rule="nonzero"></path>
                            <path d="M7.61938791,1.7495644 L5.84398931,1.7495644 C5.54257893,1.99253522 5.252977,2.26762761 4.97724998,2.57319431 L6.75117253,2.57319431 C7.02719476,2.26803943 7.3170919,1.99294704 7.61938791,1.7495644" id="XMLID_128_" fill="#CE9912" fill-rule="nonzero"></path>
                            <path d="M5.12780756,14.1484239 L3.35595149,14.1484239 C3.49292937,14.4338117 3.63758273,14.7084923 3.79079721,14.9720538 L5.56412933,14.9720538 C5.41061964,14.7084923 5.26537586,14.4338117 5.12780756,14.1484239" id="XMLID_127_" fill="#CE9912" fill-rule="nonzero"></path>
                            <path d="M4.63037713,15.6244786 C4.86743151,15.9222209 5.11599912,16.1989605 5.37548954,16.4481086 L7.15118335,16.4481086 C6.88992167,16.1981369 6.63928758,15.9234563 6.40075714,15.6244786 L4.63037713,15.6244786 Z" id="XMLID_126_" fill="#CE9912" fill-rule="nonzero"></path>
                            <path d="M10.9039048,15.778874 L10.8788119,15.778874 C10.6721643,15.778874 10.4640405,15.7664751 10.260345,15.7422678 C10.0985694,15.7227839 9.98255149,15.5760641 10.0023306,15.4139932 C10.0212241,15.2522176 10.163811,15.1394471 10.33031,15.1559789 C10.5103887,15.1775293 10.6951907,15.1884521 10.8785167,15.1884521 C11.0417684,15.1884521 11.1861265,15.3207066 11.1861265,15.483663 C11.1864217,15.6466195 11.0671565,15.778874 10.9039048,15.778874 M12.6208517,15.4609318 C12.5015865,15.4609318 12.3891111,15.3880147 12.344239,15.2696351 C12.2866729,15.1173062 12.3640182,14.9469695 12.516347,14.8894034 C12.6869789,14.8250474 12.8567252,14.7497686 13.0199769,14.6659287 C13.1655159,14.5909451 13.3429376,14.6485113 13.4179212,14.7934598 C13.4923144,14.9384084 13.4353387,15.1164206 13.2897997,15.1908138 C13.1064737,15.2852813 12.9163578,15.3694164 12.7244707,15.4417431 C12.6905215,15.4547324 12.6553914,15.4609318 12.6208517,15.4609318 M8.62517158,15.2353906 C8.58000431,15.2353906 8.53424662,15.2250582 8.49173624,15.2032126 C8.30929588,15.1108116 8.12951241,15.0066021 7.95769965,14.8938316 C7.82101698,14.8046779 7.78293477,14.6216471 7.87238368,14.4852596 C7.96212781,14.3491674 8.14456817,14.31079 8.28125084,14.4002389 C8.43505574,14.5009058 8.59565049,14.5941925 8.75890214,14.6768515 C8.90444114,14.7506543 8.96200727,14.9283712 8.88820453,15.073615 C8.83654262,15.1763484 8.73292358,15.2353906 8.62517158,15.2353906 M14.5621588,14.1850301 C14.48688,14.1850301 14.4118965,14.1566898 14.3546255,14.1000093 C14.2386076,13.9851723 14.2374268,13.7983038 14.3519686,13.6822859 C14.4809758,13.552393 14.6052596,13.4127583 14.7236392,13.2681049 C14.8263726,13.1417546 15.0120603,13.1225659 15.1384106,13.2252993 C15.2653513,13.3283279 15.2839496,13.5143108 15.1815114,13.6406611 C15.0516186,13.800075 14.9137551,13.9538799 14.7720538,14.0973524 C14.7141925,14.1558042 14.638028,14.1850301 14.5621588,14.1850301 M6.82172794,13.7696683 C6.73611677,13.7696683 6.65168644,13.7327669 6.59352989,13.6616211 C6.46599876,13.5066354 6.34319101,13.3413172 6.22805874,13.1703901 C6.13654335,13.0354787 6.17196866,12.8518575 6.30688006,12.7603421 C6.44238188,12.6694171 6.62541267,12.7048424 6.71722327,12.840049 C6.82231837,12.9956252 6.93449852,13.146478 7.05051642,13.2875888 C7.15354504,13.4136439 7.13553717,13.5996268 7.00889168,13.7029506 C6.95398245,13.7478227 6.88755998,13.7696683 6.82172794,13.7696683 M15.8590205,12.2525793 C15.8197574,12.2525793 15.779904,12.2446086 15.7412313,12.2280768 C15.5918546,12.1628351 15.5236609,11.9889559 15.5886073,11.839284 C15.6627052,11.6692425 15.7300133,11.4932967 15.7899411,11.3170558 C15.8421935,11.1626605 16.0095781,11.0797062 16.1642686,11.1313681 C16.3183687,11.1836205 16.4016182,11.3510051 16.3496611,11.5054004 C16.2844195,11.6978779 16.2106167,11.8894698 16.1303193,12.0751575 C16.0813143,12.1861568 15.9729719,12.2525793 15.8590205,12.2525793 M5.69638383,11.7312368 C5.57357608,11.7312368 5.45844382,11.6538915 5.41681907,11.5310837 C5.35157746,11.339787 5.2934209,11.1425861 5.24412067,10.9459756 C5.20515283,10.7877426 5.3013916,10.6277383 5.45932945,10.5884752 C5.6172673,10.5483265 5.77756684,10.6451557 5.81742032,10.8033888 C5.86199717,10.9837626 5.91543035,11.164727 5.97535817,11.3406727 C6.02849614,11.4944776 5.94554187,11.6627478 5.79144176,11.7152954 C5.7601494,11.725923 5.72797141,11.7312368 5.69638383,11.7312368 M16.4172644,9.99008262 C16.4101793,9.99008262 16.4019134,9.98978741 16.3942379,9.98919699 C16.2315767,9.97679813 16.1099498,9.83480166 16.1226439,9.67214043 C16.136814,9.49412824 16.1433086,9.31168787 16.1433086,9.12954272 C16.1433086,8.96658628 16.2755631,8.82458982 16.4385196,8.82458982 C16.6017712,8.82458982 16.7337305,8.94710236 16.7337305,9.11035401 L16.7337305,9.12954272 C16.7337305,9.32703884 16.7263502,9.52483017 16.7112945,9.71760292 C16.6991908,9.87258866 16.5701837,9.99008262 16.4172644,9.99008262 M5.31880904,9.42800099 C5.1558526,9.42800099 5.0235981,9.29928902 5.0235981,9.13633258 L5.0235981,9.12954272 C5.0235981,8.93027534 5.03186401,8.72805584 5.04751019,8.52849325 C5.05990905,8.36583202 5.20515283,8.2465668 5.36486195,8.2574896 C5.52722797,8.27018367 5.64885487,8.41218014 5.6361608,8.57484137 C5.62169547,8.75905299 5.61401998,8.94562631 5.61401998,9.12954272 C5.61401998,9.29249916 5.48206069,9.42800099 5.31880904,9.42800099 M16.2233108,7.66736293 C16.0913515,7.66736293 15.9706102,7.57820923 15.9369562,7.44418346 C15.8920841,7.26380957 15.8380605,7.08314048 15.7775423,6.90719476 C15.7246995,6.75279943 15.8073586,6.58482441 15.9608683,6.53198165 C16.1170349,6.47854847 16.2832386,6.56120753 16.3363766,6.71530764 C16.4019134,6.90689955 16.4603652,7.10380524 16.5096654,7.30012052 C16.5492237,7.45835358 16.4532801,7.61865313 16.2947518,7.65821139 C16.2708398,7.66470603 16.2469277,7.66736293 16.2233108,7.66736293 M5.69225088,7.13125986 C5.66095852,7.13125986 5.62878053,7.12594606 5.59778338,7.11531847 C5.44309285,7.06306613 5.36043378,6.89538632 5.41298133,6.740991 C5.47822295,6.54792304 5.55261611,6.35633114 5.63379912,6.17152909 C5.69963116,6.02215235 5.87232956,5.95366342 6.02229671,6.01979067 C6.17167345,6.0853275 6.23986718,6.25950195 6.17462556,6.40858348 C6.1002324,6.57803456 6.03203868,6.75368507 5.97181564,6.93051642 C5.9301909,7.05361938 5.81535384,7.13125986 5.69225088,7.13125986 M15.2783406,5.53889204 C15.1835779,5.53889204 15.0902912,5.49342956 15.0336107,5.40929444 C14.9294012,5.25578475 14.8172211,5.10552238 14.6997271,4.96264029 C14.5958129,4.83688042 14.6144112,4.65060232 14.740171,4.54698328 C14.8662261,4.44365945 15.0519138,4.46166732 15.155828,4.58742718 C15.2848352,4.7444794 15.4079382,4.90979753 15.52248,5.07806776 C15.6137002,5.21327437 15.5779797,5.39660037 15.4430683,5.48811576 C15.3925872,5.52236023 15.3353163,5.53889204 15.2783406,5.53889204 M6.81346204,5.09017141 C6.74763,5.09017141 6.68179796,5.06862101 6.62659351,5.02374895 C6.50024323,4.92042512 6.48194015,4.73473744 6.58496877,4.60838716 C6.71456637,4.44956367 6.85272509,4.29605398 6.99501677,4.15258146 C7.11044424,4.03656356 7.29701756,4.03626835 7.41244504,4.1508102 C7.52875815,4.26564725 7.52934857,4.45251578 7.4142163,4.56823847 C7.28520912,4.69842649 7.16033489,4.83776606 7.04195531,4.981829 C6.98379875,5.05327004 6.898778,5.09017141 6.81346204,5.09017141 M13.627521,3.90047132 C13.5720213,3.90047132 13.5162265,3.88482514 13.4663358,3.85264715 C13.3119405,3.751685 13.1510505,3.65898877 12.9880941,3.57721534 C12.8428503,3.50400302 12.7843985,3.32599083 12.8579061,3.18045183 C12.9311184,3.03491284 13.1079497,2.97616586 13.2540791,3.0499686 C13.4362243,3.14148399 13.616303,3.24539824 13.7892966,3.35816882 C13.9259792,3.44702731 13.9646519,3.6300581 13.8754982,3.76674076 C13.8182273,3.85323757 13.7237598,3.90047132 13.627521,3.90047132 M8.61395357,3.62031613 C8.50620158,3.62031613 8.40287775,3.56156916 8.3503302,3.45942617 C8.27652746,3.31388718 8.33379839,3.13617019 8.47904217,3.06207224 C8.66354901,2.96819517 8.85396006,2.88376484 9.04496154,2.812619 C9.19906166,2.75505287 9.36792231,2.83298855 9.42519324,2.98561261 C9.48216895,3.13823667 9.40452847,3.30827817 9.25219962,3.36554909 C9.08186291,3.42931466 8.91182141,3.50400302 8.74797934,3.58784293 C8.70487854,3.60968854 8.65912084,3.62031613 8.61395357,3.62031613 M11.4497499,3.10369699 C11.4388271,3.10369699 11.4273138,3.10310657 11.4158006,3.10163051 C11.2377884,3.08096574 11.0574145,3.07063336 10.8788119,3.07063336 C10.7158555,3.07063336 10.5774015,2.93837886 10.5774015,2.77542242 C10.5774015,2.61246598 10.7031614,2.48021148 10.8661178,2.48021148 L10.8788119,2.48021148 C11.0798506,2.48021148 11.2835461,2.49201992 11.4834039,2.51534158 C11.6454747,2.53393987 11.7614926,2.68065971 11.7425991,2.8424353 C11.7254769,2.99299288 11.5979458,3.10369699 11.4497499,3.10369699" id="XMLID_109_" fill="#FFD949" fill-rule="nonzero"></path>
                            <path d="M13.994088,5.55912344 C14.0728282,5.64548751 14.1121977,5.75200159 14.1121977,5.87866889 L14.1121977,11.7254871 C14.1121977,11.8521544 14.0715158,11.9586685 13.990151,12.0450325 C13.9087861,12.1313966 13.8129869,12.174578 13.7027507,12.174578 C13.587265,12.174578 13.4901536,12.1313966 13.4114134,12.0450325 C13.3326732,11.9586685 13.2933037,11.8521544 13.2933037,11.7254871 L13.2933037,7.43321435 L11.3878003,11.6909416 C11.2985614,11.8406393 11.1804529,11.9154871 11.0334712,11.9154871 C10.8602427,11.9154871 10.7342603,11.8262455 10.6555201,11.6477598 L8.77363867,7.51094162 L8.77363867,11.7254871 C8.77363867,11.8521544 8.73426916,11.9586685 8.65552895,12.0450325 C8.57678875,12.1313966 8.47967729,12.174578 8.36419166,12.174578 C8.24870603,12.174578 8.15159457,12.1313966 8.07285437,12.0450325 C7.99411417,11.9586685 7.95474466,11.8521544 7.95474466,11.7254871 L7.95474466,5.87866889 C7.95474466,5.75200159 7.99411417,5.64548751 8.07285437,5.55912344 C8.15159457,5.47275937 8.24870603,5.42957798 8.36419166,5.42957798 C8.52167207,5.42957798 8.64240523,5.51018324 8.72639478,5.67139617 L11.0649671,10.8100325 L13.3405475,5.67139617 C13.4245371,5.51018324 13.5452703,5.42957798 13.7027507,5.42957798 C13.8182363,5.42957798 13.9153478,5.47275937 13.994088,5.55912344 Z" id="M" fill="#CE9912" fill-rule="evenodd"></path>
                        </g>
                    </g>
                    <g id="icon/achievement/tree">
                        <g id="Group-2" transform="translate(2.653846, 3.538462)">
                            <g id="Group" fill-rule="nonzero">
                                <path d="M15.7759415,10.1596183 L14.6091426,8.0003537 C14.5167026,7.82915928 14.4855434,7.62244307 14.5221769,7.42480397 L14.9853888,4.93035173 C15.0576181,4.54160907 14.8647731,4.15250333 14.5400786,4.03099099 L12.4561441,3.25159947 C12.2909819,3.18978431 12.1531391,3.05492861 12.0722963,2.87601863 L12.5507645,0.205441298 C11.9091937,0.205441298 10.7123869,0.210069319 10.4770995,0.205364111 C10.389804,0.203618402 10.300957,0.222038762 10.2155053,0.262716674 L8.18940101,1.22797729 C8.02885688,1.30428558 7.8489582,1.30428558 7.68841407,1.22797729 C7.53341141,0.546286628 7.45591008,0.205441298 7.45591008,0.205441298 C7.35435515,0.205441298 6.03113916,0.201970073 5.40920946,0.205441298 C5.17094543,0.20677114 4.94304693,0.358488939 4.82570567,0.618206829 L3.8057004,2.87598838 C3.72485756,3.05489835 3.5870148,3.18975405 3.42185256,3.25156922 L1.33794406,4.03096073 C1.01306791,4.15247307 0.82040457,4.54160907 0.892633863,4.93032148 L1.3556641,7.42477372 C1.39245331,7.62241281 1.36113838,7.82915928 1.26869838,8.00032344 L0.102055193,10.1596183 C-0.079841205,10.4961675 -0.0127489091,10.9386164 0.256787774,11.1824581 L1.98634725,12.746052 C2.12351545,12.8700756 2.21346479,13.0517087 2.23699639,13.2522525 L2.53338556,15.7809255 C2.57943692,16.1750539 2.87481426,16.463918 3.21543868,16.4484567 C4.1043168,16.4484567 4.76911588,16.4484567 5.2098359,16.4484567 C5.25319112,16.4464993 5.31732675,16.4135897 5.40224279,16.3497279 C5.57552564,16.3418005 5.74450171,16.4136913 5.87323797,16.549485 L7.49377896,18.2643642 C7.61121707,18.3885671 7.75736228,18.4550366 7.90550845,18.4637727 C8.24297422,18.4637727 9.68975073,18.4637727 10.0051219,18.4637727 L10.0051219,16.549485 C10.1335209,16.4134795 10.3026527,16.3418005 10.4761171,16.3497279 L12.6627396,16.4484567 C13.0101917,16.4484567 14.5868971,16.4484567 14.8474498,16.4484567 L13.6413376,13.2522525 C13.6648692,13.0517087 13.7548185,12.8701059 13.891831,12.746052 L15.6213905,11.1824581 C15.8909013,10.9386164 15.9578379,10.4961675 15.7759415,10.1596183 Z" id="Shape" fill="#5286AF"></path>
                                <path d="M17.8496302,10.1596183 L16.6828313,8.0003537 C16.5903913,7.82915928 16.5592321,7.62244307 16.5958656,7.42480397 L17.0590775,4.93035173 C17.1313068,4.54160907 16.9384618,4.15250333 16.6137673,4.03099099 L14.5298328,3.25159947 C14.3646706,3.18978431 14.2268278,3.05492861 14.145985,2.87601863 L13.1259797,0.618025287 C12.967096,0.266014693 12.6049637,0.112399618 12.289194,0.262716674 L10.2630897,1.22797729 C10.1025456,1.30428558 9.92264689,1.30428558 9.76210276,1.22797729 L7.73633572,0.262898216 C7.42056606,0.11258116 7.05843371,0.266196235 6.89939435,0.618206829 L5.87938909,2.87598838 C5.79854625,3.05489835 5.66070349,3.18975405 5.49554125,3.25156922 L3.41163275,4.03096073 C3.08675659,4.15247307 2.89409326,4.54160907 2.96632255,4.93032148 L3.42935279,7.42477372 C3.46614199,7.62241281 3.43482707,7.82915928 3.34238706,8.00032344 L2.17574388,10.1596183 C1.99384748,10.4961675 2.06093978,10.9386164 2.33047646,11.1824581 L4.06003594,12.746052 C4.19720414,12.8700756 4.28715348,13.0517087 4.31068508,13.2522525 L4.60707425,15.7809255 C4.65312561,16.1750539 4.94850294,16.463918 5.28912736,16.4484567 L7.47593148,16.3497279 C7.64921432,16.3418005 7.8181904,16.4136913 7.94692666,16.549485 L9.56746764,18.2643642 C9.8201145,18.5315642 10.2056228,18.5315642 10.458088,18.2643642 L12.0788106,16.549485 C12.2072096,16.4134795 12.3763414,16.3418005 12.5498058,16.3497279 L14.7364283,16.4484567 C15.0773641,16.463918 15.3724301,16.1748724 15.4186371,15.7809255 L15.7150263,13.2522525 C15.7385579,13.0517087 15.8285072,12.8701059 15.9655197,12.746052 L17.6950792,11.1824581 C17.96459,10.9386164 18.0315266,10.4961675 17.8496302,10.1596183 Z" id="Shape" fill="#7DBBEC"></path>
                            </g>
                            <path d="M6.80404366,6.0254312 L8.06327528,8.35407728 L9.3225069,6.0254312 L9.89965472,6.0254312 L8.34310453,8.85756833 L9.85301652,11.611035 L9.27586869,11.611035 L8.06327528,9.36105937 L6.85068187,11.611035 L6.26770427,11.611035 L7.77761626,8.85756833 L6.22106606,6.0254312 L6.80404366,6.0254312 Z M10.6070009,11.611035 L10.6070009,6.0254312 L12.3326146,6.0254312 C12.5152818,6.0254312 12.683372,6.0765665 12.8368902,6.17883863 C12.9904084,6.28111076 13.1225487,6.41747155 13.233315,6.5879251 C13.3440813,6.75837865 13.4305554,6.94980823 13.49274,7.16221958 C13.5549246,7.37463092 13.5860164,7.59097257 13.5860164,7.811251 C13.5860164,8.04201888 13.5568678,8.26491634 13.4985698,8.47995005 C13.4402717,8.69498375 13.3576841,8.88641333 13.2508043,9.05424452 C13.1439245,9.22207571 13.0156708,9.35581418 12.8660391,9.45546395 C12.7164074,9.55511371 12.5502605,9.60493785 12.3675932,9.60493785 L11.1316807,9.60493785 L11.1316807,11.611035 L10.6070009,11.611035 Z M11.1316807,8.97557404 L12.3384444,8.97557404 C12.4472674,8.97557404 12.545401,8.94541733 12.632848,8.885103 C12.7202951,8.82478866 12.7951098,8.74087433 12.8572944,8.63335747 C12.919479,8.52584062 12.96806,8.40128028 13.0030388,8.25967271 C13.0380177,8.11806515 13.0555068,7.96859274 13.0555068,7.811251 C13.0555068,7.64866454 13.0351028,7.49656981 12.9942942,7.35496224 C12.9534855,7.21335468 12.8990748,7.0901055 12.8310604,6.98521101 C12.763046,6.88031651 12.6833732,6.7990245 12.5920396,6.74133253 C12.500706,6.68364056 12.4045157,6.65479501 12.3034657,6.65479501 L11.1316807,6.65479501 L11.1316807,8.97557404 Z" id="XP" fill="#FFFFFF"></path>
                        </g>
                    </g>
                </g>
            </g>
            <g id="Group-5" transform="translate(30.000000, 266.000000)" font-size="12">
                <text id="Minimum" font-family="Lato-Regular, Lato" font-weight="normal" fill="#9B9B9B">
                    <tspan x="0" y="35">Minimum</tspan>
                </text>
                <text id="June-Balance" font-family="Lato-Regular, Lato" font-weight="normal" fill="#9B9B9B">
                    <tspan x="276.02" y="27">June</tspan>
                    <tspan x="267.716" y="42">Balance</tspan>
                </text>
                <text id="100%" font-family="Lato-Bold, Lato" font-weight="bold" fill="#FFFFFF">
                    <tspan x="225" y="12">100%</tspan>
                </text>
            </g>
            <g id="Group-16" transform="translate(13.000000, 416.000000)">
                <g id="icon/info" transform="translate(270.000000, 46.000000)">
                    <g id="Group-3-Copy" stroke-width="1" fill="#FA8F01">
                        <circle id="Oval-3" cx="8.5" cy="8.5" r="8.5"></circle>
                    </g>
                    <path d="M7.2487811,4.93526147 C7.2487811,4.28458118 7.61123515,3.78668278 8.33615413,3.78668278 C9.06107311,3.78668278 9.42352716,4.28458118 9.42352716,4.93526147 C9.42352716,5.24531718 9.32930188,5.54520647 9.14807213,5.71770225 C8.96684239,5.89019803 8.69861362,6.04363558 8.33615413,6.04363558 C7.61123515,6.04363558 7.2487811,5.59030874 7.2487811,4.93526147 Z M8.33287891,13.0337887 L8.33287891,13.0337887 L8.33287891,13.0337887 C7.78117843,13.0337887 7.33393682,12.5865471 7.33393682,12.0348466 L7.33393682,7.73394752 L7.33393682,7.73394752 C7.33393682,7.18224703 7.78117843,6.73500542 8.33287891,6.73500542 L8.33287891,6.73500542 L8.33287891,6.73500542 C8.88457939,6.73500542 9.331821,7.18224703 9.331821,7.73394752 L9.331821,12.0348466 L9.331821,12.0348466 C9.331821,12.5865471 8.88457939,13.0337887 8.33287891,13.0337887 Z" id="i" fill="#FFFFFF"></path>
                </g>
                <text id="CREDIT-SCORE" font-family="OpenSans-Bold, Open Sans" font-size="17" font-weight="bold" fill="#4A4A4A">
                    <tspan x="114" y="30">CREDIT SCORE</tspan>
                </text>
                <text id="680" font-family="OpenSans, Open Sans" font-size="30" font-weight="normal" fill="#4A4A4A">
                    <tspan x="92" y="96">680</tspan>
                </text>
                <text id="Current" font-family="Lato-Regular, Lato" font-size="12" font-weight="normal" fill="#9B9B9B">
                    <tspan x="97" y="59">Current</tspan>
                </text>
                <text id="Expected" font-family="Lato-Regular, Lato" font-size="12" font-weight="normal" fill="#9B9B9B">
                    <tspan x="207" y="59">Expected</tspan>
                </text>
            </g>
            <g id="button/active" transform="translate(44.000000, 601.000000)">
                <rect id="Rectangle-6" fill="#80BCEA" fill-rule="evenodd" x="0.520171079" y="0" width="287.422044" height="36" rx="5"></rect>
                <text id="Start-Payment" font-family="OpenSans, Open Sans" font-size="17" font-weight="normal" fill="#FFFFFF">
                    <tspan x="108.475306" y="24">Continue</tspan>
                </text>
            </g>
            <g id="Group-20" transform="translate(27.000000, 80.000000)">
                <circle id="Oval-6-Copy-2" fill="#D8D8D8" cx="274" cy="29" r="5"></circle>
                <path d="M49.5,29 L157.5,29" id="Path-2" stroke="#FFC049"></path>
                <path d="M163.5,29 L271.5,29" id="Path-2-Copy" stroke="#D8D8D8"></path>
                <circle id="Oval-6" fill="#FFC049" cx="46" cy="29" r="5"></circle>
                <circle id="Oval-6-Copy" fill="#FFC049" cx="161" cy="29" r="5"></circle>
                <text id="Check-statement" font-family="Lato-Regular, Lato" font-size="12" font-weight="normal" fill="#FFC049">
                    <tspan x="0" y="12">Check statement</tspan>
                </text>
                <text id="Choose-amount" font-family="Lato-Regular, Lato" font-size="12" font-weight="normal" fill="#FFC049">
                    <tspan x="123" y="12">Choose amount</tspan>
                </text>
                <text id="Submit" font-family="Lato-Regular, Lato" font-size="12" font-weight="normal" fill="#9B9B9B">
                    <tspan x="258" y="12">Submit</tspan>
                </text>
            </g>
            <g id="Group-7" transform="translate(130.000000, 139.000000)" fill="#4A4A4A">
                <text id="$" font-family="OpenSans-Bold, Open Sans" font-size="30" font-weight="bold">
                    <tspan x="0.437988281" y="58">$</tspan>
                </text>
                <text id="44.78" font-family="OpenSans, Open Sans" font-size="36" font-weight="normal">
                    <tspan x="23.0419922" y="58">44.78</tspan>
                </text>
                <text id="JUNE-BALANCE" font-family="Lato-Regular, Lato" font-size="12" font-weight="normal">
                    <tspan x="17" y="12">JUNE BALANCE</tspan>
                </text>
            </g>
            <text id="Choose-the-amount-to" font-family="Lato-Bold, Lato" font-size="16" font-weight="bold" fill="#4A4A4A">
                <tspan x="94" y="245">Choose the amount to pay</tspan>
            </text>
        </g>
    </g>
</svg>