<?xml version="1.0" encoding="UTF-8"?>
<svg width="375px" height="981px" viewBox="0 0 375 981" version="1.1" xmlns="http://www.w3.org/2000/svg" xmlns:xlink="http://www.w3.org/1999/xlink" style="background: #FFFFFF;">
    <!-- Generator: Sketch 43 (38999) - http://www.bohemiancoding.com/sketch -->
    <title>payment10-c copy</title>
    <desc>Created with Sketch.</desc>
    <defs>
        <linearGradient x1="100%" y1="100%" x2="1.84749681%" y2="1.84749681%" id="linearGradient-1">
            <stop stop-color="#FC9000" stop-opacity="0.868404665" offset="0%"></stop>
            <stop stop-color="#FFC13A" offset="100%"></stop>
        </linearGradient>
        <rect id="path-2" x="0" y="0" width="300" height="375.671195" rx="5"></rect>
        <filter x="-4.7%" y="-2.7%" width="109.3%" height="107.5%" filterUnits="objectBoundingBox" id="filter-3">
            <feOffset dx="0" dy="4" in="SourceAlpha" result="shadowOffsetOuter1"></feOffset>
            <feGaussianBlur stdDeviation="4" in="shadowOffsetOuter1" result="shadowBlurOuter1"></feGaussianBlur>
            <feColorMatrix values="0 0 0 0 0   0 0 0 0 0   0 0 0 0 0  0 0 0 0.24 0" type="matrix" in="shadowBlurOuter1"></feColorMatrix>
        </filter>
        <rect id="path-4" x="38" y="493" width="300" height="375.671195" rx="5"></rect>
        <filter x="-4.7%" y="-2.7%" width="109.3%" height="107.5%" filterUnits="objectBoundingBox" id="filter-5">
            <feOffset dx="0" dy="4" in="SourceAlpha" result="shadowOffsetOuter1"></feOffset>
            <feGaussianBlur stdDeviation="4" in="shadowOffsetOuter1" result="shadowBlurOuter1"></feGaussianBlur>
            <feColorMatrix values="0 0 0 0 0   0 0 0 0 0   0 0 0 0 0  0 0 0 0.24 0" type="matrix" in="shadowBlurOuter1"></feColorMatrix>
        </filter>
    </defs>
    <g id="Page-1" stroke="none" stroke-width="1" fill="none" fill-rule="evenodd">
        <g id="payment10-c-copy">
            <text id="MAY-STATEMENT" font-family="OpenSans-Light, Open Sans" font-size="20" font-weight="300" fill="#8D99B1">
                <tspan x="111.452148" y="164">MAY STATEMENT</tspan>
            </text>
            <g id="Group-4" transform="translate(87.000000, 921.000000)" font-size="17" font-family="OpenSans, Open Sans" fill="#FFFFFF" font-weight="normal">
                <g id="Group-15">
                    <text id="Continue">
                        <tspan x="64.4331055" y="18">Continue</tspan>
                    </text>
                </g>
            </g>
            <g id="Group-6">
                <rect id="Rectangle-8" fill="url(#linearGradient-1)" x="0" y="0" width="375" height="57"></rect>
                <text id="Make-Payment" font-family="OpenSans-Bold, Open Sans" font-size="17" font-weight="bold" fill="#FFFFFF">
                    <tspan x="123.399414" y="43">Make Payment</tspan>
                </text>
                <path d="M20.190097,35.1548856 L19.1430249,36.2012106 C18.9564522,36.3882417 18.9518681,36.6866664 19.1324815,36.8672798 L27.9073589,45.7943491 C28.0879723,45.975421 28.3859385,45.9703784 28.5725113,45.7838057 L29.8569751,44.4993419 C30.0435478,44.3127692 30.0481319,44.0148029 29.8675185,43.8337311 L22.6814959,36.5226918 L29.8503275,29.0716693 C30.0295657,28.8928896 30.0249816,28.5981322 29.8402425,28.4129347 L28.5686142,27.1417647 C28.3838751,26.9570257 28.0891177,26.9519832 27.9098795,27.1316797 L20.190097,35.1548856 Z" id="Arrow" fill="#FFFFFF"></path>
            </g>
            <g id="Group-20" transform="translate(27.000000, 80.000000)">
                <circle id="Oval-6-Copy-2" fill="#D8D8D8" cx="274" cy="29" r="5"></circle>
                <path d="M49.5,29 L157.5,29" id="Path-2" stroke="#D8D8D8"></path>
                <path d="M163.5,29 L271.5,29" id="Path-2-Copy" stroke="#D8D8D8"></path>
                <ellipse id="Oval-6" fill="#FFC049" cx="46" cy="29" rx="5" ry="5"></ellipse>
                <circle id="Oval-6-Copy" fill="#D8D8D8" cx="161" cy="29" r="5"></circle>
                <text id="Check-statement" font-family="Lato-Regular, Lato" font-size="11" font-weight="normal" fill="#FFC049">
                    <tspan x="0" y="12">Check statement</tspan>
                </text>
                <text id="Choose-amount" font-family="Lato-Regular, Lato" font-size="11" font-weight="normal" fill="#9B9B9B">
                    <tspan x="123" y="12">Choose amount</tspan>
                </text>
                <text id="Submit" font-family="Lato-Regular, Lato" font-size="11" font-weight="normal" fill="#9B9B9B">
                    <tspan x="258" y="12">Submit</tspan>
                </text>
            </g>
            <text id="ACCOUNT-SUMMARY" font-family="Lato-Bold, Lato" font-size="17" font-weight="bold" fill="#4A4A4A">
                <tspan x="26" y="213">ACCOUNT SUMMARY</tspan>
            </text>
            <text id="SPENDING-ANALYSIS" font-family="Lato-Bold, Lato" font-size="17" font-weight="bold" fill="#4A4A4A">
                <tspan x="26" y="469">SPENDING ANALYSIS</tspan>
            </text>
            <g id="Group-12" transform="translate(26.000000, 273.000000)">
                <text id="Your-total-balance-i" font-family="Lato-Bold, Lato" font-size="16" font-weight="bold" fill="#4A4A4A">
                    <tspan x="11" y="31">Your total balance is on a rise</tspan>
                </text>
                <g id="Group-39" transform="translate(0.000000, 44.000000)" fill="#4A4A4A">
                    <text id="You-spent-more-than" font-family="Lato-Regular, Lato" font-size="16" font-weight="normal">
                        <tspan x="16" y="15">You spent more than last month. Be careful </tspan>
                        <tspan x="16" y="34">to stay below your budget.</tspan>
                    </text>
                    <circle id="Oval-2" cx="2" cy="10" r="2"></circle>
                </g>
                <text id="OHANA-SUGGESTIONS" font-family="Lato-Regular, Lato" font-size="11" font-weight="normal" fill="#9B9B9B">
                    <tspan x="11" y="11">OHANA SUGGESTIONS</tspan>
                </text>
                <rect id="Rectangle" fill="#FA8F01" x="0" y="2" width="3.80494159" height="33"></rect>
            </g>
            <g id="Group-3-Copy" transform="translate(55.000000, 246.000000)" fill="#FFFFFF">
                <path d="M3.74286604,0.0476190476 C2.83771167,0.0476190476 2.12826635,0.304487179 1.60229827,0.818223443 C1.06409838,1.33195971 0.807230246,2.04140502 0.807230246,2.94655939 L2.20165725,2.94655939 C2.20165725,2.43282313 2.29951177,2.02917321 2.50745264,1.74784144 C2.73985714,1.4053506 3.11904343,1.246337 3.65724333,1.246337 C4.07312507,1.246337 4.40338409,1.35642334 4.63578859,1.58882784 C4.85596128,1.82123234 4.97827943,2.13925955 4.97827943,2.54290947 C4.97827943,2.84870487 4.86819309,3.14226845 4.64802041,3.41136839 L4.50123862,3.58261381 C3.70617059,4.29205913 3.22912977,4.8057954 3.07011617,5.13605442 C2.89887075,5.46631345 2.82547985,5.86996337 2.82547985,6.33477237 L2.82547985,6.50601779 L4.23213867,6.50601779 L4.23213867,6.33477237 C4.23213867,6.04120879 4.29329775,5.78434066 4.41561591,5.53970434 C4.52570225,5.31953166 4.68471586,5.11159079 4.90488854,4.92811355 C5.4920157,4.41437729 5.84673836,4.08411826 5.9568247,3.9618001 C6.25038828,3.570382 6.40940188,3.06887755 6.40940188,2.45728676 C6.40940188,1.711146 6.16476557,1.12401884 5.67549294,0.695905285 C5.1862203,0.255559916 4.53793407,0.0476190476 3.74286604,0.0476190476 Z M3.52269335,7.10537677 C3.25359341,7.10537677 3.03342072,7.19099948 2.84994349,7.3622449 C2.66646625,7.53349032 2.58084354,7.753663 2.58084354,8.02276295 C2.58084354,8.2918629 2.66646625,8.51203558 2.84994349,8.683281 C3.03342072,8.85452643 3.25359341,8.95238095 3.52269335,8.95238095 C3.7917933,8.95238095 4.01196599,8.86675824 4.19544322,8.69551282 C4.37892046,8.5242674 4.47677499,8.2918629 4.47677499,8.02276295 C4.47677499,7.753663 4.37892046,7.53349032 4.20767504,7.3622449 C4.0241978,7.19099948 3.7917933,7.10537677 3.52269335,7.10537677 Z" id="？"></path>
            </g>
            <g id="Group-18" transform="translate(26.000000, 234.000000)" font-size="16" fill="#4A4A4A">
                <text id="May-Balance" font-family="Lato-Regular, Lato" font-weight="normal">
                    <tspan x="0" y="18">May Balance</tspan>
                </text>
                <text id="$-42.28" font-family="OpenSans-Bold, Open Sans" font-weight="bold">
                    <tspan x="114" y="17">$ 42.28</tspan>
                </text>
            </g>
            <g id="Group-5" transform="translate(117.000000, 378.000000)" fill="#4A4A4A">
                <text id="See-more-analysis-an" font-family="Lato-Regular, Lato" font-size="11" font-weight="normal">
                    <tspan x="0" y="11">See more analysis and history</tspan>
                </text>
                <path d="M155.621593,7.25933462 L155.074703,7.80583503 C154.977255,7.90352226 154.97486,8.05939085 155.069196,8.15372607 L159.652355,12.8163759 C159.74669,12.9109505 159.902319,12.9083168 159.999767,12.810869 L160.670649,12.1399876 C160.768096,12.0425398 160.770491,11.8869106 160.676155,11.792336 L156.922862,7.97374617 L160.667176,4.08204252 C160.760793,3.98866502 160.758399,3.83471186 160.661909,3.73798235 L159.997732,3.07404438 C159.901242,2.9775543 159.747288,2.97492058 159.653671,3.06877694 L155.621593,7.25933462 Z" id="Arrow" transform="translate(157.872676, 7.942832) scale(-1, 1) translate(-157.872676, -7.942832) "></path>
            </g>
            <g id="Group-33" transform="translate(355.000000, 493.000000)">
                <g id="Rectangle-16">
                    <use fill="black" fill-opacity="1" filter="url(#filter-3)" xlink:href="#path-2"></use>
                    <use fill="#FFFFFF" fill-rule="evenodd" xlink:href="#path-2"></use>
                </g>
            </g>
            <g id="Rectangle-16">
                <use fill="black" fill-opacity="1" filter="url(#filter-5)" xlink:href="#path-4"></use>
                <use fill="#FFFFFF" fill-rule="evenodd" xlink:href="#path-4"></use>
            </g>
            <text id="Entertainment" font-family="Lato-Bold, Lato" font-size="17" font-weight="bold" fill="#4A4A4A">
                <tspan x="132" y="533">Entertainment</tspan>
            </text>
            <rect id="Rectangle-10" fill="#F7F9F9" x="46" y="682" width="284" height="175.669998" rx="5"></rect>
            <g id="Group-12" transform="translate(58.000000, 693.000000)">
                <text id="You-are-over-budget" font-family="Lato-Bold, Lato" font-size="16" font-weight="bold" fill="#4A4A4A">
                    <tspan x="11" y="31">You are over budget this month!</tspan>
                </text>
                <g id="Group-39" transform="translate(0.000000, 44.000000)" fill="#4A4A4A">
                    <text id="Check-balance-before" font-family="Lato-Regular, Lato" font-size="16" font-weight="normal">
                        <tspan x="16" y="16">Check balance before making </tspan>
                        <tspan x="16" y="35">purchases.</tspan>
                    </text>
                    <circle id="Oval-2" cx="2" cy="10" r="2"></circle>
                    <text id="Get-more-reward-poin" font-family="Lato-Regular, Lato" font-size="16" font-weight="normal">
                        <tspan x="16" y="59">Get more reward points and </tspan>
                        <tspan x="16" y="78">redeem entertainment rewards </tspan>
                        <tspan x="16" y="97">in reward shop.</tspan>
                    </text>
                    <circle id="Oval-2" cx="2" cy="53" r="2"></circle>
                </g>
                <text id="OHANA-SUGGESTIONS" font-family="Lato-Regular, Lato" font-size="11" font-weight="normal" fill="#9B9B9B">
                    <tspan x="11" y="11">OHANA SUGGESTIONS</tspan>
                </text>
                <rect id="Rectangle" fill="#FA8F01" x="0" y="2" width="3.80494159" height="33"></rect>
            </g>
            <g id="Group-43" transform="translate(102.000000, 655.000000)" fill="#4A4A4A">
                <text id="See-more-analysis-an" font-family="Lato-Regular, Lato" font-size="11" font-weight="normal">
                    <tspan x="3" y="11">See more analysis and transactions</tspan>
                </text>
                <path d="M185.621593,7.25933462 L185.074703,7.80583503 C184.977255,7.90352226 184.97486,8.05939085 185.069196,8.15372607 L189.652355,12.8163759 C189.74669,12.9109505 189.902319,12.9083168 189.999767,12.810869 L190.670649,12.1399876 C190.768096,12.0425398 190.770491,11.8869106 190.676155,11.792336 L186.922862,7.97374617 L190.667176,4.08204252 C190.760793,3.98866502 190.758399,3.83471186 190.661909,3.73798235 L189.997732,3.07404438 C189.901242,2.9775543 189.747288,2.97492058 189.653671,3.06877694 L185.621593,7.25933462 Z" id="Arrow" transform="translate(187.872676, 7.942832) scale(-1, 1) translate(-187.872676, -7.942832) "></path>
            </g>
            <g id="icon/transactions/entertainment" transform="translate(82.000000, 510.000000)" fill="#4A4A4A">
                <g id="video-camera" transform="translate(1.000000, 2.000000)">
                    <path d="M21.1139851,14.4091385 L8.52216302,14.4091385 C8.21673513,14.4091385 7.96930161,14.6567088 7.96930161,14.9619999 C7.96930161,15.2673594 8.21680352,15.5148614 8.52216302,15.5148614 L21.1139167,15.5148614 C21.4193446,15.5148614 21.6667781,15.2672911 21.6667781,14.9619999 C21.6668465,14.6567088 21.4193446,14.4091385 21.1139851,14.4091385 Z" id="Shape" fill-rule="nonzero"></path>
                    <path d="M21.6668465,18.0106025 C21.6668465,17.7051746 21.419413,17.4577411 21.1139851,17.4577411 L8.52216302,17.4577411 C8.21673513,17.4577411 7.96930161,17.705243 7.96930161,18.0106025 C7.96930161,18.315962 8.21680352,18.5634639 8.52216302,18.5634639 L21.1139167,18.5634639 C21.4193446,18.5634639 21.6668465,18.315962 21.6668465,18.0106025 Z" id="Shape" fill-rule="nonzero"></path>
                    <path d="M8.52216302,20.5061385 C8.21673513,20.5061385 7.96930161,20.753572 7.96930161,21.0589999 C7.96930161,21.3644278 8.21680352,21.6118613 8.52216302,21.6118613 L14.8180399,21.6118613 C15.1234678,21.6118613 15.3709013,21.3644278 15.3709013,21.0589999 C15.3709013,20.753572 15.1234678,20.5061385 14.8180399,20.5061385 L8.52216302,20.5061385 Z" id="Shape" fill-rule="nonzero"></path>
                    <path d="M18.241349,5.48860618 C17.2603687,5.48860618 16.4623307,6.28664425 16.4623307,7.26755608 C16.4623307,8.2484679 17.2603687,9.04643758 18.241349,9.04643758 C19.2223292,9.04643758 20.0202989,8.2484679 20.0202989,7.26755608 C20.0202989,6.28657586 19.2223292,5.48860618 18.241349,5.48860618 Z M18.241349,7.94057799 C17.8701303,7.94057799 17.5681219,7.63863797 17.5681219,7.26748769 C17.5681219,6.89633741 17.8701303,6.594329 18.241349,6.594329 C18.6124992,6.594329 18.9145076,6.89633741 18.9145076,7.26748769 C18.914576,7.63863797 18.6124992,7.94057799 18.241349,7.94057799 Z" id="Shape" fill-rule="nonzero"></path>
                    <path d="M10.0594241,4.47609837 C9.07844391,4.47609837 8.28040584,5.27413644 8.28040584,6.25511665 C8.28040584,7.23596009 9.07844391,8.03406655 10.0594241,8.03406655 C11.0404043,8.03406655 11.838374,7.23602848 11.838374,6.25511665 C11.8383056,5.27420483 11.0403359,4.47609837 10.0594241,4.47609837 Z M10.0594241,6.92827534 C9.68820545,6.92827534 9.38619704,6.62626693 9.38619704,6.25511665 C9.38619704,5.88389798 9.68820545,5.58188957 10.0594241,5.58188957 C10.4305744,5.58188957 10.7325828,5.88389798 10.7325828,6.25511665 C10.7325828,6.62626693 10.4305744,6.92827534 10.0594241,6.92827534 Z" id="Shape" fill-rule="nonzero"></path>
                    <path d="M33.2252336,9.15702354 C32.2380983,9.15702354 31.4349994,9.96019083 31.4349994,10.9473261 L31.4349994,11.2197218 L26.3556365,13.0157691 L26.3556365,10.9028045 C26.3556365,9.94015269 25.572439,9.15695515 24.6097872,9.15695515 L22.3510843,9.15695515 C22.6225226,8.56996734 22.7640206,7.93072989 22.7640206,7.2674193 C22.7640206,4.77352467 20.7351068,2.74461084 18.2412806,2.74461084 C17.2782868,2.74461084 16.3666536,3.04258427 15.6038362,3.59387272 C14.6273013,1.50874264 12.509823,0.0602512248 10.0592873,0.0602512248 C6.68474003,0.0602512248 3.93930851,2.80561435 3.93930851,6.18009328 C3.93930851,7.23534458 4.21478176,8.27158358 4.72743009,9.1829432 C3.90682346,9.32512514 3.28051163,10.0419164 3.28051163,10.9025993 L3.28051163,12.039713 L1.74584934,12.039713 C0.783197533,12.0399181 0,12.8230473 0,13.7856307 L0,22.2354375 C0,23.1980893 0.783197533,23.9812869 1.74578095,23.9812869 L3.28058002,23.9812869 L3.28058002,25.1182637 C3.28058002,26.0809839 4.06377756,26.8641814 5.02636097,26.8641814 L10.2889396,26.8641814 L10.2889396,32.0770408 C10.2889396,32.3824687 10.5363731,32.6299022 10.841801,32.6299022 L18.7946207,32.6299022 C19.1000486,32.6299022 19.3474821,32.3824003 19.3474821,32.0770408 L19.3474821,26.8641814 L21.7407073,26.8641814 C22.0461352,26.8641814 22.2935687,26.6167479 22.2935687,26.31132 C22.2935687,26.0058922 22.0461352,25.7584586 21.7407073,25.7584586 L18.7946207,25.7584586 L10.8416642,25.7584586 L5.02629258,25.7584586 C4.67340232,25.7584586 4.38630284,25.4712908 4.38630284,25.1183321 L4.38630284,23.4284255 L4.38630284,12.5927795 L4.38630284,10.9028045 C4.38630284,10.5498458 4.67340232,10.2627464 5.02629258,10.2627464 L5.75450489,10.2627464 L14.363933,10.2627464 L15.1143036,10.2627464 L21.3696938,10.2627464 L24.6097872,10.2627464 C24.9627458,10.2627464 25.2498453,10.5498458 25.2498453,10.9028045 L25.2498453,13.7976673 L25.2498453,22.2233326 L25.2498453,25.1182637 C25.2498453,25.4712224 24.9627458,25.7583902 24.6097872,25.7583902 L23.3862975,25.7583902 C23.0808696,25.7583902 22.8334361,26.0058922 22.8334361,26.3112516 C22.8334361,26.6166111 23.080938,26.8641131 23.3862975,26.8641131 L24.6097872,26.8641131 C25.572439,26.8641131 26.3556365,26.0809155 26.3556365,25.1181953 L26.3556365,23.0052307 L31.4349994,24.801278 L31.4349994,25.0738105 C31.4349994,26.0610142 32.2381667,26.8641131 33.2252336,26.8641131 C34.2123688,26.8641131 35.0154677,26.0609458 35.0154677,25.0738105 L35.0154677,10.9472577 C35.0154677,9.96012244 34.2123005,9.15702354 33.2252336,9.15702354 Z M3.28051163,22.8754273 L1.74578095,22.8754273 L1.74578095,22.8754957 C1.39289069,22.8754957 1.10579121,22.5884646 1.10579121,22.2354375 L1.10579121,13.7856307 C1.10579121,13.432672 1.39289069,13.1455726 1.74578095,13.1455726 L3.28058002,13.1455726 L3.28058002,22.8754273 L3.28051163,22.8754273 Z M11.3945256,26.8641131 L18.2415541,26.8641131 L18.2415541,31.524111 L11.3945256,31.524111 L11.3945256,26.8641131 Z M15.0693716,6.37219962 C15.0687561,6.38833957 15.0675935,6.40441112 15.0667728,6.42048267 C15.0644475,6.46931284 15.0617804,6.51807461 15.0579505,6.5666996 C15.0567879,6.58242921 15.0551466,6.59809042 15.0537788,6.61382003 C15.0494018,6.6639496 15.0445462,6.71401077 15.0386647,6.76393517 C15.0371601,6.77651885 15.0355187,6.78910254 15.0339458,6.80161783 C15.0271068,6.85598755 15.019584,6.91035727 15.0109669,6.96445343 C15.0097359,6.97231824 15.0084365,6.98025143 15.0072055,6.98804784 C14.9972206,7.04891457 14.9863466,7.10957613 14.9741049,7.16996414 C14.9738997,7.17126354 14.9735578,7.17263133 14.9733526,7.17393073 C14.9076986,7.49809737 14.8101751,7.81480954 14.6825601,8.11921158 C14.6818078,8.12092132 14.6810555,8.12263106 14.68044,8.12427241 C14.6575295,8.17877891 14.6334564,8.2327383 14.608631,8.28635573 C14.6013817,8.30188017 14.5939956,8.3174046 14.5866095,8.33286065 C14.5683495,8.37136399 14.5495424,8.40952537 14.5303933,8.44754998 C14.5176728,8.47264896 14.5047472,8.49754277 14.491548,8.52236819 C14.4775965,8.54883496 14.4633031,8.57509656 14.4488729,8.60128977 C14.4305445,8.63452711 14.4119425,8.66769606 14.3928618,8.70052306 C14.3841763,8.71556877 14.3751489,8.73040931 14.3662583,8.74524985 C14.3412961,8.78710428 14.3160603,8.82882192 14.2897303,8.87006084 C14.2277694,8.96758439 14.1630044,9.06346659 14.0941361,9.15681837 L6.02457536,9.15681837 L6.02457536,9.15688676 C5.39135619,8.29866586 5.04516811,7.25134774 5.04516811,6.18016167 C5.04516811,3.41544429 7.29456996,1.16611082 10.0593557,1.16611082 C12.3915774,1.16611082 14.3570941,2.76683746 14.9148111,4.92740124 C14.9150847,4.92842709 14.9153582,4.92945293 14.9156318,4.93054716 C14.9347809,5.00509181 14.9520835,5.08038874 14.9678131,5.1561644 C14.9695228,5.16443954 14.9713693,5.1726463 14.9730791,5.18092143 C15.0042647,5.33459283 15.0282011,5.49093143 15.0449565,5.64932171 C15.0468714,5.66737656 15.048376,5.6854998 15.0500173,5.70362304 C15.0556937,5.76332714 15.0602074,5.82323642 15.0637636,5.88355604 C15.0649947,5.90496198 15.0664308,5.92636792 15.0673883,5.94777386 C15.0709446,6.02478053 15.0732698,6.10212915 15.0732698,6.18002489 C15.0732698,6.2443111 15.0718336,6.30825536 15.0693716,6.37219962 Z M21.0878603,9.15709193 L15.4055748,9.15709193 L15.4055748,9.15702354 C15.4405219,9.09444707 15.4739644,9.0312551 15.5066546,8.96758439 C15.5103476,8.9603351 15.5139039,8.95301741 15.5174602,8.94576811 C15.5524756,8.87683141 15.5859181,8.8072792 15.618198,8.73717988 C15.6215491,8.72993058 15.6248318,8.72274968 15.6281829,8.71550038 C15.9154192,8.08597425 16.093574,7.41240522 16.1545775,6.72078134 C16.1557402,6.70765054 16.1566292,6.69451974 16.1577235,6.68138894 C16.1631946,6.61457231 16.1675032,6.54761891 16.1708543,6.48052873 C16.1718801,6.46049058 16.1729059,6.44045243 16.1737266,6.42034589 C16.1768042,6.34046686 16.1789926,6.26045104 16.1789926,6.18023006 C16.1789926,6.08544209 16.1761203,5.9908593 16.1717433,5.89648167 C16.170991,5.87952105 16.1703071,5.86249204 16.1694865,5.84553143 C16.1645624,5.7544365 16.1575867,5.66354674 16.148696,5.57293054 C16.1471915,5.55829517 16.1455501,5.5436598 16.1439772,5.52902442 C16.1238022,5.3380807 16.0946683,5.14864155 16.056712,4.96104892 C16.0552075,4.95373123 16.0538397,4.94655033 16.0523351,4.93923264 C16.0353061,4.85648124 16.0171829,4.77393501 15.996666,4.69200429 C16.6186693,4.14721285 17.4048075,3.85053883 18.241349,3.85053883 C20.1255504,3.85053883 21.6583662,5.383423 21.6583662,7.26762447 C21.6583662,7.94885313 21.4618829,8.59684445 21.0878603,9.15709193 Z M31.4349994,23.628465 L26.3556365,21.8324861 L26.3556365,14.1885821 L31.4349994,12.3925348 L31.4349994,23.628465 Z M33.9097449,25.0738105 C33.9097449,25.4512526 33.6027441,25.7583219 33.225302,25.7583219 C32.8478598,25.7583219 32.540859,25.4512526 32.540859,25.0738105 L32.540859,24.4103631 L32.540859,11.6105683 L32.540859,10.9472577 C32.540859,10.5697472 32.8478598,10.2627464 33.225302,10.2627464 C33.6027441,10.2627464 33.9097449,10.5697472 33.9097449,10.9472577 L33.9097449,25.0738105 Z" id="Shape" fill-rule="nonzero"></path>
                </g>
            </g>
            <g id="button/active" transform="translate(44.000000, 915.000000)">
                <rect id="Rectangle-6" fill="#80BCEA" fill-rule="evenodd" x="0.520171079" y="0" width="287.422044" height="36" rx="5"></rect>
                <text id="Start-Payment" font-family="OpenSans, Open Sans" font-size="17" font-weight="normal" fill="#FFFFFF">
                    <tspan x="108.475306" y="24">Continue</tspan>
                </text>
            </g>
            <path d="M19,426 L356.001484,426" id="Line" stroke="#D8D8D8" stroke-linecap="square"></path>
            <text id="$50" font-family="PingFangSC-Regular, PingFang SC" font-size="11" font-weight="normal" fill="#9B9B9B">
                <tspan x="297" y="606">$50</tspan>
            </text>
            <g id="Group-17" transform="translate(59.000000, 559.000000)">
                <path d="M117,3.00832395 C117,1.34687251 118.335234,-1.94923288e-15 120.002005,-1.94923288e-15 L180.841996,-1.94923288e-15 C182.499958,-1.94923288e-15 183.844001,1.34595406 183.844001,3.00832395 L183.844001,24.1332337 C183.844001,25.7946852 182.501592,27.1415577 180.850049,27.1415577 L158.61197,27.1415577 C156.958456,27.1415577 154.862472,28.2448601 153.923837,29.6155232 L150.422001,34.7291593 L146.993981,29.6260222 C146.072255,28.2538903 143.977928,27.1415577 142.320588,27.1415577 L120.00446,27.1415577 C118.345143,27.1415577 117,25.7956036 117,24.1332337 L117,3.00832395 Z" id="Rectangle-15" fill="#F6511D"></path>
                <g id="Group-3" transform="translate(0.000000, 38.000000)">
                    <rect id="Rectangle-4" fill="#E7E7E7" x="0" y="0" width="229.880005" height="10"></rect>
                    <rect id="Rectangle-4" fill="#F6511D" x="0" y="0" width="151" height="10"></rect>
                </g>
                <text id="category-budget" font-family="Lato-Regular, Lato" font-size="11" font-weight="normal" fill="#9B9B9B">
                    <tspan x="110" y="76">category budget</tspan>
                </text>
                <text id="$15" font-family="OpenSans, Open Sans" font-size="16" font-weight="normal" fill="#304D6D">
                    <tspan x="78" y="77">$15</tspan>
                </text>
                <text id="$25.98" font-family="OpenSans-Bold, Open Sans" font-size="16" font-weight="bold" fill="#FFFFFF">
                    <tspan x="125" y="20">$25.98</tspan>
                </text>
                <rect id="Rectangle-14" fill="#304D6D" x="68" y="38" width="2" height="40.9536489"></rect>
            </g>
        </g>
    </g>
</svg>