<?xml version="1.0" encoding="UTF-8"?>
<svg width="375px" height="20px" viewBox="0 0 375 20" version="1.1" xmlns="http://www.w3.org/2000/svg" xmlns:xlink="http://www.w3.org/1999/xlink" style="background: #FFFFFF;">
    <!-- Generator: Sketch 43 (38999) - http://www.bohemiancoding.com/sketch -->
    <title>payment3-c copy 3</title>
    <desc>Created with Sketch.</desc>
    <defs>
        <linearGradient x1="100%" y1="100%" x2="1.84749681%" y2="1.84749681%" id="linearGradient-1">
            <stop stop-color="#FC9000" stop-opacity="0.868404665" offset="0%"></stop>
            <stop stop-color="#FFC13A" offset="100%"></stop>
        </linearGradient>
        <circle id="path-2" cx="23.75" cy="2.75" r="2.75"></circle>
        <circle id="path-3" cx="30.75" cy="2.75" r="2.75"></circle>
    </defs>
    <g id="Page-1" stroke="none" stroke-width="1" fill="none" fill-rule="evenodd">
        <g id="payment3-c-copy-3">
            <rect id="Rectangle-8" fill="url(#linearGradient-1)" x="0" y="0" width="375" height="667"></rect>
            <g id="Group-2">
                <rect id="Background" fill-opacity="0" fill="#000000" x="0" y="0" width="375" height="20"></rect>
                <g id="Charge" transform="translate(315.000000, 3.000000)" fill="#FFFFFF">
                    <g id="Battery-Icon" transform="translate(30.000000, 2.000000)">
                        <path d="M1.50245835,1.02631579 L1.50245835,1.02631579 C0.947213227,1.02631579 0.5,1.49554092 0.5,2.07901162 L0.5,8.92098838 C0.5,9.50189311 0.949063705,9.97368421 1.50245835,9.97368421 L20.9975417,9.97368421 C21.5527868,9.97368421 22,9.50445908 22,8.92098838 L22,2.07901162 C22,1.49810689 21.5509363,1.02631579 20.9975417,1.02631579 L1.50245835,1.02631579 Z M1.50245835,0.5 L1.50245835,0.5 L20.9975417,0.5 C21.8266197,0.5 22.5,1.20694758 22.5,2.07901162 L22.5,8.92098838 C22.5,9.79681942 21.8273265,10.5 20.9975417,10.5 L1.50245835,10.5 C0.673380308,10.5 0,9.79305242 0,8.92098838 L0,2.07901162 C0,1.20318058 0.672673516,0.5 1.50245835,0.5 L1.50245835,0.5 Z" id="Shape" fill-rule="nonzero"></path>
                        <path d="M1.50966585,1.5 C1.22818517,1.5 1,1.73079681 1,2.00043583 L1,8.99956417 C1,9.27594725 1.22247314,9.5 1.50966585,9.5 L10,9.5 L10,1.5 L1.50966585,1.5 Z" id="Charge"></path>
                        <path d="M24.5,5.73227779 C24.5,6.61389637 23.8480727,7.34324909 23,7.46455558 L23,4 C23.8480727,4.12130649 24.5,4.85065921 24.5,5.73227779 Z" id="+"></path>
                    </g>
                    <text id="42%" font-family=".SFNSText, .SF NS Text" font-size="12" font-weight="normal">
                        <tspan x="0" y="12">42%</tspan>
                    </text>
                </g>
                <path d="M306.427765,14.8689464 L306.427765,11.3107321 L308.139765,13.1751786 L306.427765,14.8689464 L306.427765,14.8689464 L306.427765,14.8689464 L306.427765,14.8689464 Z M308.218353,7.84653571 L306.427765,9.64782143 L306.427765,6.23521429 L308.218353,7.84653571 L308.218353,7.84653571 L308.218353,7.84653571 L308.218353,7.84653571 Z M306.857882,10.5108571 L309.514824,7.84653571 L305.550588,4 L305.456941,4 L305.456941,9.34985714 L302.766118,6.52883929 L302,7.32919643 L305.237647,10.5108571 L302,13.6920357 L302.766118,14.4923929 L305.456941,11.671375 L305.456941,17.02075 L305.628235,17.02075 L309.553412,13.1645714 L306.857882,10.5108571 L306.857882,10.5108571 Z" id="Bluetooth-Icon" fill="#FFFFFF"></path>
                <path d="M90.9957516,7.52087671 C92.9355242,7.52087671 94.7033612,8.23545205 96.0588529,9.40717808 L97,8.36810959 C95.394602,6.97446575 93.2978883,6 90.9957516,6 C88.6971136,6 86.6033987,6.97150685 85,8.36071233 L85.9391478,9.40126027 C87.2936399,8.2329863 89.0584781,7.52087671 90.9957516,7.52087671 L90.9957516,7.52087671 Z M90.9957516,10.5202192 C92.1583156,10.5202192 93.2204173,10.9423562 94.0396101,11.6376986 L95.0352368,10.5379726 C93.9516431,9.60789041 92.5421717,9.00032877 90.9957516,9.00032877 C89.4523304,9.00032877 88.0438586,9.60641096 86.9612645,10.5335342 L87.9553917,11.6347397 C88.7740847,10.9408767 89.834687,10.5202192 90.9957516,10.5202192 L90.9957516,10.5202192 Z M93.0434837,12.7374247 C92.4891916,12.2773151 91.7754592,11.9587397 90.9952518,11.9587397 C90.2165438,11.9587397 89.5038111,12.2768219 88.9495189,12.7349589 L90.9952518,15 L93.0434837,12.7374247 L93.0434837,12.7374247 Z" id="Wifi" fill="#FFFFFF"></path>
                <g id="Signal" transform="translate(7.000000, 8.000000)">
                    <circle id="Oval-1" fill="#FFFFFF" cx="2.75" cy="2.75" r="2.75"></circle>
                    <circle id="Oval-1-copy" fill="#FFFFFF" cx="9.75" cy="2.75" r="2.75"></circle>
                    <circle id="Oval-1-copy-2" fill="#FFFFFF" cx="16.75" cy="2.75" r="2.75"></circle>
                    <g id="Oval-1-copy-3">
                        <use fill="#FFFFFF" fill-rule="evenodd" xlink:href="#path-2"></use>
                        <circle stroke="#FFFFFF" stroke-width="0.5" cx="23.75" cy="2.75" r="2.5"></circle>
                    </g>
                    <g id="Oval-1-copy-4">
                        <use fill="#FFFFFF" fill-rule="evenodd" xlink:href="#path-3"></use>
                        <circle stroke="#FFFFFF" stroke-width="0.5" cx="30.75" cy="2.75" r="2.5"></circle>
                    </g>
                </g>
                <text id="AT&amp;T" font-family=".SFNSText, .SF NS Text" font-size="12" font-weight="normal" fill="#FFFFFF">
                    <tspan x="44" y="15">AT&amp;T</tspan>
                </text>
                <text id="8:31-PM" font-family=".SFNSText, .SF NS Text" font-size="12" font-weight="normal" fill="#FFFFFF">
                    <tspan x="165.578125" y="15">8:31 PM</tspan>
                </text>
            </g>
        </g>
    </g>
</svg>