<?xml version="1.0" encoding="UTF-8"?>
<svg width="175px" height="176px" viewBox="0 0 175 176" version="1.1" xmlns="http://www.w3.org/2000/svg" xmlns:xlink="http://www.w3.org/1999/xlink">
    <!-- Generator: Sketch 45.1 (43504) - http://www.bohemiancoding.com/sketch -->
    <title>bank</title>
    <desc>Created with Sketch.</desc>
    <defs>
        <path d="M125.655458,116.464523 L131.190313,116.464523 L131.190313,127.534232 L145.02745,127.534232 L145.02745,141.371369 L6.65608065,141.371369 L6.65608065,127.534232 L20.4932176,127.534232 L20.4932176,116.464523 L26.0280724,116.464523 L26.0280724,63.8834025 L20.4932176,63.8834025 L20.4932176,52.813693 L1.12122587,52.813693 L75.8417654,3 L150.562305,52.813693 L131.190313,52.813693 L131.190313,63.8834025 L125.655458,63.8834025 L125.655458,116.464523 Z M109.050894,116.464523 L109.050894,63.8834025 L103.516039,63.8834025 L103.516039,52.813693 L89.6789023,52.813693 L89.6789023,63.8834025 L84.1440475,63.8834025 L84.1440475,116.464523 L89.6789023,116.464523 L89.6789023,127.534232 L103.516039,127.534232 L103.516039,116.464523 L109.050894,116.464523 Z M42.6326367,116.464523 L48.1674915,116.464523 L48.1674915,127.534232 L62.0046284,127.534232 L62.0046284,116.464523 L67.5394832,116.464523 L67.5394832,63.8834025 L62.0046284,63.8834025 L62.0046284,52.813693 L48.1674915,52.813693 L48.1674915,63.8834025 L42.6326367,63.8834025 L42.6326367,116.464523 Z" id="path-1"></path>
    </defs>
    <g id="benefits" stroke="none" stroke-width="1" fill="none" fill-rule="evenodd">
        <g id="bank">
            <g id="Group" transform="translate(11.000000, 14.000000)">
                <rect id="Rectangle-23" fill="#FFE5AA" x="0.338911099" y="122.971168" width="139.1924" height="15.0921544"></rect>
                <polygon id="Rectangle-3" fill="#DFEFFB" points="86.397704 0.434714916 157.098291 47.8010145 16.8776861 47.8010145"></polygon>
                <g id="Combined-Shape">
                    <use fill="#FFFFFF" fill-rule="evenodd" xlink:href="#path-1"></use>
                    <path stroke="#4A4A4A" stroke-width="1.6" d="M130.390313,63.0834025 L130.390313,52.013693 L147.920084,52.013693 L75.8417654,3.96148034 L3.76344638,52.013693 L21.2932176,52.013693 L21.2932176,63.0834025 L26.8280724,63.0834025 L26.8280724,117.264523 L21.2932176,117.264523 L21.2932176,128.334232 L7.45608065,128.334232 L7.45608065,140.571369 L144.22745,140.571369 L144.22745,128.334232 L130.390313,128.334232 L130.390313,117.264523 L124.855458,117.264523 L124.855458,63.0834025 L130.390313,63.0834025 Z M104.316039,117.264523 L104.316039,128.334232 L88.8789023,128.334232 L88.8789023,117.264523 L83.3440475,117.264523 L83.3440475,63.0834025 L88.8789023,63.0834025 L88.8789023,52.013693 L89.6789023,52.013693 L103.516039,52.013693 L104.316039,52.013693 L104.316039,63.0834025 L109.850894,63.0834025 L109.850894,117.264523 L104.316039,117.264523 Z M47.3674915,63.0834025 L47.3674915,52.013693 L62.8046284,52.013693 L62.8046284,63.0834025 L68.3394832,63.0834025 L68.3394832,117.264523 L62.8046284,117.264523 L62.8046284,128.334232 L47.3674915,128.334232 L47.3674915,117.264523 L41.8326367,117.264523 L41.8326367,63.0834025 L47.3674915,63.0834025 Z"></path>
                </g>
            </g>
        </g>
    </g>
</svg>