<?xml version="1.0" encoding="UTF-8"?>
<svg width="175px" height="176px" viewBox="0 0 175 176" version="1.1" xmlns="http://www.w3.org/2000/svg" xmlns:xlink="http://www.w3.org/1999/xlink">
    <!-- Generator: Sketch 45.1 (43504) - http://www.bohemiancoding.com/sketch -->
    <title>end-users</title>
    <desc>Created with Sketch.</desc>
    <defs></defs>
    <g id="benefits" stroke="none" stroke-width="1" fill="none" fill-rule="evenodd">
        <g id="end-users">
            <g id="Group" transform="translate(0.000000, 6.000000)">
                <ellipse id="Oval" fill="#DFEFFB" fill-rule="nonzero" cx="59.6423147" cy="66.6204437" rx="59.6423147" ry="59.6204437"></ellipse>
                <ellipse id="Oval" fill="#FFE5AA" fill-rule="nonzero" cx="119.113197" cy="43.0973875" rx="43.1131972" ry="43.0973875"></ellipse>
                <g id="Group-4" transform="translate(26.130599, 38.045070)">
                    <g id="Group-2" transform="translate(10.194218, 19.400447)">
                        <rect id="Rectangle-3" fill="#FFFFFF" x="77.4760533" y="57.066684" width="18.3495916" height="16.3047669"></rect>
                        <rect id="Rectangle-2" fill="#FFFFFF" x="0.336670986" y="0" width="41.726836" height="72.7991453"></rect>
                        <path d="M91.3500925,56.7019965 L82.0730868,56.7019965 C82.0730868,57.112462 81.7402559,57.4451708 81.3296399,57.4451708 L74.9370436,57.4451708 L98.4868836,57.4451708 L92.0942873,57.4451708 C91.6832973,57.4451708 91.3500925,57.1120882 91.3500925,56.7019965 Z" id="Shape" stroke="#4A4A4A" stroke-width="1.4" fill-rule="nonzero"></path>
                        <path d="M86.7338407,56.2186342 L85.8983979,56.2186342 C78.1707385,56.2186342 71.906039,49.9566058 71.906039,42.232154 L71.906039,28.8814436 C81.7404312,28.9024786 92.3515552,28.8225457 100.7262,28.8814436 L100.7262,42.232154 C100.7262,49.9573535 94.461874,56.2186342 86.7338407,56.2186342 Z" id="Shape" stroke="#4A4A4A" stroke-width="1.4" fill="#FFFFFF" fill-rule="nonzero"></path>
                        <path d="M86.7338407,34.6064277 L85.8983979,34.6064277 C78.1707385,34.6064277 71.906039,28.3443993 71.906039,20.6199475 L71.906039,14.1875102 C74.9479448,14.1940166 79.6120644,15.4149534 85.8983979,17.8503207 C92.7908895,15.3873996 97.73349,14.1664628 100.7262,14.1875102 L100.7262,20.6199475 C100.7262,28.345147 94.461874,34.6064277 86.7338407,34.6064277 Z" id="Shape" stroke="#4A4A4A" stroke-width="1.4" fill="#FFFFFF" fill-rule="nonzero" transform="translate(86.316119, 24.396835) scale(1, -1) translate(-86.316119, -24.396835) "></path>
                        <ellipse id="Oval" fill="#4A4A4A" fill-rule="nonzero" cx="79.5230041" cy="39.1372145" rx="1.44089583" ry="1.44036745"></ellipse>
                        <ellipse id="Oval" fill="#4A4A4A" fill-rule="nonzero" cx="93.1066167" cy="39.1372145" rx="1.44089583" ry="1.44036745"></ellipse>
                        <path d="M99.4973431,57.4451708 L94.5617233,57.4451708 C94.5617233,61.7789834 86.7121506,65.987189 86.7121506,65.987189 C86.7121506,65.987189 78.8625779,61.7789834 78.8625779,57.4451708 L73.9269581,57.4451708 C67.9823746,57.4451708 63.1634325,62.2623457 63.1634325,68.2047493 L63.1634325,87.9583067 C70.696255,89.863345 78.5850942,90.8797891 86.7114027,90.8797891 C94.8384591,90.8797891 102.72655,89.863345 110.261243,87.9586805 L110.261243,68.2051231 C110.261243,62.2623457 105.441927,57.4451708 99.4973431,57.4451708 Z" id="Shape" stroke="#4A4A4A" stroke-width="1.4" fill="#FFFFFF" fill-rule="nonzero"></path>
                        <path d="M86.3161193,50.9453865 C83.7200386,50.9453865 81.6078715,48.833994 81.6078715,46.2388653 C81.6078715,45.7988672 81.9642623,45.4422333 82.4047958,45.4422333 C82.8449552,45.4422333 83.20172,45.7984934 83.20172,46.2388653 C83.20172,47.9554932 84.5988616,49.3521225 86.3161193,49.3521225 C88.0333769,49.3521225 89.4305186,47.9554932 89.4305186,46.2388653 C89.4305186,45.7988672 89.7869094,45.4422333 90.2274428,45.4422333 C90.6676023,45.4422333 91.024367,45.7984934 91.024367,46.2388653 C91.024367,48.833994 88.9122,50.9453865 86.3161193,50.9453865 Z" id="Shape" fill="#4A4A4A" fill-rule="nonzero"></path>
                        <path d="M70.5413276,31.5857458 C70.5413276,31.5857458 69.8386431,22.6698975 56.1338651,18.9424374 L51.4510472,33.3491025 L70.5413276,31.5857458 Z" id="Shape" stroke="#4A4A4A" stroke-width="1.4" fill="#FFFFFF" fill-rule="nonzero" transform="translate(60.996187, 26.145770) scale(-1, 1) translate(-60.996187, -26.145770) "></path>
                        <path d="M121.263881,31.5857458 C121.263881,31.5857458 120.561197,22.6698975 106.856419,18.9424374 L102.173601,33.3491025 L121.263881,31.5857458 Z" id="Shape" stroke="#4A4A4A" stroke-width="1.4" fill="#FFFFFF" fill-rule="nonzero"></path>
                    </g>
                    <g id="Group-3" transform="translate(0.000000, -0.000000)">
                        <path d="M10.1265302,31.6290223 C7.8411938,32.0752366 6.11653053,34.0876832 6.11653053,36.5027988 C6.11653053,38.8681259 7.77081758,40.8472152 9.98591595,41.346992 C10.1265302,38.9526772 9.98591595,34.9509086 10.1265302,31.6290223 Z" id="Oval" stroke="#4A4A4A" stroke-width="1.4" fill="#FFFFFF" fill-rule="nonzero"></path>
                        <path d="M57.0199309,31.6290223 C54.7345945,32.0752366 53.0099312,34.0876832 53.0099312,36.5027988 C53.0099312,38.8681259 54.6642183,40.8472152 56.8793167,41.346992 C57.0199309,38.9526772 56.8793167,34.9509086 57.0199309,31.6290223 Z" id="Oval" stroke="#4A4A4A" stroke-width="1.4" fill="#FFFFFF" fill-rule="nonzero" transform="translate(55.014931, 36.488007) scale(-1, 1) translate(-55.014931, -36.488007) "></path>
                        <path d="M14.0216343,46.9147412 C19.6655359,53.9728427 25.6550303,57.4852687 31.9901174,57.452019 C38.3252045,57.4187694 43.8392874,53.9063434 48.5323662,46.9147412" id="Line-2" stroke="#4A4A4A" stroke-width="1.4" stroke-linecap="square"></path>
                        <path d="M48.8666372,8.73743944 C45.1855699,3.49544599 39.0971622,0.0666328229 32.2039777,0.0666328229 L30.9887108,0.0666328229 C19.7494776,0.0666328229 10.5639661,9.17445749 10.5639661,20.4095692 L10.5639661,21.9826436 L10.5639661,49.0450501 L13.626121,49.0450501 L13.626121,27.9084306 C22.6909001,26.9873896 31.6053991,25.2097806 39.4186916,21.3048845 C42.2308033,24.5323391 45.4775517,27.4145621 49.0617154,29.7530533 L49.0617154,49.0453677 L52.5543766,49.0453677 L52.5543766,25.5997938 L52.5543766,20.4098868 C52.5537411,16.0647967 51.187241,12.0417533 48.8666372,8.73743944 Z" id="Shape" stroke="#4A4A4A" stroke-width="1.4" fill="#FFFFFF" fill-rule="nonzero"></path>
                        <ellipse id="Oval" fill="#4A4A4A" fill-rule="nonzero" cx="22.495822" cy="34.1060834" rx="1.93012979" ry="1.92942201"></ellipse>
                        <path d="M37.8100913,57.6326455 L25.3825971,57.6326455 C25.3825971,58.1824116 24.9368404,58.6280049 24.3868726,58.6280049 L15.8228152,58.6280049 L47.3701909,58.6280049 L38.8061336,58.6280049 C38.255848,58.6280049 37.8100913,58.1824116 37.8100913,57.6326455 Z" id="Shape" stroke="#4A4A4A" stroke-width="1.4" fill-rule="nonzero"></path>
                        <ellipse id="Oval" fill="#4A4A4A" fill-rule="nonzero" cx="40.6952779" cy="34.1060834" rx="1.93012979" ry="1.92942201"></ellipse>
                        <path d="M31.5961853,49.9209919 C28.1181391,49.9209919 25.2891884,47.0930785 25.2891884,43.6163077 C25.2891884,43.0271591 25.7667168,42.5491706 26.356717,42.5491706 C26.9460817,42.5491706 27.4242455,43.0265239 27.4242455,43.6163077 C27.4242455,45.9157341 29.2959154,47.7867176 31.5961853,47.7867176 C33.8964553,47.7867176 35.7681251,45.9157341 35.7681251,43.6163077 C35.7681251,43.0271591 36.2456536,42.5491706 36.8356537,42.5491706 C37.4250185,42.5491706 37.9031823,43.0265239 37.9031823,43.6163077 C37.9031823,47.0930785 35.0735961,49.9209919 31.5961853,49.9209919 Z" id="Shape" fill="#4A4A4A" fill-rule="nonzero"></path>
                        <path d="M10.5524516,47.0846103 L10.5524516,59.8329425" id="Line" stroke="#4A4A4A" stroke-width="1.4" stroke-linecap="square"></path>
                        <path d="M52.5935135,45.9138813 L52.5935135,62.7883908" id="Line" stroke="#4A4A4A" stroke-width="1.4" stroke-linecap="square"></path>
                        <path d="M48.7236647,58.6280049 L42.1116595,58.6280049 C42.1116595,64.4337389 37.4034137,77.1136145 31.5961853,77.1136145 C25.7883215,77.1136145 21.0807112,64.4337389 21.0807112,58.6280049 L14.4680706,58.6280049 C6.50481578,58.6280049 0.0488096345,65.0816436 0.0488096345,73.0419783 C0.0488096345,79.4955277 0.0488096344,90.4106459 0.0488096344,105.787333 C10.9076126,109.144089 21.4234045,110.80449 31.5961853,110.768536 C41.7689662,110.732583 52.2844403,109.072181 63.1426079,105.787333 L63.1426079,73.0419783 C63.1432433,65.0816436 56.6875549,58.6280049 48.7236647,58.6280049 Z" id="Shape" stroke="#4A4A4A" stroke-width="1.4" fill="#FFFFFF" fill-rule="nonzero"></path>
                    </g>
                </g>
            </g>
        </g>
    </g>
</svg>