<?xml version="1.0" encoding="UTF-8"?>
<svg width="52px" height="52px" viewBox="0 0 52 52" version="1.1" xmlns="http://www.w3.org/2000/svg" xmlns:xlink="http://www.w3.org/1999/xlink">
    <!-- Generator: Sketch 45.1 (43504) - http://www.bohemiancoding.com/sketch -->
    <title>Combined Shape</title>
    <desc>Created with Sketch.</desc>
    <defs></defs>
    <g id="Symbols" stroke="none" stroke-width="1" fill="none" fill-rule="evenodd">
        <path d="M38.4633281,19.7459563 L38.4438011,19.7558372 C39.3528612,21.6093537 39.8632769,23.6938554 39.8632769,25.897571 C39.8632769,33.6106174 33.6106174,39.8632769 25.897571,39.8632769 C18.1845247,39.8632769 11.9318652,33.6106174 11.9318652,25.897571 C11.9318652,18.1845247 18.1845247,11.9318652 25.897571,11.9318652 C27.1766082,11.9318652 28.4154864,12.1038061 29.5923526,12.4258348 L29.6005332,12.402946 C30.3452577,12.737059 31.170959,12.9229011 32.0400659,12.9229011 C35.3349595,12.9229011 38.0059985,10.2518621 38.0059985,6.95696847 C38.0059985,4.22215748 36.1658534,1.91713541 33.6561799,1.21251903 C33.668819,1.20635959 33.6814656,1.2002468 33.6941195,1.19418064 C31.2335894,0.418362963 28.6144372,0 25.897571,0 C11.5947375,0 0,11.5947375 0,25.897571 C0,40.2004046 11.5947375,51.7951421 25.897571,51.7951421 C40.2004046,51.7951421 51.7951421,40.2004046 51.7951421,25.897571 C51.7951421,21.8187074 50.8521781,17.9600848 49.1723552,14.5278085 C48.2755308,12.3669075 46.1451343,10.8471502 43.6597795,10.8471502 C40.3648859,10.8471502 37.6938469,13.5181892 37.6938469,16.8130828 C37.6938469,17.8791245 37.9734524,18.8798608 38.4633281,19.7459563 Z" id="Combined-Shape" fill="#F5A623"></path>
    </g>
</svg>