<?xml version="1.0" encoding="UTF-8"?>
<svg width="819px" height="203px" viewBox="0 0 819 203" version="1.1" xmlns="http://www.w3.org/2000/svg" xmlns:xlink="http://www.w3.org/1999/xlink">
    <!-- Generator: Sketch 45.1 (43504) - http://www.bohemiancoding.com/sketch -->
    <title>Artboard 6</title>
    <desc>Created with Sketch.</desc>
    <defs>
        <path d="M2.4,0 L27.4441324,0 C28.7696158,-2.4348735e-16 29.8441324,1.0745166 29.8441324,2.4 L29.8441324,19.6268951 C29.8441324,20.9523785 28.7696158,22.0268951 27.4441324,22.0268951 L2.4,22.0268951 L2.4,22.0268951 C1.0745166,22.0268951 2.37231274e-15,20.9523785 4.4408921e-16,19.6268951 L0,2.4 L0,2.4 C-1.623249e-16,1.0745166 1.0745166,6.8757656e-16 2.4,4.4408921e-16 L2.4,0 Z M2.92640588,1.33496334 L2.92640588,1.33496334 C2.04275028,1.33496334 1.32640588,2.05130774 1.32640588,2.93496334 L1.32640588,2.93496334 L1.32640588,4.00489002 L28.5177265,4.00489002 L28.5177265,2.93496334 C28.5177265,2.05130774 27.8013821,1.33496334 26.9177265,1.33496334 L26.9177265,1.33496334 L2.92640588,1.33496334 Z M2.92640588,20.6919318 L26.9177265,20.6919318 C27.8013821,20.6919318 28.5177265,19.9755874 28.5177265,19.0919318 L28.5177265,5.33985336 L1.32640588,5.33985336 L1.32640588,19.0919318 C1.32640588,19.9755874 2.04275028,20.6919318 2.92640588,20.6919318 L2.92640588,20.6919318 Z" id="path-1"></path>
        <path d="M2.76637887,-1.53940445e-15 L23.1791146,-1.53940445e-15 L23.1791146,-1.77635684e-15 C24.2395013,-8.75222204e-17 25.0991146,0.85961328 25.0991146,1.92 L25.0991146,3.86863001 L25.0991146,16.4147646 L25.0991146,29.9886876 L25.0991146,29.9886876 C25.0991146,31.0490744 24.2395013,31.9086876 23.1791146,31.9086876 L2.76637887,31.9086876 L2.76637887,31.9086876 C1.70599215,31.9086876 0.846378869,31.0490744 0.846378869,29.9886876 L0.846378869,1.92 L0.846378869,1.92 C0.846378869,0.85961328 1.70599215,-1.58157992e-15 2.76637887,-1.77635684e-15 Z" id="path-2"></path>
        <rect id="path-3" x="0.471397081" y="0.799888054" width="24.2025988" height="16.6743341" rx="1.01500924"></rect>
        <path d="M51.553309,22.6001131 L43.8580717,22.6001131 C43.5362021,22.6001131 43.2752752,22.3391862 43.2752752,22.0173166 C43.2752752,21.8590496 43.3396426,21.7075886 43.4535838,21.5977439 L56.7078528,8.82 L69.9621218,21.5977439 C70.1938454,21.8211365 70.2005991,22.190081 69.9772066,22.4218046 C69.8673619,22.5357458 69.7159009,22.6001131 69.5576339,22.6001131 L62.0128259,22.6001131 C61.012178,29.3618187 58.6643504,34.1097157 54.9693433,36.8438042 C50.1964887,40.3754366 45.5980274,41.7997554 41.1739592,41.1167605 C40.8558581,41.0676515 40.6377968,40.7699689 40.6869058,40.4518677 C40.7112984,40.2938658 40.7995278,40.152822 40.9309348,40.0617625 C45.2287563,37.0835529 48.1754848,34.5111807 49.7711201,32.3446462 C51.8513322,29.5201591 52.4453952,26.2719814 51.553309,22.6001131 Z" id="path-4"></path>
    </defs>
    <g id="visuals" stroke="none" stroke-width="1" fill="none" fill-rule="evenodd">
        <g id="Artboard-6">
            <g id="Group-7" transform="translate(31.000000, 12.000000)">
                <circle id="Oval-2" fill="#E0EFFA" cx="42.5546346" cy="38.0001322" r="26.9207268"></circle>
                <rect id="Rectangle-15" fill="#FFFFFF" transform="translate(40.313629, 20.412355) rotate(44.000000) translate(-40.313629, -20.412355) " x="37.8136289" y="13.9123546" width="5" height="13"></rect>
                <g id="Group-5">
                    <g id="Group">
                        <g id="Combined-Shape">
                            <use fill="#FFD478" fill-rule="evenodd" xlink:href="#path-1"></use>
                            <path stroke="#FFD478" stroke-width="0.8" d="M2.4,0.4 C1.2954305,0.4 0.4,1.2954305 0.4,2.4 L0.4,19.6268951 C0.4,20.7314646 1.2954305,21.6268951 2.4,21.6268951 L27.4441324,21.6268951 C28.5487019,21.6268951 29.4441324,20.7314646 29.4441324,19.6268951 L29.4441324,2.4 C29.4441324,1.2954305 28.5487019,0.4 27.4441324,0.4 L2.4,0.4 Z M2.92640588,0.934963341 L26.9177265,0.934963341 C28.022296,0.934963341 28.9177265,1.83039384 28.9177265,2.93496334 L28.9177265,4.40489002 L0.926405884,4.40489002 L0.926405884,2.93496334 C0.926405884,1.83039384 1.82183638,0.934963341 2.92640588,0.934963341 Z M2.92640588,21.0919318 C1.82183638,21.0919318 0.926405884,20.1965013 0.926405884,19.0919318 L0.926405884,4.93985336 L28.9177265,4.93985336 L28.9177265,19.0919318 C28.9177265,20.1965013 28.022296,21.0919318 26.9177265,21.0919318 L2.92640588,21.0919318 Z"></path>
                        </g>
                        <ellipse id="Oval-7" fill="#FFD478" cx="3.97921765" cy="2.66992668" rx="1" ry="1"></ellipse>
                        <ellipse id="Oval-7" fill="#FFD478" cx="6.63202942" cy="2.66992668" rx="1" ry="1"></ellipse>
                        <ellipse id="Oval-7" fill="#FFD478" cx="9.28484119" cy="2.66992668" rx="1" ry="1"></ellipse>
                    </g>
                    <g id="Group-4" transform="translate(13.849257, 11.079405)">
                        <g id="Group-3">
                            <g id="Rectangle">
                                <use fill="#FFFFFF" fill-rule="evenodd" xlink:href="#path-2"></use>
                                <path stroke="#4A4A4A" stroke-width="1.5" d="M2.76637887,0.75 C2.12020571,0.75 1.59637887,1.27382684 1.59637887,1.92 L1.59637887,29.9886876 C1.59637887,30.6348608 2.12020571,31.1586876 2.76637887,31.1586876 L23.1791146,31.1586876 C23.8252878,31.1586876 24.3491146,30.6348608 24.3491146,29.9886876 L24.3491146,1.92 C24.3491146,1.27382684 23.8252878,0.75 23.1791146,0.75 L2.76637887,0.75 Z"></path>
                            </g>
                            <rect id="Rectangle-3" fill="#FFFFFF" x="22.4082493" y="3.98858596" width="2.69086533" height="14.6248152"></rect>
                        </g>
                        <path d="M32.4152806,3.8806735 L31.4809005,2.94039447 C30.433233,1.88596782 28.7285885,1.88609716 27.6807925,2.94039447 L20.2639054,10.4051325 L7.39913438,10.4051325 C6.9605714,10.4051325 6.60503016,10.7629675 6.60503016,11.2043599 C6.60503016,11.6457523 6.9605714,12.0035874 7.39913438,12.0035874 L18.675697,12.0035874 L13.896228,16.8138916 L7.39913438,16.8138916 C6.9605714,16.8138916 6.60503016,17.1717267 6.60503016,17.6131191 C6.60503016,18.0545115 6.9605714,18.4123466 7.39913438,18.4123466 L12.3079553,18.4123466 C12.1982664,18.5227432 12.1282248,18.6437461 12.0915333,18.7765842 L10.8649707,23.2226508 L7.39913438,23.2226508 C6.9605714,23.2226508 6.60503016,23.5804859 6.60503016,24.0218783 C6.60503016,24.4632707 6.9605714,24.8211058 7.39913438,24.8211058 L11.4687418,24.8211058 C11.468806,24.8211058 11.6428175,24.8013158 11.6683923,24.7945899 C11.6725691,24.7934904 16.6803479,23.3949394 16.6803479,23.3949394 C16.8123344,23.3580758 16.932626,23.287453 17.0294633,23.189991 L32.4153449,7.70503966 C33.4628839,6.65074235 33.4628839,4.93510015 32.4152806,3.8806735 Z M12.6095196,22.8736113 L13.2576932,20.5243042 L14.9438313,22.2213206 L12.6095196,22.8736113 Z M16.4679742,21.4947208 L13.9798281,18.9905221 L26.6803548,6.20805648 L29.1685652,8.71225512 L16.4679742,21.4947208 Z M31.2921739,6.57481639 L30.2916077,7.58183782 L27.8033974,5.07757451 L28.8039635,4.07055307 C29.2325022,3.6393143 29.9295764,3.63937897 30.3577938,4.07055307 L31.2921739,5.01096144 C31.720584,5.44213554 31.720584,6.14370696 31.2921739,6.57481639 Z" id="Shape" fill="#4A4A4A" fill-rule="nonzero"></path>
                    </g>
                </g>
                <g id="Group-6" transform="translate(36.008068, 48.472399)">
                    <g id="Group-2" transform="translate(32.702547, 15.000000) scale(-1, 1) translate(-32.702547, -15.000000) translate(19.702547, 0.000000)">
                        <path d="M18.9336743,5.23121395 C18.9336069,5.23121395 18.9335395,5.23121395 18.9334722,5.23121395 L18.9336743,5.23121395 L11.0571413,5.23114658 L11.0571413,1.69419538 C11.0571413,0.760050031 10.2970913,0 9.3629459,0 L6.15289505,0 C5.15312708,0 4.33978394,0.813343141 4.33978394,1.81311111 C4.33978394,2.81287907 5.15312708,3.62622221 6.15289505,3.62622221 L6.985103,3.62622221 C7.36206249,3.62622221 7.66868315,3.93291025 7.66868315,4.30980236 L7.66868315,5.2310792 L6.98523775,5.2310792 C3.13358097,5.2310792 0,8.3645928 0,12.2162496 L0,18.6953712 L0,20.94271 C0,21.2217746 0.226243064,21.4480176 0.505307617,21.4480176 L9.98750612,21.4480176 L9.98750612,29.4073537 C9.98750612,29.6864183 10.2137492,29.9126613 10.4928137,29.9126613 L12.947396,29.9126613 C13.2264606,29.9126613 13.4527036,29.6864183 13.4527036,29.4073537 L13.4527036,21.448085 L25.4132676,21.448085 C25.6923321,21.448085 25.9185752,21.2218419 25.9185752,20.9427774 L25.9185752,18.6957081 L25.9185752,18.695506 L25.9185752,12.2161822 C25.9185752,8.3645928 22.785129,5.23121395 18.9336743,5.23121395 Z M24.9079599,12.2161148 L24.9079599,18.190131 L22.6928935,18.190131 L22.6928935,10.0048213 C22.6928935,9.72575677 22.4666504,9.49951371 22.1875859,9.49951371 L13.6135262,9.49951371 C14.6041986,7.56721738 16.6170747,6.24182919 18.9336743,6.24182919 C22.2278757,6.24182919 24.9079599,8.92184604 24.9079599,12.2161148 Z M12.9593887,12.2161148 C12.9593887,11.6234901 13.0465711,11.0509428 13.208,10.5101289 L20.9779468,10.5101289 L15.2648041,16.2921956 L12.9951644,13.9958083 L12.9593887,13.9594935 L12.9593887,12.2161148 L12.9593887,12.2161148 Z M18.6045506,14.3499952 L21.6822782,11.2351443 L21.6822782,17.4648461 L18.6045506,14.3499952 Z M17.8941555,15.0689469 L20.9781489,18.190131 L12.9593887,18.190131 L12.9593887,15.3969252 L14.9054293,17.3662774 C15.0003598,17.4623533 15.1298533,17.5163875 15.2648715,17.5163875 C15.3998897,17.5163875 15.5293832,17.4622859 15.6242463,17.3662101 L17.8941555,15.0689469 Z M1.01061523,12.216317 C1.01061523,8.92191341 3.69083421,6.24176181 6.98523775,6.24176181 L7.66875052,6.24176181 L7.66875052,12.3944547 C7.66875052,13.3286675 8.42880055,14.0886501 9.3629459,14.0886501 C10.2970913,14.0886501 11.0571413,13.3286675 11.0571413,12.3944547 L11.0571413,6.24176181 L15.3180299,6.24176181 C13.2998312,7.46770547 11.9487734,9.6870839 11.9487734,12.2161148 L11.9487734,18.190131 L1.01061523,18.190131 L1.01061523,12.216317 Z" id="Shape" fill="#FFD478" fill-rule="nonzero"></path>
                        <path d="M13.8427903,9.09132062 L23.1518441,9.09132062 L23.1518441,18.1959419 L12.9592876,18.1959419 L12.9592876,12.1370554 C12.9592876,11.4696462 13.0212791,10.9787099 13.1452622,10.6642465 C13.400226,9.92317538 13.6327354,9.39886676 13.8427903,9.09132062 Z" id="Rectangle-2" fill="#FFFFFF"></path>
                    </g>
                    <g id="Group-2">
                        <g id="Rectangle-2">
                            <use fill="#FFFFFF" fill-rule="evenodd" xlink:href="#path-3"></use>
                            <rect stroke="#4A4A4A" stroke-width="1.5" x="1.22139708" y="1.54988805" width="22.7025988" height="15.1743341" rx="1.01500924"></rect>
                        </g>
                        <path d="M2.16262856,2.96588201 L12.4589009,11.8671584 L12.4589009,11.8671584 C12.6141328,12.0013586 12.8450958,11.9986358 12.9971209,11.8608133 L22.8086704,2.96588201" id="Line" stroke="#4A4A4A" stroke-width="1.6" stroke-linecap="square"></path>
                        <rect id="Rectangle-4" fill="#4A4A4A" transform="translate(6.080135, 13.327158) rotate(-35.000000) translate(-6.080135, -13.327158) " x="0.382720528" y="12.6771583" width="11.3948284" height="1.19939388"></rect>
                        <rect id="Rectangle-4" fill="#4A4A4A" transform="translate(19.312239, 13.381270) scale(-1, 1) rotate(-35.000000) translate(-19.312239, -13.381270) " x="13.614825" y="12.7312697" width="11.3948284" height="1.19939388"></rect>
                    </g>
                </g>
            </g>
            <circle id="Oval-2" fill="#E0EFFA" cx="268.895006" cy="37.8950062" r="21.8950062"></circle>
            <g id="Group" transform="translate(255.883168, 64.853024)">
                <rect id="Rectangle-7" fill-opacity="0.684414629" fill="#FFC13A" x="0.640268492" y="0.513207009" width="23.4404347" height="14.5845572" rx="0.634380776"></rect>
                <rect id="Combined-Shape" fill="#FFFFFF" x="0.640268492" y="2.67198584" width="23.4404347" height="3.17827873"></rect>
                <circle id="Oval" stroke="#FFFFFF" stroke-width="0.6" cx="17.9944181" cy="11.7960461" r="1.73435122"></circle>
                <circle id="Oval" stroke="#FFFFFF" stroke-width="0.6" cx="20.3068864" cy="11.7960461" r="1.73435122"></circle>
            </g>
            <path d="M286,27.6609688 L308,27.6609688 L308,27.6609688 C310.209139,27.6609688 312,29.4518298 312,31.6609688 L312,54 L282,54 L282,31.6609688 L282,31.6609688 C282,29.4518298 283.790861,27.6609688 286,27.6609688 Z" id="Rectangle-19" fill="#FFFFFF"></path>
            <g id="mobile-phone" transform="translate(280.969856, 26.562816)" fill-rule="nonzero">
                <path d="M34.1083608,16.1958293 C34.2474675,15.8281209 34.6035026,15.5644992 35.0198497,15.5644992 C35.5558479,15.5644992 35.9926233,16.0012746 35.9926233,16.5372728 L37.9381705,16.5372728 C37.9381705,14.9283053 36.6288172,13.618952 35.0198497,13.618952 C33.4108822,13.618952 32.1015289,14.9283053 32.1015289,16.5372728 C32.1015289,16.7950578 32.2036701,17.0431151 32.3865516,17.2250238 L35.9313386,20.7698108 C35.7922319,21.1375192 35.4361968,21.4011409 35.0198497,21.4011409 C34.4838514,21.4011409 34.0470761,20.9643655 34.0470761,20.4283673 L32.1015289,20.4283673 C32.1015289,22.0373348 33.4108822,23.3466881 35.0198497,23.3466881 C36.6288172,23.3466881 37.9381705,22.0373348 37.9381705,20.4283673 C37.9381705,20.1705822 37.8360293,19.922525 37.6531478,19.7406163 L34.1083608,16.1958293 Z" id="Shape" fill="#FFD478"></path>
                <path d="M35.0198497,9.72785762 C33.9955191,9.72785762 33.0159361,9.91365738 32.1015289,10.2385638 L32.1015289,4.86398961 C32.1015289,2.18205279 29.9195977,0.0001215967 27.2376609,0.0001215967 L4.86386801,0.0001215967 C2.18193119,0.0001215967 0,2.18205279 0,4.86398961 L0,45.7204809 C0,48.4024177 2.18193119,50.5843489 4.86386801,50.5843489 L11.6732832,50.5843489 C11.6732832,50.8421339 11.7754245,51.0901912 11.9583059,51.2720999 L15.5643776,54.8781716 L15.5643776,58.3665378 L17.5099248,58.3665378 L17.5099248,54.4754433 C17.5099248,54.2176583 17.4077836,53.9696011 17.2249022,53.7876924 L13.6188304,50.1816207 L13.6188304,45.8780702 L14.5419926,43.1095566 C14.5750669,43.0103337 14.591604,42.9062469 14.591604,42.8021601 L14.591604,29.1833297 C14.591604,28.6473314 15.0283794,28.2105561 15.5643776,28.2105561 C16.1003759,28.2105561 16.5371512,28.6473314 16.5371512,29.1833297 L16.5371512,37.9382921 L16.5371512,42.8021601 L16.5371512,43.7749337 L18.4826984,43.7749337 L18.4826984,42.8021601 L18.4826984,37.9382921 C18.4826984,37.4022938 18.9194738,36.9655185 19.4554721,36.9655185 C19.9914703,36.9655185 20.4282457,37.4022938 20.4282457,37.9382921 L20.4282457,40.8566129 L20.4282457,43.7749337 L22.3737929,43.7749337 L22.3737929,40.8566129 L22.3737929,37.9382921 C22.3737929,37.4022938 22.8105682,36.9655185 23.3465665,36.9655185 C23.8825647,36.9655185 24.3193401,37.4022938 24.3193401,37.9382921 L24.3193401,38.9110657 L24.3193401,42.8021601 L24.3193401,43.7749337 L26.2648873,43.7749337 L26.2648873,42.8021601 L26.2648873,38.9110657 C26.2648873,38.3750674 26.7016626,37.9382921 27.2376609,37.9382921 C27.7736591,37.9382921 28.2104345,38.3750674 28.2104345,38.9110657 L28.2104345,40.8566129 L28.2104345,43.7749337 L30.1559817,43.7749337 L30.1559817,40.8566129 C30.1559817,40.3206147 30.592757,39.8838393 31.1287553,39.8838393 C31.6647535,39.8838393 32.1015289,40.3206147 32.1015289,40.8566129 L32.1015289,46.5356652 L29.2328195,55.1408205 C29.1997452,55.2400434 29.1832081,55.3441302 29.1832081,55.4482169 L29.1832081,58.3665378 L31.1287553,58.3665378 L31.1287553,55.6058063 L33.9974646,47.000651 C34.0305389,46.9014281 34.0470761,46.7973413 34.0470761,46.6932545 L34.0470761,40.8566129 C34.0470761,39.5900617 33.230919,38.5200107 32.1015289,38.1172824 L32.1015289,26.7270763 C33.0159361,27.0519827 33.9955191,27.2377825 35.0198497,27.2377825 C39.8467523,27.2377825 43.7748121,23.3097227 43.7748121,18.48282 C43.7748121,13.6559174 39.8467523,9.72785762 35.0198497,9.72785762 Z M1.94554721,4.86398961 C1.94554721,3.25502207 3.25490047,1.9456688 4.86386801,1.9456688 L27.2376609,1.9456688 C28.8466284,1.9456688 30.1559817,3.25502207 30.1559817,4.86398961 L30.1559817,5.83676321 L1.94554721,5.83676321 L1.94554721,4.86398961 Z M11.7228947,45.4130845 C11.6898204,45.5123074 11.6732832,45.6163941 11.6732832,45.7204809 L11.6732832,48.6388017 L4.86386801,48.6388017 C3.25490047,48.6388017 1.94554721,47.3294485 1.94554721,45.7204809 L1.94554721,42.8021601 L12.5935271,42.8021601 L11.7228947,45.4130845 Z M15.5643776,26.2650089 C13.9554101,26.2650089 12.6460568,27.5743621 12.6460568,29.1833297 L12.6460568,30.1561033 L10.7005096,30.1561033 C10.1645114,30.1561033 9.72773603,29.7193279 9.72773603,29.1833297 L9.72773603,25.2922353 C9.72773603,24.756237 10.1645114,24.3194617 10.7005096,24.3194617 L20.4282457,24.3194617 C20.9642439,24.3194617 21.4010193,24.756237 21.4010193,25.2922353 L21.4010193,29.1833297 C21.4010193,29.7193279 20.9642439,30.1561033 20.4282457,30.1561033 L18.4826984,30.1561033 L18.4826984,29.1833297 C18.4826984,27.5743621 17.1733452,26.2650089 15.5643776,26.2650089 Z M30.1559817,38.1046364 C30.1229074,38.1163097 30.0937242,38.1338196 30.0616226,38.1464656 C30.055786,38.1484112 30.0489766,38.149384 30.0431399,38.1523023 C29.7075331,36.9120159 28.5830068,35.9927449 27.2376609,35.9927449 C26.7152814,35.9927449 26.231813,36.1415793 25.8067109,36.3828271 C25.2891953,35.5666701 24.3825703,35.0199713 23.3465665,35.0199713 C22.596558,35.0199713 21.9185348,35.3127761 21.4010193,35.7787347 C20.8835037,35.3118034 20.2054805,35.0199713 19.4554721,35.0199713 C19.1130557,35.0199713 18.7881494,35.090011 18.4826984,35.1989616 L18.4826984,32.1016505 L20.4282457,32.1016505 C22.0372132,32.1016505 23.3465665,30.7922972 23.3465665,29.1833297 L23.3465665,25.2922353 C23.3465665,23.6832677 22.0372132,22.3739145 20.4282457,22.3739145 L10.7005096,22.3739145 C9.09154209,22.3739145 7.78218882,23.6832677 7.78218882,25.2922353 L7.78218882,29.1833297 C7.78218882,30.7922972 9.09154209,32.1016505 10.7005096,32.1016505 L12.6460568,32.1016505 L12.6460568,40.8566129 L1.94554721,40.8566129 L1.94554721,7.78231042 L30.1559817,7.78231042 L30.1559817,11.208419 C29.8670679,11.402001 29.5937185,11.6160112 29.3300969,11.8426674 C29.2941043,11.8737962 29.26103,11.9058977 29.2260101,11.9379992 C29.0061633,12.1335267 28.7960442,12.338782 28.5966256,12.5547377 C28.5567419,12.5985125 28.5168582,12.6413146 28.4769744,12.6860621 C28.2649098,12.9253645 28.0645184,13.1743945 27.8787187,13.4360706 C27.872882,13.4448256 27.8660726,13.4526077 27.8592632,13.4613627 C27.4613988,14.0265442 27.1316286,14.6393915 26.8757891,15.2911499 C26.8611975,15.3271425 26.8495242,15.3641079 26.8359054,15.4001005 C26.7327914,15.6724771 26.644269,15.9497176 26.5683926,16.2337675 C26.5499099,16.3038072 26.5314272,16.3738469 26.5139173,16.4448593 C26.4516598,16.7026444 26.4030211,16.9643205 26.365083,17.2308604 C26.3534097,17.3106279 26.3378453,17.3884497 26.3290903,17.4682172 C26.2901794,17.8018785 26.2648873,18.139431 26.2648873,18.48282 C26.2648873,18.8262091 26.2901794,19.1637616 26.3290903,19.4974229 C26.3388181,19.5771903 26.3534097,19.6550122 26.365083,19.7347797 C26.4030211,20.0003469 26.4526326,20.2629957 26.5139173,20.5207807 C26.5314272,20.5917932 26.5489372,20.6608601 26.5683926,20.7318726 C26.644269,21.0159225 26.7327914,21.2941358 26.8359054,21.5655396 C26.8495242,21.6015322 26.8621703,21.6384976 26.8757891,21.6744902 C27.1326013,22.3262486 27.4623716,22.9390959 27.8592632,23.5042774 C27.8650998,23.5130323 27.8719093,23.5208145 27.8787187,23.5295695 C28.0645184,23.7912456 28.2649098,24.0402756 28.4769744,24.2795779 C28.5158854,24.3243255 28.5557691,24.3671276 28.5966256,24.4109024 C28.7960442,24.6268581 29.0051905,24.8330861 29.2260101,25.0276408 C29.26103,25.0587696 29.295077,25.0918439 29.3300969,25.1229727 C29.5937185,25.3486561 29.8670679,25.5626663 30.1559817,25.757221 L30.1559817,38.1046364 Z M35.0198497,25.2922353 C33.7678901,25.2922353 32.5976434,24.9469006 31.5879044,24.3544815 C31.3495749,24.2153749 31.1229186,24.0616767 30.9059901,23.8963051 C30.8855619,23.8807408 30.8641609,23.8661492 30.8447054,23.8505848 C30.3875018,23.4935769 29.9799097,23.0830664 29.6316567,22.6307267 C29.6199834,22.6151623 29.6092829,22.6005707 29.5976096,22.5850063 C29.4273743,22.3602956 29.2697849,22.1258572 29.1287328,21.8826638 C29.12776,21.8807182 29.1258144,21.8787727 29.1248417,21.8768271 C28.839819,21.3836309 28.6199722,20.8544421 28.4653012,20.3038522 C28.4536279,20.2600774 28.4429274,20.2163026 28.4312541,20.1725278 C28.3738604,19.9517082 28.3300856,19.7260247 28.2950658,19.4993685 C28.285338,19.437111 28.2736648,19.3748534 28.2668553,19.3125959 C28.2318355,19.0382738 28.2104345,18.7620061 28.2104345,18.48282 C28.2104345,18.203634 28.2318355,17.9273663 28.2658826,17.6540169 C28.2736648,17.5907867 28.285338,17.5295019 28.294093,17.4672444 C28.3291129,17.2396154 28.3728877,17.0149047 28.4302813,16.7940851 C28.4419546,16.7503103 28.4516823,16.7065354 28.4643284,16.6627606 C28.6189994,16.1121708 28.8388462,15.5829819 29.1238689,15.0897857 C29.1248417,15.0878402 29.1267872,15.0858946 29.12776,15.0839491 C29.2688122,14.8407557 29.4264015,14.6063172 29.5966369,14.3816065 C29.6083101,14.3660422 29.6190107,14.3514506 29.6306839,14.3358862 C29.9799097,13.8825737 30.386529,13.4720632 30.8437326,13.1160281 C30.8641609,13.1004637 30.8845891,13.0858721 30.9050174,13.0703077 C31.1219459,12.9049362 31.3486021,12.7522108 31.5869317,12.6121314 C32.5976434,12.0187395 33.7678901,11.6734048 35.0198497,11.6734048 C38.7747558,11.6734048 41.8292649,14.7279139 41.8292649,18.48282 C41.8292649,22.2377262 38.7747558,25.2922353 35.0198497,25.2922353 Z" id="Shape" fill="#4A4A4A"></path>
                <path d="M12.6368319,30.2148473 L12.6368319,41.2504041 L11.6732832,44.2683442 L11.6732832,50.5843489 C11.6732832,50.8421339 11.7754245,51.0901912 11.9583059,51.2720999 L15.5643776,54.8781716 L15.5643776,58.3665378 L17.5099248,58.3665378 L17.5099248,54.4754433 C17.5099248,54.2176583 17.4077836,53.9696011 17.2249022,53.7876924 L13.6188304,50.1816207 L13.6188304,45.8780702 L14.5419926,43.1095566 C14.5750669,43.0103337 14.591604,42.9062469 14.591604,42.8021601 L14.591604,29.1833297 C14.591604,28.6473314 15.0283794,28.2105561 15.5643776,28.2105561 C16.1003759,28.2105561 16.5371512,28.6473314 16.5371512,29.1833297 L16.5371512,37.9382921 L16.5371512,42.8021601 L16.5371512,43.7749337 L18.4826984,43.7749337 L18.4826984,42.8021601 L18.4826984,37.9382921 C18.4826984,37.4022938 18.9194738,36.9655185 19.4554721,36.9655185 C19.9914703,36.9655185 20.4282457,37.4022938 20.4282457,37.9382921 L20.4282457,40.8566129 L20.4282457,43.7749337 L22.3737929,43.7749337 L22.3737929,40.8566129 L22.3737929,37.9382921 C22.3737929,37.4022938 22.8105682,36.9655185 23.3465665,36.9655185 C23.8825647,36.9655185 24.3193401,37.4022938 24.3193401,37.9382921 L24.3193401,38.9110657 L24.3193401,42.8021601 L24.3193401,43.7749337 L26.2648873,43.7749337 L26.2648873,42.8021601 L26.2648873,38.9110657 C26.2648873,38.3750674 26.7016626,37.9382921 27.2376609,37.9382921 C27.7736591,37.9382921 28.2104345,38.3750674 28.2104345,38.9110657 L28.2104345,40.8566129 L28.2104345,43.7749337 L30.1559817,43.7749337 L30.1559817,40.8566129 C30.1559817,40.3206147 30.592757,39.8838393 31.1287553,39.8838393 C31.6647535,39.8838393 32.1015289,40.3206147 32.1015289,40.8566129 L32.1015289,46.5356652 L29.2328195,55.1408205 C29.1997452,55.2400434 29.1832081,55.3441302 29.1832081,55.4482169 L29.1832081,58.3665378 L31.1287553,58.3665378 L31.1287553,55.6058063 L33.9974646,47.000651 C34.0305389,46.9014281 34.0470761,46.7973413 34.0470761,46.6932545 L34.0470761,40.8566129 C34.0470761,39.5900617 33.230919,38.5200107 32.1015289,38.1172824 C31.7950662,37.9979555 31.4708083,37.9382921 31.1287553,37.9382921 C31.0452671,37.9382921 30.2740145,38.0786472 30.1559817,38.1172824 C29.9122816,38.197052 29.8789036,38.197052 30.0558476,38.1172824 C29.9778499,37.6284898 29.6869701,37.1626337 29.1832081,36.719714 C28.4093653,36.0393329 27.7652523,35.983843 27.2376609,35.9895429 C26.7100694,35.9952427 26.5401178,36.0788213 26.2648873,36.1659297 C26.0814002,36.2240019 25.9238613,36.2950328 25.7922704,36.3790222 C25.693503,36.1193693 25.4255129,35.8356544 24.9883001,35.5278774 C24.3324808,35.0662119 23.9216761,35.0223634 23.3465665,35.0157357 C22.7714568,35.0091079 22.5208601,35.0988518 22.0844827,35.3078786 C21.7935644,35.4472297 21.5568831,35.6016668 21.3744388,35.77119 C21.1898345,35.5852728 20.9962278,35.4308357 20.7936187,35.3078786 C20.4897051,35.1234428 20.1857669,35.0197097 19.4554721,35.0157357 C18.9686088,35.0130863 18.644351,35.0733923 18.4826984,35.1966538 L18.4826984,30.2148473 C18.6156722,27.5621544 17.6428986,26.242346 15.5643776,26.2554222 C12.2461927,26.2762973 12.6368319,29.7231871 12.6368319,30.2148473 Z" id="Shape" fill="#4A4A4A"></path>
                <path d="M58.0813935,16.8222955 L54.1902991,12.9312011 L52.8147972,14.306703 L55.0453671,16.5372728 L45.7203593,16.5372728 L45.7203593,18.48282 L55.0453671,18.48282 L52.8147972,20.7133899 L54.1902991,22.0888918 L58.0813935,18.1977974 C58.461748,17.8174429 58.461748,17.20265 58.0813935,16.8222955 Z" id="Shape" fill="#4A4A4A"></path>
                <path d="M15.5643776,14.5917256 C13.8717516,14.5917256 12.6441113,15.3232514 12.0623927,15.759054 L13.229721,17.3154917 C13.6168849,17.0256052 14.4359603,16.5372728 15.5643776,16.5372728 C16.0488189,16.5372728 16.9963004,16.6384413 17.8990343,17.3154917 L19.0663626,15.759054 C17.7122618,14.7434783 16.2910395,14.5917256 15.5643776,14.5917256 Z" id="Shape" fill="#4A4A4A"></path>
                <path d="M15.5643776,10.7006312 C12.4602571,10.7006312 10.209259,12.0411132 9.14407186,12.8407332 L10.3114002,14.3971709 C11.1830053,13.7434671 13.0244658,12.6461784 15.5643776,12.6461784 C16.6538841,12.6461784 18.7862038,12.8738075 20.8173551,14.3971709 L21.9846834,12.8397604 C19.5011924,10.9788445 16.8961047,10.7006312 15.5643776,10.7006312 Z" id="Shape" fill="#4A4A4A"></path>
                <rect id="Rectangle-path" fill="#4A4A4A" x="14.591604" y="18.48282" width="1.94554721" height="1.94554721"></rect>
            </g>
            <g id="Group" transform="translate(470.000000, 11.000000)">
                <circle id="Oval-2" fill-opacity="0.238139719" fill="#80BCEA" cx="32.5859348" cy="47.5424789" r="24.4859348"></circle>
                <g id="Rectangle-3">
                    <use fill="#FFFFFF" fill-rule="evenodd" xlink:href="#path-4"></use>
                    <path stroke="#4A4A4A" stroke-width="1.89" d="M42.248021,40.2928327 C46.1196037,40.6120785 50.164637,39.2234337 54.4072454,36.0841523 C57.874534,33.5185622 60.1110607,28.9957436 61.0780069,22.4617716 L61.1973823,21.6551131 L68.6600506,21.6551131 L56.7078528,10.1326276 L44.755655,21.6551131 L52.2962095,21.6551131 L52.4715964,22.3770138 C53.4283043,26.3148681 52.7816666,29.8505102 50.5320251,32.9050466 C48.9630169,35.0354271 46.2051088,37.4889598 42.248021,40.2928327 Z"></path>
                </g>
                <text id="720" font-family="Futura-Bold, Futura" font-size="12.6" font-weight="bold" fill="#FFD478">
                    <tspan x="9.36" y="16">720</tspan>
                </text>
                <text id="520" font-family="Lato-Light, Lato" font-size="6.3" font-weight="300" fill="#4A4A4A">
                    <tspan x="9.36" y="72.78">520</tspan>
                </text>
                <text id="610" font-family="Lato-Light, Lato" font-size="8.82" font-weight="300" fill="#4A4A4A">
                    <tspan x="9.36" y="58.14">610</tspan>
                </text>
                <text id="670" font-family="Lato-Light, Lato" font-size="11.34" font-weight="300" fill="#4A4A4A">
                    <tspan x="9.36" y="38.72">670</tspan>
                </text>
                <path d="M1.28133464,12.0855772 L2.84121529,12.0855772 C3.39504015,12.0855772 3.84400391,11.6366135 3.84400391,11.0827886 C3.84400391,10.5289638 3.39504015,10.08 2.84121529,10.08 L2.84121529,10.08 L1.00278862,10.08 L1.00278862,10.08 C0.933733387,10.08 0.866308431,10.0869801 0.801180811,10.1002731 C0.749883945,10.0870395 0.696097708,10.08 0.640667319,10.08 L0.640667319,10.08 L0.640667319,10.08 C0.286836529,10.08 -1.54354077e-16,10.3668365 -1.11022302e-16,10.7206673 L0,10.7206673 L-7.99360578e-15,71.404967 C-5.67032289e-15,71.6119466 0.0981518087,71.7960016 0.250449925,71.9131265 C0.434203055,72.121473 0.70314825,72.2528947 1.00278862,72.2528947 L2.84121529,72.2528947 C3.39504015,72.2528947 3.84400391,71.803931 3.84400391,71.2501061 C3.84400391,70.6962812 3.39504015,70.2473175 2.84121529,70.2473175 L2.84121529,70.2473175 L1.28133464,70.2473175 L1.28133464,64.2305857 L2.84121529,64.2305857 C3.39504015,64.2305857 3.84400391,63.781622 3.84400391,63.2277971 C3.84400391,62.6739722 3.39504015,62.2250085 2.84121529,62.2250085 L1.28133464,62.2250085 L1.28133464,54.8712252 L2.84121529,54.8712252 C3.39504015,54.8712252 3.84400391,54.4222615 3.84400391,53.8684366 C3.84400391,53.3146117 3.39504015,52.865648 2.84121529,52.865648 L2.84121529,52.865648 L1.28133464,52.865648 L1.28133464,46.8489162 L2.84121529,46.8489162 C3.39504015,46.8489162 3.84400391,46.3999525 3.84400391,45.8461276 C3.84400391,45.2923027 3.39504015,44.843339 2.84121529,44.843339 L2.84121529,44.843339 L1.28133464,44.843339 L1.28133464,37.4895557 L2.84121529,37.4895557 C3.39504015,37.4895557 3.84400391,37.040592 3.84400391,36.4867671 C3.84400391,35.9329422 3.39504015,35.4839785 2.84121529,35.4839785 L1.28133464,35.4839785 L1.28133464,29.4672467 L2.84121529,29.4672467 C3.39504015,29.4672467 3.84400391,29.018283 3.84400391,28.4644581 C3.84400391,27.9106333 3.39504015,27.4616695 2.84121529,27.4616695 L2.84121529,27.4616695 L1.28133464,27.4616695 L1.28133464,20.1078862 L2.84121529,20.1078862 C3.39504015,20.1078862 3.84400391,19.6589225 3.84400391,19.1050976 C3.84400391,18.5512728 3.39504015,18.102309 2.84121529,18.102309 L1.28133464,18.102309 L1.28133464,12.0855772 Z" id="Combined-Shape" fill="#FFD478"></path>
            </g>
            <g id="Group" transform="translate(685.000000, 12.000000)">
                <ellipse id="Oval-2" fill-opacity="0.238139719" fill="#80BCEA" cx="44.2" cy="37.8088235" rx="28.2" ry="28.3382353"></ellipse>
                <g id="Group-5" transform="translate(18.796003, 18.823947) scale(-1, 1) rotate(2.000000) translate(-18.796003, -18.823947) translate(0.796003, 0.823947)" fill="#FFD478">
                    <path d="M25.3753978,21.8530017 L21.3423199,21.8530017 C20.7049253,21.8530017 20.1884027,21.3339472 20.1884027,20.6934281 C20.1884027,20.0529089 20.7049253,19.5338544 21.3423199,19.5338544 L25.3753978,19.5338544 C26.0127924,19.5338544 26.529315,20.0529089 26.529315,20.6934281 C26.529315,21.3340166 26.0127924,21.8530017 25.3753978,21.8530017 Z" id="Shape" fill-rule="nonzero"></path>
                    <path d="M14.8146744,15.2937747 C14.1772798,15.2937747 13.6607572,14.7747201 13.6607572,14.134201 L13.6607572,10.0813531 C13.6607572,9.44083399 14.1772798,8.92177945 14.8146744,8.92177945 C15.4520691,8.92177945 15.9685916,9.44083399 15.9685916,10.0813531 L15.9685916,14.134201 C15.9685916,14.7747201 15.4520691,15.2937747 14.8146744,15.2937747 Z" id="Shape" fill-rule="nonzero"></path>
                    <path d="M16.6557449,1.02039983 C15.3094967,-0.340156427 13.1094727,-0.340156427 11.7632244,1.02039983 C10.4169761,2.37324736 10.4169761,4.58412525 11.7632244,5.93697278 C12.4170671,6.59408999 13.2863924,6.95737261 14.2094156,6.95737261 C15.1324388,6.95737261 16.0019023,6.59402054 16.6556758,5.93697278 C18.0098026,4.58419469 18.0098026,2.37324736 16.6557449,1.02039983 Z M15.0284293,4.29251299 C14.5598686,4.7633706 13.840925,4.74448074 13.3952394,4.29737435 C12.9534931,3.85346257 12.9534931,3.10384059 13.3952394,2.65992881 C13.8488726,2.20226633 14.5771459,2.20921113 15.0194451,2.65534524 C15.4892498,3.12523058 15.464025,3.85756001 15.0284293,4.29251299 Z" id="Shape" fill-rule="nonzero"></path>
                    <ellipse id="Oval" fill-rule="nonzero" cx="29.5017731" cy="14.1344093" rx="1.15391722" ry="1.15957368"></ellipse>
                    <ellipse id="Oval" fill-rule="nonzero" cx="21.3420435" cy="5.93468099" rx="1.15391722" ry="1.15957368"></ellipse>
                    <ellipse id="Oval" fill-rule="nonzero" cx="29.5017731" cy="27.2530718" rx="1.15391722" ry="1.15957368"></ellipse>
                    <ellipse id="Oval" fill-rule="nonzero" cx="8.28744356" cy="5.93468099" rx="1.15391722" ry="1.15957368"></ellipse>
                    <path d="M30.6558286,3.61539474 C30.0184339,3.61539474 29.5019114,3.0963402 29.5019114,2.45582107 L29.5019114,1.29624739 C29.5019114,0.655728254 30.0184339,0.136673714 30.6558286,0.136673714 C31.2932232,0.136673714 31.8097458,0.655728254 31.8097458,1.29624739 L31.8097458,2.45582107 C31.8097458,3.0963402 31.2932923,3.61539474 30.6558286,3.61539474 Z" id="Shape" fill-rule="nonzero"></path>
                    <path d="M30.6558286,9.41326312 C30.0184339,9.41326312 29.5019114,8.89420858 29.5019114,8.25368945 L29.5019114,7.09411577 C29.5019114,6.45359664 30.0184339,5.9345421 30.6558286,5.9345421 C31.2932232,5.9345421 31.8097458,6.45359664 31.8097458,7.09411577 L31.8097458,8.25368945 C31.8097458,8.89420858 31.2932923,9.41326312 30.6558286,9.41326312 Z" id="Shape" fill-rule="nonzero"></path>
                    <path d="M28.3479941,5.9345421 L27.1940769,5.9345421 C26.5566823,5.9345421 26.0401597,5.41548756 26.0401597,4.77496842 C26.0401597,4.13444928 26.5566823,3.61539474 27.1940769,3.61539474 L28.3479941,3.61539474 C28.9853888,3.61539474 29.5019114,4.13444928 29.5019114,4.77496842 C29.5019114,5.41548756 28.9854579,5.9345421 28.3479941,5.9345421 Z" id="Shape" fill-rule="nonzero"></path>
                    <path d="M34.1175802,5.9345421 L32.963663,5.9345421 C32.3262684,5.9345421 31.8097458,5.41548756 31.8097458,4.77496842 C31.8097458,4.13444928 32.3262684,3.61539474 32.963663,3.61539474 L34.1175802,3.61539474 C34.7546293,3.61539474 35.2714975,4.13444928 35.2714975,4.77496842 C35.2714975,5.41548756 34.7546293,5.9345421 34.1175802,5.9345421 Z" id="Shape" fill-rule="nonzero"></path>
                    <path d="M34.3491653,18.0275267 C33.0029171,16.6669705 30.8028931,16.6669705 29.4566448,18.0275267 C28.1103965,19.3803742 28.1103965,21.5912521 29.4566448,22.9440997 C30.1104875,23.6012169 30.9798128,23.9644995 31.9029051,23.9644995 C32.8259974,23.9644995 33.6953918,23.6011474 34.3491653,22.9440997 C35.7031539,21.5912521 35.7031539,19.3803048 34.3491653,18.0275267 Z M32.7218497,21.2992232 C32.2552241,21.7689002 31.5364878,21.7537605 31.0886598,21.3045012 C30.6469135,20.8605895 30.6469135,20.1109675 31.0886598,19.6670557 C31.542293,19.2093932 32.2705663,19.216338 32.7128655,19.6624721 C33.1807352,20.1309685 33.1594495,20.8622562 32.7218497,21.2992232 Z" id="Shape" fill-rule="nonzero"></path>
                    <path d="M18.5566641,18.0930857 C18.2614294,18.0930857 17.9661946,17.9798159 17.7408293,17.7533459 C17.2900988,17.3008226 17.2900988,16.5662708 17.7408293,16.1136086 L24.9442251,8.87490203 C25.3949557,8.42196201 26.1252332,8.42196201 26.5759637,8.87490203 C27.0266943,9.32742537 27.0266943,10.0619771 26.5759637,10.5146394 L19.372568,17.7532765 C19.1471336,17.9798159 18.8518988,18.0930857 18.5566641,18.0930857 Z" id="Shape" fill-rule="nonzero"></path>
                    <path d="M17.7407602,17.7532765 C17.9661255,17.9797465 18.2614294,18.0930162 18.556595,18.0930162 C18.8517606,18.0930162 19.1470645,17.9797465 19.3724297,17.7532765 L26.5758255,10.5145699 C27.0265561,10.0620466 27.0265561,9.32749481 26.5758255,8.87483259 L17.7407602,17.7532765 L17.7407602,17.7532765 Z" id="Shape" fill-rule="nonzero"></path>
                    <path d="M8.97860521,29.5899979 L8.97860521,32.8638472 L1.55889745,35.4891215 C1.10270726,35.6506576 0.655777714,35.5115532 0.361925165,35.217788 C0.0657229009,34.9217311 -0.0742233391,34.4702495 0.0872849882,34.0095313 L2.70286294,26.5619251 L5.96841342,26.5619251 L7.4707795,28.073253 L8.97860521,29.5899979 Z" id="Shape" fill-rule="nonzero"></path>
                    <path d="M8.97860521,29.5899979 L8.97860521,32.8638472 L1.55889745,35.4891215 C1.10270726,35.6506576 0.655777714,35.5115532 0.361925165,35.217788 L7.47084861,28.073253 L8.97860521,29.5899979 Z" id="Shape" fill-rule="nonzero"></path>
                    <path d="M5.68589479,22.1792686 L13.3445132,29.8783461 L17.4032998,29.8783461 L21.7253925,28.3477116 C22.3270577,28.1306865 22.6406064,27.4737777 22.4330713,26.8634684 L8.67079259,13.0413669 C8.07230645,12.8254529 7.40947959,13.1409553 7.20146074,13.7448754 L5.68589479,18.0598201 L5.68589479,22.179338 L5.68589479,22.179338 L5.68589479,22.1792686 Z" id="Shape" fill-rule="nonzero"></path>
                    <path d="M13.3445132,29.8783461 L17.4032998,29.8783461 L21.7253925,28.3477116 C22.3270577,28.1306865 22.6406064,27.4737777 22.4330713,26.8634684 L15.5522084,19.952626 L9.51047003,26.0239807 L13.3445132,29.8783461 Z" id="Shape" fill-rule="nonzero"></path>
                    <polygon id="Shape" fill-rule="nonzero" points="5.67815455 18.0738486 2.70120431 26.5619945 8.97846699 32.8623194 9.00154948 32.8546106 17.417398 29.8706373"></polygon>
                    <polygon id="Shape" fill-rule="nonzero" points="8.97846699 32.8623194 9.00154948 32.8546106 17.4173289 29.8706373 11.5500223 23.9745 5.84000843 29.7123653"></polygon>
                    <path d="M22.9744041,30.0526606 C22.6791693,30.0526606 22.3839346,29.9393909 22.1585693,29.7129209 L5.83945555,13.3140198 C5.388725,12.8614965 5.388725,12.1269447 5.83945555,11.6742825 C6.29018611,11.2213425 7.0204636,11.2213425 7.47119416,11.6742825 L23.7901697,28.073253 C24.2409003,28.5257763 24.2409003,29.2603281 23.7901697,29.7129903 C23.5648044,29.9393909 23.2696388,30.0526606 22.9744041,30.0526606 Z" id="Shape" fill-rule="nonzero"></path>
                    <path d="M22.1585002,29.7129209 C22.3838655,29.9393909 22.6791693,30.0526606 22.974335,30.0526606 C23.2695006,30.0526606 23.5648044,29.9393909 23.7901697,29.7129209 C24.2409003,29.2603976 24.2409003,28.5258458 23.7901697,28.0731836 L15.6307165,19.8738025 L13.9989779,21.5135398 L22.1585002,29.7129209 Z" id="Shape" fill-rule="nonzero"></path>
                    <path d="M8.64488734,15.7822035 L19.8665324,26.9983534 L3.51969269,32.7080858 L3.51969269,32.7080858 C3.20685602,32.8173554 2.86467123,32.6523318 2.75540157,32.3394951 C2.70974504,32.2087815 2.71070113,32.0663001 2.75810771,31.9362109 L8.64488734,15.7822035 Z" id="Rectangle-4"></path>
                    <path d="M8.64488734,15.7822035 L19.8665324,26.9983534 C19.0602751,27.3059343 18.4573009,27.5295281 18.05761,27.6691348 C17.6739751,27.8031333 12.8271427,29.4841062 3.51711274,32.7120533 L3.51711272,32.7120532 C3.20402648,32.8206056 2.86222084,32.6547982 2.75366847,32.3417119 C2.70846629,32.21134 2.70958163,32.0693721 2.75682657,31.9397265 L7.99150496,17.5751607 L8.64488734,15.7822035 Z" id="Rectangle-4"></path>
                </g>
                <g id="1497911923_education-school-learn-study-04" transform="translate(33.000000, 33.000000)">
                    <g id="Group-9">
                        <path d="M28.2703791,1.48358245 L53.9348209,10.7396106 L37.7499405,27.1081799 C32.6482388,30.2953439 28.8252142,31.9357125 26.2808666,32.0292858 C23.736519,32.1228592 19.5778569,30.7760326 13.8048806,27.988806 L13.8048806,15.8363015 L4,10.7396106 L28.2703791,1.48358245 Z" id="Rectangle-8" fill="#FFFFFF"></path>
                        <path d="M55.9467097,9.8088122 L28.8459351,0.0764908544 C28.561956,-0.0254969515 28.2512768,-0.0254969515 27.9672978,0.0764908544 L0.866668353,9.8088122 C0.342243022,9.99717594 -0.00587440104,10.499382 7.50838951e-05,11.0593665 C0.00587945944,11.6193511 0.364444759,12.114116 0.892788043,12.291245 L11.8691524,15.9711226 L11.8691524,28.7961986 C11.8691524,29.3815707 12.2544178,29.8963246 12.8141048,30.0581336 L28.0456568,34.4649114 C28.1636308,34.4989074 28.2850873,34.5161242 28.406689,34.5161242 C28.5282907,34.5161242 28.6498923,34.4990533 28.7677212,34.4649114 L33.5637316,33.077352 C34.2569191,32.8767322 34.6571308,32.1492484 34.4577505,31.4522588 C34.2582251,30.7552691 33.535145,30.3525705 32.8415221,30.5533362 L28.406689,31.8364274 L14.4811214,27.8075443 L14.4811214,16.8467003 L27.9935626,21.3767681 C28.2617247,21.4666458 28.5516533,21.4667917 28.8196703,21.3767681 L31.2458993,20.563492 C31.2461895,20.563492 31.2463346,20.5633461 31.2466248,20.5632002 L33.2902004,19.8781748 C33.9743911,19.6488117 34.344275,18.9051323 34.1160179,18.2170429 C33.8877608,17.5290994 33.1482834,17.1570409 32.4639475,17.3866959 L28.406689,18.7468251 L16.2630647,14.6756294 L5.30745097,11.0027553 L28.406689,2.70745526 L51.505927,11.0027553 L43.2254049,13.7788955 L43.2252598,13.7788955 L42.2032543,14.1214811 L41.3607492,14.4039538 L41.3606041,14.4039538 L40.0543294,14.8418156 C39.3699935,15.0711787 39.0002548,15.814858 39.2285119,16.5029474 C39.4566238,17.1908909 40.1959562,17.5622199 40.8805823,17.3332945 L42.3324017,16.8465544 L42.3324017,27.8073984 L40.7045646,28.2783807 C40.011377,28.4790005 39.6111653,29.2064843 39.8105456,29.903474 C39.9753899,30.4792163 40.4974935,30.8539011 41.0651614,30.8539011 C41.1845864,30.8539011 41.3061881,30.8374138 41.426774,30.8023965 L43.9994184,30.0579877 C44.5589602,29.8961787 44.9443707,29.3812789 44.9443707,28.7960527 L44.9443707,15.9709767 L55.9207351,12.2910991 C56.4492235,12.1139701 56.8076437,11.6193511 56.813448,11.0592206 C56.8192524,10.4992361 56.471135,9.99717594 55.9467097,9.8088122 Z" id="Shape" fill="#4A4A4A" fill-rule="nonzero"></path>
                    </g>
                    <path d="M38.117912,17.5555228 C38.1170414,17.5251745 38.1161707,17.4946803 38.1132685,17.464332 C38.1110919,17.4423003 38.107319,17.4208522 38.1041266,17.3991123 C38.1010793,17.3786856 38.0989027,17.3584048 38.0949847,17.3382698 C38.0903412,17.3140496 38.0839564,17.2904129 38.0780069,17.2667762 C38.0735085,17.2492676 38.0695906,17.2316131 38.0645118,17.2142503 C38.0575465,17.1909055 38.0492753,17.1684361 38.0411491,17.1456748 C38.0347643,17.1280203 38.02896,17.1103658 38.0218496,17.093003 C38.0134333,17.0722845 38.0037109,17.0524414 37.9944239,17.0323064 C37.9855723,17.0134846 37.9771559,16.994371 37.9672885,16.9758411 C37.9580015,16.9580406 37.9474085,16.9411156 37.9373959,16.9240447 C37.9257872,16.9043475 37.9144686,16.8845043 37.9018441,16.8652448 C37.8912511,16.8491953 37.8794973,16.8338752 37.8680336,16.8181174 C37.8543934,16.7994416 37.8411884,16.7804739 37.8266775,16.7623816 C37.8126019,16.7451648 37.7975105,16.7289693 37.7827093,16.7126279 C37.769069,16.6974538 37.7561543,16.6819878 37.7419336,16.6673973 C37.7187161,16.6437606 37.6940475,16.6217289 37.6690887,16.599989 C37.6621234,16.593861 37.6560288,16.5872952 37.6489185,16.5813131 L37.6457261,16.5785409 C37.6450005,16.5779573 37.6441299,16.5772278 37.6432592,16.5764983 L28.9097055,9.27029027 C28.3555328,8.80645732 27.532037,8.88232807 27.070444,9.43983223 C26.6091413,9.99733639 26.6847433,10.825349 27.2392063,11.2891819 L35.5075392,18.2062605 L35.5075392,41.4863268 C34.0581866,41.7857245 32.9649325,43.0781536 32.9649325,44.6227072 L32.9649325,46.4063995 C32.9649325,48.1718536 34.3933893,49.6079995 36.1490678,49.6079995 L37.9231752,49.6079995 C39.6789988,49.6079995 41.1073105,48.1717077 41.1073105,46.4063995 L41.1073105,44.6227072 C41.1073105,42.9236399 39.784058,41.5302443 38.1195082,41.4278188 L38.1195082,17.5971058 L38.1195082,17.5959386 L38.1195082,17.5905401 C38.1196533,17.5788677 38.1182022,17.5673412 38.117912,17.5555228 Z M38.4953415,44.6227072 L38.4953415,46.4063995 C38.4953415,46.7237435 38.238643,46.9817041 37.9231752,46.9817041 L36.1490678,46.9817041 C35.8334549,46.9817041 35.5769015,46.7235976 35.5769015,46.4063995 L35.5769015,44.6227072 C35.5769015,44.3053631 35.8336,44.0474026 36.1490678,44.0474026 L37.9231752,44.0474026 C38.2387881,44.0474026 38.4953415,44.3053631 38.4953415,44.6227072 Z" id="Shape" fill="#4A4A4A" fill-rule="nonzero"></path>
                </g>
            </g>
            <g id="Group-8" transform="translate(116.000000, 7.000000)">
                <path d="M0.325764542,19.7807057 C12.9915508,7.01893083 30.3829626,0.556802144 52.5,0.394319595 C75.8749197,0.222596029 93.9713985,7.38767082 106.789437,21.889544" id="Line-2" stroke="#E0EFFA" stroke-width="2" stroke-linecap="square" stroke-dasharray="5,5"></path>
                <path d="M104.264844,17.2872098 L111.630135,21.745932 L111.630135,21.745932 C111.866364,21.8889376 111.941936,22.1963678 111.798931,22.4325965 C111.754896,22.5053375 111.693037,22.5656466 111.619202,22.6078224 L104.25391,26.8150261 L104.25391,26.8150261 C104.01413,26.9519934 103.708716,26.8686471 103.571748,26.6288668 C103.528603,26.5533343 103.505909,26.4678524 103.505909,26.3808656 L103.505909,17.7149397 L103.505909,17.7149397 C103.505909,17.4387973 103.729767,17.2149397 104.005909,17.2149397 C104.0972,17.2149397 104.186748,17.2399332 104.264844,17.2872098 Z" id="Rectangle-18" fill="#E0EFFA" transform="translate(107.688592, 22.047945) rotate(45.000000) translate(-107.688592, -22.047945) "></path>
            </g>
            <g id="Group-8" transform="translate(555.000000, 7.000000)">
                <path d="M0.325764542,19.7807057 C12.9915508,7.01893083 30.3829626,0.556802144 52.5,0.394319595 C75.8749197,0.222596029 93.9713985,7.38767082 106.789437,21.889544" id="Line-2" stroke="#E0EFFA" stroke-width="2" stroke-linecap="square" stroke-dasharray="5,5"></path>
                <path d="M104.264844,17.2872098 L111.630135,21.745932 L111.630135,21.745932 C111.866364,21.8889376 111.941936,22.1963678 111.798931,22.4325965 C111.754896,22.5053375 111.693037,22.5656466 111.619202,22.6078224 L104.25391,26.8150261 L104.25391,26.8150261 C104.01413,26.9519934 103.708716,26.8686471 103.571748,26.6288668 C103.528603,26.5533343 103.505909,26.4678524 103.505909,26.3808656 L103.505909,17.7149397 L103.505909,17.7149397 C103.505909,17.4387973 103.729767,17.2149397 104.005909,17.2149397 C104.0972,17.2149397 104.186748,17.2399332 104.264844,17.2872098 Z" id="Rectangle-18" fill="#E0EFFA" transform="translate(107.688592, 22.047945) rotate(45.000000) translate(-107.688592, -22.047945) "></path>
            </g>
            <g id="Group-8" transform="translate(397.500000, 79.500000) scale(1, -1) translate(-397.500000, -79.500000) translate(340.000000, 65.000000)">
                <path d="M0.325764542,19.7807057 C12.9915508,7.01893083 30.3829626,0.556802144 52.5,0.394319595 C75.8749197,0.222596029 93.9713985,7.38767082 106.789437,21.889544" id="Line-2" stroke="#E0EFFA" stroke-width="2" stroke-linecap="square" stroke-dasharray="5,5"></path>
                <path d="M104.264844,17.2872098 L111.630135,21.745932 L111.630135,21.745932 C111.866364,21.8889376 111.941936,22.1963678 111.798931,22.4325965 C111.754896,22.5053375 111.693037,22.5656466 111.619202,22.6078224 L104.25391,26.8150261 L104.25391,26.8150261 C104.01413,26.9519934 103.708716,26.8686471 103.571748,26.6288668 C103.528603,26.5533343 103.505909,26.4678524 103.505909,26.3808656 L103.505909,17.7149397 L103.505909,17.7149397 C103.505909,17.4387973 103.729767,17.2149397 104.005909,17.2149397 C104.0972,17.2149397 104.186748,17.2399332 104.264844,17.2872098 Z" id="Rectangle-18" fill="#E0EFFA" transform="translate(107.688592, 22.047945) rotate(45.000000) translate(-107.688592, -22.047945) "></path>
            </g>
            <text id="ONBOARD" font-family="Lato-Heavy, Lato" font-size="12" font-weight="600" fill="#4A4A4A">
                <tspan x="41" y="132">ONBOARD</tspan>
            </text>
            <text id="LEARN-BY-DOING" font-family="Lato-Heavy, Lato" font-size="12" font-weight="600" fill="#4A4A4A">
                <tspan x="239.157" y="132">LEARN BY DOING</tspan>
            </text>
            <text id="UPGRADE" font-family="Lato-Heavy, Lato" font-size="12" font-weight="600" fill="#4A4A4A">
                <tspan x="470.799" y="132">UPGRADE</tspan>
            </text>
            <text id="GRADUATE" font-family="Lato-Heavy, Lato" font-size="12" font-weight="600" fill="#4A4A4A">
                <tspan x="694.225" y="132">GRADUATE</tspan>
            </text>
            <text id="Convenient-signup-vi" font-family="Lato-Light, Lato" font-size="12" font-weight="300" fill="#4A4A4A">
                <tspan x="16.4426561" y="158">Convenient signup via </tspan>
                <tspan x="11.7086561" y="173">bank website and receiv </tspan>
                <tspan x="10.0346561" y="188">personalized card in mail</tspan>
            </text>
            <text id="Teen-manages-money-w" font-family="Lato-Light, Lato" font-size="12" font-weight="300" fill="#4A4A4A">
                <tspan x="224.328524" y="158">Teen manages money with </tspan>
                <tspan x="233.067524" y="173">app along with parent’s </tspan>
                <tspan x="244.170524" y="188">mentor on the way</tspan>
            </text>
            <text id="Gains-more-benefits" font-family="Lato-Light, Lato" font-size="12" font-weight="300" fill="#000000">
                <tspan x="438.088524" y="158">Gains more benefits and </tspan>
                <tspan x="440.548524" y="173">constantly builds credit </tspan>
                <tspan x="442.690524" y="188">score while leveling up</tspan>
            </text>
            <text id="Graduates-to-a-full" font-family="Lato-Light, Lato" font-size="12" font-weight="300" fill="#000000">
                <tspan x="665.94651" y="158">Graduates to a full adult </tspan>
                <tspan x="655.80951" y="173">credit card with confidentce </tspan>
                <tspan x="654.11451" y="188">and feeling of empowerment</tspan>
            </text>
        </g>
    </g>
</svg>