<?xml version="1.0" encoding="UTF-8"?>
<svg width="839px" height="259px" viewBox="0 0 839 259" version="1.1" xmlns="http://www.w3.org/2000/svg" xmlns:xlink="http://www.w3.org/1999/xlink">
    <!-- Generator: Sketch 45.1 (43504) - http://www.bohemiancoding.com/sketch -->
    <title>revised after hard proof</title>
    <desc>Created with Sketch.</desc>
    <defs></defs>
    <g id="visuals" stroke="none" stroke-width="1" fill="none" fill-rule="evenodd">
        <g id="revised-after-hard-proof">
            <path d="M31.9997277,160.170965 L796.040113,160.170965" id="Line" stroke="#CBCBCB" stroke-width="2" stroke-linecap="square"></path>
            <g id="cells/mom" transform="translate(96.000000, 189.000000)" fill="#4A4A4A">
                <text id="Convenient-signup-vi" font-family="Lato-Regular, Lato" font-size="8" font-weight="normal">
                    <tspan x="0" y="27">Convenient signup via </tspan>
                    <tspan x="0" y="37">bank website</tspan>
                </text>
                <g id="text/mom" font-size="10" font-family="Lato-Black, Lato" font-weight="700">
                    <text id="Signup">
                        <tspan x="0" y="14">Signup</tspan>
                    </text>
                </g>
            </g>
            <g id="cells/teen" transform="translate(73.000000, 89.000000)" fill="#4A4A4A">
                <text id="Convenient-signup-vi" font-family="Lato-Regular, Lato" font-size="8" font-weight="normal">
                    <tspan x="0" y="27">Personalized </tspan>
                    <tspan x="0" y="37">card design</tspan>
                </text>
                <g id="text/teen" font-size="10" font-family="Lato-Black, Lato" font-weight="700">
                    <text id="Signup">
                        <tspan x="0" y="14">Receive Card</tspan>
                    </text>
                </g>
            </g>
            <g id="Group-9" transform="translate(29.000000, 24.000000)">
                <polygon id="Rectangle-11" fill="#304D6D" points="0 0.0972742512 154.631644 0.0972742512 170.618313 15.37815 154.631644 30.6590258 0 30.6590258 13.9824822 15.37815"></polygon>
                <text id="ONBOARD" font-family="Futura-Bold, Futura" font-size="10" font-weight="bold" fill="#FFFFFF">
                    <tspan x="56" y="20.0972743">ONBOARD</tspan>
                </text>
            </g>
            <g id="Group-7" transform="translate(435.666667, 24.000000)">
                <polygon id="Rectangle-11" fill="#304D6D" points="0 0 154.631644 4.54747351e-13 170.618313 15.2808758 154.631644 30.5617515 0 30.5617515 13.9824822 15.2808758"></polygon>
                <text id="UPGRADE" font-family="Futura-Bold, Futura" font-size="10" font-weight="bold" fill="#FFFFFF">
                    <tspan x="59" y="20">UPGRADE</tspan>
                </text>
            </g>
            <g id="Group-7" transform="translate(626.000000, 24.000000)">
                <polygon id="Rectangle-11" fill="#304D6D" points="0 0 154.631644 4.54747351e-13 170.618313 15.2808758 154.631644 30.5617515 0 30.5617515 13.9824822 15.2808758"></polygon>
                <text id="GRADUATION" font-family="Futura-Bold, Futura" font-size="10" font-weight="bold" fill="#FFFFFF">
                    <tspan x="47" y="20">GRADUATION</tspan>
                </text>
            </g>
            <g id="Group-5" transform="translate(219.333333, 24.000000)">
                <polygon id="Rectangle-11" fill="#304D6D" points="0 0 180.677731 4.54747351e-13 196.6644 15.2808758 180.677731 30.5617515 0 30.5617515 13.9824822 15.2808758"></polygon>
                <text id="LEARN-BY-DOING" font-family="Futura-Bold, Futura" font-size="10" font-weight="bold" fill="#FFFFFF">
                    <tspan x="51" y="20">LEARN BY DOING</tspan>
                </text>
            </g>
            <g id="Group-3" transform="translate(39.000000, 156.000000)">
                <g id="Group-10" transform="translate(4.000000, 36.000000)">
                    <circle id="Oval" fill="#75B9ED" cx="20.1269265" cy="20.1269265" r="20.1269265"></circle>
                    <path d="M28.7128078,12.6931449 L28.0652194,12.0456456 C27.3391153,11.3195414 26.1576818,11.3196305 25.4314886,12.0456456 L20.2910862,17.186048 L11.3749332,17.186048 C11.0709795,17.186048 10.8245655,17.432462 10.8245655,17.7364157 C10.8245655,18.0403694 11.0709795,18.2867834 11.3749332,18.2867834 L19.1903507,18.2867834 L15.8778568,21.5992774 L11.3749332,21.5992774 C11.0709795,21.5992774 10.8245655,21.8456914 10.8245655,22.1496451 C10.8245655,22.4535988 11.0709795,22.7000128 11.3749332,22.7000128 L14.7770768,22.7000128 C14.701055,22.7760346 14.6525115,22.8593602 14.6270818,22.9508358 L13.7769912,26.0125067 L11.3749332,26.0125067 C11.0709795,26.0125067 10.8245655,26.2589208 10.8245655,26.5628745 C10.8245655,26.8668281 11.0709795,27.1132422 11.3749332,27.1132422 L14.1954453,27.1132422 C14.1954898,27.1132422 14.3160915,27.0996144 14.3338166,27.0949827 C14.3367114,27.0942256 17.8074394,26.1311489 17.8074394,26.1311489 C17.898915,26.1057637 17.9822851,26.0571312 18.0493999,25.9900164 L28.7128523,15.3266976 C29.4388674,14.6006825 29.4388674,13.419249 28.7128078,12.6931449 Z M14.9860812,25.7721495 L15.4353091,24.1543588 L16.6039164,25.3229661 L14.9860812,25.7721495 Z M17.6602501,24.8226116 L15.9357973,23.0981587 L24.7381179,14.2958381 L26.4626153,16.0202909 L17.6602501,24.8226116 Z M27.9344191,14.548398 L27.2409594,15.2418578 L25.516462,13.5173604 L26.2099218,12.8239006 C26.5069279,12.526939 26.9900473,12.5269835 27.2868308,12.8239006 L27.9344191,13.471489 C28.2313362,13.7684061 28.2313362,14.2515254 27.9344191,14.548398 Z" id="Shape" fill="#FFFFFF" fill-rule="nonzero"></path>
                </g>
                <path d="M24,80.0978104 C24,64.1637337 24,54.8110479 24,52.039753 C37.254834,52.039753 48,41.294587 48,28.039753 C48,14.784919 37.254834,4.03975304 24,4.03975304 C10.745166,4.03975304 0,14.784919 0,28.039753" id="Oval-6" stroke="#7ABAEF" stroke-width="2" transform="translate(24.000000, 42.068782) rotate(-180.000000) translate(-24.000000, -42.068782) "></path>
                <circle id="Oval-2" fill="#80BCEA" cx="24" cy="4" r="4"></circle>
            </g>
            <g id="Group-4" transform="translate(138.000000, 89.000000)">
                <g id="Group-3" transform="translate(24.000000, 35.500000) scale(-1, -1) translate(-24.000000, -35.500000) ">
                    <g id="Group-10" transform="translate(14.000000, 37.000000)" fill-rule="nonzero" fill="#FFFFFF">
                        <path d="M18.7128078,1.69314486 L18.0652194,1.04564557 C17.3391153,0.319541404 16.1576818,0.319630474 15.4314886,1.04564557 L10.2910862,6.18604797 L1.37493322,6.18604797 C1.07097953,6.18604797 0.824565502,6.432462 0.824565502,6.73641568 C0.824565502,7.04036937 1.07097953,7.2867834 1.37493322,7.2867834 L9.19035074,7.2867834 L5.87785678,10.5992774 L1.37493322,10.5992774 C1.07097953,10.5992774 0.824565502,10.8456914 0.824565502,11.1496451 C0.824565502,11.4535988 1.07097953,11.7000128 1.37493322,11.7000128 L4.77707681,11.7000128 C4.70105499,11.7760346 4.65251147,11.8593602 4.62708179,11.9508358 L3.77699125,15.0125067 L1.37493322,15.0125067 C1.07097953,15.0125067 0.824565502,15.2589208 0.824565502,15.5628745 C0.824565502,15.8668281 1.07097953,16.1132422 1.37493322,16.1132422 L4.19544529,16.1132422 C4.19548982,16.1132422 4.31609152,16.0996144 4.33381659,16.0949827 C4.33671138,16.0942256 7.8074394,15.1311489 7.8074394,15.1311489 C7.89891499,15.1057637 7.98228514,15.0571312 8.0493999,14.9900164 L18.7128523,4.32669758 C19.4388674,3.60068248 19.4388674,2.41924902 18.7128078,1.69314486 Z M4.98608116,14.7721495 L5.43530912,13.1543588 L6.60391641,14.3229661 L4.98608116,14.7721495 Z M7.66025011,13.8226116 L5.93579726,12.0981587 L14.7381179,3.29583809 L16.4626153,5.02029094 L7.66025011,13.8226116 Z M17.9344191,3.548398 L17.2409594,4.24185776 L15.516462,2.51736037 L16.2099218,1.82390061 C16.5069279,1.52693897 16.9900473,1.52698351 17.2868308,1.82390061 L17.9344191,2.47148897 C18.2313362,2.76840607 18.2313362,3.25152543 17.9344191,3.548398 Z" id="Shape"></path>
                    </g>
                    <path d="M24,70.0978104 C24,58.5537353 24,51.3960503 24,48.6247555 C37.254834,48.6247555 48,37.8795895 48,24.6247555 C48,11.3699215 37.254834,0.624755497 24,0.624755497 C10.745166,0.624755497 0,11.3699215 0,24.6247555" id="Oval-6" stroke="#FFC13A" stroke-width="2" transform="translate(24.000000, 35.361283) rotate(-180.000000) translate(-24.000000, -35.361283) "></path>
                </g>
                <g id="Group-25" transform="translate(5.000000, 6.000000)">
                    <circle id="Oval" fill="#FEB61A" cx="18.9111748" cy="18.9111748" r="18.9111748"></circle>
                    <g id="mailbox" transform="translate(9.535046, 7.427488)" fill-rule="nonzero" fill="#FFFFFF">
                        <path d="M13.6712566,3.77725248 C13.6712079,3.77725248 13.6711593,3.77725248 13.6711106,3.77725248 L13.6712566,3.77725248 L7.98392394,3.77720383 L7.98392394,1.22331141 C7.98392394,0.548802035 7.4351219,0 6.76061253,0 L4.4427619,0 C3.72086904,0 3.13358616,0.58728288 3.13358616,1.30917574 C3.13358616,2.03106861 3.72086904,2.61835149 4.4427619,2.61835149 L5.04366632,2.61835149 C5.31585384,2.61835149 5.53725248,2.83979878 5.53725248,3.11193764 L5.53725248,3.77715518 L5.04376362,3.77715518 C2.26263475,3.77715518 0,6.03974128 0,8.82087015 L0,13.4991874 L0,15.1219017 C0,15.3234032 0.163361159,15.4867643 0.364862624,15.4867643 L7.21158274,15.4867643 L7.21158274,21.2338858 C7.21158274,21.4353873 7.3749439,21.5987484 7.57644536,21.5987484 L9.34880204,21.5987484 C9.55030351,21.5987484 9.71366467,21.4353873 9.71366467,21.2338858 L9.71366467,15.486813 L18.3499143,15.486813 C18.5514158,15.486813 18.714777,15.3234518 18.714777,15.1219504 L18.714777,13.4994306 L18.714777,13.4992847 L18.714777,8.8208215 C18.714777,6.03974128 16.4522395,3.77725248 13.6712566,3.77725248 Z M17.9850517,8.82077285 L17.9850517,13.1343734 L16.3856399,13.1343734 L16.3856399,7.22408536 C16.3856399,7.0225839 16.2222787,6.85922274 16.0207773,6.85922274 L9.82978828,6.85922274 C10.5451136,5.46398806 11.9985317,4.50697773 13.6712566,4.50697773 C16.049869,4.50697773 17.9850517,6.44211179 17.9850517,8.82077285 Z M9.35746145,8.82077285 C9.35746145,8.39286197 9.42041241,7.97944829 9.53697386,7.58894799 L15.1473448,7.58894799 L11.0221107,11.7639494 L9.38329372,10.105819 L9.35746145,10.0795976 L9.35746145,8.82077285 L9.35746145,8.82077285 Z M13.4336094,10.3615634 L15.6559147,8.11245288 L15.6559147,12.6106739 L13.4336094,10.3615634 Z M12.9206612,10.8806899 L15.1474908,13.1343734 L9.35746145,13.1343734 L9.35746145,11.1175101 L10.7626204,12.5395014 C10.8311659,12.6088739 10.924668,12.6478899 11.0221593,12.6478899 C11.1196506,12.6478899 11.2131528,12.6088253 11.2816496,12.5394527 L12.9206612,10.8806899 Z M5.04366632,1.88862624 L4.4427619,1.88862624 C4.12323954,1.88862624 3.86331141,1.62869811 3.86331141,1.30917574 C3.86331141,0.989653381 4.12323954,0.729725248 4.4427619,0.729725248 L6.76061253,0.729725248 C7.03280005,0.729725248 7.25419869,0.951172537 7.25419869,1.22331141 L7.25419869,8.94954504 C7.25419869,9.22173255 7.0327514,9.44313119 6.76061253,9.44313119 C6.48847366,9.44313119 6.26702638,9.22173255 6.26702638,8.94954504 L6.26702638,3.11198629 C6.26697773,2.43742827 5.71817569,1.88862624 5.04366632,1.88862624 Z M0.729725248,8.8209188 C0.729725248,6.44216044 2.66500525,4.50692908 5.04376362,4.50692908 L5.53730113,4.50692908 L5.53730113,8.94954504 C5.53730113,9.62410306 6.08610316,10.1728564 6.76061253,10.1728564 C7.4351219,10.1728564 7.98392394,9.62410306 7.98392394,8.94954504 L7.98392394,4.50692908 L11.0605429,4.50692908 C9.60328156,5.39213445 8.6277362,6.99465974 8.6277362,8.82077285 L8.6277362,13.1343734 L0.729725248,13.1343734 L0.729725248,8.8209188 Z M8.98393942,20.8691205 L7.94130798,20.8691205 L7.94130798,15.486813 L8.98393942,15.486813 L8.98393942,20.8691205 Z M0.729725248,14.7570877 L0.729725248,13.8640986 L17.9850517,13.8642446 L17.9850517,14.7570877 L0.729725248,14.7570877 Z" id="Shape"></path>
                    </g>
                </g>
                <circle id="Oval-2" fill="#FEB61A" cx="24" cy="71" r="4"></circle>
            </g>
            <g id="cells/mom" transform="translate(695.000000, 189.000000)" fill="#4A4A4A">
                <text id="Convenient-signup-vi" font-family="Lato-Regular, Lato" font-size="8" font-weight="normal">
                    <tspan x="0" y="27">Advise Alex on his </tspan>
                    <tspan x="0" y="37">upgrade options</tspan>
                </text>
                <g id="text/mom" font-size="10" font-family="Lato-Black, Lato" font-weight="700">
                    <text id="Signup">
                        <tspan x="0" y="14">Offboarding</tspan>
                    </text>
                </g>
            </g>
            <g id="cells/teen" transform="translate(672.000000, 89.000000)" fill="#4A4A4A">
                <text id="Convenient-signup-vi" font-family="Lato-Regular, Lato" font-size="8" font-weight="normal">
                    <tspan x="0" y="27">Upgrade to a full </tspan>
                    <tspan x="0" y="37">adult credit card</tspan>
                </text>
                <g id="text/teen" font-size="10" font-family="Lato-Black, Lato" font-weight="700">
                    <text id="Signup">
                        <tspan x="0" y="14">Graduation</tspan>
                    </text>
                </g>
            </g>
            <g id="Group-3" transform="translate(638.000000, 156.000000)">
                <g id="Group-10" transform="translate(4.000000, 36.000000)" fill="#75B9ED">
                    <circle id="Oval" cx="20.1269265" cy="20.1269265" r="20.1269265"></circle>
                </g>
                <path d="M24,80.0978104 C24,64.1637337 24,54.8110479 24,52.039753 C37.254834,52.039753 48,41.294587 48,28.039753 C48,14.784919 37.254834,4.03975304 24,4.03975304 C10.745166,4.03975304 0,14.784919 0,28.039753" id="Oval-6" stroke="#7ABAEF" stroke-width="2" transform="translate(24.000000, 42.068782) rotate(-180.000000) translate(-24.000000, -42.068782) "></path>
                <circle id="Oval-2" fill="#80BCEA" cx="24" cy="4" r="4"></circle>
            </g>
            <g id="Group-4" transform="translate(737.000000, 89.000000)">
                <g id="Group-3" transform="translate(24.000000, 35.500000) scale(-1, -1) translate(-24.000000, -35.500000) ">
                    <g id="Group-10" transform="translate(14.000000, 37.000000)" fill-rule="nonzero" fill="#FFFFFF">
                        <path d="M18.7128078,1.69314486 L18.0652194,1.04564557 C17.3391153,0.319541404 16.1576818,0.319630474 15.4314886,1.04564557 L10.2910862,6.18604797 L1.37493322,6.18604797 C1.07097953,6.18604797 0.824565502,6.432462 0.824565502,6.73641568 C0.824565502,7.04036937 1.07097953,7.2867834 1.37493322,7.2867834 L9.19035074,7.2867834 L5.87785678,10.5992774 L1.37493322,10.5992774 C1.07097953,10.5992774 0.824565502,10.8456914 0.824565502,11.1496451 C0.824565502,11.4535988 1.07097953,11.7000128 1.37493322,11.7000128 L4.77707681,11.7000128 C4.70105499,11.7760346 4.65251147,11.8593602 4.62708179,11.9508358 L3.77699125,15.0125067 L1.37493322,15.0125067 C1.07097953,15.0125067 0.824565502,15.2589208 0.824565502,15.5628745 C0.824565502,15.8668281 1.07097953,16.1132422 1.37493322,16.1132422 L4.19544529,16.1132422 C4.19548982,16.1132422 4.31609152,16.0996144 4.33381659,16.0949827 C4.33671138,16.0942256 7.8074394,15.1311489 7.8074394,15.1311489 C7.89891499,15.1057637 7.98228514,15.0571312 8.0493999,14.9900164 L18.7128523,4.32669758 C19.4388674,3.60068248 19.4388674,2.41924902 18.7128078,1.69314486 Z M4.98608116,14.7721495 L5.43530912,13.1543588 L6.60391641,14.3229661 L4.98608116,14.7721495 Z M7.66025011,13.8226116 L5.93579726,12.0981587 L14.7381179,3.29583809 L16.4626153,5.02029094 L7.66025011,13.8226116 Z M17.9344191,3.548398 L17.2409594,4.24185776 L15.516462,2.51736037 L16.2099218,1.82390061 C16.5069279,1.52693897 16.9900473,1.52698351 17.2868308,1.82390061 L17.9344191,2.47148897 C18.2313362,2.76840607 18.2313362,3.25152543 17.9344191,3.548398 Z" id="Shape"></path>
                    </g>
                    <path d="M24,70.0978104 C24,58.5537353 24,51.3960503 24,48.6247555 C37.254834,48.6247555 48,37.8795895 48,24.6247555 C48,11.3699215 37.254834,0.624755497 24,0.624755497 C10.745166,0.624755497 0,11.3699215 0,24.6247555" id="Oval-6" stroke="#FFC13A" stroke-width="2" transform="translate(24.000000, 35.361283) rotate(-180.000000) translate(-24.000000, -35.361283) "></path>
                </g>
                <g id="Group-25" transform="translate(5.000000, 6.000000)">
                    <circle id="Oval" fill="#FEB61A" cx="18.9111748" cy="18.9111748" r="18.9111748"></circle>
                    <g id="mailbox" transform="translate(9.535046, 7.427488)" fill-rule="nonzero" fill="#FFFFFF">
                        <path d="M13.6712566,3.77725248 C13.6712079,3.77725248 13.6711593,3.77725248 13.6711106,3.77725248 L13.6712566,3.77725248 L7.98392394,3.77720383 L7.98392394,1.22331141 C7.98392394,0.548802035 7.4351219,0 6.76061253,0 L4.4427619,0 C3.72086904,0 3.13358616,0.58728288 3.13358616,1.30917574 C3.13358616,2.03106861 3.72086904,2.61835149 4.4427619,2.61835149 L5.04366632,2.61835149 C5.31585384,2.61835149 5.53725248,2.83979878 5.53725248,3.11193764 L5.53725248,3.77715518 L5.04376362,3.77715518 C2.26263475,3.77715518 0,6.03974128 0,8.82087015 L0,13.4991874 L0,15.1219017 C0,15.3234032 0.163361159,15.4867643 0.364862624,15.4867643 L7.21158274,15.4867643 L7.21158274,21.2338858 C7.21158274,21.4353873 7.3749439,21.5987484 7.57644536,21.5987484 L9.34880204,21.5987484 C9.55030351,21.5987484 9.71366467,21.4353873 9.71366467,21.2338858 L9.71366467,15.486813 L18.3499143,15.486813 C18.5514158,15.486813 18.714777,15.3234518 18.714777,15.1219504 L18.714777,13.4994306 L18.714777,13.4992847 L18.714777,8.8208215 C18.714777,6.03974128 16.4522395,3.77725248 13.6712566,3.77725248 Z M17.9850517,8.82077285 L17.9850517,13.1343734 L16.3856399,13.1343734 L16.3856399,7.22408536 C16.3856399,7.0225839 16.2222787,6.85922274 16.0207773,6.85922274 L9.82978828,6.85922274 C10.5451136,5.46398806 11.9985317,4.50697773 13.6712566,4.50697773 C16.049869,4.50697773 17.9850517,6.44211179 17.9850517,8.82077285 Z M9.35746145,8.82077285 C9.35746145,8.39286197 9.42041241,7.97944829 9.53697386,7.58894799 L15.1473448,7.58894799 L11.0221107,11.7639494 L9.38329372,10.105819 L9.35746145,10.0795976 L9.35746145,8.82077285 L9.35746145,8.82077285 Z M13.4336094,10.3615634 L15.6559147,8.11245288 L15.6559147,12.6106739 L13.4336094,10.3615634 Z M12.9206612,10.8806899 L15.1474908,13.1343734 L9.35746145,13.1343734 L9.35746145,11.1175101 L10.7626204,12.5395014 C10.8311659,12.6088739 10.924668,12.6478899 11.0221593,12.6478899 C11.1196506,12.6478899 11.2131528,12.6088253 11.2816496,12.5394527 L12.9206612,10.8806899 Z M5.04366632,1.88862624 L4.4427619,1.88862624 C4.12323954,1.88862624 3.86331141,1.62869811 3.86331141,1.30917574 C3.86331141,0.989653381 4.12323954,0.729725248 4.4427619,0.729725248 L6.76061253,0.729725248 C7.03280005,0.729725248 7.25419869,0.951172537 7.25419869,1.22331141 L7.25419869,8.94954504 C7.25419869,9.22173255 7.0327514,9.44313119 6.76061253,9.44313119 C6.48847366,9.44313119 6.26702638,9.22173255 6.26702638,8.94954504 L6.26702638,3.11198629 C6.26697773,2.43742827 5.71817569,1.88862624 5.04366632,1.88862624 Z M0.729725248,8.8209188 C0.729725248,6.44216044 2.66500525,4.50692908 5.04376362,4.50692908 L5.53730113,4.50692908 L5.53730113,8.94954504 C5.53730113,9.62410306 6.08610316,10.1728564 6.76061253,10.1728564 C7.4351219,10.1728564 7.98392394,9.62410306 7.98392394,8.94954504 L7.98392394,4.50692908 L11.0605429,4.50692908 C9.60328156,5.39213445 8.6277362,6.99465974 8.6277362,8.82077285 L8.6277362,13.1343734 L0.729725248,13.1343734 L0.729725248,8.8209188 Z M8.98393942,20.8691205 L7.94130798,20.8691205 L7.94130798,15.486813 L8.98393942,15.486813 L8.98393942,20.8691205 Z M0.729725248,14.7570877 L0.729725248,13.8640986 L17.9850517,13.8642446 L17.9850517,14.7570877 L0.729725248,14.7570877 Z" id="Shape"></path>
                    </g>
                </g>
                <circle id="Oval-2" fill="#FEB61A" cx="24" cy="71" r="4"></circle>
            </g>
            <g id="cells/teen" transform="translate(458.000000, 89.000000)" fill="#4A4A4A">
                <text id="Convenient-signup-vi" font-family="Lato-Regular, Lato" font-size="8" font-weight="normal">
                    <tspan x="0" y="27">Earn credit from </tspan>
                    <tspan x="0" y="37">a young age</tspan>
                </text>
                <g id="text/teen" font-size="10" font-family="Lato-Black, Lato" font-weight="700">
                    <text id="Signup">
                        <tspan x="0" y="14">Credit Score</tspan>
                    </text>
                </g>
            </g>
            <g id="Group-4" transform="translate(523.000000, 89.000000)">
                <g id="Group-3" transform="translate(24.000000, 35.500000) scale(-1, -1) translate(-24.000000, -35.500000) ">
                    <g id="Group-10" transform="translate(14.000000, 37.000000)" fill-rule="nonzero" fill="#FFFFFF">
                        <path d="M18.7128078,1.69314486 L18.0652194,1.04564557 C17.3391153,0.319541404 16.1576818,0.319630474 15.4314886,1.04564557 L10.2910862,6.18604797 L1.37493322,6.18604797 C1.07097953,6.18604797 0.824565502,6.432462 0.824565502,6.73641568 C0.824565502,7.04036937 1.07097953,7.2867834 1.37493322,7.2867834 L9.19035074,7.2867834 L5.87785678,10.5992774 L1.37493322,10.5992774 C1.07097953,10.5992774 0.824565502,10.8456914 0.824565502,11.1496451 C0.824565502,11.4535988 1.07097953,11.7000128 1.37493322,11.7000128 L4.77707681,11.7000128 C4.70105499,11.7760346 4.65251147,11.8593602 4.62708179,11.9508358 L3.77699125,15.0125067 L1.37493322,15.0125067 C1.07097953,15.0125067 0.824565502,15.2589208 0.824565502,15.5628745 C0.824565502,15.8668281 1.07097953,16.1132422 1.37493322,16.1132422 L4.19544529,16.1132422 C4.19548982,16.1132422 4.31609152,16.0996144 4.33381659,16.0949827 C4.33671138,16.0942256 7.8074394,15.1311489 7.8074394,15.1311489 C7.89891499,15.1057637 7.98228514,15.0571312 8.0493999,14.9900164 L18.7128523,4.32669758 C19.4388674,3.60068248 19.4388674,2.41924902 18.7128078,1.69314486 Z M4.98608116,14.7721495 L5.43530912,13.1543588 L6.60391641,14.3229661 L4.98608116,14.7721495 Z M7.66025011,13.8226116 L5.93579726,12.0981587 L14.7381179,3.29583809 L16.4626153,5.02029094 L7.66025011,13.8226116 Z M17.9344191,3.548398 L17.2409594,4.24185776 L15.516462,2.51736037 L16.2099218,1.82390061 C16.5069279,1.52693897 16.9900473,1.52698351 17.2868308,1.82390061 L17.9344191,2.47148897 C18.2313362,2.76840607 18.2313362,3.25152543 17.9344191,3.548398 Z" id="Shape"></path>
                    </g>
                    <path d="M24,70.0978104 C24,58.5537353 24,51.3960503 24,48.6247555 C37.254834,48.6247555 48,37.8795895 48,24.6247555 C48,11.3699215 37.254834,0.624755497 24,0.624755497 C10.745166,0.624755497 0,11.3699215 0,24.6247555" id="Oval-6" stroke="#FFC13A" stroke-width="2" transform="translate(24.000000, 35.361283) rotate(-180.000000) translate(-24.000000, -35.361283) "></path>
                </g>
                <g id="Group-25" transform="translate(5.000000, 6.000000)">
                    <circle id="Oval" fill="#FEB61A" cx="18.9111748" cy="18.9111748" r="18.9111748"></circle>
                    <g id="mailbox" transform="translate(9.535046, 7.427488)" fill-rule="nonzero" fill="#FFFFFF">
                        <path d="M13.6712566,3.77725248 C13.6712079,3.77725248 13.6711593,3.77725248 13.6711106,3.77725248 L13.6712566,3.77725248 L7.98392394,3.77720383 L7.98392394,1.22331141 C7.98392394,0.548802035 7.4351219,0 6.76061253,0 L4.4427619,0 C3.72086904,0 3.13358616,0.58728288 3.13358616,1.30917574 C3.13358616,2.03106861 3.72086904,2.61835149 4.4427619,2.61835149 L5.04366632,2.61835149 C5.31585384,2.61835149 5.53725248,2.83979878 5.53725248,3.11193764 L5.53725248,3.77715518 L5.04376362,3.77715518 C2.26263475,3.77715518 0,6.03974128 0,8.82087015 L0,13.4991874 L0,15.1219017 C0,15.3234032 0.163361159,15.4867643 0.364862624,15.4867643 L7.21158274,15.4867643 L7.21158274,21.2338858 C7.21158274,21.4353873 7.3749439,21.5987484 7.57644536,21.5987484 L9.34880204,21.5987484 C9.55030351,21.5987484 9.71366467,21.4353873 9.71366467,21.2338858 L9.71366467,15.486813 L18.3499143,15.486813 C18.5514158,15.486813 18.714777,15.3234518 18.714777,15.1219504 L18.714777,13.4994306 L18.714777,13.4992847 L18.714777,8.8208215 C18.714777,6.03974128 16.4522395,3.77725248 13.6712566,3.77725248 Z M17.9850517,8.82077285 L17.9850517,13.1343734 L16.3856399,13.1343734 L16.3856399,7.22408536 C16.3856399,7.0225839 16.2222787,6.85922274 16.0207773,6.85922274 L9.82978828,6.85922274 C10.5451136,5.46398806 11.9985317,4.50697773 13.6712566,4.50697773 C16.049869,4.50697773 17.9850517,6.44211179 17.9850517,8.82077285 Z M9.35746145,8.82077285 C9.35746145,8.39286197 9.42041241,7.97944829 9.53697386,7.58894799 L15.1473448,7.58894799 L11.0221107,11.7639494 L9.38329372,10.105819 L9.35746145,10.0795976 L9.35746145,8.82077285 L9.35746145,8.82077285 Z M13.4336094,10.3615634 L15.6559147,8.11245288 L15.6559147,12.6106739 L13.4336094,10.3615634 Z M12.9206612,10.8806899 L15.1474908,13.1343734 L9.35746145,13.1343734 L9.35746145,11.1175101 L10.7626204,12.5395014 C10.8311659,12.6088739 10.924668,12.6478899 11.0221593,12.6478899 C11.1196506,12.6478899 11.2131528,12.6088253 11.2816496,12.5394527 L12.9206612,10.8806899 Z M5.04366632,1.88862624 L4.4427619,1.88862624 C4.12323954,1.88862624 3.86331141,1.62869811 3.86331141,1.30917574 C3.86331141,0.989653381 4.12323954,0.729725248 4.4427619,0.729725248 L6.76061253,0.729725248 C7.03280005,0.729725248 7.25419869,0.951172537 7.25419869,1.22331141 L7.25419869,8.94954504 C7.25419869,9.22173255 7.0327514,9.44313119 6.76061253,9.44313119 C6.48847366,9.44313119 6.26702638,9.22173255 6.26702638,8.94954504 L6.26702638,3.11198629 C6.26697773,2.43742827 5.71817569,1.88862624 5.04366632,1.88862624 Z M0.729725248,8.8209188 C0.729725248,6.44216044 2.66500525,4.50692908 5.04376362,4.50692908 L5.53730113,4.50692908 L5.53730113,8.94954504 C5.53730113,9.62410306 6.08610316,10.1728564 6.76061253,10.1728564 C7.4351219,10.1728564 7.98392394,9.62410306 7.98392394,8.94954504 L7.98392394,4.50692908 L11.0605429,4.50692908 C9.60328156,5.39213445 8.6277362,6.99465974 8.6277362,8.82077285 L8.6277362,13.1343734 L0.729725248,13.1343734 L0.729725248,8.8209188 Z M8.98393942,20.8691205 L7.94130798,20.8691205 L7.94130798,15.486813 L8.98393942,15.486813 L8.98393942,20.8691205 Z M0.729725248,14.7570877 L0.729725248,13.8640986 L17.9850517,13.8642446 L17.9850517,14.7570877 L0.729725248,14.7570877 Z" id="Shape"></path>
                    </g>
                </g>
                <circle id="Oval-2" fill="#FEB61A" cx="24" cy="71" r="4"></circle>
            </g>
            <g id="cells/mom" transform="translate(282.000000, 189.000000)" fill="#4A4A4A">
                <text id="Convenient-signup-vi" font-family="Lato-Regular, Lato" font-size="8" font-weight="normal">
                    <tspan x="0" y="27">Constantly monitor and </tspan>
                    <tspan x="0" y="37">mentor kids</tspan>
                </text>
                <g id="text/mom" font-size="10" font-family="Lato-Black, Lato" font-weight="700">
                    <text id="Signup">
                        <tspan x="0" y="14">Ohana PARENT App</tspan>
                    </text>
                </g>
            </g>
            <g id="Group-26" transform="translate(742.000000, 95.000000)">
                <circle id="Oval" fill="#FEB61A" cx="18.75" cy="18.75" r="18.75"></circle>
                <g id="1497911923_education-school-learn-study-04" transform="translate(7.878151, 10.084034)" fill-rule="nonzero" fill="#FFFFFF">
                    <path d="M21.3182985,3.7193814 L10.9916429,0.0290043948 C10.8834337,-0.0096681316 10.7650505,-0.0096681316 10.6568412,0.0290043948 L0.330240952,3.7193814 C0.13041051,3.79080663 -0.00223842002,3.98123701 2.86104563e-05,4.19357629 C0.00224034751,4.40591557 0.138870404,4.59352435 0.340193769,4.66068951 L4.52269912,6.05605401 L4.52269912,10.9191657 C4.52269912,11.1411316 4.66950316,11.33632 4.88276991,11.397676 L10.6866997,13.0686721 C10.7316532,13.081563 10.7779338,13.0880914 10.8242697,13.0880914 C10.8706056,13.0880914 10.9169415,13.0816183 10.9618398,13.0686721 L12.7893428,12.5425266 C13.0534795,12.466454 13.2059788,12.1906011 13.1300056,11.9263112 C13.0539771,11.6620212 12.77845,11.5093228 12.5141474,11.5854507 L10.8242697,12.0719832 L5.51798079,10.5442801 L5.51798079,6.38806235 L10.6668493,8.10580856 C10.7690316,8.13988907 10.8795079,8.1399444 10.9816348,8.10580856 L11.9061409,7.79742421 C11.9062515,7.79742421 11.9063068,7.79736888 11.9064174,7.79731356 L12.6851147,7.53756032 C12.9458232,7.45058863 13.0867661,7.16859454 12.9997896,6.90767947 C12.912813,6.64681973 12.6310377,6.5057397 12.3702739,6.59282204 L10.8242697,7.10856637 L6.19698406,5.56481887 L2.02238568,4.17210999 L10.8242697,1.02663386 L19.6261538,4.17210999 L16.4708897,5.22478833 L16.4708344,5.22478833 L16.0814028,5.35469261 L15.7603692,5.46180279 L15.7603139,5.46180279 L15.2625625,5.62783462 C15.0017987,5.71480631 14.860911,5.9968004 14.9478876,6.25771547 C15.0348088,6.51857521 15.3165289,6.65937862 15.5774032,6.5725729 L16.130614,6.38800703 L16.130614,10.5442248 L15.5103323,10.7228155 C15.2461956,10.7988881 15.0936963,11.074741 15.1696695,11.3390309 C15.2324828,11.5573454 15.4314286,11.6994213 15.6477365,11.6994213 C15.693243,11.6994213 15.7395789,11.6931695 15.7855277,11.6798914 L16.7658249,11.3976206 C16.9790363,11.3362647 17.1258956,11.141021 17.1258956,10.9191104 L17.1258956,6.05599868 L21.308401,4.66063418 C21.5097796,4.59346902 21.6463544,4.40591557 21.6485661,4.19352096 C21.6507779,3.98118168 21.518129,3.79080663 21.3182985,3.7193814 Z" id="Shape"></path>
                    <path d="M14.5246974,6.65683916 C14.5243656,6.64533145 14.5240339,6.63376842 14.522928,6.62226072 C14.5220986,6.61390657 14.520661,6.60577372 14.5194445,6.59753022 C14.5182833,6.58978465 14.5174539,6.5820944 14.515961,6.57445949 C14.5141916,6.56527545 14.5117587,6.55631272 14.5094917,6.54734999 C14.5077776,6.54071093 14.5062847,6.53401654 14.5043494,6.52743281 C14.5016953,6.51858073 14.4985436,6.5100606 14.4954472,6.50142982 C14.4930142,6.49473544 14.4908025,6.48804105 14.4880931,6.48145732 C14.4848861,6.47360109 14.4811815,6.46607683 14.4776427,6.45844191 C14.4742698,6.45130492 14.4710628,6.44405728 14.4673028,6.43703094 C14.463764,6.43028123 14.4597276,6.42386347 14.4559124,6.41739038 C14.4514889,6.40992144 14.447176,6.40239717 14.4423655,6.39509421 C14.438329,6.3890084 14.4338503,6.38319922 14.4294821,6.37722407 C14.4242845,6.3701424 14.4192528,6.36295009 14.4137235,6.35608973 C14.40836,6.34956132 14.4026095,6.34342019 14.3969696,6.33722373 C14.391772,6.33146988 14.3868509,6.32560537 14.3814321,6.32007282 C14.3725852,6.31111009 14.3631853,6.30275594 14.3536748,6.29451244 C14.3510207,6.29218877 14.3486984,6.28969912 14.345989,6.28743078 L14.3447726,6.28637959 C14.3444961,6.28615829 14.3441643,6.28588166 14.3438326,6.28560504 L11.0159424,3.51518049 C10.8047768,3.33930071 10.4909866,3.36806997 10.3150983,3.57946872 C10.1393204,3.79086747 10.1681283,4.10483969 10.3794045,4.28071947 L13.5300239,6.9035909 L13.5300239,15.7311068 C12.9777532,15.8446347 12.5611725,16.334708 12.5611725,16.9203838 L12.5611725,17.5967381 C12.5611725,18.2661767 13.105481,18.8107456 13.7744762,18.8107456 L14.4504936,18.8107456 C15.1195441,18.8107456 15.6637973,18.2661213 15.6637973,17.5967381 L15.6637973,16.9203838 C15.6637973,16.2761183 15.1595765,15.7477598 14.5253056,15.7089213 L14.5253056,6.67260693 L14.5253056,6.67216432 L14.5253056,6.67011728 C14.5253609,6.66569124 14.524808,6.66132052 14.5246974,6.65683916 Z M14.6685156,16.9203838 L14.6685156,17.5967381 C14.6685156,17.7170711 14.5707015,17.8148865 14.4504936,17.8148865 L13.7744762,17.8148865 C13.654213,17.8148865 13.5564542,17.7170157 13.5564542,17.5967381 L13.5564542,16.9203838 C13.5564542,16.8000509 13.6542683,16.7022354 13.7744762,16.7022354 L14.4504936,16.7022354 C14.5707568,16.7022354 14.6685156,16.8000509 14.6685156,16.9203838 Z" id="Shape"></path>
                </g>
            </g>
            <g id="Group-6" transform="translate(528.088825, 95.000000)">
                <circle id="Oval" fill="#FEB61A" cx="18.9111748" cy="18.9111748" r="18.9111748"></circle>
                <path d="M16.1339283,17.2639401 L11.1398701,17.2639401 C10.9309831,17.2639401 10.7616466,17.0946037 10.7616466,16.8857166 C10.7616466,16.7830044 10.8034198,16.6847092 10.8773654,16.6134222 L19.4791261,8.32091691 L28.0808868,16.6134222 C28.2312709,16.7583996 28.2356539,16.9978373 28.0906765,17.1482214 C28.0193894,17.222167 27.9210942,17.2639401 27.8183821,17.2639401 L22.9219496,17.2639401 C22.2725487,21.6521545 20.7488547,24.7334465 18.3508675,26.5078164 C15.2533785,28.7997765 12.2690672,29.7241315 9.39793375,29.2808812 C9.19149233,29.2490104 9.04997485,29.0558203 9.08184561,28.8493788 C9.09767593,28.7468386 9.1549351,28.655304 9.24021565,28.5962082 C12.0294176,26.6634085 13.9417865,24.9939895 14.9773226,23.587951 C16.3273394,21.7549142 16.7128747,19.6469106 16.1339283,17.2639401 Z" id="Rectangle-3" fill="#FFFFFF"></path>
            </g>
            <g id="cells/teen" transform="translate(259.000000, 89.000000)" fill="#4A4A4A">
                <text id="Convenient-signup-vi" font-family="Lato-Regular, Lato" font-size="8" font-weight="normal">
                    <tspan x="0" y="27">Manage money while </tspan>
                    <tspan x="0" y="37">learning</tspan>
                </text>
                <g id="text/teen" font-size="10" font-family="Lato-Black, Lato" font-weight="700">
                    <text id="Signup">
                        <tspan x="0" y="14">Ohana TEEN App</tspan>
                    </text>
                </g>
            </g>
            <g id="Group-3" transform="translate(225.000000, 156.000000)">
                <g id="Group-10" transform="translate(4.000000, 36.000000)">
                    <circle id="Oval" fill="#75B9ED" cx="20.1269265" cy="20.1269265" r="20.1269265"></circle>
                    <path d="M28.7128078,12.6931449 L28.0652194,12.0456456 C27.3391153,11.3195414 26.1576818,11.3196305 25.4314886,12.0456456 L20.2910862,17.186048 L11.3749332,17.186048 C11.0709795,17.186048 10.8245655,17.432462 10.8245655,17.7364157 C10.8245655,18.0403694 11.0709795,18.2867834 11.3749332,18.2867834 L19.1903507,18.2867834 L15.8778568,21.5992774 L11.3749332,21.5992774 C11.0709795,21.5992774 10.8245655,21.8456914 10.8245655,22.1496451 C10.8245655,22.4535988 11.0709795,22.7000128 11.3749332,22.7000128 L14.7770768,22.7000128 C14.701055,22.7760346 14.6525115,22.8593602 14.6270818,22.9508358 L13.7769912,26.0125067 L11.3749332,26.0125067 C11.0709795,26.0125067 10.8245655,26.2589208 10.8245655,26.5628745 C10.8245655,26.8668281 11.0709795,27.1132422 11.3749332,27.1132422 L14.1954453,27.1132422 C14.1954898,27.1132422 14.3160915,27.0996144 14.3338166,27.0949827 C14.3367114,27.0942256 17.8074394,26.1311489 17.8074394,26.1311489 C17.898915,26.1057637 17.9822851,26.0571312 18.0493999,25.9900164 L28.7128523,15.3266976 C29.4388674,14.6006825 29.4388674,13.419249 28.7128078,12.6931449 Z M14.9860812,25.7721495 L15.4353091,24.1543588 L16.6039164,25.3229661 L14.9860812,25.7721495 Z M17.6602501,24.8226116 L15.9357973,23.0981587 L24.7381179,14.2958381 L26.4626153,16.0202909 L17.6602501,24.8226116 Z M27.9344191,14.548398 L27.2409594,15.2418578 L25.516462,13.5173604 L26.2099218,12.8239006 C26.5069279,12.526939 26.9900473,12.5269835 27.2868308,12.8239006 L27.9344191,13.471489 C28.2313362,13.7684061 28.2313362,14.2515254 27.9344191,14.548398 Z" id="Shape" fill="#FFFFFF" fill-rule="nonzero"></path>
                </g>
                <path d="M24,80.0978104 C24,64.1637337 24,54.8110479 24,52.039753 C37.254834,52.039753 48,41.294587 48,28.039753 C48,14.784919 37.254834,4.03975304 24,4.03975304 C10.745166,4.03975304 0,14.784919 0,28.039753" id="Oval-6" stroke="#7ABAEF" stroke-width="2" transform="translate(24.000000, 42.068782) rotate(-180.000000) translate(-24.000000, -42.068782) "></path>
                <circle id="Oval-2" fill="#80BCEA" cx="24" cy="4" r="4"></circle>
            </g>
            <g id="Group-2" transform="translate(230.000000, 192.000000)">
                <circle id="Oval" fill="#75B9ED" cx="18.9111748" cy="18.9111748" r="18.9111748"></circle>
                <g id="Group-8" transform="translate(10.000000, 9.000000)" fill-rule="nonzero" fill="#FFFFFF">
                    <g id="Group" transform="translate(4.769385, 0.256497)">
                        <path d="M0.137465377,0.415608356 C0.147851416,0.679170438 0.41598701,0.906059882 0.611240481,0.92481282 C1.29788931,0.990761366 1.62465602,1.52579124 1.62465602,2.15214111 C1.62465602,2.77849097 1.3841584,3.29328068 0.715641735,3.35553612 C0.486045275,3.37691723 0.195476849,3.43628544 0.201980509,3.75048155 C0.208484168,4.06467766 0.485705148,4.28039508 0.715641735,4.28039508 C1.86199828,4.28039508 2.62543126,3.37776731 2.63548237,2.15214111 C2.64553348,0.9265149 1.86199828,0 0.715641735,0 C0.485705148,8.07065866e-17 0.127079338,0.152046273 0.137465377,0.415608356 Z" id="Shape"></path>
                        <path d="M2.81990595,0.415608356 C2.83029199,0.679170438 3.09842759,0.906059882 3.29368106,0.92481282 C3.98032989,0.990761366 4.3070966,1.52579124 4.3070966,2.15214111 C4.3070966,2.77849097 4.06659897,3.29328068 3.39808231,3.35553612 C3.16848585,3.37691723 2.87791743,3.43628544 2.88442108,3.75048155 C2.89092474,4.06467766 3.16814572,4.28039508 3.39808231,4.28039508 C4.54443886,4.28039508 5.30787183,3.37776731 5.31792294,2.15214111 C5.32797405,0.9265149 4.54443886,0 3.39808231,0 C3.16814572,8.07065866e-17 2.80951991,0.152046273 2.81990595,0.415608356 Z" id="Shape"></path>
                        <path d="M5.54286788,0.415608356 C5.55325392,0.679170438 5.82138951,0.906059882 6.01664298,0.92481282 C6.70329182,0.990761366 7.03005852,1.52579124 7.03005852,2.15214111 C7.03005852,2.77849097 6.7895609,3.29328068 6.12104424,3.35553612 C5.89144778,3.37691723 5.60087935,3.43628544 5.60738301,3.75048155 C5.61388667,4.06467766 5.89110765,4.28039508 6.12104424,4.28039508 C7.26740079,4.28039508 8.03083376,3.37776731 8.04088487,2.15214111 C8.05093598,0.9265149 7.26740079,0 6.12104424,0 C5.89110765,8.07065866e-17 5.53248184,0.152046273 5.54286788,0.415608356 Z" id="Shape"></path>
                    </g>
                    <path d="M17.6938226,2.7384315 L16.9108275,2.7384315 L14.1744494,2.7384315 L4.79258143,2.7384315 L0.0279266805,2.73696546 L0.0279267105,2.73686787 C-0.147252695,2.73681397 -0.289307358,2.87878124 -0.28936126,3.05396065 C-0.28936127,3.05399318 -0.289361275,3.05402571 -0.289361275,3.05405825 L-0.289263693,4.1228991 C-1.18015023,4.30467279 -2.06130499,5.09392243 -2.06130499,6.03797289 C-2.06130499,6.25414676 -1.90393339,6.52328073 -1.58448764,6.52328073 C-1.2650419,6.52328073 -1.19860426,6.31260994 -1.14708156,6.09952878 C-0.976205132,5.39283935 -0.544919594,5.1051861 0.101647471,5.1051861 C0.748214535,5.1051861 1.1247538,5.39140583 1.1247538,6.03797289 C1.1247538,6.25414676 1.23853754,6.52181805 1.56878398,6.52328073 C1.89903042,6.5247434 2.05620329,6.25414676 2.05620329,6.03797289 C2.05620329,5.09392243 1.38344518,4.30467279 0.492558634,4.1228991 L0.492558634,4.41617594 L4.0107591,4.41617594 L4.0107591,17.6476936 L0.492558634,17.6476936 L0.492558634,18.9286992 L0.492558634,17.4045366 C0.492558634,17.1883627 0.317430433,17.0136254 0.101647471,17.0136254 C-0.114135491,17.0136254 -0.289263693,17.1883627 -0.289263693,17.4045366 L-0.289263693,18.1140403 C-0.743111553,17.9522031 -1.07108602,17.5225918 -1.07108602,17.0136254 C-1.07108602,16.3670584 -0.544919594,15.8408919 0.101647471,15.8408919 C0.748214535,15.8408919 1.1247538,16.2644099 1.1247538,16.910977 C1.1247538,17.1271508 1.31586474,17.3708984 1.63487825,17.3704352 C1.95389175,17.369972 2.11740528,17.1271508 2.11740528,16.910977 C2.11740528,15.8332349 1.39376301,14.860295 0.101647471,14.860295 C-1.19046807,14.860295 -2.0624123,15.8408919 -2.06130499,17.0136254 C-2.06019768,18.1863589 -1.21805028,18.9286992 -0.289263693,18.9286992 L-0.289263693,19.0538661 L-0.289263693,19.0538661 C-0.289263693,19.2290455 -0.147252719,19.3710564 0.0279266955,19.3710564 L4.0107591,19.3710564 L4.79258143,19.3710564 L14.1744494,19.3710564 L16.9108275,19.3710564 L17.6938226,19.3710564 C18.5553908,19.3710564 19.2562945,18.6701527 19.2562945,17.8089754 L19.2562945,4.30051251 C19.2562945,3.43933522 18.5553908,2.7384315 17.6938226,2.7384315 Z M5.73247653,17.7716662 L5.73247653,4.61313474 L13.2328395,4.61313474 L13.2328395,17.7716662 L5.73247653,17.7716662 Z M17.5311583,17.2852518 C17.5311583,17.5533158 16.9711312,17.7716662 16.2829729,17.7716662 L15.0310373,17.7716662 L15.0310373,4.61313474 L16.2829729,4.61313474 C16.9711312,4.61313474 17.5311583,4.83124137 17.5311583,5.09954908 L17.5311583,17.2852518 Z" id="Shape" transform="translate(8.597494, 11.053962) rotate(90.000000) translate(-8.597494, -11.053962) "></path>
                </g>
            </g>
            <g id="Group-4" transform="translate(348.000000, 89.000000)">
                <g id="Group-3" transform="translate(24.000000, 35.500000) scale(-1, -1) translate(-24.000000, -35.500000) ">
                    <g id="Group-10" transform="translate(14.000000, 37.000000)" fill-rule="nonzero" fill="#FFFFFF">
                        <path d="M18.7128078,1.69314486 L18.0652194,1.04564557 C17.3391153,0.319541404 16.1576818,0.319630474 15.4314886,1.04564557 L10.2910862,6.18604797 L1.37493322,6.18604797 C1.07097953,6.18604797 0.824565502,6.432462 0.824565502,6.73641568 C0.824565502,7.04036937 1.07097953,7.2867834 1.37493322,7.2867834 L9.19035074,7.2867834 L5.87785678,10.5992774 L1.37493322,10.5992774 C1.07097953,10.5992774 0.824565502,10.8456914 0.824565502,11.1496451 C0.824565502,11.4535988 1.07097953,11.7000128 1.37493322,11.7000128 L4.77707681,11.7000128 C4.70105499,11.7760346 4.65251147,11.8593602 4.62708179,11.9508358 L3.77699125,15.0125067 L1.37493322,15.0125067 C1.07097953,15.0125067 0.824565502,15.2589208 0.824565502,15.5628745 C0.824565502,15.8668281 1.07097953,16.1132422 1.37493322,16.1132422 L4.19544529,16.1132422 C4.19548982,16.1132422 4.31609152,16.0996144 4.33381659,16.0949827 C4.33671138,16.0942256 7.8074394,15.1311489 7.8074394,15.1311489 C7.89891499,15.1057637 7.98228514,15.0571312 8.0493999,14.9900164 L18.7128523,4.32669758 C19.4388674,3.60068248 19.4388674,2.41924902 18.7128078,1.69314486 Z M4.98608116,14.7721495 L5.43530912,13.1543588 L6.60391641,14.3229661 L4.98608116,14.7721495 Z M7.66025011,13.8226116 L5.93579726,12.0981587 L14.7381179,3.29583809 L16.4626153,5.02029094 L7.66025011,13.8226116 Z M17.9344191,3.548398 L17.2409594,4.24185776 L15.516462,2.51736037 L16.2099218,1.82390061 C16.5069279,1.52693897 16.9900473,1.52698351 17.2868308,1.82390061 L17.9344191,2.47148897 C18.2313362,2.76840607 18.2313362,3.25152543 17.9344191,3.548398 Z" id="Shape"></path>
                    </g>
                    <path d="M24,70.0978104 C24,58.5537353 24,51.3960503 24,48.6247555 C37.254834,48.6247555 48,37.8795895 48,24.6247555 C48,11.3699215 37.254834,0.624755497 24,0.624755497 C10.745166,0.624755497 0,11.3699215 0,24.6247555" id="Oval-6" stroke="#FFC13A" stroke-width="2" transform="translate(24.000000, 35.361283) rotate(-180.000000) translate(-24.000000, -35.361283) "></path>
                </g>
                <g id="Group-25" transform="translate(5.000000, 6.000000)">
                    <circle id="Oval" fill="#FEB61A" cx="18.9111748" cy="18.9111748" r="18.9111748"></circle>
                    <g id="mailbox" transform="translate(9.535046, 7.427488)" fill-rule="nonzero" fill="#FFFFFF">
                        <path d="M13.6712566,3.77725248 C13.6712079,3.77725248 13.6711593,3.77725248 13.6711106,3.77725248 L13.6712566,3.77725248 L7.98392394,3.77720383 L7.98392394,1.22331141 C7.98392394,0.548802035 7.4351219,0 6.76061253,0 L4.4427619,0 C3.72086904,0 3.13358616,0.58728288 3.13358616,1.30917574 C3.13358616,2.03106861 3.72086904,2.61835149 4.4427619,2.61835149 L5.04366632,2.61835149 C5.31585384,2.61835149 5.53725248,2.83979878 5.53725248,3.11193764 L5.53725248,3.77715518 L5.04376362,3.77715518 C2.26263475,3.77715518 0,6.03974128 0,8.82087015 L0,13.4991874 L0,15.1219017 C0,15.3234032 0.163361159,15.4867643 0.364862624,15.4867643 L7.21158274,15.4867643 L7.21158274,21.2338858 C7.21158274,21.4353873 7.3749439,21.5987484 7.57644536,21.5987484 L9.34880204,21.5987484 C9.55030351,21.5987484 9.71366467,21.4353873 9.71366467,21.2338858 L9.71366467,15.486813 L18.3499143,15.486813 C18.5514158,15.486813 18.714777,15.3234518 18.714777,15.1219504 L18.714777,13.4994306 L18.714777,13.4992847 L18.714777,8.8208215 C18.714777,6.03974128 16.4522395,3.77725248 13.6712566,3.77725248 Z M17.9850517,8.82077285 L17.9850517,13.1343734 L16.3856399,13.1343734 L16.3856399,7.22408536 C16.3856399,7.0225839 16.2222787,6.85922274 16.0207773,6.85922274 L9.82978828,6.85922274 C10.5451136,5.46398806 11.9985317,4.50697773 13.6712566,4.50697773 C16.049869,4.50697773 17.9850517,6.44211179 17.9850517,8.82077285 Z M9.35746145,8.82077285 C9.35746145,8.39286197 9.42041241,7.97944829 9.53697386,7.58894799 L15.1473448,7.58894799 L11.0221107,11.7639494 L9.38329372,10.105819 L9.35746145,10.0795976 L9.35746145,8.82077285 L9.35746145,8.82077285 Z M13.4336094,10.3615634 L15.6559147,8.11245288 L15.6559147,12.6106739 L13.4336094,10.3615634 Z M12.9206612,10.8806899 L15.1474908,13.1343734 L9.35746145,13.1343734 L9.35746145,11.1175101 L10.7626204,12.5395014 C10.8311659,12.6088739 10.924668,12.6478899 11.0221593,12.6478899 C11.1196506,12.6478899 11.2131528,12.6088253 11.2816496,12.5394527 L12.9206612,10.8806899 Z M5.04366632,1.88862624 L4.4427619,1.88862624 C4.12323954,1.88862624 3.86331141,1.62869811 3.86331141,1.30917574 C3.86331141,0.989653381 4.12323954,0.729725248 4.4427619,0.729725248 L6.76061253,0.729725248 C7.03280005,0.729725248 7.25419869,0.951172537 7.25419869,1.22331141 L7.25419869,8.94954504 C7.25419869,9.22173255 7.0327514,9.44313119 6.76061253,9.44313119 C6.48847366,9.44313119 6.26702638,9.22173255 6.26702638,8.94954504 L6.26702638,3.11198629 C6.26697773,2.43742827 5.71817569,1.88862624 5.04366632,1.88862624 Z M0.729725248,8.8209188 C0.729725248,6.44216044 2.66500525,4.50692908 5.04376362,4.50692908 L5.53730113,4.50692908 L5.53730113,8.94954504 C5.53730113,9.62410306 6.08610316,10.1728564 6.76061253,10.1728564 C7.4351219,10.1728564 7.98392394,9.62410306 7.98392394,8.94954504 L7.98392394,4.50692908 L11.0605429,4.50692908 C9.60328156,5.39213445 8.6277362,6.99465974 8.6277362,8.82077285 L8.6277362,13.1343734 L0.729725248,13.1343734 L0.729725248,8.8209188 Z M8.98393942,20.8691205 L7.94130798,20.8691205 L7.94130798,15.486813 L8.98393942,15.486813 L8.98393942,20.8691205 Z M0.729725248,14.7570877 L0.729725248,13.8640986 L17.9850517,13.8642446 L17.9850517,14.7570877 L0.729725248,14.7570877 Z" id="Shape"></path>
                    </g>
                </g>
                <circle id="Oval-2" fill="#FEB61A" cx="24" cy="71" r="4"></circle>
            </g>
            <g id="Group-11" transform="translate(353.000000, 95.000000)">
                <circle id="Oval" fill="#FEB61A" cx="18.9111748" cy="18.9111748" r="18.9111748"></circle>
                <g id="mobile-phone" transform="translate(8.899376, 7.694662)" fill-rule="nonzero" fill="#FFFFFF">
                    <path d="M13.3160301,6.32291161 C13.3703378,6.17935688 13.5093353,6.07643802 13.6718787,6.07643802 C13.8811344,6.07643802 14.0516531,6.24695673 14.0516531,6.45621243 L14.811202,6.45621243 C14.811202,5.82806555 14.3000256,5.3168892 13.6718787,5.3168892 C13.0437319,5.3168892 12.5325555,5.82806555 12.5325555,6.45621243 C12.5325555,6.55685264 12.5724318,6.65369512 12.6438294,6.72471293 L14.0277273,8.10861088 C13.9734196,8.25216561 13.8344222,8.35508447 13.6718787,8.35508447 C13.462623,8.35508447 13.2921043,8.18456576 13.2921043,7.97531006 L12.5325555,7.97531006 C12.5325555,8.60345693 13.0437319,9.11463329 13.6718787,9.11463329 C14.3000256,9.11463329 14.811202,8.60345693 14.811202,7.97531006 C14.811202,7.87466984 14.7713256,7.77782737 14.6999281,7.70680955 L13.3160301,6.32291161 Z" id="Shape"></path>
                    <path d="M13.6718787,3.79779156 C13.2719763,3.79779156 12.8895434,3.87032847 12.5325555,3.99717313 L12.5325555,1.89891952 C12.5325555,0.851881471 11.6807215,4.74718011e-05 10.6336835,4.74718011e-05 L1.89887205,4.74718011e-05 C0.851833999,4.74718011e-05 0,0.851881471 0,1.89891952 L0,17.8494447 C0,18.8964827 0.851833999,19.7483167 1.89887205,19.7483167 L4.55729291,19.7483167 C4.55729291,19.848957 4.59716922,19.9457994 4.66856681,20.0168172 L6.07639054,21.424641 L6.07639054,22.786512 L6.83593936,22.786512 L6.83593936,21.2674144 C6.83593936,21.1667742 6.79606305,21.0699317 6.72466546,20.9989139 L5.31684173,19.5910901 L5.31684173,17.9109682 L5.67724764,16.8301302 C5.69015997,16.7913932 5.69661614,16.7507573 5.69661614,16.7101215 L5.69661614,11.3932797 C5.69661614,11.184024 5.86713485,11.0135053 6.07639054,11.0135053 C6.28564624,11.0135053 6.45616495,11.184024 6.45616495,11.3932797 L6.45616495,14.8112494 L6.45616495,16.7101215 L6.45616495,17.0898959 L7.21571377,17.0898959 L7.21571377,16.7101215 L7.21571377,14.8112494 C7.21571377,14.6019937 7.38623248,14.431475 7.59548818,14.431475 C7.80474388,14.431475 7.97526259,14.6019937 7.97526259,14.8112494 L7.97526259,15.9505727 L7.97526259,17.0898959 L8.73481141,17.0898959 L8.73481141,15.9505727 L8.73481141,14.8112494 C8.73481141,14.6019937 8.90533012,14.431475 9.11458582,14.431475 C9.32384152,14.431475 9.49436023,14.6019937 9.49436023,14.8112494 L9.49436023,15.1910238 L9.49436023,16.7101215 L9.49436023,17.0898959 L10.253909,17.0898959 L10.253909,16.7101215 L10.253909,15.1910238 C10.253909,14.9817681 10.4244278,14.8112494 10.6336835,14.8112494 C10.8429392,14.8112494 11.0134579,14.9817681 11.0134579,15.1910238 L11.0134579,15.9505727 L11.0134579,17.0898959 L11.7730067,17.0898959 L11.7730067,15.9505727 C11.7730067,15.741317 11.9435254,15.5707982 12.1527811,15.5707982 C12.3620368,15.5707982 12.5325555,15.741317 12.5325555,15.9505727 L12.5325555,18.1676957 L11.4126008,21.5271801 C11.3996884,21.5659171 11.3932323,21.6065529 11.3932323,21.6471888 L11.3932323,22.786512 L12.1527811,22.786512 L12.1527811,21.7087122 L13.2727358,18.3492278 C13.2856482,18.3104908 13.2921043,18.269855 13.2921043,18.2292191 L13.2921043,15.9505727 C13.2921043,15.4561064 12.9734736,15.0383545 12.5325555,14.8811279 L12.5325555,10.4343494 C12.8895434,10.561194 13.2719763,10.6337309 13.6718787,10.6337309 C15.5563193,10.6337309 17.0898484,9.10020186 17.0898484,7.21576124 C17.0898484,5.33132063 15.5563193,3.79779156 13.6718787,3.79779156 Z M0.759548818,1.89891952 C0.759548818,1.27077264 1.27072517,0.75959629 1.89887205,0.75959629 L10.6336835,0.75959629 C11.2618303,0.75959629 11.7730067,1.27077264 11.7730067,1.89891952 L11.7730067,2.27869393 L0.759548818,2.27869393 L0.759548818,1.89891952 Z M4.5766614,17.729436 C4.56374907,17.768173 4.55729291,17.8088088 4.55729291,17.8494447 L4.55729291,18.9887679 L1.89887205,18.9887679 C1.27072517,18.9887679 0.759548818,18.4775916 0.759548818,17.8494447 L0.759548818,16.7101215 L4.9165595,16.7101215 L4.5766614,17.729436 Z M6.07639054,10.2539565 C5.44824367,10.2539565 4.93706732,10.7651329 4.93706732,11.3932797 L4.93706732,11.7730542 L4.1775185,11.7730542 C3.9682628,11.7730542 3.79774409,11.6025354 3.79774409,11.3932797 L3.79774409,9.87418211 C3.79774409,9.66492641 3.9682628,9.4944077 4.1775185,9.4944077 L7.97526259,9.4944077 C8.18451829,9.4944077 8.355037,9.66492641 8.355037,9.87418211 L8.355037,11.3932797 C8.355037,11.6025354 8.18451829,11.7730542 7.97526259,11.7730542 L7.21571377,11.7730542 L7.21571377,11.3932797 C7.21571377,10.7651329 6.70453742,10.2539565 6.07639054,10.2539565 Z M11.7730067,14.8761908 C11.7600944,14.8807481 11.7487011,14.8875841 11.7361686,14.8925211 C11.7338899,14.8932807 11.7312315,14.8936605 11.7289528,14.8947998 C11.5979307,14.4105874 11.1589115,14.0517006 10.6336835,14.0517006 C10.4297446,14.0517006 10.2409967,14.1098061 10.0750353,14.2039901 C9.87299531,13.8853594 9.51904556,13.6719262 9.11458582,13.6719262 C8.82177975,13.6719262 8.55707698,13.7862383 8.355037,13.9681502 C8.15299701,13.7858585 7.88829425,13.6719262 7.59548818,13.6719262 C7.46180759,13.6719262 7.33496294,13.69927 7.21571377,13.7418047 L7.21571377,12.532603 L7.97526259,12.532603 C8.60340946,12.532603 9.11458582,12.0214266 9.11458582,11.3932797 L9.11458582,9.87418211 C9.11458582,9.24603523 8.60340946,8.73485888 7.97526259,8.73485888 L4.1775185,8.73485888 C3.54937163,8.73485888 3.03819527,9.24603523 3.03819527,9.87418211 L3.03819527,11.3932797 C3.03819527,12.0214266 3.54937163,12.532603 4.1775185,12.532603 L4.93706732,12.532603 L4.93706732,15.9505727 L0.759548818,15.9505727 L0.759548818,3.03824274 L11.7730067,3.03824274 L11.7730067,4.37580821 C11.6602137,4.45138332 11.5534971,4.53493369 11.4505782,4.62342113 C11.4365266,4.63557391 11.4236142,4.64810646 11.4099423,4.66063902 C11.3241133,4.73697368 11.2420821,4.81710608 11.1642283,4.90141599 C11.1486576,4.91850584 11.1330868,4.93521592 11.1175161,4.95268554 C11.0347252,5.04611004 10.9564917,5.14333229 10.8839548,5.24549161 C10.8816761,5.24890958 10.8790177,5.25194777 10.8763593,5.25536574 C10.7210316,5.47601468 10.592288,5.71527255 10.4924074,5.96972141 C10.4867108,5.98377306 10.4821535,5.99820449 10.4768366,6.01225614 C10.4365805,6.11859298 10.4020211,6.22682868 10.3723987,6.33772281 C10.3651829,6.36506657 10.3579672,6.39241032 10.3511313,6.42013386 C10.3268257,6.52077408 10.307837,6.62293339 10.2930258,6.72699158 C10.2884685,6.75813308 10.2823921,6.78851503 10.2789742,6.81965654 C10.2637832,6.94991916 10.253909,7.08170088 10.253909,7.21576124 C10.253909,7.34982161 10.2637832,7.48160333 10.2789742,7.61186595 C10.2827719,7.64300745 10.2884685,7.67338941 10.2930258,7.70453091 C10.307837,7.80820932 10.3272055,7.91074841 10.3511313,8.01138863 C10.3579672,8.03911216 10.3648032,8.06607615 10.3723987,8.09379968 C10.4020211,8.2046938 10.4365805,8.31330929 10.4768366,8.41926635 C10.4821535,8.433318 10.4870905,8.44774943 10.4924074,8.46180108 C10.5926678,8.71624993 10.7214113,8.95550781 10.8763593,9.17615674 C10.8786379,9.17957471 10.8812964,9.18261291 10.8839548,9.18603088 C10.9564917,9.28819019 11.0347252,9.38541244 11.1175161,9.47883695 C11.132707,9.49630657 11.1482778,9.51301664 11.1642283,9.53010649 C11.2420821,9.61441641 11.3237336,9.69492859 11.4099423,9.77088347 C11.4236142,9.78303625 11.4369063,9.79594858 11.4505782,9.80810136 C11.5534971,9.89620902 11.6602137,9.97975939 11.7730067,10.0557143 L11.7730067,14.8761908 Z M13.6718787,9.87418211 C13.1831091,9.87418211 12.7262404,9.73936219 12.3320346,9.50807958 C12.2389899,9.45377184 12.1505024,9.39376748 12.0658127,9.32920583 C12.0578375,9.32312944 12.0494825,9.31743282 12.041887,9.31135643 C11.863393,9.17197922 11.7042675,9.01171442 11.5683083,8.83511932 C11.563751,8.82904293 11.5595735,8.82334632 11.5550162,8.81726993 C11.4885556,8.72954204 11.4270322,8.63801641 11.3719649,8.5430728 C11.3715851,8.54231325 11.3708256,8.54155371 11.3704458,8.54079416 C11.2591719,8.34824853 11.1733429,8.14165125 11.1129588,7.92669894 C11.1084015,7.90960909 11.1042239,7.89251924 11.0996667,7.87542939 C11.07726,7.7892206 11.0601701,7.70111294 11.0464982,7.6126255 C11.0427005,7.58831994 11.0381432,7.56401438 11.0354848,7.53970881 C11.0218129,7.43261243 11.0134579,7.3247565 11.0134579,7.21576124 C11.0134579,7.10676599 11.0218129,6.99891006 11.035105,6.89219345 C11.0381432,6.86750811 11.0427005,6.84358232 11.0461185,6.81927676 C11.0597903,6.73040955 11.0768802,6.64268166 11.0992869,6.55647287 C11.1038442,6.53938302 11.1076419,6.52229317 11.112579,6.50520332 C11.1729631,6.29025101 11.2587921,6.08365373 11.370066,5.8911081 C11.3704458,5.89034856 11.3712054,5.88958901 11.3715851,5.88882946 C11.4266524,5.79388586 11.4881759,5.70236022 11.5546364,5.61463234 C11.5591937,5.60855594 11.5633712,5.60285933 11.5679285,5.59678294 C11.7042675,5.41980806 11.8630132,5.25954326 12.0415072,5.12054583 C12.0494825,5.11446944 12.0574577,5.10877282 12.065433,5.10269643 C12.1501227,5.03813478 12.2386101,4.9785102 12.3316548,4.92382269 C12.7262404,4.6921603 13.1831091,4.55734038 13.6718787,4.55734038 C15.1378079,4.55734038 16.3302996,5.74983202 16.3302996,7.21576124 C16.3302996,8.68169046 15.1378079,9.87418211 13.6718787,9.87418211 Z" id="Shape"></path>
                    <path d="M22.6751906,6.56748633 L21.156093,5.04838869 L20.619092,5.58538971 L21.4899147,6.45621243 L17.8493972,6.45621243 L17.8493972,7.21576124 L21.4899147,7.21576124 L20.619092,8.08658396 L21.156093,8.62358498 L22.6751906,7.10448734 C22.8236824,6.95599555 22.8236824,6.71597812 22.6751906,6.56748633 Z" id="Shape"></path>
                    <path d="M6.07639054,5.69666361 C5.41558307,5.69666361 4.93630777,5.98225396 4.70920267,6.1523929 L5.16493196,6.76003195 C5.31608218,6.64685918 5.63585223,6.45621243 6.07639054,6.45621243 C6.2655182,6.45621243 6.63541847,6.49570896 6.98784913,6.76003195 L7.44357842,6.1523929 C6.91493244,5.75590842 6.36008203,5.69666361 6.07639054,5.69666361 Z" id="Shape"></path>
                    <path d="M6.07639054,4.17756597 C4.86453041,4.17756597 3.98573242,4.70089511 3.56987945,5.01306967 L4.02560874,5.62070873 C4.36588661,5.36550032 5.08479956,4.93711479 6.07639054,4.93711479 C6.50173788,4.93711479 7.33420339,5.025982 8.12717235,5.62070873 L8.58290164,5.0126899 C7.61333758,4.28618145 6.59630171,4.17756597 6.07639054,4.17756597 Z" id="Shape"></path>
                    <rect id="Rectangle-path" x="5.69661614" y="7.21576124" width="1" height="1"></rect>
                </g>
            </g>
            <g id="Group-27" transform="translate(652.008452, 201.008452)" fill-rule="nonzero" fill="#FFFFFF">
                <g id="manager" transform="translate(0.787183, 0.000000)">
                    <path d="M6.95906447,7.13119273 C8.92518213,7.13119273 10.5246608,5.53164182 10.5246608,3.56559636 C10.524733,1.5994787 8.92518213,0 6.95906447,0 C4.99294681,0 3.39346811,1.5994787 3.39346811,3.56559636 C3.39346811,5.53171402 4.99301901,7.13119273 6.95906447,7.13119273 Z" id="Shape"></path>
                    <path d="M15.366129,12.5130165 C13.1427576,12.5130165 11.3339669,14.3218794 11.3339669,16.5451787 C11.3339669,18.7685501 13.1428298,20.5773408 15.366129,20.5773408 C17.5894282,20.5773408 19.3982911,18.7684779 19.3982911,16.5451787 C19.3982911,14.3218794 17.5895004,12.5130165 15.366129,12.5130165 L15.366129,12.5130165 Z M17.8222057,15.7077141 L15.187286,18.3426337 C15.0547242,18.4751234 14.8810797,18.5414043 14.707363,18.5414043 C14.5336463,18.5414043 14.3600018,18.4751234 14.22744,18.3426337 L12.9099801,17.0251739 C12.6449286,16.7601224 12.6449286,16.3303794 12.9099801,16.0653278 C13.1751038,15.8003485 13.6047025,15.8003485 13.8698262,16.0653278 L14.707363,16.9029368 L16.8623596,14.747868 C17.1274834,14.4828887 17.557082,14.4828887 17.8222057,14.747868 C18.0872572,15.0129195 18.0872572,15.4426625 17.8222057,15.7077141 L17.8222057,15.7077141 Z" id="Shape"></path>
                    <path d="M13.9169015,10.9751257 C13.9169015,9.61824384 13.0449246,8.41507889 11.7555511,7.99270042 L9.86358437,7.67847971 C9.70308055,7.62909392 4.30075152,7.66440043 4.17143872,7.66440043 C4.14075311,7.66440043 2.192397,7.99031777 2.192397,7.99031777 C0.892409911,8.42352646 0.0238264782,9.62864085 0.0238264782,10.991371 L0.0238264782,15.8768099 C0.0238264782,16.6089325 0.61732239,17.2024285 1.34944508,17.2024285 L10.2594649,17.2024285 C10.231884,16.9869793 10.2160718,16.7679923 10.2160718,16.5451787 C10.216144,14.2086676 11.7807494,12.2318641 13.9169015,11.6042169 L13.9169015,10.9751257 Z" id="Shape"></path>
                </g>
            </g>
        </g>
    </g>
</svg>