<?xml version="1.0" encoding="UTF-8"?>
<svg width="1176px" height="231px" viewBox="0 0 1176 231" version="1.1" xmlns="http://www.w3.org/2000/svg" xmlns:xlink="http://www.w3.org/1999/xlink">
    <!-- Generator: Sketch 45.1 (43504) - http://www.bohemiancoding.com/sketch -->
    <title>Artboard</title>
    <desc>Created with Sketch.</desc>
    <defs></defs>
    <g id="road-map" stroke="none" stroke-width="1" fill="none" fill-rule="evenodd">
        <g id="Artboard">
            <text id="Customized-card-&amp;-re" font-family="Lato-Black, Lato" font-size="18" font-weight="700" fill="#919191">
                <tspan x="204.239" y="102">Customized </tspan>
                <tspan x="226.469" y="124">card &amp; </tspan>
                <tspan x="219.197" y="146">rewards</tspan>
            </text>
            <text id="Reduce-fear-&amp;-fricti" font-family="Lato-Black, Lato" font-size="18" font-weight="700" fill="#919191">
                <tspan x="30.409" y="102">Reduce </tspan>
                <tspan x="36.034" y="124">fear &amp; </tspan>
                <tspan x="30.481" y="146">friction</tspan>
            </text>
            <text id="Universal-Profile" font-family="Lato-Black, Lato" font-size="18" font-weight="700" fill="#919191">
                <tspan x="1065.715" y="113">Universal </tspan>
                <tspan x="1077.199" y="135">Profile</tspan>
            </text>
            <text id="Transfer-credit-&amp;-be" font-family="Lato-Black, Lato" font-size="18" font-weight="700" fill="#919191">
                <tspan x="881.365" y="102">Transfer </tspan>
                <tspan x="883.759" y="124">credit &amp; </tspan>
                <tspan x="882.922" y="146">benefits</tspan>
            </text>
            <g id="Group-7" transform="translate(396.750000, 14.000000)">
                <g id="Group-5">
                    <g id="Group-6" fill-rule="nonzero">
                        <ellipse id="Oval" fill="#DFEFFB" cx="55.7125875" cy="55.6921575" rx="55.7125875" ry="55.6921575"></ellipse>
                        <ellipse id="Oval" fill="#FFE5AA" cx="285.847845" cy="111.813798" rx="92.8478452" ry="92.8137976"></ellipse>
                    </g>
                    <g id="Group-4" transform="translate(36.310345, 33.504950)">
                        <g id="Group-2" transform="translate(9.711807, 19.416492)">
                            <rect id="Rectangle-3" fill="#FFFFFF" x="73.8097365" y="54.3661781" width="17.4812534" height="15.5331937"></rect>
                            <rect id="Rectangle-2" fill="#FFFFFF" x="0.320739063" y="0" width="39.7522413" height="69.3541488"></rect>
                            <path d="M87.0272293,54.0187483 L78.1892294,54.0187483 C78.1892294,54.4097897 77.8721488,54.7267541 77.4809639,54.7267541 L71.3908777,54.7267541 L93.8262936,54.7267541 L87.7362074,54.7267541 C87.3446662,54.7267541 87.0272293,54.4094336 87.0272293,54.0187483 Z" id="Shape" stroke="#4A4A4A" stroke-width="1.4" fill-rule="nonzero"></path>
                            <path d="M82.6294274,53.5582596 L81.8335194,53.5582596 C74.4715478,53.5582596 68.5033061,47.5925625 68.5033061,40.2336468 L68.5033061,27.5147178 C77.8723157,27.5347573 87.9813008,27.458607 95.9596408,27.5147178 L95.9596408,40.2336468 C95.9596408,47.5932748 89.9917553,53.5582596 82.6294274,53.5582596 Z" id="Shape" stroke="#4A4A4A" stroke-width="1.4" fill="#FFFFFF" fill-rule="nonzero"></path>
                            <path d="M82.6294274,32.9687845 L81.8335194,32.9687845 C74.4715478,32.9687845 68.5033061,27.0030875 68.5033061,19.6441717 L68.5033061,13.5161297 C71.4012629,13.5223282 75.8446674,14.685488 81.8335194,17.005609 C88.3998449,14.6592381 93.1085521,13.4960784 95.9596408,13.5161297 L95.9596408,19.6441717 C95.9596408,27.0037998 89.9917553,32.9687845 82.6294274,32.9687845 Z" id="Shape" stroke="#4A4A4A" stroke-width="1.4" fill="#FFFFFF" fill-rule="nonzero" transform="translate(82.231473, 23.242330) scale(1, -1) translate(-82.231473, -23.242330) "></path>
                            <ellipse id="Oval" fill="#4A4A4A" fill-rule="nonzero" cx="75.7598216" cy="37.2851657" rx="1.37270985" ry="1.37220648"></ellipse>
                            <ellipse id="Oval" fill="#4A4A4A" fill-rule="nonzero" cx="88.7006313" cy="37.2851657" rx="1.37270985" ry="1.37220648"></ellipse>
                            <path d="M94.7889362,54.7267541 L90.0868795,54.7267541 C90.0868795,58.8554823 82.6087638,62.8645475 82.6087638,62.8645475 C82.6087638,62.8645475 75.1306481,58.8554823 75.1306481,54.7267541 L70.4285913,54.7267541 C64.765317,54.7267541 60.1744166,59.315971 60.1744166,64.9771685 L60.1744166,83.7959493 C67.3507713,85.6108375 74.8662954,86.5791815 82.6080512,86.5791815 C90.3505196,86.5791815 97.8653311,85.6108375 105.043467,83.7963055 L105.043467,64.9775247 C105.043467,59.315971 100.452211,54.7267541 94.7889362,54.7267541 Z" id="Shape" stroke="#4A4A4A" stroke-width="1.4" fill="#FFFFFF" fill-rule="nonzero"></path>
                            <path d="M82.2314734,48.5345522 C79.7582443,48.5345522 77.7460291,46.5230748 77.7460291,44.0507527 C77.7460291,43.6315762 78.0855548,43.2918188 78.5052413,43.2918188 C78.9245716,43.2918188 79.2644535,43.63122 79.2644535,44.0507527 C79.2644535,45.6861464 80.5954797,47.0166845 82.2314734,47.0166845 C83.8674671,47.0166845 85.1984933,45.6861464 85.1984933,44.0507527 C85.1984933,43.6315762 85.538019,43.2918188 85.9577055,43.2918188 C86.3770358,43.2918188 86.7169178,43.63122 86.7169178,44.0507527 C86.7169178,46.5230748 84.7047025,48.5345522 82.2314734,48.5345522 Z" id="Shape" fill="#4A4A4A" fill-rule="nonzero"></path>
                            <path d="M67.2031754,30.0910472 C67.2031754,30.0910472 66.5337433,21.597114 53.477502,18.0460445 L49.016284,31.7709584 L67.2031754,30.0910472 Z" id="Shape" stroke="#4A4A4A" stroke-width="1.4" fill="#FFFFFF" fill-rule="nonzero" transform="translate(58.109730, 24.908501) scale(-1, 1) translate(-58.109730, -24.908501) "></path>
                            <path d="M115.525439,30.0910472 C115.525439,30.0910472 114.856007,21.597114 101.799766,18.0460445 L97.338548,31.7709584 L115.525439,30.0910472 Z" id="Shape" stroke="#4A4A4A" stroke-width="1.4" fill="#FFFFFF" fill-rule="nonzero"></path>
                        </g>
                        <g id="Group-3">
                            <path d="M9.64732314,31.0663875 C7.47013333,31.4914861 5.82708446,33.4086998 5.82708446,35.7095275 C5.82708446,37.9629227 7.40308745,39.8483577 9.51336307,40.3244841 C9.64732314,38.0434728 9.51336307,34.2310757 9.64732314,31.0663875 Z" id="Oval" stroke="#4A4A4A" stroke-width="1.4" fill="#FFFFFF" fill-rule="nonzero"></path>
                            <path d="M54.3216373,31.0663875 C52.1444475,31.4914861 50.5013987,33.4086998 50.5013987,35.7095275 C50.5013987,37.9629227 52.0774017,39.8483577 54.1876773,40.3244841 C54.3216373,38.0434728 54.1876773,34.2310757 54.3216373,31.0663875 Z" id="Oval" stroke="#4A4A4A" stroke-width="1.4" fill="#FFFFFF" fill-rule="nonzero" transform="translate(52.411518, 35.695436) scale(-1, 1) translate(-52.411518, -35.695436) "></path>
                            <path d="M13.3581034,45.6287566 C18.7349247,52.3528551 24.4409846,55.6990663 30.4762831,55.66739 C36.5115816,55.6357138 41.7647275,52.2895027 46.2357207,45.6287566" id="Line-2" stroke="#4A4A4A" stroke-width="1.4" stroke-linecap="square"></path>
                            <path d="M46.5541734,9.25807865 C43.0473013,4.26414648 37.2470088,0.997591389 30.6800231,0.997591389 L29.522265,0.997591389 C18.8148941,0.997591389 10.0640588,9.67441616 10.0640588,20.3778606 L10.0640588,21.8764941 L10.0640588,47.6582552 L12.9813066,47.6582552 L12.9813066,27.5218614 C21.6171228,26.6444058 30.1097705,24.9509167 37.5533228,21.2308079 C40.23236,24.305533 43.3254659,27.0513637 46.74002,29.279193 L46.74002,47.6585578 L50.0674017,47.6585578 L50.0674017,25.3224737 L50.0674017,20.3781632 C50.0667964,16.2386911 48.7649617,12.406026 46.5541734,9.25807865 Z" id="Shape" stroke="#4A4A4A" stroke-width="1.4" fill="#FFFFFF" fill-rule="nonzero"></path>
                            <ellipse id="Oval" fill="#4A4A4A" fill-rule="nonzero" cx="21.4312761" cy="33.4262293" rx="1.83879231" ry="1.83811802"></ellipse>
                            <path d="M36.0208445,55.8394689 L24.1814435,55.8394689 C24.1814435,56.363219 23.7567809,56.787726 23.2328386,56.787726 L15.074049,56.787726 L45.1285418,56.787726 L36.9697522,56.787726 C36.4455072,56.787726 36.0208445,56.363219 36.0208445,55.8394689 Z" id="Shape" stroke="#4A4A4A" stroke-width="1.4" fill-rule="nonzero"></path>
                            <ellipse id="Oval" fill="#4A4A4A" fill-rule="nonzero" cx="38.7694985" cy="33.4262293" rx="1.83879231" ry="1.83811802"></ellipse>
                            <path d="M30.1009927,48.4927456 C26.7875343,48.4927456 24.092455,45.7986546 24.092455,42.4864113 C24.092455,41.9251424 24.5473859,41.4697732 25.1094661,41.4697732 C25.670941,41.4697732 26.1264772,41.9245372 26.1264772,42.4864113 C26.1264772,44.6770244 27.909576,46.4594694 30.1009927,46.4594694 C32.2924094,46.4594694 34.0755082,44.6770244 34.0755082,42.4864113 C34.0755082,41.9251424 34.5304391,41.4697732 35.0925193,41.4697732 C35.6539941,41.4697732 36.1095303,41.9245372 36.1095303,42.4864113 C36.1095303,45.7986546 33.4138457,48.4927456 30.1009927,48.4927456 Z" id="Shape" fill="#4A4A4A" fill-rule="nonzero"></path>
                            <path d="M10.0530892,45.7905871 L10.0530892,57.9356436" id="Line" stroke="#4A4A4A" stroke-width="1.4" stroke-linecap="square"></path>
                            <path d="M50.1046866,44.6752593 L50.1046866,60.7512344" id="Line" stroke="#4A4A4A" stroke-width="1.4" stroke-linecap="square"></path>
                            <path d="M46.4179665,56.787726 L40.1188543,56.787726 C40.1188543,62.3187214 35.6334118,74.3985608 30.1009927,74.3985608 C24.5679682,74.3985608 20.0831311,62.3187214 20.0831311,56.787726 L13.7834135,56.787726 C6.19699531,56.787726 0.0464998681,62.935966 0.0464998681,70.5196022 C0.0464998681,76.6677572 0.0464998681,87.0663509 0.0464998681,101.715383 C10.3914433,104.913291 20.4096076,106.495119 30.1009927,106.460866 C39.7923778,106.426614 49.8102394,104.844786 60.1545775,101.715383 L60.1545775,70.5196022 C60.1551828,62.935966 54.0049901,56.787726 46.4179665,56.787726 Z" id="Shape" stroke="#4A4A4A" stroke-width="1.4" fill="#FFFFFF" fill-rule="nonzero"></path>
                        </g>
                    </g>
                </g>
                <g id="Group" transform="translate(167.000000, 31.000000)" fill-opacity="0.724241395" fill="#000000">
                    <text id="Still-a-blue-ocean-w" font-family="Lato-Light, Lato" font-size="18" font-weight="300">
                        <tspan x="12" y="58">Still a blue ocean </tspan>
                        <tspan x="12" y="80">with more feasibility </tspan>
                        <tspan x="12" y="102">in near future</tspan>
                    </text>
                    <text id="Family-Plan" font-family="Lato-Bold, Lato" font-size="24" font-weight="bold">
                        <tspan x="12.1256007" y="24">Family Plan</tspan>
                    </text>
                </g>
            </g>
            <path d="M116.3125,116.5 L194.3125,116.5" id="Line-3" stroke="#DFEFFB" stroke-width="3" stroke-linecap="square" stroke-dasharray="5,5"></path>
            <path d="M311.4375,116.5 L389.4375,116.5" id="Line-3" stroke="#DFEFFB" stroke-width="3" stroke-linecap="square" stroke-dasharray="5,5"></path>
            <path d="M783.0625,116.5 L861.0625,116.5" id="Line-3" stroke="#DFEFFB" stroke-width="3" stroke-linecap="square" stroke-dasharray="5,5"></path>
            <path d="M971.6875,116.5 L1049.6875,116.5" id="Line-3" stroke="#DFEFFB" stroke-width="3" stroke-linecap="square" stroke-dasharray="5,5"></path>
        </g>
    </g>
</svg>