<?xml version="1.0" encoding="UTF-8"?>
<svg width="375px" height="667px" viewBox="0 0 375 667" version="1.1" xmlns="http://www.w3.org/2000/svg" xmlns:xlink="http://www.w3.org/1999/xlink" style="background: #FFFFFF;">
    <!-- Generator: Sketch 43 (38999) - http://www.bohemiancoding.com/sketch -->
    <title>analysis4-t</title>
    <desc>Created with Sketch.</desc>
    <defs>
        <rect id="path-1" x="26" y="116" width="323" height="272" rx="5"></rect>
        <filter x="-2.2%" y="-1.8%" width="104.3%" height="105.1%" filterUnits="objectBoundingBox" id="filter-2">
            <feOffset dx="0" dy="2" in="SourceAlpha" result="shadowOffsetOuter1"></feOffset>
            <feGaussianBlur stdDeviation="2" in="shadowOffsetOuter1" result="shadowBlurOuter1"></feGaussianBlur>
            <feColorMatrix values="0 0 0 0 0   0 0 0 0 0   0 0 0 0 0  0 0 0 0.12 0" type="matrix" in="shadowBlurOuter1"></feColorMatrix>
        </filter>
        <rect id="path-3" x="0" y="0" width="323" height="94" rx="5"></rect>
        <filter x="-2.2%" y="-5.3%" width="104.3%" height="114.9%" filterUnits="objectBoundingBox" id="filter-4">
            <feOffset dx="0" dy="2" in="SourceAlpha" result="shadowOffsetOuter1"></feOffset>
            <feGaussianBlur stdDeviation="2" in="shadowOffsetOuter1" result="shadowBlurOuter1"></feGaussianBlur>
            <feColorMatrix values="0 0 0 0 0   0 0 0 0 0   0 0 0 0 0  0 0 0 0.12 0" type="matrix" in="shadowBlurOuter1"></feColorMatrix>
        </filter>
    </defs>
    <g id="spnding-analysis" stroke="none" stroke-width="1" fill="none" fill-rule="evenodd">
        <g id="analysis4-t">
            <rect id="Rectangle-2" fill="#E7E7E7" x="0" y="0" width="375" height="43"></rect>
            <g id="Group-2" transform="translate(332.000000, 12.000000)">
                <path d="M0.5,2.5 L22.5,2.5" id="Line" stroke="#9B9B9B" stroke-linecap="square"></path>
                <path d="M0.5,9.5 L22.5,9.5" id="Line" stroke="#9B9B9B" stroke-linecap="square"></path>
                <path d="M0.5,16.5 L22.5,16.5" id="Line" stroke="#9B9B9B" stroke-linecap="square"></path>
                <circle id="Oval-2" fill="#9B9B9B" cx="6.5" cy="2.5" r="2.5"></circle>
                <circle id="Oval-2" fill="#9B9B9B" cx="6.5" cy="16.5" r="2.5"></circle>
                <circle id="Oval-2" fill="#9B9B9B" cx="16.5" cy="9.5" r="2.5"></circle>
            </g>
            <text id="Ohana" font-family="WildYouth-Regular, Wild Youth" font-size="24" font-weight="normal" fill="#4A4A4A">
                <tspan x="152.384" y="31">Ohana</tspan>
            </text>
            <text id="Spendings" font-family="OpenSans, Open Sans" font-size="24" font-weight="normal" fill="#4A4A4A">
                <tspan x="26" y="93">Spendings</tspan>
            </text>
            <g id="Group-4" transform="translate(0.000000, 597.000000)">
                <rect id="Rectangle-2" fill="#E7E7E7" x="0" y="0" width="375" height="70"></rect>
                <text id="Achievement" font-family="OpenSans, Open Sans" font-size="12" font-weight="normal" fill="#4A4A4A">
                    <tspan x="107.160156" y="54">Achievement</tspan>
                </text>
                <text id="Rewards" font-family="OpenSans, Open Sans" font-size="12" font-weight="normal" fill="#4A4A4A">
                    <tspan x="208.432617" y="54">Rewards</tspan>
                </text>
                <text id="Spendings" font-family="OpenSans-Bold, Open Sans" font-size="12" font-weight="bold" fill="#4A4A4A">
                    <tspan x="290.466797" y="54">Spendings</tspan>
                </text>
                <circle id="Oval" fill="#D8D8D8" cx="232" cy="26" r="14"></circle>
                <circle id="Oval" fill="#9B9B9B" cx="321" cy="26" r="14"></circle>
                <circle id="Oval" fill="#D8D8D8" cx="143" cy="26" r="14"></circle>
                <text id="Balance" font-family="OpenSans, Open Sans" font-size="12" font-weight="normal" fill="#4A4A4A">
                    <tspan x="32.015625" y="54">Balance</tspan>
                </text>
                <circle id="Oval" fill="#D8D8D8" cx="54" cy="27" r="14"></circle>
                <path d="M281.5,61 L359.006451,61" id="Line" stroke="#9B9B9B" stroke-width="2" stroke-linecap="square"></path>
            </g>
            <g id="Rectangle">
                <use fill="black" fill-opacity="1" filter="url(#filter-2)" xlink:href="#path-1"></use>
                <use fill="#E7E7E7" fill-rule="evenodd" xlink:href="#path-1"></use>
            </g>
            <g id="Group-6" transform="translate(63.000000, 168.000000)">
                <path d="M10.6334437,0.249651766 C11.1622432,-0.726176373 12.0154447,-0.733838141 12.5483961,0.249651766 L22.966299,19.4744862 C23.4950985,20.4503143 23.0313376,21.2413793 21.92617,21.2413793 L1.25566976,21.2413793 C0.152422847,21.2413793 -0.317410687,20.4579761 0.215540714,19.4744862 L10.6334437,0.249651766 Z" id="Rectangle-10" fill="#D8D8D8"></path>
                <path d="M12.391192,13.8551994 L10.6232989,13.8551994 L10.2537802,6.6171875 L12.7607107,6.6171875 L12.391192,13.8551994 Z M10.2247984,16.3888739 C10.2247984,15.9740012 10.3334793,15.6603818 10.5508443,15.4480065 C10.7682093,15.2356311 11.0845913,15.129445 11.5,15.129445 C11.9009177,15.129445 12.2112619,15.2381006 12.4310421,15.4554149 C12.6508223,15.6727292 12.7607107,15.9838791 12.7607107,16.3888739 C12.7607107,16.7790519 12.6496147,17.0864976 12.4274194,17.3112204 C12.205224,17.5359431 11.8960873,17.6483028 11.5,17.6483028 C11.094252,17.6483028 10.780285,17.5384126 10.5580897,17.3186288 C10.3358944,17.098845 10.2247984,16.7889298 10.2247984,16.3888739 Z" id="!" fill="#4A4A4A"></path>
            </g>
            <text id="Analysis" font-family="OpenSans, Open Sans" font-size="16" font-weight="normal" fill="#4A4A4A">
                <tspan x="40" y="147">Analysis</tspan>
            </text>
            <g id="Group-9" transform="translate(26.000000, 424.000000)">
                <g id="Rectangle">
                    <use fill="black" fill-opacity="1" filter="url(#filter-4)" xlink:href="#path-3"></use>
                    <use fill="#E7E7E7" fill-rule="evenodd" xlink:href="#path-3"></use>
                </g>
                <circle id="Oval" fill="#E7E7E7" cx="28" cy="60" r="14"></circle>
                <text id="F" font-family="OpenSans-Bold, Open Sans" font-size="16" font-weight="bold" fill="#4A4A4A">
                    <tspan x="24.109375" y="66">F</tspan>
                </text>
                <text id="Last-Purchase" font-family="OpenSans, Open Sans" font-size="16" font-weight="normal" fill="#4A4A4A">
                    <tspan x="14" y="30">Last Purchase</tspan>
                </text>
                <text id="Chipotle" font-family="OpenSans, Open Sans" font-size="16" font-weight="normal" fill="#4A4A4A">
                    <tspan x="50" y="65">Chipotle</tspan>
                </text>
                <g id="Group-5" transform="translate(265.000000, 48.000000)" font-family="OpenSans, Open Sans" fill="#4A4A4A" font-weight="normal">
                    <text id="$-6" font-size="16">
                        <tspan x="0" y="17">$ 6</tspan>
                    </text>
                    <text id="50" font-size="10">
                        <tspan x="25" y="12">50</tspan>
                    </text>
                </g>
                <text id="12:22pm,-Jun-12" font-family="Raleway-Regular, Raleway" font-size="12" font-weight="normal" fill="#4A4A4A">
                    <tspan x="217" y="82">12:22pm, Jun 12</tspan>
                </text>
            </g>
            <g id="Group-6" transform="translate(34.000000, 193.000000)">
                <polyline id="Line" stroke="#979797" stroke-linecap="square" points="132 32 103.06491 8 90 8"></polyline>
                <text id="Entertainment-60%" font-family="Raleway-Bold, Raleway" font-size="12" font-weight="bold" fill="#D0011B">
                    <tspan x="0.04" y="11">Entertainment</tspan>
                    <tspan x="29.458" y="25">60%</tspan>
                </text>
            </g>
            <g id="Group-7" transform="translate(208.000000, 193.000000)">
                <polyline id="Line" stroke="#979797" stroke-linecap="square" points="0.207185176 31.1057075 30.1445411 6.71300379 60.0818969 6.71300379"></polyline>
                <text id="Food-18%" font-family="Raleway-Regular, Raleway" font-size="12" font-weight="normal" fill="#4A4A4A">
                    <tspan x="71.594" y="11">Food</tspan>
                    <tspan x="75.59" y="25">18%</tspan>
                </text>
            </g>
            <g id="Group-7" transform="translate(227.000000, 313.000000)">
                <polyline id="Line" stroke="#979797" stroke-linecap="square" transform="translate(13.927909, 12.196352) scale(1, -1) translate(-13.927909, -12.196352) " points="0 24.3927037 12.4815345 0 27.855818 0"></polyline>
                <text id="Transportation-18%" font-family="Raleway-Regular, Raleway" font-size="12" font-weight="normal" fill="#4A4A4A">
                    <tspan x="34" y="29">Transportation</tspan>
                    <tspan x="64.09" y="43">18%</tspan>
                </text>
            </g>
            <g id="Group-8" transform="translate(223.000000, 262.000000)">
                <text id="Retail-18%" font-family="Raleway-Regular, Raleway" font-size="12" font-weight="normal" fill="#4A4A4A">
                    <tspan x="56.34" y="15">Retail</tspan>
                    <tspan x="61.59" y="29">18%</tspan>
                </text>
                <path d="M0.5,9.5 L46.5,9.5" id="Line" stroke="#979797" stroke-linecap="square"></path>
            </g>
            <g id="Group-3" transform="translate(111.000000, 195.000000)">
                <path d="M76,152 C34.026359,152 0,117.973641 0,76 C0,34.026359 34.026359,0 76,0 C117.973641,0 152,34.026359 152,76 C152,117.973641 117.973641,152 76,152 Z M76,103.2 C91.0221452,103.2 103.2,91.0221452 103.2,76 C103.2,60.9778548 91.0221452,48.8 76,48.8 C60.9778548,48.8 48.8,60.9778548 48.8,76 C48.8,91.0221452 60.9778548,103.2 76,103.2 Z" id="Combined-Shape" fill="#CBCBCB"></path>
                <path d="M76,48.8000006 C76,42.1908801 76,29.4530435 76,0 C117.973641,0 152,34.026359 152,76 C152,103.873315 136.994881,128.241997 114.621738,141.468951 C105.041356,125.26759 111.857558,136.794453 89.8214612,99.4316169 C97.829275,94.6979021 103.2,85.9761511 103.2,76 C103.2,60.9778548 91.0221452,48.8 76,48.8 Z" id="Combined-Shape" fill="#4A4A4A"></path>
                <path d="M101.207442,65.7620382 C126.439396,55.5141209 88.0624129,71.1008705 146.432558,47.3939302 C150.022382,56.2237816 152,65.8809421 152,76 C152,92.9895872 146.425219,108.677114 137.005117,121.333121 C86.4478514,83.7638358 119.688051,108.464747 97.8334102,92.2244853 C101.204815,87.6949673 103.2,82.0804838 103.2,76 C103.2,72.3784424 102.492221,68.9221955 101.207442,65.7620382 Z" id="Combined-Shape" fill="#6B6B6B"></path>
                <path d="M76,48.8 C76,32.3706908 76,17.3729968 76,0 C107.805233,0 135.047339,19.5370662 146.379921,47.2648005 C88.0533981,71.0787555 126.4017,55.4216462 101.188603,65.7158233 C97.1327319,55.7922132 87.3829254,48.8 76,48.8 Z" id="Combined-Shape" fill="#9B9B9B"></path>
            </g>
            <text id="Jun1---Jun-14,-2017" font-family="Raleway-Regular, Raleway" font-size="12" font-weight="normal" fill="#4A4A4A">
                <tspan x="224.228" y="148">Jun1 - Jun 14, 2017</tspan>
            </text>
        </g>
    </g>
</svg>