<?xml version="1.0" encoding="UTF-8"?>
<svg width="375px" height="667px" viewBox="0 0 375 667" version="1.1" xmlns="http://www.w3.org/2000/svg" xmlns:xlink="http://www.w3.org/1999/xlink" style="background: #FFFFFF;">
    <!-- Generator: Sketch 43 (38999) - http://www.bohemiancoding.com/sketch -->
    <title>analysis4cq copy</title>
    <desc>Created with Sketch.</desc>
    <defs>
        <linearGradient x1="100%" y1="100%" x2="1.84749681%" y2="1.84749681%" id="linearGradient-1">
            <stop stop-color="#FC9000" stop-opacity="0.868404665" offset="0%"></stop>
            <stop stop-color="#FFC13A" offset="100%"></stop>
        </linearGradient>
        <circle id="path-2" cx="23.75" cy="2.75" r="2.75"></circle>
        <circle id="path-3" cx="30.75" cy="2.75" r="2.75"></circle>
    </defs>
    <g id="Analysis" stroke="none" stroke-width="1" fill="none" fill-rule="evenodd">
        <g id="analysis4cq-copy">
            <g id="Group-6">
                <rect id="Rectangle-8" fill="url(#linearGradient-1)" x="0" y="0" width="375" height="57"></rect>
                <text id="Analysis" font-family="OpenSans-Bold, Open Sans" font-size="17" font-weight="bold" fill="#FFFFFF">
                    <tspan x="151.94165" y="43">Analysis</tspan>
                </text>
                <path d="M20.190097,35.1548856 L19.1430249,36.2012106 C18.9564522,36.3882417 18.9518681,36.6866664 19.1324815,36.8672798 L27.9073589,45.7943491 C28.0879723,45.975421 28.3859385,45.9703784 28.5725113,45.7838057 L29.8569751,44.4993419 C30.0435478,44.3127692 30.0481319,44.0148029 29.8675185,43.8337311 L22.6814959,36.5226918 L29.8503275,29.0716693 C30.0295657,28.8928896 30.0249816,28.5981322 29.8402425,28.4129347 L28.5686142,27.1417647 C28.3838751,26.9570257 28.0891177,26.9519832 27.9098795,27.1316797 L20.190097,35.1548856 Z" id="Arrow" fill="#FFFFFF"></path>
                <g id="Group-2">
                    <rect id="Background" fill-opacity="0" fill="#000000" x="0" y="0" width="375" height="20"></rect>
                    <g id="Charge" transform="translate(315.000000, 3.000000)" fill="#FFFFFF">
                        <g id="Battery-Icon" transform="translate(30.000000, 2.000000)">
                            <path d="M1.50245835,1.02631579 L1.50245835,1.02631579 C0.947213227,1.02631579 0.5,1.49554092 0.5,2.07901162 L0.5,8.92098838 C0.5,9.50189311 0.949063705,9.97368421 1.50245835,9.97368421 L20.9975417,9.97368421 C21.5527868,9.97368421 22,9.50445908 22,8.92098838 L22,2.07901162 C22,1.49810689 21.5509363,1.02631579 20.9975417,1.02631579 L1.50245835,1.02631579 Z M1.50245835,0.5 L1.50245835,0.5 L20.9975417,0.5 C21.8266197,0.5 22.5,1.20694758 22.5,2.07901162 L22.5,8.92098838 C22.5,9.79681942 21.8273265,10.5 20.9975417,10.5 L1.50245835,10.5 C0.673380308,10.5 0,9.79305242 0,8.92098838 L0,2.07901162 C0,1.20318058 0.672673516,0.5 1.50245835,0.5 L1.50245835,0.5 Z" id="Shape" fill-rule="nonzero"></path>
                            <path d="M1.50966585,1.5 C1.22818517,1.5 1,1.73079681 1,2.00043583 L1,8.99956417 C1,9.27594725 1.22247314,9.5 1.50966585,9.5 L10,9.5 L10,1.5 L1.50966585,1.5 Z" id="Charge"></path>
                            <path d="M24.5,5.73227779 C24.5,6.61389637 23.8480727,7.34324909 23,7.46455558 L23,4 C23.8480727,4.12130649 24.5,4.85065921 24.5,5.73227779 Z" id="+"></path>
                        </g>
                        <text id="42%" font-family=".SFNSText, .SF NS Text" font-size="12" font-weight="normal">
                            <tspan x="0" y="12">42%</tspan>
                        </text>
                    </g>
                    <path d="M306.427765,14.8689464 L306.427765,11.3107321 L308.139765,13.1751786 L306.427765,14.8689464 L306.427765,14.8689464 L306.427765,14.8689464 L306.427765,14.8689464 Z M308.218353,7.84653571 L306.427765,9.64782143 L306.427765,6.23521429 L308.218353,7.84653571 L308.218353,7.84653571 L308.218353,7.84653571 L308.218353,7.84653571 Z M306.857882,10.5108571 L309.514824,7.84653571 L305.550588,4 L305.456941,4 L305.456941,9.34985714 L302.766118,6.52883929 L302,7.32919643 L305.237647,10.5108571 L302,13.6920357 L302.766118,14.4923929 L305.456941,11.671375 L305.456941,17.02075 L305.628235,17.02075 L309.553412,13.1645714 L306.857882,10.5108571 L306.857882,10.5108571 Z" id="Bluetooth-Icon" fill="#FFFFFF"></path>
                    <path d="M90.9957516,7.52087671 C92.9355242,7.52087671 94.7033612,8.23545205 96.0588529,9.40717808 L97,8.36810959 C95.394602,6.97446575 93.2978883,6 90.9957516,6 C88.6971136,6 86.6033987,6.97150685 85,8.36071233 L85.9391478,9.40126027 C87.2936399,8.2329863 89.0584781,7.52087671 90.9957516,7.52087671 L90.9957516,7.52087671 Z M90.9957516,10.5202192 C92.1583156,10.5202192 93.2204173,10.9423562 94.0396101,11.6376986 L95.0352368,10.5379726 C93.9516431,9.60789041 92.5421717,9.00032877 90.9957516,9.00032877 C89.4523304,9.00032877 88.0438586,9.60641096 86.9612645,10.5335342 L87.9553917,11.6347397 C88.7740847,10.9408767 89.834687,10.5202192 90.9957516,10.5202192 L90.9957516,10.5202192 Z M93.0434837,12.7374247 C92.4891916,12.2773151 91.7754592,11.9587397 90.9952518,11.9587397 C90.2165438,11.9587397 89.5038111,12.2768219 88.9495189,12.7349589 L90.9952518,15 L93.0434837,12.7374247 L93.0434837,12.7374247 Z" id="Wifi" fill="#FFFFFF"></path>
                    <g id="Signal" transform="translate(7.000000, 8.000000)">
                        <circle id="Oval-1" fill="#FFFFFF" cx="2.75" cy="2.75" r="2.75"></circle>
                        <circle id="Oval-1-copy" fill="#FFFFFF" cx="9.75" cy="2.75" r="2.75"></circle>
                        <circle id="Oval-1-copy-2" fill="#FFFFFF" cx="16.75" cy="2.75" r="2.75"></circle>
                        <g id="Oval-1-copy-3">
                            <use fill="#FFFFFF" fill-rule="evenodd" xlink:href="#path-2"></use>
                            <circle stroke="#FFFFFF" stroke-width="0.5" cx="23.75" cy="2.75" r="2.5"></circle>
                        </g>
                        <g id="Oval-1-copy-4">
                            <use fill="#FFFFFF" fill-rule="evenodd" xlink:href="#path-3"></use>
                            <circle stroke="#FFFFFF" stroke-width="0.5" cx="30.75" cy="2.75" r="2.5"></circle>
                        </g>
                    </g>
                    <text id="AT&amp;T" font-family=".SFNSText, .SF NS Text" font-size="12" font-weight="normal" fill="#FFFFFF">
                        <tspan x="44" y="15">AT&amp;T</tspan>
                    </text>
                    <text id="8:50-PM" font-family=".SFNSText, .SF NS Text" font-size="12" font-weight="normal" fill="#FFFFFF">
                        <tspan x="164.646484" y="15">8:50 PM</tspan>
                    </text>
                </g>
            </g>
            <text id="Retail" font-family="OpenSans-Bold, Open Sans" font-size="17" font-weight="bold" fill="#4A4A4A">
                <tspan x="164" y="100">Retail</tspan>
            </text>
            <g id="icon/info" transform="translate(224.000000, 86.000000)">
                <g id="Group-3-Copy" stroke-width="1" fill="#FA8F01">
                    <circle id="Oval-3" cx="8.5" cy="8.5" r="8.5"></circle>
                </g>
                <path d="M7.2487811,4.93526147 C7.2487811,4.28458118 7.61123515,3.78668278 8.33615413,3.78668278 C9.06107311,3.78668278 9.42352716,4.28458118 9.42352716,4.93526147 C9.42352716,5.24531718 9.32930188,5.54520647 9.14807213,5.71770225 C8.96684239,5.89019803 8.69861362,6.04363558 8.33615413,6.04363558 C7.61123515,6.04363558 7.2487811,5.59030874 7.2487811,4.93526147 Z M9.331821,12.0357278 C9.331821,12.5869416 8.88842575,13.0337887 8.33287891,13.0337887 L8.33287891,13.0337887 C7.78117843,13.0337887 7.33393682,12.5807958 7.33393682,12.0357278 L7.33393682,7.73306636 C7.33393682,7.18185253 7.77733207,6.73500542 8.33287891,6.73500542 L8.33287891,6.73500542 C8.88457939,6.73500542 9.331821,7.18799839 9.331821,7.73306636 L9.331821,12.0357278 Z" id="i" fill="#FFFFFF"></path>
            </g>
            <g id="icon/transactions/groceries" transform="translate(129.000000, 82.000000)" fill="#4A4A4A">
                <g id="groceries-2" transform="translate(3.378378, 1.351351)">
                    <path d="M12.3531184,9.99720902 C12.3949907,10.0114298 12.4380481,10.0181452 12.4799204,10.0181452 C12.6446444,10.0181452 12.7983078,9.91464948 12.8540059,9.74992544 C12.9776477,9.38729552 13.3730644,9.19254983 13.7356943,9.31540157 C14.5107269,9.57769598 15.3564683,9.16173814 15.6191578,8.38631055 C15.6894716,8.18010923 15.5788655,7.95534188 15.3722692,7.88502802 C15.1648828,7.81510918 14.9413005,7.92571526 14.8709867,8.1323116 C14.7477399,8.49533654 14.3523232,8.69008223 13.9892983,8.56683547 C13.2154508,8.30572613 12.3689193,8.72089393 12.1058348,9.49592649 C12.035916,9.70212781 12.1465221,9.92689516 12.3531184,9.99720902 Z" id="Shape" fill-rule="nonzero"></path>
                    <path d="M13.2877397,7.24469786 C13.329612,7.25891864 13.3726694,7.26563401 13.4145417,7.26563401 C13.5792657,7.26563401 13.7329292,7.16213832 13.7886272,6.99741428 C13.8482755,6.82162962 13.9727073,6.67942181 14.1394065,6.5972573 C14.3061056,6.51509279 14.494531,6.50324214 14.6703157,6.56289041 C15.4453482,6.82518482 16.2906946,6.40922698 16.5537791,5.63340437 C16.6240929,5.42720305 16.5130919,5.2024357 16.3068905,5.13212184 C16.1002942,5.06101794 15.8759219,5.17280908 15.806003,5.37940542 C15.6827563,5.74282538 15.2881296,5.93757107 14.9243146,5.81432431 C14.5482539,5.6867323 14.1457268,5.71280373 13.7902073,5.88858838 C13.4346878,6.06397802 13.1684432,6.3677497 13.0408512,6.74341533 C12.9701423,6.95001167 13.0811434,7.174384 13.2877397,7.24469786 Z" id="Shape" fill-rule="nonzero"></path>
                    <path d="M14.221571,4.4921867 C14.2638383,4.50640748 14.3065007,4.51312285 14.348768,4.51312285 C14.513492,4.51312285 14.6671555,4.40962716 14.7228535,4.24490312 C14.8137085,3.97707841 15.1064196,3.83289549 15.3738493,3.92375048 C15.7036924,4.03554162 16.0572368,4.01263036 16.369699,3.85896692 C16.6817661,3.70490846 16.9152239,3.43866384 17.0274101,3.10882073 C17.097724,2.9026194 16.9871179,2.67785206 16.7805215,2.6075382 C16.5731351,2.53682932 16.3495529,2.64822543 16.279239,2.85482178 C16.2349966,2.98478392 16.1429565,3.08985969 16.0201048,3.15029801 C15.897253,3.21073632 15.7582054,3.21982182 15.6278482,3.17518437 C14.9476209,2.94567677 14.2053751,3.31067681 13.9746824,3.99050915 C13.9047636,4.19750051 14.0149747,4.42187284 14.221571,4.4921867 Z" id="Shape" fill-rule="nonzero"></path>
                    <path d="M17.0831082,9.96797741 C17.0143744,9.92096983 16.9369501,9.89410836 16.8579458,9.88383779 C17.6428539,7.33318272 18.0734275,4.83427548 18.1350509,2.45426978 C18.154407,1.70570367 17.7886169,0.706298788 17.0511114,0.243728385 C16.697172,0.0213311714 16.1172801,-0.161958894 15.3643688,0.225557387 C14.184439,0.834285817 13.3406726,2.62491915 12.6628154,4.0643782 C12.6237083,4.14733276 12.5853912,4.22831221 12.5474691,4.30850161 C12.3977558,3.6199788 11.9426909,3.03100145 11.2956453,2.72367458 C11.143167,1.99051431 10.561695,1.41615277 9.83090488,1.26722959 C9.82300445,1.22614734 9.81312891,1.18585512 9.80088324,1.14516789 C9.65037997,0.630849644 9.19650005,0.243728385 8.67151621,0.181314957 C8.37564497,0.146158027 8.08253887,0.207386389 7.83209512,0.353939437 C7.6187834,0.235037908 7.37940026,0.171834437 7.13369676,0.171834437 C6.44675404,0.171834437 5.86962734,0.650995751 5.71912408,1.29211596 C4.96818784,1.4967372 4.4175276,2.18605005 4.41160227,2.98715405 C3.55480022,3.20836619 2.93066594,3.98260871 2.93066594,4.90340428 C2.93066594,5.14752769 2.97648846,5.38928096 3.0645783,5.61720848 C2.84218108,5.89174856 2.71893432,6.23541743 2.71893432,6.59607224 C2.71893432,6.81254413 2.76357177,7.02111558 2.84771139,7.21388617 C2.45308472,6.78331252 1.89768422,6.43134819 1.27394496,6.45425945 C1.05589299,6.46136984 0.884453572,6.64347484 0.89116894,6.86152682 C0.897884309,7.07523355 1.07327394,7.24430284 1.28579561,7.24430284 C1.29922635,7.24469786 1.31147202,7.24351279 1.32411272,7.24351279 C1.69424804,7.24351279 2.03831194,7.48842624 2.28875569,7.77284186 C1.66225129,7.95336678 0.906969808,8.24726292 0.554610458,8.9116894 C0.342483808,9.31263642 0.317597442,9.80443843 0.459015208,10.3677394 C0.390676455,10.4819006 0.353149394,10.6146279 0.360259784,10.7560457 L1.03258671,20.3104354 C1.09381507,21.5085362 2.0813693,22.4467127 3.28065516,22.4467127 L14.3693091,22.4467127 C15.568595,22.4467127 16.5561492,21.5085362 16.6169826,20.3175458 L17.3062954,10.4309428 C17.3062954,10.4285727 17.3066904,10.4262026 17.3066904,10.4238324 C17.317751,10.2417274 17.2336114,10.0714731 17.0831082,9.96797741 Z M12.8698068,5.43826365 C13.0262354,5.14634262 13.1968847,4.78450275 13.3774096,4.40093669 C13.9711273,3.14002744 14.7848719,1.41338762 15.7262086,0.927510936 C16.0698775,0.750541218 16.3657488,0.746986022 16.6312033,0.912500112 C17.0890335,1.2000759 17.3584383,1.92573076 17.3454026,2.43372865 C17.2849642,4.7690969 16.8583408,7.22692188 16.0769879,9.73925985 C16.0513115,9.82181939 15.9944284,9.98851854 15.9134489,10.2172361 L15.240332,10.5162675 C15.2257162,10.5229829 15.2114954,10.5300933 15.1976696,10.5387838 C15.0033189,10.6553152 14.785267,10.7129883 14.567215,10.7153585 C14.349163,10.7129883 14.1315061,10.6553152 13.9371554,10.5387838 L13.6555049,10.3697145 C13.3315871,10.1753638 12.9685622,10.0781885 12.6055373,10.0781885 C12.601192,10.0781885 12.5968468,10.0789785 12.5921065,10.0789785 C12.2247363,10.0766084 11.8565761,10.1725986 11.5287081,10.3697145 L11.2474527,10.5387838 C11.0906291,10.6327989 10.9172145,10.6786214 10.7418249,10.6983725 C10.7517005,10.6640056 10.7631561,10.6304288 10.7734266,10.5964569 C10.8816626,10.2286917 10.997799,9.86606182 11.1194656,9.50619705 C11.1656832,9.36951955 11.2138758,9.23363208 11.2620685,9.09813964 C11.3635891,8.81253896 11.4698499,8.53049347 11.5796659,8.25042309 C11.6286486,8.12520121 11.6764462,7.99879427 11.727009,7.87475746 C12.0714679,7.03454632 12.4514788,6.21961656 12.8698068,5.43826365 Z M7.83407022,6.37525511 C7.88028776,6.31600186 7.92532024,6.25832869 7.96798258,6.20223561 C7.96798258,6.20144557 7.9683776,6.20105054 7.96877262,6.20065552 C7.99997934,6.15917824 8.02723583,6.11612088 8.05014709,6.07306352 C8.14732243,5.89016847 8.17023369,5.68475719 8.12520121,5.48408617 L9.77402176,5.12343136 C9.78508237,5.17399414 9.79693302,5.2241619 9.81589406,5.27077446 C9.88976312,5.45169439 10.0217004,5.60219766 10.2053855,5.70727343 C10.2654287,5.74045525 10.3282372,5.77363707 10.3930208,5.80800396 C10.4463487,5.8360505 10.4996766,5.8652821 10.5533996,5.89451371 C10.579076,5.90833947 10.6051474,5.92216523 10.6308238,5.93638601 C10.6778314,5.96285246 10.7232589,5.99208407 10.7690814,6.02092065 C10.8081886,6.04501697 10.8469007,6.06990334 10.8848228,6.09636979 C10.9286702,6.12678647 10.9705425,6.16036331 11.0124148,6.19433517 C11.0491518,6.22435682 11.0843087,6.25714362 11.1190706,6.29072047 C11.1565977,6.32745749 11.1937297,6.36498455 11.2280966,6.4060668 C11.28893,6.47875079 11.3473932,6.55419994 11.3951908,6.64465991 C11.2277016,7.01440021 11.0700879,7.39164593 10.9176096,7.77205182 C10.8939083,7.83091005 10.8686269,7.8881882 10.8453206,7.94704643 C10.4123768,8.05686246 9.99404884,8.26227374 9.47736047,8.63003894 C8.82636472,9.09260934 8.3416731,9.21546109 7.54293924,9.09971973 L7.30316107,8.00195444 C7.14041213,7.25970868 7.4931665,6.81017399 7.83407022,6.37525511 Z M9.7929828,3.97628837 C9.80325337,3.97431326 9.81352393,3.97312819 9.82379449,3.97312819 C9.89845359,3.97312819 9.96837243,4.02645612 9.98456832,4.10151024 C9.99720902,4.15839337 9.97587785,4.20303082 9.96165707,4.22475701 C9.94783131,4.24608818 9.91662459,4.28361524 9.86013649,4.29586092 L7.67803666,4.77344214 C7.59113188,4.79240318 7.50264702,4.73473002 7.48368598,4.64861529 C7.46472494,4.56210554 7.52200309,4.47322566 7.60851284,4.45426462 L8.76790151,4.20066069 L9.7929828,3.97628837 Z M8.51627269,10.0860889 C8.48625104,10.088064 8.45583437,10.0888541 8.42581272,10.0920142 C8.2105259,10.1137404 7.99800423,10.1682534 7.79614814,10.2591084 L7.720699,9.91346442 C7.83446525,9.92294494 7.94783647,9.93242546 8.05409731,9.93242546 C8.74301514,9.93242546 9.2976256,9.7274092 9.93519061,9.2739243 C10.1358616,9.13092644 10.3136214,9.0226905 10.4826907,8.93302058 C10.4463487,9.03612124 10.4104017,9.13882688 10.3752448,9.24232256 C10.3499634,9.31658664 10.3227069,9.38966565 10.2982155,9.46432475 C10.1820792,9.81589406 10.0714731,10.1702285 9.96837243,10.5277232 L9.70568301,10.3705045 C9.38176522,10.1761538 9.01874028,10.0789785 8.65571535,10.0789785 C8.65097509,10.0789785 8.6458398,10.0797686 8.64109954,10.0797686 C8.59922724,10.0789785 8.55774997,10.0837188 8.51627269,10.0860889 Z M3.79141821,6.00116957 L4.05015742,5.78785785 L3.8822732,5.49830695 C3.77719743,5.31659697 3.72149937,5.11118569 3.72149937,4.90340428 C3.72149937,4.26346914 4.2227819,3.74164548 4.86271705,3.71478401 L5.34227338,3.6946379 L5.23048224,3.22772226 C5.2115212,3.14950796 5.20204068,3.07247873 5.20204068,2.99939972 C5.20204068,2.49061178 5.5994325,2.06201324 6.10664036,2.02330111 L6.4716404,1.9956496 L6.4716404,1.60260301 C6.48309603,1.24747851 6.77580711,0.961877824 7.13409178,0.961877824 C7.34029311,0.961877824 7.48803122,1.05589299 7.57533102,1.13489733 L7.85224122,1.38494606 L8.1176958,1.12265165 C8.23936248,1.00256506 8.40645666,0.946471977 8.57868612,0.966223062 C8.79041774,0.991109429 8.98160824,1.1562285 9.04323163,1.36835515 C9.06416778,1.43945905 9.0700931,1.50819283 9.06179765,1.57811167 L9.01558011,2.0193509 L9.46037454,2.0193509 C10.0280207,2.0193509 10.5028368,2.46296026 10.5419439,3.02942137 L10.5597199,3.28895062 L10.8050284,3.37506535 C11.4224473,3.59193226 11.8285296,4.17616934 11.8147038,4.82993025 C11.8087785,5.10921058 11.7187136,5.37822036 11.5555696,5.61404831 C11.2913001,5.38967599 11.0064894,5.23838268 10.7671063,5.11237076 C10.7050879,5.07958396 10.6450446,5.04798222 10.5846063,5.01440538 C10.5676203,5.00492486 10.5470792,4.98833394 10.5399688,4.94685667 C10.5304883,4.88997354 10.5518195,4.82163479 10.5948768,4.77146704 C10.7671063,4.57158606 10.8362351,4.29902109 10.780537,4.04186197 L10.7327394,3.82420501 C10.6849418,3.60457295 10.5537946,3.41693765 10.3641842,3.29527097 C10.1749688,3.17399931 9.94980641,3.13331207 9.73056937,3.18150472 L9.62470356,3.204811 C9.6235185,3.20520602 9.62233343,3.204811 9.62114837,3.20520602 L8.4617597,3.45880995 L7.33041757,3.70569851 C7.11118053,3.75349613 6.92354522,3.88424831 6.80187854,4.07425375 C6.68021186,4.26346914 6.63991965,4.48902652 6.68771727,4.70826356 L6.71141857,4.81570946 L6.71141857,4.81689453 C6.71141857,4.81728955 6.71181359,4.81768457 6.71181359,4.81847462 L6.73511987,4.9255255 C6.79239802,5.18860994 6.97529306,5.41021711 7.22376171,5.51687297 C7.28538509,5.54333942 7.33673791,5.59350718 7.35451389,5.64446498 C7.36478445,5.67369658 7.35885913,5.68870741 7.33594787,5.72662949 C7.33594787,5.72662949 7.33594787,5.72662949 7.33594787,5.72702451 C7.29684072,5.7795624 7.2545734,5.83289033 7.21151604,5.88779834 C7.16806365,5.94310138 7.12303118,6.00116957 7.07720866,6.06121286 C7.06180281,6.08135897 7.04718701,6.10229512 7.03178116,6.12283625 C6.99899436,6.1674737 6.96620756,6.21290119 6.93381579,6.2603038 C6.91603981,6.28598021 6.89905388,6.31244666 6.88167292,6.33930814 C6.85165127,6.38552567 6.82281469,6.4333233 6.79437313,6.48230599 C6.77778222,6.51074755 6.76158633,6.53879409 6.74578546,6.56842072 C6.71615883,6.62372376 6.68929736,6.68179194 6.6628309,6.7410452 C6.65137527,6.76632659 6.6391296,6.79042291 6.62885904,6.81688936 C6.59409713,6.90300409 6.56328544,6.99306904 6.53879409,7.08787425 C6.53484387,7.10288507 6.53326379,7.11908096 6.52970859,7.13448681 C6.51074755,7.21507123 6.49534171,7.29842081 6.48546616,7.38532558 C6.48151595,7.42008749 6.4807259,7.45642949 6.47835577,7.49237646 C6.4751956,7.53898902 6.46927027,7.58323145 6.46927027,7.63181912 C6.46769019,7.62984401 6.4661101,7.6278689 6.46453001,7.62589379 C6.45899971,7.6187834 6.45346941,7.61246305 6.44833412,7.60535266 C6.37960035,7.5148927 6.31086657,7.43154312 6.24173778,7.35253878 C6.22001158,7.32765241 6.19789037,7.30355609 6.17576916,7.27985479 C6.11770097,7.21704634 6.05963278,7.15818811 6.00116957,7.10288507 C5.98220853,7.08510909 5.96324748,7.06575303 5.94389142,7.04837208 C5.87002236,6.98240345 5.79575829,6.92196513 5.72109919,6.86824218 C5.70016304,6.85323136 5.67883186,6.84059067 5.65789572,6.82636988 C5.60180263,6.78884282 5.54570955,6.75408091 5.48882643,6.72326922 C5.46117491,6.7082584 5.43391842,6.6936426 5.40587187,6.68021186 C5.34701364,6.65137527 5.28776039,6.62688393 5.22811211,6.60555276 C5.20836103,6.59844237 5.18860994,6.58896185 5.16885886,6.5826415 C5.1040753,6.56210037 5.03889672,6.54550946 4.97332312,6.53326379 C4.96581771,6.5316837 4.9583123,6.53247374 4.95080688,6.53128868 C4.93737615,6.52891855 4.92434043,6.52378327 4.91090969,6.52180816 C4.86508718,6.51509279 4.82163479,6.51785794 4.77660232,6.51469777 C4.74500058,6.51272266 4.71379387,6.50600729 4.68219213,6.50600729 C4.67271161,6.50600729 4.66283607,6.50837742 4.65296053,6.50837742 C4.59173216,6.50916746 4.53247891,6.51627786 4.47283063,6.52378327 C4.44320401,6.52773348 4.41357738,6.53010361 4.38395075,6.53563392 C4.30613148,6.5498547 4.23068234,6.56960578 4.15602324,6.59330709 C4.14456761,6.59686228 4.133507,6.59962743 4.12205137,6.60357765 C3.92533057,6.67033632 3.73888033,6.7647465 3.56428074,6.87890777 C3.52833377,6.79002789 3.50937272,6.69443264 3.50937272,6.59607224 C3.50976775,6.36498455 3.61247339,6.14811764 3.79141821,6.00116957 Z M1.25340383,9.28103469 C1.42049801,8.9662024 1.82618529,8.72602921 2.53050897,8.52456814 C2.85995706,8.43055298 3.16570385,8.25476833 3.41377747,8.01775531 C3.52635866,7.90991439 3.63182945,7.81866438 3.73374505,7.73570982 C4.05213253,7.47697061 4.32667261,7.33634289 4.57514125,7.30434613 C4.58067156,7.30355609 4.58620186,7.30276605 4.59173216,7.30237103 C4.67034148,7.29368055 4.74658067,7.29605068 4.82044973,7.30908639 C4.83980579,7.31264159 4.85955687,7.31935696 4.87930796,7.32449224 C4.91604497,7.33357774 4.95238697,7.34266324 4.98912399,7.35727904 C5.01282529,7.36636454 5.03652659,7.3801903 5.06062291,7.39125091 C5.0949898,7.40784182 5.12896167,7.42285264 5.16332856,7.44378879 C5.19019003,7.45998468 5.21705151,7.48092083 5.24391298,7.49948685 C5.27590974,7.52200309 5.30790649,7.54254421 5.34029827,7.56861565 C5.37031992,7.59271197 5.40034157,7.62194357 5.43036322,7.64920007 C5.46038487,7.67645657 5.49040652,7.70134294 5.52042817,7.73175961 C5.55360999,7.76533645 5.58718683,7.8044436 5.62076368,7.84197066 C5.64802017,7.87238733 5.67527667,7.90043387 5.70292819,7.93322067 C5.74045525,7.97825314 5.77837733,8.02960596 5.81629941,8.0793787 C5.84039574,8.11098043 5.86409704,8.13942199 5.88819336,8.17299884 C5.93125073,8.23304213 5.97470311,8.2998008 6.0181555,8.36616445 C6.03711654,8.39539605 6.0564726,8.42146748 6.07543365,8.45148913 C6.13824209,8.55063958 6.20144557,8.65611037 6.26504406,8.76829653 C6.55578002,9.28142971 6.65216532,10.0394763 6.52575838,10.6995576 C6.50482223,10.6975825 6.4842811,10.6944223 6.46334495,10.6912621 C6.31284168,10.6655857 6.16786872,10.6173931 6.03593148,10.5383887 L5.75428101,10.3693195 C5.43036322,10.1749688 5.06733828,10.0777934 4.70431335,10.0777934 C4.32351243,10.0762134 3.95535222,10.1722036 3.62748421,10.3693195 L3.49041168,10.451484 C3.25142356,10.5948768 2.98359885,10.6671658 2.71577414,10.6695359 C2.44755441,10.6671658 2.18012473,10.5952719 1.9411366,10.451484 L1.40983242,10.1323064 C1.33951856,10.0904341 1.26406942,10.0619926 1.18664517,10.0477718 C1.12462676,9.73530963 1.14674798,9.48249575 1.25340383,9.28103469 Z M15.8300993,20.2697482 C15.7902022,21.0471508 15.1490819,21.6562743 14.3708892,21.6562743 L3.28184023,21.6562743 C2.50325247,21.6562743 1.86252728,21.0471508 1.82223507,20.2622427 L1.16491897,10.9231399 L1.50858785,11.1293412 C1.8810933,11.3529235 2.29942128,11.4627395 2.71656419,11.4603694 C3.13410212,11.4627395 3.55203507,11.3529235 3.92454052,11.1293412 L4.06161305,11.0471767 C4.25596373,10.9302503 4.47362068,10.8725771 4.69167265,10.870207 C4.90972463,10.8725771 5.12738158,10.9302503 5.32212728,11.0471767 L5.60377774,11.216246 C5.96008731,11.4299527 6.36379948,11.5215977 6.76277139,11.4998715 C6.79832334,11.4982915 6.8338753,11.4982915 6.86982227,11.4951313 C6.87416751,11.4947363 6.87811773,11.4923661 6.88285799,11.4919711 C7.1526578,11.4615544 7.41732234,11.3766248 7.66144574,11.2375771 C7.684357,11.2292817 7.70884835,11.2288867 7.73017952,11.216246 L8.01182999,11.0471767 C8.20618066,10.9302503 8.42383761,10.8725771 8.64188959,10.870207 C8.85994156,10.8725771 9.07759852,10.9302503 9.27234421,11.0471767 L9.55399468,11.216246 C9.8530261,11.3951908 10.1856344,11.4880209 10.5202177,11.5018466 C10.5269331,11.5022417 10.5340435,11.5030317 10.5407589,11.5030317 C10.6561052,11.5065869 10.7714515,11.5030317 10.8860078,11.4868358 C10.9515814,11.4785404 11.0151799,11.4619495 11.0795685,11.4473337 C11.1107752,11.4398282 11.1419819,11.4331129 11.1727936,11.4240274 C11.3481832,11.3754397 11.5200176,11.3118412 11.6800014,11.2158509 L11.6800014,11.2158509 L11.9616519,11.0467817 C12.1560026,10.9298552 12.3736595,10.8721821 12.5917115,10.8698119 C12.8097635,10.8721821 13.0274204,10.9298552 13.2221661,11.0467817 L13.5038166,11.2158509 C13.8301045,11.4113867 14.1962896,11.507377 14.5620797,11.5057969 C14.568005,11.5057969 14.5743254,11.5069819 14.5802507,11.5069819 C14.9349802,11.5069819 15.2901047,11.4145469 15.6084922,11.2288867 L16.3835247,10.8844277 C16.4001156,10.8769223 16.4119663,10.8627015 16.4273721,10.853221 L16.4878105,10.8263596 L15.8300993,20.2697482 Z" id="Shape" fill-rule="nonzero"></path>
                    <path d="M2.72999492,16.9875129 L5.49514678,16.9875129 C5.71319875,16.9875129 5.89016847,16.8109382 5.89016847,16.5924912 C5.89016847,16.3740442 5.71319875,16.1974695 5.49514678,16.1974695 L2.72999492,16.1974695 C2.51194295,16.1974695 2.33497323,16.3740442 2.33497323,16.5924912 C2.33497323,16.8109382 2.51194295,16.9875129 2.72999492,16.9875129 Z" id="Shape" fill-rule="nonzero"></path>
                    <path d="M2.72999492,18.5675997 L6.28519016,18.5675997 C6.50324214,18.5675997 6.68021186,18.391025 6.68021186,18.172578 C6.68021186,17.954131 6.50324214,17.7775563 6.28519016,17.7775563 L2.72999492,17.7775563 C2.51194295,17.7775563 2.33497323,17.954131 2.33497323,18.172578 C2.33497323,18.391025 2.51194295,18.5675997 2.72999492,18.5675997 Z" id="Shape" fill-rule="nonzero"></path>
                    <path d="M7.07523355,19.3576431 L2.72999492,19.3576431 C2.51194295,19.3576431 2.33497323,19.5342178 2.33497323,19.7526648 C2.33497323,19.9711118 2.51194295,20.1476865 2.72999492,20.1476865 L7.07523355,20.1476865 C7.29328553,20.1476865 7.47025524,19.9711118 7.47025524,19.7526648 C7.47025524,19.5342178 7.29328553,19.3576431 7.07523355,19.3576431 Z" id="Shape" fill-rule="nonzero"></path>
                    <path d="M9.44536371,19.3576431 L8.65532033,19.3576431 C8.43726835,19.3576431 8.26029863,19.5342178 8.26029863,19.7526648 C8.26029863,19.9711118 8.43726835,20.1476865 8.65532033,20.1476865 L9.44536371,20.1476865 C9.66341569,20.1476865 9.84038541,19.9711118 9.84038541,19.7526648 C9.84038541,19.5342178 9.66341569,19.3576431 9.44536371,19.3576431 Z" id="Shape" fill-rule="nonzero"></path>
                </g>
            </g>
            <g id="Group-9" transform="translate(10.000000, 584.000000)">
                <rect id="Rectangle-10" fill="#F3F8F8" x="0" y="0" width="355" height="71.5899963" rx="5"></rect>
                <g id="Group-22" transform="translate(17.000000, 17.000000)">
                    <text id="You-are-doing-well-i" font-family="Lato-Bold, Lato" font-size="16" font-weight="bold" fill="#4A4A4A">
                        <tspan x="11" y="33">You are doing well in the retail category!</tspan>
                    </text>
                    <text id="OHANA-SUGGESTIONS" font-family="Lato-Regular, Lato" font-size="12" font-weight="normal" fill="#9B9B9B">
                        <tspan x="11" y="12">OHANA SUGGESTIONS</tspan>
                    </text>
                    <rect id="Rectangle" fill="#FA8F01" x="0" y="0" width="3.80494159" height="36"></rect>
                </g>
            </g>
            <g id="Group-4" transform="translate(27.000000, 248.000000)">
                <text id="TRANSACTIONS" font-family="Lato-Light, Lato" font-size="16" font-weight="300" fill="#4A4A4A">
                    <tspan x="0" y="16">TRANSACTIONS</tspan>
                </text>
                <g id="Group-5" transform="translate(0.000000, 34.000000)">
                    <g id="icon/transactions/groceries" fill="#4A4A4A">
                        <g id="groceries-2" transform="translate(3.378378, 1.351351)">
                            <path d="M12.3531184,9.99720902 C12.3949907,10.0114298 12.4380481,10.0181452 12.4799204,10.0181452 C12.6446444,10.0181452 12.7983078,9.91464948 12.8540059,9.74992544 C12.9776477,9.38729552 13.3730644,9.19254983 13.7356943,9.31540157 C14.5107269,9.57769598 15.3564683,9.16173814 15.6191578,8.38631055 C15.6894716,8.18010923 15.5788655,7.95534188 15.3722692,7.88502802 C15.1648828,7.81510918 14.9413005,7.92571526 14.8709867,8.1323116 C14.7477399,8.49533654 14.3523232,8.69008223 13.9892983,8.56683547 C13.2154508,8.30572613 12.3689193,8.72089393 12.1058348,9.49592649 C12.035916,9.70212781 12.1465221,9.92689516 12.3531184,9.99720902 Z" id="Shape" fill-rule="nonzero"></path>
                            <path d="M13.2877397,7.24469786 C13.329612,7.25891864 13.3726694,7.26563401 13.4145417,7.26563401 C13.5792657,7.26563401 13.7329292,7.16213832 13.7886272,6.99741428 C13.8482755,6.82162962 13.9727073,6.67942181 14.1394065,6.5972573 C14.3061056,6.51509279 14.494531,6.50324214 14.6703157,6.56289041 C15.4453482,6.82518482 16.2906946,6.40922698 16.5537791,5.63340437 C16.6240929,5.42720305 16.5130919,5.2024357 16.3068905,5.13212184 C16.1002942,5.06101794 15.8759219,5.17280908 15.806003,5.37940542 C15.6827563,5.74282538 15.2881296,5.93757107 14.9243146,5.81432431 C14.5482539,5.6867323 14.1457268,5.71280373 13.7902073,5.88858838 C13.4346878,6.06397802 13.1684432,6.3677497 13.0408512,6.74341533 C12.9701423,6.95001167 13.0811434,7.174384 13.2877397,7.24469786 Z" id="Shape" fill-rule="nonzero"></path>
                            <path d="M14.221571,4.4921867 C14.2638383,4.50640748 14.3065007,4.51312285 14.348768,4.51312285 C14.513492,4.51312285 14.6671555,4.40962716 14.7228535,4.24490312 C14.8137085,3.97707841 15.1064196,3.83289549 15.3738493,3.92375048 C15.7036924,4.03554162 16.0572368,4.01263036 16.369699,3.85896692 C16.6817661,3.70490846 16.9152239,3.43866384 17.0274101,3.10882073 C17.097724,2.9026194 16.9871179,2.67785206 16.7805215,2.6075382 C16.5731351,2.53682932 16.3495529,2.64822543 16.279239,2.85482178 C16.2349966,2.98478392 16.1429565,3.08985969 16.0201048,3.15029801 C15.897253,3.21073632 15.7582054,3.21982182 15.6278482,3.17518437 C14.9476209,2.94567677 14.2053751,3.31067681 13.9746824,3.99050915 C13.9047636,4.19750051 14.0149747,4.42187284 14.221571,4.4921867 Z" id="Shape" fill-rule="nonzero"></path>
                            <path d="M17.0831082,9.96797741 C17.0143744,9.92096983 16.9369501,9.89410836 16.8579458,9.88383779 C17.6428539,7.33318272 18.0734275,4.83427548 18.1350509,2.45426978 C18.154407,1.70570367 17.7886169,0.706298788 17.0511114,0.243728385 C16.697172,0.0213311714 16.1172801,-0.161958894 15.3643688,0.225557387 C14.184439,0.834285817 13.3406726,2.62491915 12.6628154,4.0643782 C12.6237083,4.14733276 12.5853912,4.22831221 12.5474691,4.30850161 C12.3977558,3.6199788 11.9426909,3.03100145 11.2956453,2.72367458 C11.143167,1.99051431 10.561695,1.41615277 9.83090488,1.26722959 C9.82300445,1.22614734 9.81312891,1.18585512 9.80088324,1.14516789 C9.65037997,0.630849644 9.19650005,0.243728385 8.67151621,0.181314957 C8.37564497,0.146158027 8.08253887,0.207386389 7.83209512,0.353939437 C7.6187834,0.235037908 7.37940026,0.171834437 7.13369676,0.171834437 C6.44675404,0.171834437 5.86962734,0.650995751 5.71912408,1.29211596 C4.96818784,1.4967372 4.4175276,2.18605005 4.41160227,2.98715405 C3.55480022,3.20836619 2.93066594,3.98260871 2.93066594,4.90340428 C2.93066594,5.14752769 2.97648846,5.38928096 3.0645783,5.61720848 C2.84218108,5.89174856 2.71893432,6.23541743 2.71893432,6.59607224 C2.71893432,6.81254413 2.76357177,7.02111558 2.84771139,7.21388617 C2.45308472,6.78331252 1.89768422,6.43134819 1.27394496,6.45425945 C1.05589299,6.46136984 0.884453572,6.64347484 0.89116894,6.86152682 C0.897884309,7.07523355 1.07327394,7.24430284 1.28579561,7.24430284 C1.29922635,7.24469786 1.31147202,7.24351279 1.32411272,7.24351279 C1.69424804,7.24351279 2.03831194,7.48842624 2.28875569,7.77284186 C1.66225129,7.95336678 0.906969808,8.24726292 0.554610458,8.9116894 C0.342483808,9.31263642 0.317597442,9.80443843 0.459015208,10.3677394 C0.390676455,10.4819006 0.353149394,10.6146279 0.360259784,10.7560457 L1.03258671,20.3104354 C1.09381507,21.5085362 2.0813693,22.4467127 3.28065516,22.4467127 L14.3693091,22.4467127 C15.568595,22.4467127 16.5561492,21.5085362 16.6169826,20.3175458 L17.3062954,10.4309428 C17.3062954,10.4285727 17.3066904,10.4262026 17.3066904,10.4238324 C17.317751,10.2417274 17.2336114,10.0714731 17.0831082,9.96797741 Z M12.8698068,5.43826365 C13.0262354,5.14634262 13.1968847,4.78450275 13.3774096,4.40093669 C13.9711273,3.14002744 14.7848719,1.41338762 15.7262086,0.927510936 C16.0698775,0.750541218 16.3657488,0.746986022 16.6312033,0.912500112 C17.0890335,1.2000759 17.3584383,1.92573076 17.3454026,2.43372865 C17.2849642,4.7690969 16.8583408,7.22692188 16.0769879,9.73925985 C16.0513115,9.82181939 15.9944284,9.98851854 15.9134489,10.2172361 L15.240332,10.5162675 C15.2257162,10.5229829 15.2114954,10.5300933 15.1976696,10.5387838 C15.0033189,10.6553152 14.785267,10.7129883 14.567215,10.7153585 C14.349163,10.7129883 14.1315061,10.6553152 13.9371554,10.5387838 L13.6555049,10.3697145 C13.3315871,10.1753638 12.9685622,10.0781885 12.6055373,10.0781885 C12.601192,10.0781885 12.5968468,10.0789785 12.5921065,10.0789785 C12.2247363,10.0766084 11.8565761,10.1725986 11.5287081,10.3697145 L11.2474527,10.5387838 C11.0906291,10.6327989 10.9172145,10.6786214 10.7418249,10.6983725 C10.7517005,10.6640056 10.7631561,10.6304288 10.7734266,10.5964569 C10.8816626,10.2286917 10.997799,9.86606182 11.1194656,9.50619705 C11.1656832,9.36951955 11.2138758,9.23363208 11.2620685,9.09813964 C11.3635891,8.81253896 11.4698499,8.53049347 11.5796659,8.25042309 C11.6286486,8.12520121 11.6764462,7.99879427 11.727009,7.87475746 C12.0714679,7.03454632 12.4514788,6.21961656 12.8698068,5.43826365 Z M7.83407022,6.37525511 C7.88028776,6.31600186 7.92532024,6.25832869 7.96798258,6.20223561 C7.96798258,6.20144557 7.9683776,6.20105054 7.96877262,6.20065552 C7.99997934,6.15917824 8.02723583,6.11612088 8.05014709,6.07306352 C8.14732243,5.89016847 8.17023369,5.68475719 8.12520121,5.48408617 L9.77402176,5.12343136 C9.78508237,5.17399414 9.79693302,5.2241619 9.81589406,5.27077446 C9.88976312,5.45169439 10.0217004,5.60219766 10.2053855,5.70727343 C10.2654287,5.74045525 10.3282372,5.77363707 10.3930208,5.80800396 C10.4463487,5.8360505 10.4996766,5.8652821 10.5533996,5.89451371 C10.579076,5.90833947 10.6051474,5.92216523 10.6308238,5.93638601 C10.6778314,5.96285246 10.7232589,5.99208407 10.7690814,6.02092065 C10.8081886,6.04501697 10.8469007,6.06990334 10.8848228,6.09636979 C10.9286702,6.12678647 10.9705425,6.16036331 11.0124148,6.19433517 C11.0491518,6.22435682 11.0843087,6.25714362 11.1190706,6.29072047 C11.1565977,6.32745749 11.1937297,6.36498455 11.2280966,6.4060668 C11.28893,6.47875079 11.3473932,6.55419994 11.3951908,6.64465991 C11.2277016,7.01440021 11.0700879,7.39164593 10.9176096,7.77205182 C10.8939083,7.83091005 10.8686269,7.8881882 10.8453206,7.94704643 C10.4123768,8.05686246 9.99404884,8.26227374 9.47736047,8.63003894 C8.82636472,9.09260934 8.3416731,9.21546109 7.54293924,9.09971973 L7.30316107,8.00195444 C7.14041213,7.25970868 7.4931665,6.81017399 7.83407022,6.37525511 Z M9.7929828,3.97628837 C9.80325337,3.97431326 9.81352393,3.97312819 9.82379449,3.97312819 C9.89845359,3.97312819 9.96837243,4.02645612 9.98456832,4.10151024 C9.99720902,4.15839337 9.97587785,4.20303082 9.96165707,4.22475701 C9.94783131,4.24608818 9.91662459,4.28361524 9.86013649,4.29586092 L7.67803666,4.77344214 C7.59113188,4.79240318 7.50264702,4.73473002 7.48368598,4.64861529 C7.46472494,4.56210554 7.52200309,4.47322566 7.60851284,4.45426462 L8.76790151,4.20066069 L9.7929828,3.97628837 Z M8.51627269,10.0860889 C8.48625104,10.088064 8.45583437,10.0888541 8.42581272,10.0920142 C8.2105259,10.1137404 7.99800423,10.1682534 7.79614814,10.2591084 L7.720699,9.91346442 C7.83446525,9.92294494 7.94783647,9.93242546 8.05409731,9.93242546 C8.74301514,9.93242546 9.2976256,9.7274092 9.93519061,9.2739243 C10.1358616,9.13092644 10.3136214,9.0226905 10.4826907,8.93302058 C10.4463487,9.03612124 10.4104017,9.13882688 10.3752448,9.24232256 C10.3499634,9.31658664 10.3227069,9.38966565 10.2982155,9.46432475 C10.1820792,9.81589406 10.0714731,10.1702285 9.96837243,10.5277232 L9.70568301,10.3705045 C9.38176522,10.1761538 9.01874028,10.0789785 8.65571535,10.0789785 C8.65097509,10.0789785 8.6458398,10.0797686 8.64109954,10.0797686 C8.59922724,10.0789785 8.55774997,10.0837188 8.51627269,10.0860889 Z M3.79141821,6.00116957 L4.05015742,5.78785785 L3.8822732,5.49830695 C3.77719743,5.31659697 3.72149937,5.11118569 3.72149937,4.90340428 C3.72149937,4.26346914 4.2227819,3.74164548 4.86271705,3.71478401 L5.34227338,3.6946379 L5.23048224,3.22772226 C5.2115212,3.14950796 5.20204068,3.07247873 5.20204068,2.99939972 C5.20204068,2.49061178 5.5994325,2.06201324 6.10664036,2.02330111 L6.4716404,1.9956496 L6.4716404,1.60260301 C6.48309603,1.24747851 6.77580711,0.961877824 7.13409178,0.961877824 C7.34029311,0.961877824 7.48803122,1.05589299 7.57533102,1.13489733 L7.85224122,1.38494606 L8.1176958,1.12265165 C8.23936248,1.00256506 8.40645666,0.946471977 8.57868612,0.966223062 C8.79041774,0.991109429 8.98160824,1.1562285 9.04323163,1.36835515 C9.06416778,1.43945905 9.0700931,1.50819283 9.06179765,1.57811167 L9.01558011,2.0193509 L9.46037454,2.0193509 C10.0280207,2.0193509 10.5028368,2.46296026 10.5419439,3.02942137 L10.5597199,3.28895062 L10.8050284,3.37506535 C11.4224473,3.59193226 11.8285296,4.17616934 11.8147038,4.82993025 C11.8087785,5.10921058 11.7187136,5.37822036 11.5555696,5.61404831 C11.2913001,5.38967599 11.0064894,5.23838268 10.7671063,5.11237076 C10.7050879,5.07958396 10.6450446,5.04798222 10.5846063,5.01440538 C10.5676203,5.00492486 10.5470792,4.98833394 10.5399688,4.94685667 C10.5304883,4.88997354 10.5518195,4.82163479 10.5948768,4.77146704 C10.7671063,4.57158606 10.8362351,4.29902109 10.780537,4.04186197 L10.7327394,3.82420501 C10.6849418,3.60457295 10.5537946,3.41693765 10.3641842,3.29527097 C10.1749688,3.17399931 9.94980641,3.13331207 9.73056937,3.18150472 L9.62470356,3.204811 C9.6235185,3.20520602 9.62233343,3.204811 9.62114837,3.20520602 L8.4617597,3.45880995 L7.33041757,3.70569851 C7.11118053,3.75349613 6.92354522,3.88424831 6.80187854,4.07425375 C6.68021186,4.26346914 6.63991965,4.48902652 6.68771727,4.70826356 L6.71141857,4.81570946 L6.71141857,4.81689453 C6.71141857,4.81728955 6.71181359,4.81768457 6.71181359,4.81847462 L6.73511987,4.9255255 C6.79239802,5.18860994 6.97529306,5.41021711 7.22376171,5.51687297 C7.28538509,5.54333942 7.33673791,5.59350718 7.35451389,5.64446498 C7.36478445,5.67369658 7.35885913,5.68870741 7.33594787,5.72662949 C7.33594787,5.72662949 7.33594787,5.72662949 7.33594787,5.72702451 C7.29684072,5.7795624 7.2545734,5.83289033 7.21151604,5.88779834 C7.16806365,5.94310138 7.12303118,6.00116957 7.07720866,6.06121286 C7.06180281,6.08135897 7.04718701,6.10229512 7.03178116,6.12283625 C6.99899436,6.1674737 6.96620756,6.21290119 6.93381579,6.2603038 C6.91603981,6.28598021 6.89905388,6.31244666 6.88167292,6.33930814 C6.85165127,6.38552567 6.82281469,6.4333233 6.79437313,6.48230599 C6.77778222,6.51074755 6.76158633,6.53879409 6.74578546,6.56842072 C6.71615883,6.62372376 6.68929736,6.68179194 6.6628309,6.7410452 C6.65137527,6.76632659 6.6391296,6.79042291 6.62885904,6.81688936 C6.59409713,6.90300409 6.56328544,6.99306904 6.53879409,7.08787425 C6.53484387,7.10288507 6.53326379,7.11908096 6.52970859,7.13448681 C6.51074755,7.21507123 6.49534171,7.29842081 6.48546616,7.38532558 C6.48151595,7.42008749 6.4807259,7.45642949 6.47835577,7.49237646 C6.4751956,7.53898902 6.46927027,7.58323145 6.46927027,7.63181912 C6.46769019,7.62984401 6.4661101,7.6278689 6.46453001,7.62589379 C6.45899971,7.6187834 6.45346941,7.61246305 6.44833412,7.60535266 C6.37960035,7.5148927 6.31086657,7.43154312 6.24173778,7.35253878 C6.22001158,7.32765241 6.19789037,7.30355609 6.17576916,7.27985479 C6.11770097,7.21704634 6.05963278,7.15818811 6.00116957,7.10288507 C5.98220853,7.08510909 5.96324748,7.06575303 5.94389142,7.04837208 C5.87002236,6.98240345 5.79575829,6.92196513 5.72109919,6.86824218 C5.70016304,6.85323136 5.67883186,6.84059067 5.65789572,6.82636988 C5.60180263,6.78884282 5.54570955,6.75408091 5.48882643,6.72326922 C5.46117491,6.7082584 5.43391842,6.6936426 5.40587187,6.68021186 C5.34701364,6.65137527 5.28776039,6.62688393 5.22811211,6.60555276 C5.20836103,6.59844237 5.18860994,6.58896185 5.16885886,6.5826415 C5.1040753,6.56210037 5.03889672,6.54550946 4.97332312,6.53326379 C4.96581771,6.5316837 4.9583123,6.53247374 4.95080688,6.53128868 C4.93737615,6.52891855 4.92434043,6.52378327 4.91090969,6.52180816 C4.86508718,6.51509279 4.82163479,6.51785794 4.77660232,6.51469777 C4.74500058,6.51272266 4.71379387,6.50600729 4.68219213,6.50600729 C4.67271161,6.50600729 4.66283607,6.50837742 4.65296053,6.50837742 C4.59173216,6.50916746 4.53247891,6.51627786 4.47283063,6.52378327 C4.44320401,6.52773348 4.41357738,6.53010361 4.38395075,6.53563392 C4.30613148,6.5498547 4.23068234,6.56960578 4.15602324,6.59330709 C4.14456761,6.59686228 4.133507,6.59962743 4.12205137,6.60357765 C3.92533057,6.67033632 3.73888033,6.7647465 3.56428074,6.87890777 C3.52833377,6.79002789 3.50937272,6.69443264 3.50937272,6.59607224 C3.50976775,6.36498455 3.61247339,6.14811764 3.79141821,6.00116957 Z M1.25340383,9.28103469 C1.42049801,8.9662024 1.82618529,8.72602921 2.53050897,8.52456814 C2.85995706,8.43055298 3.16570385,8.25476833 3.41377747,8.01775531 C3.52635866,7.90991439 3.63182945,7.81866438 3.73374505,7.73570982 C4.05213253,7.47697061 4.32667261,7.33634289 4.57514125,7.30434613 C4.58067156,7.30355609 4.58620186,7.30276605 4.59173216,7.30237103 C4.67034148,7.29368055 4.74658067,7.29605068 4.82044973,7.30908639 C4.83980579,7.31264159 4.85955687,7.31935696 4.87930796,7.32449224 C4.91604497,7.33357774 4.95238697,7.34266324 4.98912399,7.35727904 C5.01282529,7.36636454 5.03652659,7.3801903 5.06062291,7.39125091 C5.0949898,7.40784182 5.12896167,7.42285264 5.16332856,7.44378879 C5.19019003,7.45998468 5.21705151,7.48092083 5.24391298,7.49948685 C5.27590974,7.52200309 5.30790649,7.54254421 5.34029827,7.56861565 C5.37031992,7.59271197 5.40034157,7.62194357 5.43036322,7.64920007 C5.46038487,7.67645657 5.49040652,7.70134294 5.52042817,7.73175961 C5.55360999,7.76533645 5.58718683,7.8044436 5.62076368,7.84197066 C5.64802017,7.87238733 5.67527667,7.90043387 5.70292819,7.93322067 C5.74045525,7.97825314 5.77837733,8.02960596 5.81629941,8.0793787 C5.84039574,8.11098043 5.86409704,8.13942199 5.88819336,8.17299884 C5.93125073,8.23304213 5.97470311,8.2998008 6.0181555,8.36616445 C6.03711654,8.39539605 6.0564726,8.42146748 6.07543365,8.45148913 C6.13824209,8.55063958 6.20144557,8.65611037 6.26504406,8.76829653 C6.55578002,9.28142971 6.65216532,10.0394763 6.52575838,10.6995576 C6.50482223,10.6975825 6.4842811,10.6944223 6.46334495,10.6912621 C6.31284168,10.6655857 6.16786872,10.6173931 6.03593148,10.5383887 L5.75428101,10.3693195 C5.43036322,10.1749688 5.06733828,10.0777934 4.70431335,10.0777934 C4.32351243,10.0762134 3.95535222,10.1722036 3.62748421,10.3693195 L3.49041168,10.451484 C3.25142356,10.5948768 2.98359885,10.6671658 2.71577414,10.6695359 C2.44755441,10.6671658 2.18012473,10.5952719 1.9411366,10.451484 L1.40983242,10.1323064 C1.33951856,10.0904341 1.26406942,10.0619926 1.18664517,10.0477718 C1.12462676,9.73530963 1.14674798,9.48249575 1.25340383,9.28103469 Z M15.8300993,20.2697482 C15.7902022,21.0471508 15.1490819,21.6562743 14.3708892,21.6562743 L3.28184023,21.6562743 C2.50325247,21.6562743 1.86252728,21.0471508 1.82223507,20.2622427 L1.16491897,10.9231399 L1.50858785,11.1293412 C1.8810933,11.3529235 2.29942128,11.4627395 2.71656419,11.4603694 C3.13410212,11.4627395 3.55203507,11.3529235 3.92454052,11.1293412 L4.06161305,11.0471767 C4.25596373,10.9302503 4.47362068,10.8725771 4.69167265,10.870207 C4.90972463,10.8725771 5.12738158,10.9302503 5.32212728,11.0471767 L5.60377774,11.216246 C5.96008731,11.4299527 6.36379948,11.5215977 6.76277139,11.4998715 C6.79832334,11.4982915 6.8338753,11.4982915 6.86982227,11.4951313 C6.87416751,11.4947363 6.87811773,11.4923661 6.88285799,11.4919711 C7.1526578,11.4615544 7.41732234,11.3766248 7.66144574,11.2375771 C7.684357,11.2292817 7.70884835,11.2288867 7.73017952,11.216246 L8.01182999,11.0471767 C8.20618066,10.9302503 8.42383761,10.8725771 8.64188959,10.870207 C8.85994156,10.8725771 9.07759852,10.9302503 9.27234421,11.0471767 L9.55399468,11.216246 C9.8530261,11.3951908 10.1856344,11.4880209 10.5202177,11.5018466 C10.5269331,11.5022417 10.5340435,11.5030317 10.5407589,11.5030317 C10.6561052,11.5065869 10.7714515,11.5030317 10.8860078,11.4868358 C10.9515814,11.4785404 11.0151799,11.4619495 11.0795685,11.4473337 C11.1107752,11.4398282 11.1419819,11.4331129 11.1727936,11.4240274 C11.3481832,11.3754397 11.5200176,11.3118412 11.6800014,11.2158509 L11.6800014,11.2158509 L11.9616519,11.0467817 C12.1560026,10.9298552 12.3736595,10.8721821 12.5917115,10.8698119 C12.8097635,10.8721821 13.0274204,10.9298552 13.2221661,11.0467817 L13.5038166,11.2158509 C13.8301045,11.4113867 14.1962896,11.507377 14.5620797,11.5057969 C14.568005,11.5057969 14.5743254,11.5069819 14.5802507,11.5069819 C14.9349802,11.5069819 15.2901047,11.4145469 15.6084922,11.2288867 L16.3835247,10.8844277 C16.4001156,10.8769223 16.4119663,10.8627015 16.4273721,10.853221 L16.4878105,10.8263596 L15.8300993,20.2697482 Z" id="Shape" fill-rule="nonzero"></path>
                            <path d="M2.72999492,16.9875129 L5.49514678,16.9875129 C5.71319875,16.9875129 5.89016847,16.8109382 5.89016847,16.5924912 C5.89016847,16.3740442 5.71319875,16.1974695 5.49514678,16.1974695 L2.72999492,16.1974695 C2.51194295,16.1974695 2.33497323,16.3740442 2.33497323,16.5924912 C2.33497323,16.8109382 2.51194295,16.9875129 2.72999492,16.9875129 Z" id="Shape" fill-rule="nonzero"></path>
                            <path d="M2.72999492,18.5675997 L6.28519016,18.5675997 C6.50324214,18.5675997 6.68021186,18.391025 6.68021186,18.172578 C6.68021186,17.954131 6.50324214,17.7775563 6.28519016,17.7775563 L2.72999492,17.7775563 C2.51194295,17.7775563 2.33497323,17.954131 2.33497323,18.172578 C2.33497323,18.391025 2.51194295,18.5675997 2.72999492,18.5675997 Z" id="Shape" fill-rule="nonzero"></path>
                            <path d="M7.07523355,19.3576431 L2.72999492,19.3576431 C2.51194295,19.3576431 2.33497323,19.5342178 2.33497323,19.7526648 C2.33497323,19.9711118 2.51194295,20.1476865 2.72999492,20.1476865 L7.07523355,20.1476865 C7.29328553,20.1476865 7.47025524,19.9711118 7.47025524,19.7526648 C7.47025524,19.5342178 7.29328553,19.3576431 7.07523355,19.3576431 Z" id="Shape" fill-rule="nonzero"></path>
                            <path d="M9.44536371,19.3576431 L8.65532033,19.3576431 C8.43726835,19.3576431 8.26029863,19.5342178 8.26029863,19.7526648 C8.26029863,19.9711118 8.43726835,20.1476865 8.65532033,20.1476865 L9.44536371,20.1476865 C9.66341569,20.1476865 9.84038541,19.9711118 9.84038541,19.7526648 C9.84038541,19.5342178 9.66341569,19.3576431 9.44536371,19.3576431 Z" id="Shape" fill-rule="nonzero"></path>
                        </g>
                    </g>
                    <text id="CVS-Pharmacy" font-family="Lato-Regular, Lato" font-size="16" font-weight="normal" fill="#4A4A4A">
                        <tspan x="38" y="19">CVS Pharmacy</tspan>
                    </text>
                    <text id="$4.59" font-family="OpenSans, Open Sans" font-size="16" font-weight="normal" fill="#4A4A4A">
                        <tspan x="279" y="18">$4.59</tspan>
                    </text>
                    <text id="3:18pm,-Jul-10" font-family="Lato-Regular, Lato" font-size="12" font-weight="normal" fill="#9B9B9B">
                        <tspan x="38" y="36">3:18pm, Jul 10</tspan>
                    </text>
                </g>
                <g id="Group-5" transform="translate(0.000000, 85.000000)">
                    <g id="icon/transactions/groceries" fill="#4A4A4A">
                        <g id="groceries-2" transform="translate(3.378378, 1.351351)">
                            <path d="M12.3531184,9.99720902 C12.3949907,10.0114298 12.4380481,10.0181452 12.4799204,10.0181452 C12.6446444,10.0181452 12.7983078,9.91464948 12.8540059,9.74992544 C12.9776477,9.38729552 13.3730644,9.19254983 13.7356943,9.31540157 C14.5107269,9.57769598 15.3564683,9.16173814 15.6191578,8.38631055 C15.6894716,8.18010923 15.5788655,7.95534188 15.3722692,7.88502802 C15.1648828,7.81510918 14.9413005,7.92571526 14.8709867,8.1323116 C14.7477399,8.49533654 14.3523232,8.69008223 13.9892983,8.56683547 C13.2154508,8.30572613 12.3689193,8.72089393 12.1058348,9.49592649 C12.035916,9.70212781 12.1465221,9.92689516 12.3531184,9.99720902 Z" id="Shape" fill-rule="nonzero"></path>
                            <path d="M13.2877397,7.24469786 C13.329612,7.25891864 13.3726694,7.26563401 13.4145417,7.26563401 C13.5792657,7.26563401 13.7329292,7.16213832 13.7886272,6.99741428 C13.8482755,6.82162962 13.9727073,6.67942181 14.1394065,6.5972573 C14.3061056,6.51509279 14.494531,6.50324214 14.6703157,6.56289041 C15.4453482,6.82518482 16.2906946,6.40922698 16.5537791,5.63340437 C16.6240929,5.42720305 16.5130919,5.2024357 16.3068905,5.13212184 C16.1002942,5.06101794 15.8759219,5.17280908 15.806003,5.37940542 C15.6827563,5.74282538 15.2881296,5.93757107 14.9243146,5.81432431 C14.5482539,5.6867323 14.1457268,5.71280373 13.7902073,5.88858838 C13.4346878,6.06397802 13.1684432,6.3677497 13.0408512,6.74341533 C12.9701423,6.95001167 13.0811434,7.174384 13.2877397,7.24469786 Z" id="Shape" fill-rule="nonzero"></path>
                            <path d="M14.221571,4.4921867 C14.2638383,4.50640748 14.3065007,4.51312285 14.348768,4.51312285 C14.513492,4.51312285 14.6671555,4.40962716 14.7228535,4.24490312 C14.8137085,3.97707841 15.1064196,3.83289549 15.3738493,3.92375048 C15.7036924,4.03554162 16.0572368,4.01263036 16.369699,3.85896692 C16.6817661,3.70490846 16.9152239,3.43866384 17.0274101,3.10882073 C17.097724,2.9026194 16.9871179,2.67785206 16.7805215,2.6075382 C16.5731351,2.53682932 16.3495529,2.64822543 16.279239,2.85482178 C16.2349966,2.98478392 16.1429565,3.08985969 16.0201048,3.15029801 C15.897253,3.21073632 15.7582054,3.21982182 15.6278482,3.17518437 C14.9476209,2.94567677 14.2053751,3.31067681 13.9746824,3.99050915 C13.9047636,4.19750051 14.0149747,4.42187284 14.221571,4.4921867 Z" id="Shape" fill-rule="nonzero"></path>
                            <path d="M17.0831082,9.96797741 C17.0143744,9.92096983 16.9369501,9.89410836 16.8579458,9.88383779 C17.6428539,7.33318272 18.0734275,4.83427548 18.1350509,2.45426978 C18.154407,1.70570367 17.7886169,0.706298788 17.0511114,0.243728385 C16.697172,0.0213311714 16.1172801,-0.161958894 15.3643688,0.225557387 C14.184439,0.834285817 13.3406726,2.62491915 12.6628154,4.0643782 C12.6237083,4.14733276 12.5853912,4.22831221 12.5474691,4.30850161 C12.3977558,3.6199788 11.9426909,3.03100145 11.2956453,2.72367458 C11.143167,1.99051431 10.561695,1.41615277 9.83090488,1.26722959 C9.82300445,1.22614734 9.81312891,1.18585512 9.80088324,1.14516789 C9.65037997,0.630849644 9.19650005,0.243728385 8.67151621,0.181314957 C8.37564497,0.146158027 8.08253887,0.207386389 7.83209512,0.353939437 C7.6187834,0.235037908 7.37940026,0.171834437 7.13369676,0.171834437 C6.44675404,0.171834437 5.86962734,0.650995751 5.71912408,1.29211596 C4.96818784,1.4967372 4.4175276,2.18605005 4.41160227,2.98715405 C3.55480022,3.20836619 2.93066594,3.98260871 2.93066594,4.90340428 C2.93066594,5.14752769 2.97648846,5.38928096 3.0645783,5.61720848 C2.84218108,5.89174856 2.71893432,6.23541743 2.71893432,6.59607224 C2.71893432,6.81254413 2.76357177,7.02111558 2.84771139,7.21388617 C2.45308472,6.78331252 1.89768422,6.43134819 1.27394496,6.45425945 C1.05589299,6.46136984 0.884453572,6.64347484 0.89116894,6.86152682 C0.897884309,7.07523355 1.07327394,7.24430284 1.28579561,7.24430284 C1.29922635,7.24469786 1.31147202,7.24351279 1.32411272,7.24351279 C1.69424804,7.24351279 2.03831194,7.48842624 2.28875569,7.77284186 C1.66225129,7.95336678 0.906969808,8.24726292 0.554610458,8.9116894 C0.342483808,9.31263642 0.317597442,9.80443843 0.459015208,10.3677394 C0.390676455,10.4819006 0.353149394,10.6146279 0.360259784,10.7560457 L1.03258671,20.3104354 C1.09381507,21.5085362 2.0813693,22.4467127 3.28065516,22.4467127 L14.3693091,22.4467127 C15.568595,22.4467127 16.5561492,21.5085362 16.6169826,20.3175458 L17.3062954,10.4309428 C17.3062954,10.4285727 17.3066904,10.4262026 17.3066904,10.4238324 C17.317751,10.2417274 17.2336114,10.0714731 17.0831082,9.96797741 Z M12.8698068,5.43826365 C13.0262354,5.14634262 13.1968847,4.78450275 13.3774096,4.40093669 C13.9711273,3.14002744 14.7848719,1.41338762 15.7262086,0.927510936 C16.0698775,0.750541218 16.3657488,0.746986022 16.6312033,0.912500112 C17.0890335,1.2000759 17.3584383,1.92573076 17.3454026,2.43372865 C17.2849642,4.7690969 16.8583408,7.22692188 16.0769879,9.73925985 C16.0513115,9.82181939 15.9944284,9.98851854 15.9134489,10.2172361 L15.240332,10.5162675 C15.2257162,10.5229829 15.2114954,10.5300933 15.1976696,10.5387838 C15.0033189,10.6553152 14.785267,10.7129883 14.567215,10.7153585 C14.349163,10.7129883 14.1315061,10.6553152 13.9371554,10.5387838 L13.6555049,10.3697145 C13.3315871,10.1753638 12.9685622,10.0781885 12.6055373,10.0781885 C12.601192,10.0781885 12.5968468,10.0789785 12.5921065,10.0789785 C12.2247363,10.0766084 11.8565761,10.1725986 11.5287081,10.3697145 L11.2474527,10.5387838 C11.0906291,10.6327989 10.9172145,10.6786214 10.7418249,10.6983725 C10.7517005,10.6640056 10.7631561,10.6304288 10.7734266,10.5964569 C10.8816626,10.2286917 10.997799,9.86606182 11.1194656,9.50619705 C11.1656832,9.36951955 11.2138758,9.23363208 11.2620685,9.09813964 C11.3635891,8.81253896 11.4698499,8.53049347 11.5796659,8.25042309 C11.6286486,8.12520121 11.6764462,7.99879427 11.727009,7.87475746 C12.0714679,7.03454632 12.4514788,6.21961656 12.8698068,5.43826365 Z M7.83407022,6.37525511 C7.88028776,6.31600186 7.92532024,6.25832869 7.96798258,6.20223561 C7.96798258,6.20144557 7.9683776,6.20105054 7.96877262,6.20065552 C7.99997934,6.15917824 8.02723583,6.11612088 8.05014709,6.07306352 C8.14732243,5.89016847 8.17023369,5.68475719 8.12520121,5.48408617 L9.77402176,5.12343136 C9.78508237,5.17399414 9.79693302,5.2241619 9.81589406,5.27077446 C9.88976312,5.45169439 10.0217004,5.60219766 10.2053855,5.70727343 C10.2654287,5.74045525 10.3282372,5.77363707 10.3930208,5.80800396 C10.4463487,5.8360505 10.4996766,5.8652821 10.5533996,5.89451371 C10.579076,5.90833947 10.6051474,5.92216523 10.6308238,5.93638601 C10.6778314,5.96285246 10.7232589,5.99208407 10.7690814,6.02092065 C10.8081886,6.04501697 10.8469007,6.06990334 10.8848228,6.09636979 C10.9286702,6.12678647 10.9705425,6.16036331 11.0124148,6.19433517 C11.0491518,6.22435682 11.0843087,6.25714362 11.1190706,6.29072047 C11.1565977,6.32745749 11.1937297,6.36498455 11.2280966,6.4060668 C11.28893,6.47875079 11.3473932,6.55419994 11.3951908,6.64465991 C11.2277016,7.01440021 11.0700879,7.39164593 10.9176096,7.77205182 C10.8939083,7.83091005 10.8686269,7.8881882 10.8453206,7.94704643 C10.4123768,8.05686246 9.99404884,8.26227374 9.47736047,8.63003894 C8.82636472,9.09260934 8.3416731,9.21546109 7.54293924,9.09971973 L7.30316107,8.00195444 C7.14041213,7.25970868 7.4931665,6.81017399 7.83407022,6.37525511 Z M9.7929828,3.97628837 C9.80325337,3.97431326 9.81352393,3.97312819 9.82379449,3.97312819 C9.89845359,3.97312819 9.96837243,4.02645612 9.98456832,4.10151024 C9.99720902,4.15839337 9.97587785,4.20303082 9.96165707,4.22475701 C9.94783131,4.24608818 9.91662459,4.28361524 9.86013649,4.29586092 L7.67803666,4.77344214 C7.59113188,4.79240318 7.50264702,4.73473002 7.48368598,4.64861529 C7.46472494,4.56210554 7.52200309,4.47322566 7.60851284,4.45426462 L8.76790151,4.20066069 L9.7929828,3.97628837 Z M8.51627269,10.0860889 C8.48625104,10.088064 8.45583437,10.0888541 8.42581272,10.0920142 C8.2105259,10.1137404 7.99800423,10.1682534 7.79614814,10.2591084 L7.720699,9.91346442 C7.83446525,9.92294494 7.94783647,9.93242546 8.05409731,9.93242546 C8.74301514,9.93242546 9.2976256,9.7274092 9.93519061,9.2739243 C10.1358616,9.13092644 10.3136214,9.0226905 10.4826907,8.93302058 C10.4463487,9.03612124 10.4104017,9.13882688 10.3752448,9.24232256 C10.3499634,9.31658664 10.3227069,9.38966565 10.2982155,9.46432475 C10.1820792,9.81589406 10.0714731,10.1702285 9.96837243,10.5277232 L9.70568301,10.3705045 C9.38176522,10.1761538 9.01874028,10.0789785 8.65571535,10.0789785 C8.65097509,10.0789785 8.6458398,10.0797686 8.64109954,10.0797686 C8.59922724,10.0789785 8.55774997,10.0837188 8.51627269,10.0860889 Z M3.79141821,6.00116957 L4.05015742,5.78785785 L3.8822732,5.49830695 C3.77719743,5.31659697 3.72149937,5.11118569 3.72149937,4.90340428 C3.72149937,4.26346914 4.2227819,3.74164548 4.86271705,3.71478401 L5.34227338,3.6946379 L5.23048224,3.22772226 C5.2115212,3.14950796 5.20204068,3.07247873 5.20204068,2.99939972 C5.20204068,2.49061178 5.5994325,2.06201324 6.10664036,2.02330111 L6.4716404,1.9956496 L6.4716404,1.60260301 C6.48309603,1.24747851 6.77580711,0.961877824 7.13409178,0.961877824 C7.34029311,0.961877824 7.48803122,1.05589299 7.57533102,1.13489733 L7.85224122,1.38494606 L8.1176958,1.12265165 C8.23936248,1.00256506 8.40645666,0.946471977 8.57868612,0.966223062 C8.79041774,0.991109429 8.98160824,1.1562285 9.04323163,1.36835515 C9.06416778,1.43945905 9.0700931,1.50819283 9.06179765,1.57811167 L9.01558011,2.0193509 L9.46037454,2.0193509 C10.0280207,2.0193509 10.5028368,2.46296026 10.5419439,3.02942137 L10.5597199,3.28895062 L10.8050284,3.37506535 C11.4224473,3.59193226 11.8285296,4.17616934 11.8147038,4.82993025 C11.8087785,5.10921058 11.7187136,5.37822036 11.5555696,5.61404831 C11.2913001,5.38967599 11.0064894,5.23838268 10.7671063,5.11237076 C10.7050879,5.07958396 10.6450446,5.04798222 10.5846063,5.01440538 C10.5676203,5.00492486 10.5470792,4.98833394 10.5399688,4.94685667 C10.5304883,4.88997354 10.5518195,4.82163479 10.5948768,4.77146704 C10.7671063,4.57158606 10.8362351,4.29902109 10.780537,4.04186197 L10.7327394,3.82420501 C10.6849418,3.60457295 10.5537946,3.41693765 10.3641842,3.29527097 C10.1749688,3.17399931 9.94980641,3.13331207 9.73056937,3.18150472 L9.62470356,3.204811 C9.6235185,3.20520602 9.62233343,3.204811 9.62114837,3.20520602 L8.4617597,3.45880995 L7.33041757,3.70569851 C7.11118053,3.75349613 6.92354522,3.88424831 6.80187854,4.07425375 C6.68021186,4.26346914 6.63991965,4.48902652 6.68771727,4.70826356 L6.71141857,4.81570946 L6.71141857,4.81689453 C6.71141857,4.81728955 6.71181359,4.81768457 6.71181359,4.81847462 L6.73511987,4.9255255 C6.79239802,5.18860994 6.97529306,5.41021711 7.22376171,5.51687297 C7.28538509,5.54333942 7.33673791,5.59350718 7.35451389,5.64446498 C7.36478445,5.67369658 7.35885913,5.68870741 7.33594787,5.72662949 C7.33594787,5.72662949 7.33594787,5.72662949 7.33594787,5.72702451 C7.29684072,5.7795624 7.2545734,5.83289033 7.21151604,5.88779834 C7.16806365,5.94310138 7.12303118,6.00116957 7.07720866,6.06121286 C7.06180281,6.08135897 7.04718701,6.10229512 7.03178116,6.12283625 C6.99899436,6.1674737 6.96620756,6.21290119 6.93381579,6.2603038 C6.91603981,6.28598021 6.89905388,6.31244666 6.88167292,6.33930814 C6.85165127,6.38552567 6.82281469,6.4333233 6.79437313,6.48230599 C6.77778222,6.51074755 6.76158633,6.53879409 6.74578546,6.56842072 C6.71615883,6.62372376 6.68929736,6.68179194 6.6628309,6.7410452 C6.65137527,6.76632659 6.6391296,6.79042291 6.62885904,6.81688936 C6.59409713,6.90300409 6.56328544,6.99306904 6.53879409,7.08787425 C6.53484387,7.10288507 6.53326379,7.11908096 6.52970859,7.13448681 C6.51074755,7.21507123 6.49534171,7.29842081 6.48546616,7.38532558 C6.48151595,7.42008749 6.4807259,7.45642949 6.47835577,7.49237646 C6.4751956,7.53898902 6.46927027,7.58323145 6.46927027,7.63181912 C6.46769019,7.62984401 6.4661101,7.6278689 6.46453001,7.62589379 C6.45899971,7.6187834 6.45346941,7.61246305 6.44833412,7.60535266 C6.37960035,7.5148927 6.31086657,7.43154312 6.24173778,7.35253878 C6.22001158,7.32765241 6.19789037,7.30355609 6.17576916,7.27985479 C6.11770097,7.21704634 6.05963278,7.15818811 6.00116957,7.10288507 C5.98220853,7.08510909 5.96324748,7.06575303 5.94389142,7.04837208 C5.87002236,6.98240345 5.79575829,6.92196513 5.72109919,6.86824218 C5.70016304,6.85323136 5.67883186,6.84059067 5.65789572,6.82636988 C5.60180263,6.78884282 5.54570955,6.75408091 5.48882643,6.72326922 C5.46117491,6.7082584 5.43391842,6.6936426 5.40587187,6.68021186 C5.34701364,6.65137527 5.28776039,6.62688393 5.22811211,6.60555276 C5.20836103,6.59844237 5.18860994,6.58896185 5.16885886,6.5826415 C5.1040753,6.56210037 5.03889672,6.54550946 4.97332312,6.53326379 C4.96581771,6.5316837 4.9583123,6.53247374 4.95080688,6.53128868 C4.93737615,6.52891855 4.92434043,6.52378327 4.91090969,6.52180816 C4.86508718,6.51509279 4.82163479,6.51785794 4.77660232,6.51469777 C4.74500058,6.51272266 4.71379387,6.50600729 4.68219213,6.50600729 C4.67271161,6.50600729 4.66283607,6.50837742 4.65296053,6.50837742 C4.59173216,6.50916746 4.53247891,6.51627786 4.47283063,6.52378327 C4.44320401,6.52773348 4.41357738,6.53010361 4.38395075,6.53563392 C4.30613148,6.5498547 4.23068234,6.56960578 4.15602324,6.59330709 C4.14456761,6.59686228 4.133507,6.59962743 4.12205137,6.60357765 C3.92533057,6.67033632 3.73888033,6.7647465 3.56428074,6.87890777 C3.52833377,6.79002789 3.50937272,6.69443264 3.50937272,6.59607224 C3.50976775,6.36498455 3.61247339,6.14811764 3.79141821,6.00116957 Z M1.25340383,9.28103469 C1.42049801,8.9662024 1.82618529,8.72602921 2.53050897,8.52456814 C2.85995706,8.43055298 3.16570385,8.25476833 3.41377747,8.01775531 C3.52635866,7.90991439 3.63182945,7.81866438 3.73374505,7.73570982 C4.05213253,7.47697061 4.32667261,7.33634289 4.57514125,7.30434613 C4.58067156,7.30355609 4.58620186,7.30276605 4.59173216,7.30237103 C4.67034148,7.29368055 4.74658067,7.29605068 4.82044973,7.30908639 C4.83980579,7.31264159 4.85955687,7.31935696 4.87930796,7.32449224 C4.91604497,7.33357774 4.95238697,7.34266324 4.98912399,7.35727904 C5.01282529,7.36636454 5.03652659,7.3801903 5.06062291,7.39125091 C5.0949898,7.40784182 5.12896167,7.42285264 5.16332856,7.44378879 C5.19019003,7.45998468 5.21705151,7.48092083 5.24391298,7.49948685 C5.27590974,7.52200309 5.30790649,7.54254421 5.34029827,7.56861565 C5.37031992,7.59271197 5.40034157,7.62194357 5.43036322,7.64920007 C5.46038487,7.67645657 5.49040652,7.70134294 5.52042817,7.73175961 C5.55360999,7.76533645 5.58718683,7.8044436 5.62076368,7.84197066 C5.64802017,7.87238733 5.67527667,7.90043387 5.70292819,7.93322067 C5.74045525,7.97825314 5.77837733,8.02960596 5.81629941,8.0793787 C5.84039574,8.11098043 5.86409704,8.13942199 5.88819336,8.17299884 C5.93125073,8.23304213 5.97470311,8.2998008 6.0181555,8.36616445 C6.03711654,8.39539605 6.0564726,8.42146748 6.07543365,8.45148913 C6.13824209,8.55063958 6.20144557,8.65611037 6.26504406,8.76829653 C6.55578002,9.28142971 6.65216532,10.0394763 6.52575838,10.6995576 C6.50482223,10.6975825 6.4842811,10.6944223 6.46334495,10.6912621 C6.31284168,10.6655857 6.16786872,10.6173931 6.03593148,10.5383887 L5.75428101,10.3693195 C5.43036322,10.1749688 5.06733828,10.0777934 4.70431335,10.0777934 C4.32351243,10.0762134 3.95535222,10.1722036 3.62748421,10.3693195 L3.49041168,10.451484 C3.25142356,10.5948768 2.98359885,10.6671658 2.71577414,10.6695359 C2.44755441,10.6671658 2.18012473,10.5952719 1.9411366,10.451484 L1.40983242,10.1323064 C1.33951856,10.0904341 1.26406942,10.0619926 1.18664517,10.0477718 C1.12462676,9.73530963 1.14674798,9.48249575 1.25340383,9.28103469 Z M15.8300993,20.2697482 C15.7902022,21.0471508 15.1490819,21.6562743 14.3708892,21.6562743 L3.28184023,21.6562743 C2.50325247,21.6562743 1.86252728,21.0471508 1.82223507,20.2622427 L1.16491897,10.9231399 L1.50858785,11.1293412 C1.8810933,11.3529235 2.29942128,11.4627395 2.71656419,11.4603694 C3.13410212,11.4627395 3.55203507,11.3529235 3.92454052,11.1293412 L4.06161305,11.0471767 C4.25596373,10.9302503 4.47362068,10.8725771 4.69167265,10.870207 C4.90972463,10.8725771 5.12738158,10.9302503 5.32212728,11.0471767 L5.60377774,11.216246 C5.96008731,11.4299527 6.36379948,11.5215977 6.76277139,11.4998715 C6.79832334,11.4982915 6.8338753,11.4982915 6.86982227,11.4951313 C6.87416751,11.4947363 6.87811773,11.4923661 6.88285799,11.4919711 C7.1526578,11.4615544 7.41732234,11.3766248 7.66144574,11.2375771 C7.684357,11.2292817 7.70884835,11.2288867 7.73017952,11.216246 L8.01182999,11.0471767 C8.20618066,10.9302503 8.42383761,10.8725771 8.64188959,10.870207 C8.85994156,10.8725771 9.07759852,10.9302503 9.27234421,11.0471767 L9.55399468,11.216246 C9.8530261,11.3951908 10.1856344,11.4880209 10.5202177,11.5018466 C10.5269331,11.5022417 10.5340435,11.5030317 10.5407589,11.5030317 C10.6561052,11.5065869 10.7714515,11.5030317 10.8860078,11.4868358 C10.9515814,11.4785404 11.0151799,11.4619495 11.0795685,11.4473337 C11.1107752,11.4398282 11.1419819,11.4331129 11.1727936,11.4240274 C11.3481832,11.3754397 11.5200176,11.3118412 11.6800014,11.2158509 L11.6800014,11.2158509 L11.9616519,11.0467817 C12.1560026,10.9298552 12.3736595,10.8721821 12.5917115,10.8698119 C12.8097635,10.8721821 13.0274204,10.9298552 13.2221661,11.0467817 L13.5038166,11.2158509 C13.8301045,11.4113867 14.1962896,11.507377 14.5620797,11.5057969 C14.568005,11.5057969 14.5743254,11.5069819 14.5802507,11.5069819 C14.9349802,11.5069819 15.2901047,11.4145469 15.6084922,11.2288867 L16.3835247,10.8844277 C16.4001156,10.8769223 16.4119663,10.8627015 16.4273721,10.853221 L16.4878105,10.8263596 L15.8300993,20.2697482 Z" id="Shape" fill-rule="nonzero"></path>
                            <path d="M2.72999492,16.9875129 L5.49514678,16.9875129 C5.71319875,16.9875129 5.89016847,16.8109382 5.89016847,16.5924912 C5.89016847,16.3740442 5.71319875,16.1974695 5.49514678,16.1974695 L2.72999492,16.1974695 C2.51194295,16.1974695 2.33497323,16.3740442 2.33497323,16.5924912 C2.33497323,16.8109382 2.51194295,16.9875129 2.72999492,16.9875129 Z" id="Shape" fill-rule="nonzero"></path>
                            <path d="M2.72999492,18.5675997 L6.28519016,18.5675997 C6.50324214,18.5675997 6.68021186,18.391025 6.68021186,18.172578 C6.68021186,17.954131 6.50324214,17.7775563 6.28519016,17.7775563 L2.72999492,17.7775563 C2.51194295,17.7775563 2.33497323,17.954131 2.33497323,18.172578 C2.33497323,18.391025 2.51194295,18.5675997 2.72999492,18.5675997 Z" id="Shape" fill-rule="nonzero"></path>
                            <path d="M7.07523355,19.3576431 L2.72999492,19.3576431 C2.51194295,19.3576431 2.33497323,19.5342178 2.33497323,19.7526648 C2.33497323,19.9711118 2.51194295,20.1476865 2.72999492,20.1476865 L7.07523355,20.1476865 C7.29328553,20.1476865 7.47025524,19.9711118 7.47025524,19.7526648 C7.47025524,19.5342178 7.29328553,19.3576431 7.07523355,19.3576431 Z" id="Shape" fill-rule="nonzero"></path>
                            <path d="M9.44536371,19.3576431 L8.65532033,19.3576431 C8.43726835,19.3576431 8.26029863,19.5342178 8.26029863,19.7526648 C8.26029863,19.9711118 8.43726835,20.1476865 8.65532033,20.1476865 L9.44536371,20.1476865 C9.66341569,20.1476865 9.84038541,19.9711118 9.84038541,19.7526648 C9.84038541,19.5342178 9.66341569,19.3576431 9.44536371,19.3576431 Z" id="Shape" fill-rule="nonzero"></path>
                        </g>
                    </g>
                    <text id="Target" font-family="Lato-Regular, Lato" font-size="16" font-weight="normal" fill="#4A4A4A">
                        <tspan x="38" y="19">Target</tspan>
                    </text>
                    <text id="$5.41" font-family="OpenSans, Open Sans" font-size="16" font-weight="normal" fill="#4A4A4A">
                        <tspan x="279" y="18">$5.41</tspan>
                    </text>
                    <text id="2:42pm,-Jul-02" font-family="Lato-Regular, Lato" font-size="12" font-weight="normal" fill="#9B9B9B">
                        <tspan x="38" y="36">2:42pm, Jul 02</tspan>
                    </text>
                </g>
            </g>
            <text id="PROJECTED-SPENDING" font-family="Lato-Light, Lato" font-size="16" font-weight="300" fill="#4A4A4A">
                <tspan x="27" y="416">PROJECTED SPENDING</tspan>
            </text>
            <text id="$50" font-family="Lato-Regular, Lato" font-size="12" font-weight="normal" fill="#9B9B9B">
                <tspan x="311" y="176">$50</tspan>
            </text>
            <g id="Group-17" transform="translate(73.000000, 129.000000)">
                <path d="M12,3.00832395 C12,1.34687251 13.3352343,-1.94923288e-15 15.0020055,-1.94923288e-15 L75.8419959,-1.94923288e-15 C77.4999578,-1.94923288e-15 78.8440014,1.34595406 78.8440014,3.00832395 L78.8440014,24.1332337 C78.8440014,25.7946852 77.5015923,27.1415577 75.850049,27.1415577 L53.6119698,27.1415577 C51.9584556,27.1415577 49.862472,28.2448601 48.923837,29.6155232 L45.4220007,34.7291593 L41.993981,29.6260222 C41.0722549,28.2538903 38.9779276,27.1415577 37.320588,27.1415577 L15.0044602,27.1415577 C13.3451426,27.1415577 12,25.7956036 12,24.1332337 L12,3.00832395 Z" id="Rectangle-15" fill="#FFC049"></path>
                <g id="Group-3" transform="translate(0.000000, 38.000000)">
                    <rect id="Rectangle-4" fill="#E7E7E7" x="0" y="0" width="229.880005" height="10"></rect>
                    <rect id="Rectangle-4" fill="#FFC049" x="0" y="0" width="46" height="10"></rect>
                </g>
                <text id="category-budget" font-family="Lato-Regular, Lato" font-size="12" font-weight="normal" fill="#9B9B9B">
                    <tspan x="110" y="76">category budget</tspan>
                </text>
                <text id="$15" font-family="OpenSans, Open Sans" font-size="16" font-weight="normal" fill="#304D6D">
                    <tspan x="78" y="77">$15</tspan>
                </text>
                <text id="$10.00" font-family="OpenSans-Bold, Open Sans" font-size="16" font-weight="bold" fill="#FFFFFF">
                    <tspan x="20" y="20">$10.00</tspan>
                </text>
                <rect id="Rectangle-14" fill="#304D6D" x="68" y="38" width="2" height="40.9536489"></rect>
            </g>
            <path d="M19,386 L356.001484,386" id="Line" stroke="#D8D8D8" stroke-linecap="square"></path>
            <path d="M19,232 L356.001484,232" id="Line" stroke="#D8D8D8" stroke-linecap="square"></path>
            <g id="Group-7" transform="translate(27.000000, 434.000000)">
                <rect id="Rectangle-12" fill="#7DBBEC" opacity="0.206012228" x="249.539572" y="0" width="62.4134214" height="113.889652"></rect>
                <g id="Group-4" transform="translate(70.000000, 38.304394)" stroke-linecap="square">
                    <path d="M0.418798322,19.5 L245.840333,19.5" id="Line" stroke="#E7E7E7"></path>
                    <path d="M0.418798322,60.5 L245.840333,60.5" id="Line" stroke="#4A4A4A" stroke-dasharray="5,5"></path>
                    <path d="M0.418798322,0.5 L245.840333,0.5" id="Line" stroke="#E7E7E7"></path>
                    <path d="M0.418798322,38.5 L245.840333,38.5" id="Line" stroke="#E7E7E7"></path>
                    <path d="M0.418798322,56.5 L245.840333,56.5" id="Line" stroke="#E7E7E7"></path>
                    <path d="M0.418798322,75.5 L245.840333,75.5" id="Line" stroke="#E7E7E7"></path>
                </g>
                <text id="Feb" font-family="Lato-Regular, Lato" font-size="12" font-weight="normal" fill="#4A4A4A">
                    <tspan x="70" y="131">Feb</tspan>
                </text>
                <rect id="Rectangle-9" fill="#FFC049" x="72" y="102.5" width="15" height="11.5"></rect>
                <text id="Mar" font-family="Lato-Regular, Lato" font-size="12" font-weight="normal" fill="#4A4A4A">
                    <tspan x="108" y="131">Mar</tspan>
                </text>
                <rect id="Rectangle-9" fill="#FFC049" x="110.734375" y="102.5" width="15" height="11.5"></rect>
                <text id="Apr" font-family="Lato-Regular, Lato" font-size="12" font-weight="normal" fill="#4A4A4A">
                    <tspan x="148" y="131">Apr</tspan>
                </text>
                <rect id="Rectangle-9" fill="#FFC049" x="149.46875" y="100.667643" width="15" height="13.3323572"></rect>
                <text id="Jul" font-family="Lato-Regular, Lato" font-size="12" font-weight="normal" fill="#4A4A4A">
                    <tspan x="273" y="131">Jul</tspan>
                </text>
                <text id="May" font-family="Lato-Regular, Lato" font-size="12" font-weight="normal" fill="#4A4A4A">
                    <tspan x="185" y="131">May</tspan>
                </text>
                <text id="Jun" font-family="Lato-Regular, Lato" font-size="12" font-weight="normal" fill="#4A4A4A">
                    <tspan x="224" y="131">Jun</tspan>
                </text>
                <rect id="Rectangle-9" fill="#FFC049" x="226.3125" y="99.0043368" width="14.375" height="15"></rect>
                <rect id="Rectangle-9" fill="#FFC049" x="188.203125" y="99" width="14.375" height="15"></rect>
                <rect id="Rectangle-9" fill="#FFC049" x="274.3125" y="102.5" width="14.375" height="11.5"></rect>
                <polyline id="Line-3" stroke="#FFC049" stroke-width="2" stroke-linecap="square" points="79.5148978 102.999398 118.079359 102.999398 157.337526 100.548159 195.412429 99.3511888 233.773934 99.3511888 281.354137 102.999398"></polyline>
                <text id="Expected" font-family="Lato-Regular, Lato" font-size="12" font-weight="normal" fill="#9B9B9B">
                    <tspan x="256" y="17">Expected</tspan>
                </text>
                <path d="M257,72.0001221 C257,70.3432004 258.335247,69 260.00798,69 L302.962786,69 C304.624048,69 305.970766,70.3360431 305.970766,72.0001221 L305.970766,84.9998779 C305.970766,86.6567996 304.629911,88 302.963903,88 L288.298914,88 C286.638269,88 284.389924,89.004727 283.288387,90.2315424 L281.485383,92.239604 L279.727678,90.243946 C278.63615,89.0046488 276.40573,88 274.756037,88 L259.995254,88 C258.341021,88 257,86.6639569 257,84.9998779 L257,72.0001221 Z" id="Rectangle-15" fill="#FFC049"></path>
                <text id="$13.56" font-family="OpenSans-Bold, Open Sans" font-size="11" font-weight="bold" fill="#FFFFFF">
                    <tspan x="264" y="82">$13.56</tspan>
                </text>
                <text id="category-budget" font-family="Lato-Regular, Lato" font-size="12" font-weight="normal" fill="#9B9B9B">
                    <tspan x="5.68434189e-14" y="86">category</tspan>
                    <tspan x="5.68434189e-14" y="101">budget</tspan>
                </text>
                <text id="$15" font-family="OpenSans, Open Sans" font-size="12" font-weight="normal" fill="#4A4A4A">
                    <tspan x="42.2080078" y="102">$15</tspan>
                </text>
            </g>
        </g>
    </g>
</svg>